<?xml version="1.0" standalone="no"?>
<!DOCTYPE svg PUBLIC "-//W3C//DTD SVG 1.1//EN" "http://www.w3.org/Graphics/SVG/1.1/DTD/svg11.dtd" >
<svg xmlns="http://www.w3.org/2000/svg" xmlns:xlink="http://www.w3.org/1999/xlink" version="1.1">
<metadata>
Created by FontForge 20170731 at Thu Dec 23 18:36:34 2021
 By Aleksey,,,
Copyright 2017 Fontstore Pte Ltd. All rights reserved.
</metadata>
<defs>
<font id="NeurialGrotesk-Extrabold" horiz-adv-x="1495" >
  <font-face 
    font-family="Neurial Grotesk Extrabold"
    font-weight="800"
    font-stretch="normal"
    units-per-em="2048"
    panose-1="0 0 9 0 0 0 0 0 0 0"
    ascent="1638"
    descent="-410"
    x-height="1081"
    cap-height="1491"
    bbox="-1434 -539 3641 2257"
    underline-thickness="163"
    underline-position="-398"
    unicode-range="U+0020-FB03"
  />
<missing-glyph horiz-adv-x="1206" 
d="M84 1448h1038v-1448h-1038v1448z" />
    <glyph glyph-name="f_f" unicode="ff" horiz-adv-x="1540" 
d="M1407 1272q-85 0 -114 -33.5t-29 -97.5v-60h235v-311h-235v-770h-361v770h-356v-770h-361v770h-155v311h155v101q0 68 12 123t41.5 103.5t76 81.5t117.5 52t163 19h186v-289h-92q-85 0 -114 -33.5t-29 -97.5v-60h356v101q0 68 12 123t41.5 103.5t76 81.5t117.5 52t163 19
h186v-289h-92z" />
    <glyph glyph-name="fi" unicode="fi" horiz-adv-x="1366" 
d="M1264 1081v-1081h-361v770h-356v-770h-361v770h-155v311h155v101q0 68 12 123t41.5 103.5t76 81.5t117.5 52t163 19h166v-289h-72q-85 0 -114 -33.5t-29 -97.5v-60h717zM903 1561h361v-322h-361v322z" />
    <glyph glyph-name="fl" unicode="fl" horiz-adv-x="1366" 
d="M31 1081h155v101q0 68 12 123t41.5 103.5t76 81.5t117.5 52t163 19h186v-289h-92q-85 0 -114 -33.5t-29 -97.5v-60h235v-311h-235v-770h-361v770h-155v311zM1264 1556v-1556h-361v1556h361z" />
    <glyph glyph-name="f_f_i" unicode="ffi" horiz-adv-x="2082" 
d="M1980 1081v-1081h-360v770h-356v-770h-361v770h-356v-770h-361v770h-155v311h155v101q0 68 12 123t41.5 103.5t76 81.5t117.5 52t163 19h186v-289h-92q-85 0 -114 -33.5t-29 -97.5v-60h356v101q0 68 12 123t41.5 103.5t76 81.5t117.5 52t163 19h166v-289h-72
q-85 0 -114 -33.5t-29 -97.5v-60h716zM1620 1561h360v-322h-360v322z" />
    <glyph glyph-name=".notdef" horiz-adv-x="1206" 
d="M84 1448h1038v-1448h-1038v1448z" />
    <glyph glyph-name=".null" horiz-adv-x="0" 
 />
    <glyph glyph-name="nonmarkingreturn" horiz-adv-x="682" 
 />
    <glyph glyph-name="space" unicode=" " horiz-adv-x="368" 
 />
    <glyph glyph-name="exclam" unicode="!" horiz-adv-x="610" 
d="M141 1094v397h328v-397q0 -339 -41 -607h-246q-41 268 -41 607zM102 0v406h406v-406h-406z" />
    <glyph glyph-name="quotedbl" unicode="&#x22;" horiz-adv-x="962" 
d="M123 1233v258h307v-258q0 -182 -43 -307h-221q-43 125 -43 307zM532 1233v258h308v-258q0 -182 -43 -307h-222q-43 125 -43 307z" />
    <glyph glyph-name="numbersign" unicode="#" horiz-adv-x="1368" 
d="M1280 840h-188l-39 -191h186l-57 -284h-187l-75 -365h-308l76 365h-164l-75 -365h-308l76 365h-186l57 284h186l39 191h-186l57 284h189l76 367h307l-76 -367h164l76 367h307l-76 -367h186zM582 649h163l39 191h-163z" />
    <glyph glyph-name="dollar" unicode="$" horiz-adv-x="1331" 
d="M1235 446q0 -188 -121.5 -307t-318.5 -149v-156h-269v158q-208 34 -324 156.5t-116 306.5h330q0 -78 60.5 -125t189.5 -47q106 0 157 33t51 102q0 55 -36 84t-138 57l-219 59q-39 11 -75 25t-80.5 38t-80.5 57.5t-67.5 76t-49 102t-17.5 127.5q0 172 109 298t306 159v160
h269v-162q83 -14 152.5 -45.5t128.5 -85t92.5 -137.5t33.5 -191h-325q0 177 -222 177q-105 0 -143.5 -34t-38.5 -98q0 -54 41.5 -89.5t147.5 -63.5l215 -58q166 -45 262 -152.5t96 -275.5z" />
    <glyph glyph-name="percent" unicode="%" horiz-adv-x="1947" 
d="M461 645q-169 0 -274 119t-105 313t105.5 314t273.5 120t273.5 -120t105.5 -314t-105.5 -313t-273.5 -119zM360 0l932 1491h297l-930 -1491h-299zM461 895q98 0 98 182q0 183 -98 183q-99 0 -99 -183q0 -182 99 -182zM1487 -20q-169 0 -274 119t-105 313t105.5 314
t273.5 120t273.5 -120t105.5 -314t-105.5 -313t-273.5 -119zM1487 229q98 0 98 183q0 182 -98 182t-98 -182q0 -183 98 -183z" />
    <glyph glyph-name="ampersand" unicode="&#x26;" horiz-adv-x="1525" 
d="M1360 295h115v-295h-150q-101 0 -174 22.5t-133 71.5q-160 -114 -387 -114q-109 0 -207 28.5t-175 82t-122 137t-45 186.5q0 242 266 385l21 10l-25 29q-123 139 -123 290q0 177 130 280t337 103q201 0 320.5 -98t119.5 -256q0 -62 -19 -117.5t-55 -101t-74.5 -80.5
t-88.5 -70l-47 -32l200 -221q43 73 61.5 132.5t18.5 157.5h289q0 -156 -39 -277.5t-117 -228.5q43 -24 103 -24zM680 1260q-57 0 -92 -34t-35 -89q0 -63 76 -146l43 -47l24 19q47 33 79 80t32 98q0 53 -35 86t-92 33zM449 449q0 -90 59 -140.5t149 -50.5q82 0 166 43
l-278 313q-96 -62 -96 -165z" />
    <glyph glyph-name="quotesingle" unicode="'" horiz-adv-x="552" 
d="M123 1233v258h307v-258q0 -182 -43 -307h-221q-43 125 -43 307z" />
    <glyph glyph-name="parenleft" unicode="(" horiz-adv-x="692" 
d="M82 711q-3 276 77 542t240 494h293q-115 -190 -175 -456t-60 -556q0 -289 59 -553.5t172 -455.5h-289q-152 216 -232 468.5t-85 516.5z" />
    <glyph glyph-name="parenright" unicode=")" horiz-adv-x="692" 
d="M236 735q0 289 -60 555.5t-176 456.5h293q160 -228 240 -494t77 -542q-5 -264 -85 -516.5t-232 -468.5h-289q113 191 172.5 455.5t59.5 553.5z" />
    <glyph glyph-name="asterisk" unicode="*" horiz-adv-x="917" 
d="M41 1192l61 170l170 -59q80 -28 107 -48q0 6 -4 47.5t-4 69.5v184h178v-184q0 -73 -10 -117q54 34 108 52l172 57l58 -172l-172 -59q-92 -26 -119 -27q34 -22 84 -88l110 -150l-147 -108l-107 149q-44 49 -65 107q-18 -42 -66 -107l-108 -149l-150 108l117 150q3 4 12 15
t12 15.5t10.5 13t11.5 13t10.5 11t13 11.5t12.5 9q-27 1 -119 27z" />
    <glyph glyph-name="plus" unicode="+" horiz-adv-x="1228" 
d="M1100 821v-315h-328v-334h-315v334h-328v315h328v334h315v-334h328z" />
    <glyph glyph-name="comma" unicode="," horiz-adv-x="569" 
d="M82 0v395h405v-395l-151 -252h-197l129 252h-186z" />
    <glyph glyph-name="hyphen" unicode="-" horiz-adv-x="839" 
d="M82 778h676v-317h-676v317z" />
    <glyph glyph-name="period" unicode="." horiz-adv-x="569" 
d="M82 0v395h405v-395h-405z" />
    <glyph glyph-name="slash" unicode="/" horiz-adv-x="845" 
d="M0 0l532 1491h314l-533 -1491h-313z" />
    <glyph glyph-name="zero" unicode="0" horiz-adv-x="1468" 
d="M727 1511q-205 0 -354.5 -101t-224 -272.5t-74.5 -392.5t74.5 -392.5t224 -272t354.5 -100.5q207 0 360 100.5t230.5 272.5t77.5 392t-77.5 392.5t-230.5 273t-360 100.5zM1032 745q0 -214 -82.5 -334t-222.5 -120q-137 0 -215 119.5t-78 334.5q0 214 78 334.5t215 120.5
q140 0 222.5 -121t82.5 -334z" />
    <glyph glyph-name="one" unicode="1" horiz-adv-x="851" 
d="M707 0h-355v1133l-313 -148v346l313 160h355v-1491z" />
    <glyph glyph-name="two" unicode="2" horiz-adv-x="1218" 
d="M852 526l-264 -194h549v-332h-1049v322l545 442q40 34 60 52t44 46.5t35 58t12 64.5q4 93 -50 144t-138 51q-90 0 -146 -59t-57 -158h-340q0 130 42.5 235t117.5 173t174 104t213 36q159 0 283.5 -55t199 -168.5t74.5 -269.5q0 -86 -22.5 -158t-68.5 -132t-94 -104
t-120 -98z" />
    <glyph glyph-name="three" unicode="3" horiz-adv-x="1241" 
d="M950 764q105 -37 166.5 -125t61.5 -207q0 -140 -74.5 -243.5t-200.5 -156t-285 -52.5q-263 0 -416 148t-153 390h344q0 -119 61 -177t148 -58q89 0 141 46.5t52 121.5t-48 119t-151 44h-133v271h121q93 0 145.5 42.5t52.5 121.5t-51 121t-131 42q-90 0 -150.5 -57.5
t-56.5 -177.5l-330 2q0 243 143 387.5t404 144.5q241 0 391 -116t150 -322q0 -102 -54.5 -183.5t-146.5 -125.5z" />
    <glyph glyph-name="four" unicode="4" horiz-adv-x="1298" 
d="M709 0v252h-668v313l655 926h377v-928h184v-311h-184v-252h-364zM391 563h318v426z" />
    <glyph glyph-name="five" unicode="5" horiz-adv-x="1271" 
d="M690 1040q229 0 374.5 -141.5t145.5 -374.5q0 -126 -45 -229.5t-123.5 -172t-185 -105.5t-229.5 -37q-112 0 -212 31t-180.5 92.5t-128 163.5t-47.5 233h334q0 -98 60.5 -157.5t158.5 -59.5q101 0 162.5 63.5t61.5 169.5q0 107 -62 174.5t-162 67.5q-90 0 -150 -51
t-69 -105h-327l161 889h899v-303h-626l-45 -203q82 55 235 55z" />
    <glyph glyph-name="six" unicode="6" horiz-adv-x="1290" 
d="M717 1032q100 0 191 -33.5t162.5 -96t114 -161.5t42.5 -221q0 -125 -44.5 -228t-121 -170t-176.5 -103.5t-213 -36.5q-84 0 -163 19.5t-160 71.5t-140.5 131t-97 210t-37.5 297q0 242 72.5 422t213 279t334.5 99q220 0 366.5 -118t166.5 -310h-338q-20 61 -74 93t-129 32
q-119 0 -184 -76.5t-62 -191.5q98 92 277 92zM659 285q99 0 163.5 64.5t64.5 168.5t-64 168t-164 64q-99 0 -162 -63.5t-63 -168.5t63 -169t162 -64z" />
    <glyph glyph-name="seven" unicode="7" horiz-adv-x="1107" 
d="M668 1188h-648v303h1067v-281q-231 -285 -368 -600t-170 -610h-352q26 271 150.5 580t320.5 608z" />
    <glyph glyph-name="eight" unicode="8" horiz-adv-x="1298" 
d="M1038 805q81 -54 134 -140t53 -190q0 -220 -158.5 -357.5t-419.5 -137.5q-257 0 -415 134.5t-158 352.5q0 102 54 194t134 146q-57 49 -97 125.5t-40 167.5q0 181 148 296t376 115q230 0 379.5 -116t149.5 -299q0 -90 -40.5 -166.5t-99.5 -124.5zM653 1247
q-83 0 -135.5 -45.5t-52.5 -116.5q0 -72 52.5 -117.5t135.5 -45.5q80 0 131.5 45.5t51.5 117.5q0 70 -51.5 116t-131.5 46zM653 272q94 0 154.5 55.5t60.5 141.5q0 80 -60.5 132t-154.5 52q-96 0 -158.5 -52t-62.5 -132q0 -86 62 -141.5t159 -55.5z" />
    <glyph glyph-name="nine" unicode="9" horiz-adv-x="1292" 
d="M635 1511q87 0 165.5 -21t156.5 -75t134 -136t91 -214.5t35 -300.5q0 -379 -152 -580.5t-451 -201.5q-237 0 -375.5 115.5t-164.5 312.5h336q13 -65 72.5 -98t135.5 -33q107 0 166.5 65t59.5 180v21q-99 -86 -264 -86q-99 0 -190.5 33.5t-165 96t-117.5 163t-44 223.5
q0 165 77 288.5t205.5 185.5t289.5 62zM629 743q99 0 163 63.5t64 168.5t-64 170t-163 65t-163.5 -65t-64.5 -170q0 -104 64 -168t164 -64z" />
    <glyph glyph-name="colon" unicode=":" horiz-adv-x="569" 
d="M82 686v395h405v-395h-405zM82 0v395h405v-395h-405z" />
    <glyph glyph-name="semicolon" unicode=";" horiz-adv-x="569" 
d="M82 686v395h405v-395h-405zM82 0v395h405v-395l-151 -252h-197l129 252h-186z" />
    <glyph glyph-name="less" unicode="&#x3c;" horiz-adv-x="1228" 
d="M1061 1210v-344l-621 -204l621 -197v-350l-897 336v423z" />
    <glyph glyph-name="equal" unicode="=" horiz-adv-x="1228" 
d="M170 1059h889v-287h-889v287zM170 580h889v-287h-889v287z" />
    <glyph glyph-name="greater" unicode="&#x3e;" horiz-adv-x="1228" 
d="M168 115v344l620 205l-620 196v350l897 -333v-424z" />
    <glyph glyph-name="question" unicode="?" horiz-adv-x="1148" 
d="M51 1012q0 105 33.5 194.5t98.5 158t169.5 107.5t237.5 39q229 0 368.5 -120.5t139.5 -290.5q0 -79 -23.5 -143t-61.5 -106t-83.5 -77.5t-91 -66t-83.5 -62t-61.5 -75t-23.5 -95.5h-305q0 84 19 152t49.5 112t67.5 79.5t74 62.5t67.5 53.5t49.5 59.5t19 73
q0 24 -6.5 46.5t-21.5 44t-44 35t-68 13.5q-81 1 -118 -50.5t-37 -143.5h-365zM315 0v395h406v-395h-406z" />
    <glyph glyph-name="at" unicode="@" horiz-adv-x="1951" 
d="M1022 1511q241 0 435.5 -90.5t308.5 -260.5t114 -390q0 -270 -136 -436t-331 -166q-119 0 -191.5 52t-72.5 149q-36 -56 -108.5 -100t-170.5 -44q-155 0 -260.5 109.5t-105.5 290.5q0 96 32 186t89 159.5t143.5 111.5t187.5 42q104 0 178 -40.5t109 -120.5l29 104h174
l-123 -592q-31 -145 111 -145q41 0 83 27.5t78 79t59 138.5t23 195q0 265 -176.5 421.5t-470.5 156.5q-225 0 -397 -95t-264.5 -265t-92.5 -390q0 -297 165 -456.5t462 -159.5q219 0 367 69l55 -145q-173 -90 -430 -90q-249 0 -435.5 94.5t-287 270t-100.5 409.5
q0 153 43.5 292.5t126.5 253.5t197.5 198t264 130.5t318.5 46.5zM891 406q192 -18 256 243q36 148 -14.5 228.5t-145.5 80.5q-75 0 -134 -52t-87.5 -126.5t-28.5 -154.5q0 -99 42.5 -156t111.5 -63z" />
    <glyph glyph-name="A" unicode="A" 
d="M1077 0l-96 279h-494l-100 -279h-371l559 1491h347l557 -1491h-402zM584 547h303l-148 428z" />
    <glyph glyph-name="B" unicode="B" horiz-adv-x="1388" 
d="M1112 770q106 -42 163.5 -136t57.5 -210q0 -201 -141.5 -312.5t-386.5 -111.5h-682v1491h645q253 0 384.5 -107.5t131.5 -302.5q0 -97 -40 -183t-132 -128zM913 1036q0 63 -43 104.5t-131 41.5h-252v-299h252q88 0 131 44t43 109zM776 309q80 0 127 35.5t47 106.5
q0 72 -47.5 111.5t-126.5 39.5h-289v-293h289z" />
    <glyph glyph-name="C" unicode="C" horiz-adv-x="1546" 
d="M793 313q110 0 196 54t117 155h399q-50 -245 -242.5 -392.5t-474.5 -147.5q-217 0 -382 91.5t-255 261.5t-90 396q0 224 87.5 399.5t258.5 278t400 102.5q273 0 460 -143t238 -395h-399q-32 100 -113.5 153.5t-193.5 53.5q-165 0 -263 -117.5t-98 -314.5q0 -199 95 -317
t260 -118z" />
    <glyph glyph-name="D" unicode="D" horiz-adv-x="1515" 
d="M123 0h579q170 0 311 54t237.5 151t150 235.5t53.5 304.5q0 219 -91.5 388t-263 263.5t-397.5 94.5h-579v-1491zM487 315v861h179q190 0 297.5 -107.5t107.5 -310.5q0 -206 -109 -324.5t-296 -118.5h-179z" />
    <glyph glyph-name="E" unicode="E" horiz-adv-x="1243" 
d="M487 315h695v-315h-1059v1491h1040v-315h-676v-275h500v-307h-500v-279z" />
    <glyph glyph-name="F" unicode="F" horiz-adv-x="1193" 
d="M1143 1176h-656v-285h527v-307h-527v-584h-364v1491h1020v-315z" />
    <glyph glyph-name="G" unicode="G" horiz-adv-x="1626" 
d="M735 879h778v-879h-307l-24 150q-153 -170 -437 -170q-146 0 -271 49.5t-217 141t-144 230t-52 308.5q0 238 93 419.5t265 282t400 100.5q270 0 455.5 -138.5t228.5 -375.5h-403q-32 92 -110.5 137.5t-178.5 45.5q-169 0 -270 -114t-101 -323q0 -207 98 -321.5
t263 -114.5q57 0 112.5 14.5t108.5 45t88 87.5t39 134h-414v291z" />
    <glyph glyph-name="H" unicode="H" horiz-adv-x="1513" 
d="M1026 598h-539v-598h-364v1491h364v-565h539v565h365v-1491h-365v598z" />
    <glyph glyph-name="I" unicode="I" horiz-adv-x="610" 
d="M487 1491v-1491h-364v1491h364z" />
    <glyph glyph-name="J" unicode="J" horiz-adv-x="1222" 
d="M385 514q0 -205 184 -205q84 0 130 52t46 153v977h365v-983q0 -133 -42 -236t-115.5 -165.5t-167.5 -94.5t-205 -32q-258 0 -403.5 132t-145.5 402h354z" />
    <glyph glyph-name="K" unicode="K" horiz-adv-x="1488" 
d="M123 0v1491h364v-610l553 610h428l-575 -629l561 -862h-467l-371 575l-129 -133v-442h-364z" />
    <glyph glyph-name="L" unicode="L" horiz-adv-x="1189" 
d="M487 332h641v-332h-1005v1491h364v-1159z" />
    <glyph glyph-name="M" unicode="M" horiz-adv-x="1880" 
d="M952 397l363 1094h442v-1491h-358v406q0 328 22 522l-311 -928h-332l-315 983q26 -224 18 -577v-406h-358v1491h467z" />
    <glyph glyph-name="N" unicode="N" horiz-adv-x="1492" 
d="M123 0v1491h364l521 -893v893h362v-1491h-362l-521 862v-862h-364z" />
    <glyph glyph-name="O" unicode="O" horiz-adv-x="1593" 
d="M797 -20q-216 0 -384 96.5t-260 270.5t-92 398t92 398.5t260 271t384 96.5t383.5 -96.5t259.5 -271t92 -398.5t-92 -398t-259.5 -270.5t-383.5 -96.5zM797 324q166 0 256 111t90 310t-90 310.5t-256 111.5t-256 -111.5t-90 -310.5q0 -200 90 -310.5t256 -110.5z" />
    <glyph glyph-name="P" unicode="P" horiz-adv-x="1357" 
d="M123 0v1491h649q143 0 262.5 -62t190.5 -177.5t71 -262.5q0 -149 -72.5 -266.5t-191.5 -179.5t-260 -62h-276v-481h-373zM496 791h202q101 0 157 51t56 145q0 93 -55.5 141t-157.5 48h-202v-385z" />
    <glyph glyph-name="Q" unicode="Q" horiz-adv-x="1638" 
d="M1513 295h84v-295h-157q-84 0 -139 17.5t-103 68.5q-176 -106 -401 -106q-216 0 -384 96.5t-260 270.5t-92 398t92 398.5t260 271t384 96.5t383.5 -96.5t259.5 -271t92 -398.5q0 -241 -109 -426q31 -24 90 -24zM451 745q0 -206 89.5 -319t256.5 -113q96 0 166 37l-9 10
q-38 43 -61 53.5t-80 10.5h-104v289h211q73 0 109.5 -13t86.5 -65l17 -17q10 65 10 127q0 199 -90 310.5t-256 111.5t-256 -111.5t-90 -310.5z" />
    <glyph glyph-name="R" unicode="R" horiz-adv-x="1419" 
d="M123 0v1491h711q140 0 256.5 -59t187 -173.5t70.5 -263.5q0 -171 -77 -297.5t-200 -171.5l254 -526h-410l-217 477h-211v-477h-364zM487 778h273q100 0 152.5 52.5t52.5 150.5q0 195 -205 195h-273v-398z" />
    <glyph glyph-name="S" unicode="S" horiz-adv-x="1359" 
d="M1298 446q0 -146 -81.5 -253t-217 -159t-307.5 -52q-296 0 -467.5 129t-171.5 344h367q0 -77 67.5 -124.5t202.5 -47.5q108 0 168 41.5t60 107.5q0 59 -37.5 90.5t-132.5 50.5l-230 45q-206 41 -318 148.5t-112 277.5q0 96 38.5 180t111 148.5t185.5 101.5t253 37
q74 0 142.5 -9.5t137 -30.5t125 -58t100.5 -87t68.5 -122t24.5 -160h-354q0 49 -20 84.5t-55 55t-77.5 28.5t-93.5 9q-103 0 -157 -39t-54 -99q0 -55 42.5 -89t153.5 -56l230 -45q209 -41 309 -151.5t100 -295.5z" />
    <glyph glyph-name="T" unicode="T" horiz-adv-x="1318" 
d="M842 1176v-1176h-365v1176h-436v315h1237v-315h-436z" />
    <glyph glyph-name="U" unicode="U" horiz-adv-x="1480" 
d="M477 1491v-938q0 -125 74.5 -192.5t189.5 -67.5t190 67.5t75 192.5v938h370v-891q0 -288 -167.5 -454t-467.5 -166q-303 0 -470 165.5t-167 454.5v891h373z" />
    <glyph glyph-name="V" unicode="V" horiz-adv-x="1503" 
d="M762 442l338 1049h391l-551 -1491h-377l-551 1491h396z" />
    <glyph glyph-name="W" unicode="W" horiz-adv-x="2191" 
d="M410 0l-385 1491h385l219 -1036l278 1036h408l246 -1036l235 1036h371l-391 -1491h-410l-266 1024l-281 -1024h-409z" />
    <glyph glyph-name="X" unicode="X" horiz-adv-x="1490" 
d="M1458 0h-424l-299 514l-289 -514h-413l432 758l-428 733h422l276 -514l289 514h414l-434 -733z" />
    <glyph glyph-name="Y" unicode="Y" 
d="M551 541l-551 950h434l301 -569l328 569h432l-580 -950v-541h-364v541z" />
    <glyph glyph-name="Z" unicode="Z" horiz-adv-x="1255" 
d="M539 315h649v-315h-1116v272l665 904h-645v315h1094v-272z" />
    <glyph glyph-name="bracketleft" unicode="[" horiz-adv-x="718" 
d="M123 1782h534v-291h-243v-1491h243v-291h-534v2073z" />
    <glyph glyph-name="backslash" unicode="\" horiz-adv-x="868" 
d="M868 0h-356l-512 1561h356z" />
    <glyph glyph-name="bracketright" unicode="]" horiz-adv-x="718" 
d="M301 0v1491h-240v291h535v-2073h-535v291h240z" />
    <glyph glyph-name="asciicircum" unicode="^" horiz-adv-x="1228" 
d="M211 969l289 522h233l285 -522h-311l-89 172l-94 -172h-313z" />
    <glyph glyph-name="underscore" unicode="_" horiz-adv-x="1161" 
d="M0 -20h1161v-318h-1161v318z" />
    <glyph glyph-name="grave" unicode="`" horiz-adv-x="471" 
d="M451 1323h-256l-218 336h283z" />
    <glyph glyph-name="a" unicode="a" horiz-adv-x="1220" 
d="M1135 258h45v-258h-189q-168 0 -209 115q-95 -135 -327 -135q-182 0 -288 88.5t-106 246.5q0 154 104 242t296 88h260v41q0 60 -41.5 97.5t-112.5 37.5q-72 0 -119 -37t-47 -94h-319q-6 187 133 299.5t367 112.5q70 0 135 -11t133 -40.5t117.5 -75.5t81.5 -123t32 -176
v-369q0 -49 54 -49zM719 387v35h-184q-105 0 -105 -82q0 -84 127 -84q162 0 162 131z" />
    <glyph glyph-name="b" unicode="b" horiz-adv-x="1361" 
d="M782 1104q241 0 374.5 -152.5t133.5 -408.5q0 -266 -138 -414.5t-370 -148.5q-116 0 -201 42.5t-122 104.5l-17 -127h-340v1556h361v-587q38 60 123 97.5t196 37.5zM694 301q100 0 164 65.5t64 176.5q0 110 -64 174.5t-164 64.5t-162.5 -64t-62.5 -175t62.5 -176.5
t162.5 -65.5z" />
    <glyph glyph-name="c" unicode="c" horiz-adv-x="1214" 
d="M795 627q-9 82 -55 125t-113 43q-90 0 -140.5 -70.5t-50.5 -183.5q0 -127 49 -190.5t131 -63.5q70 0 112.5 40.5t62.5 125.5h380q-33 -224 -180.5 -351t-361.5 -127q-251 0 -404 155.5t-153 410.5q0 254 153.5 408.5t405.5 154.5q220 0 367 -125.5t176 -351.5h-379z" />
    <glyph glyph-name="d" unicode="d" horiz-adv-x="1361" 
d="M899 1556h361v-1556h-340l-17 127q-37 -62 -122 -104.5t-201 -42.5q-241 0 -374.5 152.5t-133.5 410.5q0 265 138 413t370 148q111 0 196 -37.5t123 -97.5v587zM668 301q100 0 162.5 65.5t62.5 176.5t-62.5 175t-162.5 64t-164 -64.5t-64 -174.5q0 -111 64 -176.5
t164 -65.5z" />
    <glyph glyph-name="e" unicode="e" horiz-adv-x="1236" 
d="M1165 551v-107h-733q3 -84 59 -133t140 -49q134 0 168 100h360q-31 -173 -180 -280t-361 -107q-246 0 -396 155.5t-150 410.5q0 254 150 408.5t396 154.5q247 0 397 -150.5t150 -402.5zM618 827q-75 0 -127.5 -40.5t-58.5 -116.5h375q-7 76 -60.5 116.5t-128.5 40.5z" />
    <glyph glyph-name="f" unicode="f" horiz-adv-x="823" 
d="M31 1081h155v101q0 68 12 123t41.5 103.5t76 81.5t117.5 52t163 19h186v-289h-92q-85 0 -114 -33.5t-29 -97.5v-60h235v-311h-235v-770h-361v770h-155v311z" />
    <glyph glyph-name="g" unicode="g" horiz-adv-x="1310" 
d="M881 1081h327v-970q0 -253 -156 -397t-417 -144q-226 0 -375 112t-166 295h342q35 -116 201 -116q101 0 161 52.5t60 139.5v88q-90 -114 -295 -114q-224 0 -357.5 147.5t-133.5 390.5q0 245 135 391t360 146q200 0 291 -123zM651 340q94 0 151.5 63t57.5 158
q0 97 -57.5 159t-151.5 62q-93 0 -152 -61.5t-59 -157.5q0 -97 59 -160t152 -63z" />
    <glyph glyph-name="h" unicode="h" horiz-adv-x="1304" 
d="M760 1104q64 0 124 -13.5t121 -49.5t105.5 -91t73 -145.5t28.5 -206.5v-598h-360v545q0 117 -51 177.5t-148 57.5q-92 -3 -141 -57t-49 -154v-569h-361v1556h361v-571q88 119 297 119z" />
    <glyph glyph-name="i" unicode="i" horiz-adv-x="565" 
d="M109 1210v326h342v-326h-342zM102 0v1081h361v-1081h-361z" />
    <glyph glyph-name="j" unicode="j" horiz-adv-x="585" 
d="M131 1210v326h342v-326h-342zM483 -6q0 -203 -105 -303.5t-327 -100.5h-127v314h101q50 0 74 25t24 81v1071h360v-1087z" />
    <glyph glyph-name="k" unicode="k" horiz-adv-x="1267" 
d="M102 0v1556h361v-839l354 366h440l-452 -452l452 -631h-450l-262 377l-72 -70v-307h-371z" />
    <glyph glyph-name="l" unicode="l" horiz-adv-x="565" 
d="M463 1556v-1556h-361v1556h361z" />
    <glyph glyph-name="m" unicode="m" horiz-adv-x="1921" 
d="M1399 1102q63 0 123 -15.5t116 -50t98 -85t67.5 -126.5t25.5 -168v-659h-361v584q0 100 -43 151t-120 51q-74 0 -118.5 -49t-47.5 -151v-584h-346v567q0 115 -44.5 166t-119.5 51q-77 0 -121.5 -49t-44.5 -153v-582h-361v1081h340l31 -110q80 131 279 131q225 0 323 -168
q49 83 134.5 125.5t189.5 42.5z" />
    <glyph glyph-name="n" unicode="n" horiz-adv-x="1296" 
d="M766 1102q207 0 322.5 -125t115.5 -336v-641h-360v565q0 114 -49 174t-140 60q-94 0 -143 -60t-49 -174v-565h-361v1081h340l17 -104q90 125 307 125z" />
    <glyph glyph-name="o" unicode="o" horiz-adv-x="1294" 
d="M72 543q0 250 162 406.5t413 156.5t413.5 -156.5t162.5 -406.5q0 -252 -162 -407.5t-414 -155.5t-413.5 155.5t-161.5 407.5zM436 545q0 -120 57 -191t154 -71t154 71t57 191q0 118 -57 188t-154 70t-154 -70t-57 -188z" />
    <glyph glyph-name="p" unicode="p" horiz-adv-x="1361" 
d="M782 1102q232 0 370 -148.5t138 -414.5q0 -257 -133.5 -409.5t-374.5 -152.5q-111 0 -196 38t-123 98v-523h-361v1491h340l17 -127q37 62 122 105t201 43zM694 299q100 0 164 65t64 175t-64 175.5t-164 65.5t-162.5 -65t-62.5 -176t62.5 -175.5t162.5 -64.5z" />
    <glyph glyph-name="q" unicode="q" horiz-adv-x="1361" 
d="M920 1083h340v-1491h-361v523q-38 -60 -123 -97.5t-196 -37.5q-241 0 -374.5 152.5t-133.5 408.5q0 266 138 414.5t370 148.5q116 0 201 -43t122 -105zM668 301q100 0 162.5 64.5t62.5 175.5t-62.5 176t-162.5 65t-164 -65.5t-64 -175.5t64 -175t164 -65z" />
    <glyph glyph-name="r" unicode="r" horiz-adv-x="880" 
d="M696 1081h154v-315h-176q-118 0 -161.5 -58t-43.5 -176v-532h-360v1081h340l34 -106q64 106 213 106z" />
    <glyph glyph-name="s" unicode="s" horiz-adv-x="1089" 
d="M35 350h348q0 -56 49.5 -88.5t118.5 -32.5q127 0 127 74q0 38 -29.5 60.5t-111.5 39.5l-199 41q-277 56 -277 314q0 102 65.5 181t174 121t238.5 42q218 0 356.5 -99.5t138.5 -259.5h-350q0 50 -40.5 79.5t-104.5 29.5q-59 0 -89 -21t-30 -55q0 -33 30.5 -49t106.5 -33
l193 -43q294 -65 294 -315q0 -117 -69 -199.5t-176.5 -119.5t-241.5 -37q-146 0 -264 45t-188 130t-70 195z" />
    <glyph glyph-name="t" unicode="t" horiz-adv-x="829" 
d="M514 0q-178 0 -264 93.5t-86 254.5v418h-152v315h70q47 0 64.5 26.5t17.5 86.5v190h360v-303h244v-315h-244v-330q0 -75 23 -99t92 -24h129v-313h-254z" />
    <glyph glyph-name="u" unicode="u" horiz-adv-x="1232" 
d="M793 1083h337v-1083h-331l-15 96q-90 -116 -245 -116q-211 0 -329 126t-118 336v641h338v-600q0 -101 50 -151t143 -47q170 6 170 204v594z" />
    <glyph glyph-name="v" unicode="v" horiz-adv-x="1245" 
d="M377 1083l241 -729l232 729h385l-416 -1083h-413l-396 1083h367z" />
    <glyph glyph-name="w" unicode="w" horiz-adv-x="1753" 
d="M399 1081l138 -690l155 690h381l146 -694l135 694h379l-293 -1081h-396l-157 711l-178 -711h-398l-291 1081h379z" />
    <glyph glyph-name="x" unicode="x" horiz-adv-x="1273" 
d="M37 0l348 567l-358 514h422l188 -307l188 307h422l-358 -510l348 -571h-414l-186 346l-186 -346h-414z" />
    <glyph glyph-name="y" unicode="y" horiz-adv-x="1243" 
d="M393 1081l242 -735l231 735h367l-451 -1251q-22 -61 -56.5 -105.5t-72.5 -70t-88.5 -40.5t-95 -19.5t-100.5 -4.5h-291v316h291q65 0 65 53q0 25 -18 74l-406 1048h383z" />
    <glyph glyph-name="z" unicode="z" horiz-adv-x="1069" 
d="M530 315h463v-315h-921v311l467 455h-463v315h921v-311z" />
    <glyph glyph-name="braceleft" unicode="{" horiz-adv-x="694" 
d="M432 1407v-461q0 -66 -26 -120.5t-70 -77.5q96 -63 96 -201v-459q0 -54 21.5 -71t60.5 -17h119v-291h-162q-156 0 -240 85.5t-84 250.5v424q0 77 -34 110t-82 33v271q48 0 82 33t34 110v424q0 165 84 250.5t240 85.5h162v-291h-119q-39 0 -60.5 -17t-21.5 -71z" />
    <glyph glyph-name="bar" unicode="|" horiz-adv-x="575" 
d="M168 -170v1810h240v-1810h-240z" />
    <glyph glyph-name="braceright" unicode="}" horiz-adv-x="694" 
d="M223 1786q156 0 240 -85.5t84 -250.5v-424q0 -77 34.5 -110t82.5 -33v-271q-48 0 -82.5 -33t-34.5 -110v-424q0 -165 -84 -250.5t-240 -85.5h-162v291h119q39 0 60.5 17t21.5 71v459q0 138 96 201q-44 23 -70 77.5t-26 120.5v461q0 54 -21.5 71t-60.5 17h-119v291h162z
" />
    <glyph glyph-name="asciitilde" unicode="~" horiz-adv-x="1228" 
d="M676 682q49 -45 73 -60.5t58 -15.5q38 0 57.5 35.5t9.5 103.5h254q20 -176 -59 -290.5t-227 -114.5q-92 0 -154 29.5t-135 97.5q-49 45 -73 60.5t-58 15.5q-38 0 -58 -36t-10 -104h-254q-20 176 59.5 291t227.5 115q91 0 153 -29.5t136 -97.5z" />
    <glyph glyph-name="exclamdown" unicode="&#xa1;" horiz-adv-x="610" 
d="M102 1532h406v-406h-406v406zM141 438q0 338 41 606h246q41 -268 41 -606v-438h-328v438z" />
    <glyph glyph-name="cent" unicode="&#xa2;" horiz-adv-x="1212" 
d="M584 485q122 0 159 125h367q-30 -175 -137 -288t-279 -140v-182h-227v184q-198 35 -308 182t-110 373q0 223 110 370.5t308 182.5v199h227v-197q175 -27 283 -142t135 -292h-364q-38 133 -164 133q-87 0 -135 -67.5t-48 -186.5t48 -186.5t135 -67.5z" />
    <glyph glyph-name="sterling" unicode="&#xa3;" horiz-adv-x="1376" 
d="M987 444h307q0 -97 -21 -175t-66 -140t-123 -95.5t-185 -33.5h-752v289q77 6 139 62.5t62 123.5q0 57 -26 127h-199v234h90q-53 123 -53 235q0 192 139 316t369 124q76 0 146 -12.5t140 -44t121 -79.5t83 -126.5t32 -177.5h-354q-2 60 -39 103.5t-113 44.5
q-71 2 -118.5 -40.5t-47.5 -115.5q0 -36 12 -78.5t23.5 -69.5t36.5 -79h348v-234h-254q10 -48 10 -90q0 -116 -96 -205h250q69 0 104 35.5t35 101.5z" />
    <glyph glyph-name="currency" unicode="&#xa4;" horiz-adv-x="1617" 
d="M1401 721q0 -200 -121 -359l190 -188l-161 -162l-199 199q-141 -82 -301 -82q-163 0 -299 82l-197 -199l-161 162l188 186q-125 160 -125 361q0 200 123 358l-186 185l161 161l195 -194q141 82 301 82q162 0 305 -84l195 196l161 -161l-188 -187q119 -161 119 -356z
M809 461q104 0 177 75.5t73 184.5t-73 184.5t-177 75.5t-178 -75.5t-74 -184.5q0 -108 74.5 -184t177.5 -76z" />
    <glyph glyph-name="yen" unicode="&#xa5;" horiz-adv-x="1558" 
d="M41 1491h436l301 -590l328 590h412l-424 -727h180v-234h-316v-94h316v-233h-316v-203h-364v203h-307v233h307v94h-307v234h172z" />
    <glyph glyph-name="brokenbar" unicode="&#xa6;" horiz-adv-x="575" 
d="M168 895v745h240v-745h-240zM168 -170v745h240v-745h-240z" />
    <glyph glyph-name="section" unicode="&#xa7;" horiz-adv-x="1136" 
d="M825 553q136 -85 136 -246q0 -159 -118.5 -243t-312.5 -84q-211 0 -337.5 97.5t-126.5 260.5h315q0 -56 35.5 -86.5t97.5 -30.5q49 0 78 18t29 54q0 32 -23 48.5t-68 31.5l-192 63q-70 24 -120 58t-76.5 72.5t-38 76.5t-11.5 78q0 157 135 223q-125 86 -125 236
t116 240.5t306 90.5q194 0 313 -95.5t119 -250.5h-311q0 49 -31.5 77t-83.5 28q-43 0 -69.5 -20.5t-26.5 -51.5q0 -14 5.5 -25t13 -17.5t24.5 -14t28.5 -11.5t37.5 -12l143 -45q151 -48 219 -125t68 -184q0 -142 -148 -211zM393 756q0 -17 7.5 -31t17 -22.5t28 -16.5t32 -12
t36.5 -10q47 -12 82 7.5t35 59.5q0 27 -13.5 45.5t-29.5 26.5t-45 18q-79 22 -114.5 2t-35.5 -67z" />
    <glyph glyph-name="dieresis" unicode="&#xa8;" horiz-adv-x="960" 
d="M98 1327v297h312v-297h-312zM559 1327v297h311v-297h-311z" />
    <glyph glyph-name="copyright" unicode="&#xa9;" horiz-adv-x="1701" 
d="M854 1509q-209 0 -385.5 -103t-279.5 -279.5t-103 -385.5q0 -153 61.5 -294t164.5 -243t245 -163t297 -61t296 60.5t243 162t162.5 242.5t60.5 296q0 210 -100.5 386.5t-276 279t-385.5 102.5zM1415 737q0 -153 -75 -280.5t-205 -201t-285 -73.5q-154 0 -283 74.5
t-203.5 202.5t-74.5 278q0 116 44.5 222t119.5 182.5t179 122t218 45.5q154 0 284 -76.5t205.5 -208t75.5 -287.5zM444 737q0 194 113.5 317.5t308.5 123.5q155 0 260.5 -81t133.5 -223h-226q-18 56 -66 86.5t-110 30.5q-93 0 -147 -66.5t-54 -179.5t53.5 -178t147.5 -65
q63 0 110.5 29.5t65.5 86.5h226q-28 -138 -137 -221.5t-267 -83.5q-186 0 -299 115.5t-113 308.5z" />
    <glyph glyph-name="ordfeminine" unicode="&#xaa;" horiz-adv-x="548" 
d="M283 1516q100 0 157.5 -58.5t57.5 -165.5v-293h-117l-14 45q-14 -23 -51.5 -40t-84.5 -17q-75 0 -127.5 44.5t-52.5 121.5q0 70 45.5 113t134.5 43h140v14q0 40 -27 62t-72 22q-43 0 -70.5 -18.5t-27.5 -49.5h-113q0 47 20.5 82.5t54 55.5t71 29.5t76.5 9.5zM260 1098
q48 0 79.5 23.5t31.5 64.5v35h-111q-82 0 -82 -62q0 -61 82 -61z" />
    <glyph glyph-name="guillemotleft" unicode="&#xab;" horiz-adv-x="1468" 
d="M455 115l-389 489l389 477h370l-387 -477l387 -489h-370zM1042 115l-389 489l389 477h371l-387 -477l387 -489h-371z" />
    <glyph glyph-name="logicalnot" unicode="&#xac;" horiz-adv-x="1228" 
d="M129 752h930v-592h-303v276h-627v316z" />
    <glyph glyph-name="registered" unicode="&#xae;" horiz-adv-x="1112" 
d="M1030 1036q0 -130 -60.5 -238.5t-170 -172.5t-244.5 -64q-199 0 -336 139t-137 336q0 195 137 335t336 140q136 0 245.5 -65t169.5 -173t60 -237zM893 1036q0 143 -92 240.5t-246 97.5q-150 0 -242 -97.5t-92 -240.5q0 -142 92 -239t242 -97q157 0 247.5 96t90.5 240z
M514 979h31l73 -154h138l-90 170q79 39 79 129q0 65 -44.5 104.5t-108.5 39.5h-201v-443h123v154zM565 1163q58 0 58 -47q0 -49 -58 -49h-51v96h51z" />
    <glyph glyph-name="macron" unicode="&#xaf;" horiz-adv-x="808" 
d="M68 1599h673v-227h-673v227z" />
    <glyph glyph-name="degree" unicode="&#xb0;" horiz-adv-x="765" 
d="M381 887q-134 0 -227 90.5t-93 220.5q0 131 93.5 222t226.5 91q135 0 229.5 -91.5t94.5 -221.5t-94.5 -220.5t-229.5 -90.5zM383 1075q53 0 89 36.5t36 88.5t-36 88.5t-89 36.5t-89 -36.5t-36 -88.5t36 -88.5t89 -36.5z" />
    <glyph glyph-name="plusminus" unicode="&#xb1;" horiz-adv-x="1228" 
d="M774 989h330v-315h-330v-228h-315v228h-334v315h334v225h315v-225zM125 0v315h979v-315h-979z" />
    <glyph glyph-name="acute" unicode="&#xb4;" horiz-adv-x="477" 
d="M80 1323l190 336h283l-217 -336h-256z" />
    <glyph glyph-name="uni00B5" unicode="&#xb5;" horiz-adv-x="1413" 
d="M1257 307l62 -2v-305h-137q-80 0 -149 26t-101 87q-34 -59 -113 -96t-172 -37q-69 0 -125.5 19.5t-81.5 53.5v-463h-338v1491h338v-598q0 -94 50 -146t135 -52q91 0 139.5 57.5t48.5 140.5v598h338v-651q0 -66 21 -94t85 -29z" />
    <glyph glyph-name="paragraph" unicode="&#xb6;" horiz-adv-x="1609" 
d="M1022 -389v1532h-199v-1532h-344v1104h-14q-72 0 -140 25.5t-122 72.5t-87 119.5t-34 159.5q-1 180 107.5 289.5t275.5 109.5h1053v-348h-152v-1532h-344z" />
    <glyph glyph-name="periodcentered" unicode="&#xb7;" horiz-adv-x="712" 
d="M358 399q-94 0 -160.5 66.5t-66.5 157.5q0 95 66 161t161 66q93 0 158.5 -66t65.5 -161q0 -91 -66 -157.5t-158 -66.5z" />
    <glyph glyph-name="cedilla" unicode="&#xb8;" horiz-adv-x="593" 
d="M256 12l113 -26l-23 -82q88 2 140.5 -38.5t52.5 -123.5q0 -77 -60 -124.5t-149 -47.5q-122 0 -178 49.5t-56 132.5h154q6 -43 55 -43q24 0 37.5 13.5t13.5 35.5q0 30 -26 43.5t-64 5.5l-63 37z" />
    <glyph glyph-name="ordmasculine" unicode="&#xba;" horiz-adv-x="620" 
d="M51 1190q0 117 72.5 191.5t187.5 74.5q114 0 186 -74.5t72 -191.5q0 -115 -72.5 -189.5t-185.5 -74.5q-115 0 -187.5 74.5t-72.5 189.5zM178 1190q0 -68 35 -111t98 -43t97 43t34 111q0 70 -34 113t-97 43t-98 -43t-35 -113z" />
    <glyph glyph-name="guillemotright" unicode="&#xbb;" horiz-adv-x="1468" 
d="M428 1083l387 -477l-387 -489h-373l389 489l-389 477h373zM1016 1083l387 -477l-387 -489h-373l389 489l-389 477h373z" />
    <glyph glyph-name="onequarter" unicode="&#xbc;" horiz-adv-x="1519" 
d="M383 717h-180v596l-174 -78v172l174 84h180v-774zM137 0l942 1491h211l-942 -1491h-211zM1206 0v133h-356v150l344 491h184v-487h107v-154h-107v-133h-172zM1044 287h162v250z" />
    <glyph glyph-name="onehalf" unicode="&#xbd;" horiz-adv-x="1564" 
d="M203 717v596l-174 -78v172l174 84h180v-774h-180zM1079 1491h211l-942 -1491h-211zM1389 281l-138 -113h271v-168h-533v166l277 229q39 32 59 60t21 65q1 50 -27 73t-74 23q-48 0 -77.5 -30.5t-30.5 -83.5h-172q0 133 80 207.5t202 74.5q129 0 209 -69.5t80 -190.5
q0 -42 -12.5 -79t-39 -69t-44.5 -50t-51 -45z" />
    <glyph glyph-name="threequarters" unicode="&#xbe;" horiz-adv-x="1665" 
d="M610 938q0 -104 -78.5 -167.5t-201.5 -63.5q-136 0 -212.5 75.5t-76.5 200.5h172q-3 -63 29 -93t80 -30q42 0 72 24.5t30 61.5q0 38 -27 62t-73 24h-70v144h70q44 0 70 22.5t26 63.5t-26.5 63.5t-65.5 22.5q-50 0 -84 -31t-31 -92h-168q0 125 76.5 200.5t210.5 75.5
q121 0 197.5 -61.5t76.5 -167.5q0 -119 -96 -168q100 -44 100 -166zM1225 1491h211l-942 -1491h-211zM1524 287h106v-154h-106v-133h-172v133h-357v150l344 491h185v-487zM1352 287v250l-162 -250h162z" />
    <glyph glyph-name="questiondown" unicode="&#xbf;" horiz-adv-x="1128" 
d="M823 1511v-395h-405v395h405zM1087 500q0 -105 -33.5 -194.5t-98 -158.5t-169 -108t-237.5 -39q-229 0 -368.5 121t-139.5 291q0 79 23.5 143t61.5 106t83.5 77.5t91 66t83.5 61.5t61.5 74.5t23.5 95.5h305q0 -84 -19 -152t-49.5 -112t-67.5 -79.5t-74 -62.5t-67.5 -53.5
t-49.5 -59.5t-19 -73q0 -33 10.5 -61.5t43.5 -52.5t85 -25q81 -1 118.5 51t37.5 144h364z" />
    <glyph glyph-name="Agrave" unicode="&#xc0;" 
d="M868 1593h-256l-217 336h283zM1077 0l-96 279h-494l-100 -279h-371l559 1491h347l557 -1491h-402zM584 547h303l-148 428z" />
    <glyph glyph-name="Aacute" unicode="&#xc1;" 
d="M1083 1929l-217 -336h-256l191 336h282zM1077 0l-96 279h-494l-100 -279h-371l559 1491h347l557 -1491h-402zM584 547h303l-148 428z" />
    <glyph glyph-name="Acircumflex" unicode="&#xc2;" 
d="M739 1729l-86 -136h-284l233 336h275l233 -336h-285zM1077 0l-96 279h-494l-100 -279h-371l559 1491h347l557 -1491h-402zM584 547h303l-148 428z" />
    <glyph glyph-name="Atilde" unicode="&#xc3;" 
d="M514 1618h-174q-9 144 48.5 226.5t170.5 82.5q53 0 104 -17t83.5 -37t70 -37t66.5 -17q38 0 60 23.5t22 66.5h174q9 -144 -48.5 -227t-170.5 -83q-53 0 -104 17t-83.5 37.5t-70 37.5t-66.5 17q-38 0 -60 -23.5t-22 -66.5zM1077 0l-96 279h-494l-100 -279h-371l559 1491
h347l557 -1491h-402zM584 547h303l-148 428z" />
    <glyph glyph-name="Adieresis" unicode="&#xc4;" 
d="M664 1894v-297h-312v297h312zM1124 1894v-297h-311v297h311zM1077 0l-96 279h-494l-100 -279h-371l559 1491h347l557 -1491h-402zM584 547h303l-148 428z" />
    <glyph glyph-name="Aring" unicode="&#xc5;" 
d="M1077 0l-96 279h-494l-100 -279h-371l533 1419q-90 76 -90 207q0 127 82.5 196.5t197.5 69.5t198 -69.5t83 -196.5q0 -118 -76 -194l535 -1432h-402zM739 1726q-42 0 -72 -28t-30 -74t30.5 -75t71.5 -29t72 29t31 75q0 45 -30.5 73.5t-72.5 28.5zM584 547h303l-148 428z
" />
    <glyph glyph-name="AE" unicode="&#xc6;" horiz-adv-x="2121" 
d="M-10 0l864 1491h1186v-315h-654v-275h498v-307h-498v-279h674v-315h-1018v299h-452l-164 -299h-436zM750 588h292l-2 530z" />
    <glyph glyph-name="Ccedilla" unicode="&#xc7;" horiz-adv-x="1546" 
d="M793 313q110 0 196 54t117 155h399q-48 -234 -226.5 -380t-440.5 -158l-19 -66q88 2 140.5 -38.5t52.5 -123.5q0 -77 -60 -124.5t-149 -47.5q-122 0 -178 50t-56 133h154q6 -43 55 -43q24 0 37.5 13.5t13.5 35.5q0 30 -26 43.5t-64 5.5l-63 37l39 125q-298 23 -476 224.5
t-178 522.5q0 224 87.5 399.5t258.5 278t400 102.5q273 0 460 -143t238 -395h-399q-32 100 -113.5 153.5t-193.5 53.5q-165 0 -263 -117.5t-98 -314.5q0 -199 95 -317t260 -118z" />
    <glyph glyph-name="Egrave" unicode="&#xc8;" horiz-adv-x="1243" 
d="M768 1593h-256l-217 336h283zM487 315h695v-315h-1059v1491h1040v-315h-676v-275h500v-307h-500v-279z" />
    <glyph glyph-name="Eacute" unicode="&#xc9;" horiz-adv-x="1243" 
d="M983 1929l-217 -336h-256l190 336h283zM487 315h695v-315h-1059v1491h1040v-315h-676v-275h500v-307h-500v-279z" />
    <glyph glyph-name="Ecircumflex" unicode="&#xca;" horiz-adv-x="1243" 
d="M639 1729l-86 -136h-285l234 336h274l234 -336h-285zM487 315h695v-315h-1059v1491h1040v-315h-676v-275h500v-307h-500v-279z" />
    <glyph glyph-name="Edieresis" unicode="&#xcb;" horiz-adv-x="1243" 
d="M563 1894v-297h-311v297h311zM1024 1894v-297h-311v297h311zM487 315h695v-315h-1059v1491h1040v-315h-676v-275h500v-307h-500v-279z" />
    <glyph glyph-name="Igrave" unicode="&#xcc;" horiz-adv-x="610" 
d="M434 1593h-256l-217 336h283zM487 1491v-1491h-364v1491h364z" />
    <glyph glyph-name="Iacute" unicode="&#xcd;" horiz-adv-x="610" 
d="M176 1593l191 336h282l-217 -336h-256zM487 1491v-1491h-364v1491h364z" />
    <glyph glyph-name="Icircumflex" unicode="&#xce;" horiz-adv-x="610" 
d="M305 1729l86 -136h285l-234 336h-274l-234 -336h285zM487 1491v-1491h-364v1491h364z" />
    <glyph glyph-name="Idieresis" unicode="&#xcf;" horiz-adv-x="610" 
d="M-82 1597v297h311v-297h-311zM379 1597v297h311v-297h-311zM487 1491v-1491h-364v1491h364z" />
    <glyph glyph-name="Eth" unicode="&#xd0;" horiz-adv-x="1546" 
d="M733 1491q226 0 397.5 -94.5t263 -263.5t91.5 -388q0 -166 -53.5 -304.5t-150 -235.5t-237.5 -151t-311 -54h-579v598h-123v297h123v596h579zM696 315q187 0 296.5 118.5t109.5 324.5q0 203 -108 310.5t-298 107.5h-178v-281h199v-297h-199v-283h178z" />
    <glyph glyph-name="Ntilde" unicode="&#xd1;" horiz-adv-x="1492" 
d="M567 1927q53 0 104 -17t83.5 -37t70 -37t66.5 -17q38 0 60 23.5t22 66.5h174q9 -144 -48.5 -227t-170.5 -83q-53 0 -104 17t-83.5 37.5t-70 37.5t-66.5 17q-38 0 -60 -23.5t-22 -66.5h-174q-9 144 48.5 226.5t170.5 82.5zM123 0v1491h364l521 -893v893h362v-1491h-362
l-521 862v-862h-364z" />
    <glyph glyph-name="Ograve" unicode="&#xd2;" horiz-adv-x="1593" 
d="M926 1614h-256l-217 336h282zM797 -20q-216 0 -384 96.5t-260 270.5t-92 398t92 398.5t260 271t384 96.5t383.5 -96.5t259.5 -271t92 -398.5t-92 -398t-259.5 -270.5t-383.5 -96.5zM797 324q166 0 256 111t90 310t-90 310.5t-256 111.5t-256 -111.5t-90 -310.5
q0 -200 90 -310.5t256 -110.5z" />
    <glyph glyph-name="Oacute" unicode="&#xd3;" horiz-adv-x="1593" 
d="M668 1614l190 336h283l-217 -336h-256zM797 -20q-216 0 -384 96.5t-260 270.5t-92 398t92 398.5t260 271t384 96.5t383.5 -96.5t259.5 -271t92 -398.5t-92 -398t-259.5 -270.5t-383.5 -96.5zM797 324q166 0 256 111t90 310t-90 310.5t-256 111.5t-256 -111.5t-90 -310.5
q0 -200 90 -310.5t256 -110.5z" />
    <glyph glyph-name="Ocircumflex" unicode="&#xd4;" horiz-adv-x="1593" 
d="M797 1749l86 -135h284l-233 336h-275l-233 -336h285zM797 -20q-216 0 -384 96.5t-260 270.5t-92 398t92 398.5t260 271t384 96.5t383.5 -96.5t259.5 -271t92 -398.5t-92 -398t-259.5 -270.5t-383.5 -96.5zM797 324q166 0 256 111t90 310t-90 310.5t-256 111.5
t-256 -111.5t-90 -310.5q0 -200 90 -310.5t256 -110.5z" />
    <glyph glyph-name="Otilde" unicode="&#xd5;" horiz-adv-x="1593" 
d="M616 1948q53 0 104 -17t83.5 -37.5t70 -37.5t66.5 -17q38 0 60 23.5t22 66.5h174q9 -144 -48.5 -226.5t-170.5 -82.5q-53 0 -104 17t-83.5 37.5t-70 37.5t-66.5 17q-38 0 -60 -24t-22 -67h-174q-9 144 48.5 227t170.5 83zM797 -20q-216 0 -384 96.5t-260 270.5t-92 398
t92 398.5t260 271t384 96.5t383.5 -96.5t259.5 -271t92 -398.5t-92 -398t-259.5 -270.5t-383.5 -96.5zM797 324q166 0 256 111t90 310t-90 310.5t-256 111.5t-256 -111.5t-90 -310.5q0 -200 90 -310.5t256 -110.5z" />
    <glyph glyph-name="Odieresis" unicode="&#xd6;" horiz-adv-x="1593" 
d="M410 1618v297h311v-297h-311zM870 1618v297h312v-297h-312zM797 -20q-216 0 -384 96.5t-260 270.5t-92 398t92 398.5t260 271t384 96.5t383.5 -96.5t259.5 -271t92 -398.5t-92 -398t-259.5 -270.5t-383.5 -96.5zM797 324q166 0 256 111t90 310t-90 310.5t-256 111.5
t-256 -111.5t-90 -310.5q0 -200 90 -310.5t256 -110.5z" />
    <glyph glyph-name="multiply" unicode="&#xd7;" horiz-adv-x="1228" 
d="M1100 883l-269 -269l269 -268l-217 -217l-269 268l-268 -268l-217 217l268 268l-268 269l217 217l268 -269l269 269z" />
    <glyph glyph-name="Oslash" unicode="&#xd8;" horiz-adv-x="1593" 
d="M1305 1323q109 -102 168 -251t59 -327q0 -224 -92 -398t-259.5 -270.5t-383.5 -96.5q-155 0 -283 49l-55 -92h-291l135 219q-117 104 -179.5 254.5t-62.5 334.5q0 224 92 398.5t260 271t384 96.5q166 0 297 -55l59 96h291zM434 745q0 -163 60 -274l426 698
q-59 19 -123 19q-174 0 -268.5 -117t-94.5 -326zM797 303q173 0 267.5 116.5t94.5 325.5q0 157 -51 256l-418 -686q49 -12 107 -12z" />
    <glyph glyph-name="Ugrave" unicode="&#xd9;" horiz-adv-x="1480" 
d="M870 1593h-256l-217 336h283zM477 1491v-938q0 -125 74.5 -192.5t189.5 -67.5t190 67.5t75 192.5v938h370v-891q0 -288 -167.5 -454t-467.5 -166q-303 0 -470 165.5t-167 454.5v891h373z" />
    <glyph glyph-name="Uacute" unicode="&#xda;" horiz-adv-x="1480" 
d="M612 1593l191 336h282l-217 -336h-256zM477 1491v-938q0 -125 74.5 -192.5t189.5 -67.5t190 67.5t75 192.5v938h370v-891q0 -288 -167.5 -454t-467.5 -166q-303 0 -470 165.5t-167 454.5v891h373z" />
    <glyph glyph-name="Ucircumflex" unicode="&#xdb;" horiz-adv-x="1480" 
d="M741 1729l86 -136h285l-233 336h-275l-233 -336h284zM477 1491v-938q0 -125 74.5 -192.5t189.5 -67.5t190 67.5t75 192.5v938h370v-891q0 -288 -167.5 -454t-467.5 -166q-303 0 -470 165.5t-167 454.5v891h373z" />
    <glyph glyph-name="Udieresis" unicode="&#xdc;" horiz-adv-x="1480" 
d="M354 1597v297h312v-297h-312zM815 1597v297h311v-297h-311zM477 1491v-938q0 -125 74.5 -192.5t189.5 -67.5t190 67.5t75 192.5v938h370v-891q0 -288 -167.5 -454t-467.5 -166q-303 0 -470 165.5t-167 454.5v891h373z" />
    <glyph glyph-name="Yacute" unicode="&#xdd;" 
d="M621 1593l190 336h283l-217 -336h-256zM551 541l-551 950h434l301 -569l328 569h432l-580 -950v-541h-364v541z" />
    <glyph glyph-name="Thorn" unicode="&#xde;" horiz-adv-x="1335" 
d="M762 1251q140 0 256 -61.5t186 -177t70 -262.5q0 -149 -71 -266.5t-187.5 -179.5t-253.5 -62h-279v-242h-370v1491h370v-240h279zM688 551q101 0 157 51.5t56 145.5q0 93 -55.5 140.5t-157.5 47.5h-205v-385h205z" />
    <glyph glyph-name="germandbls" unicode="&#xdf;" horiz-adv-x="1284" 
d="M954 840q128 -34 203.5 -135t75.5 -248q0 -96 -34.5 -181.5t-98.5 -152t-164.5 -105t-224.5 -38.5q-133 0 -211 32v281q53 -33 151 -33q94 0 157.5 51.5t63.5 153.5q0 62 -29 104t-74 58.5t-100 23t-106 -1.5v262q95 -8 155 40.5t60 140.5q0 67 -49 108t-121 41
q-84 0 -129 -51t-45 -150v-1040h-360v1030q0 227 138.5 354t389.5 127q223 0 359.5 -106t136.5 -277q0 -108 -40.5 -180t-103.5 -108z" />
    <glyph glyph-name="agrave" unicode="&#xe0;" horiz-adv-x="1220" 
d="M729 1184h-256l-217 336h283zM1135 258h45v-258h-189q-168 0 -209 115q-95 -135 -327 -135q-182 0 -288 88.5t-106 246.5q0 154 104 242t296 88h260v41q0 60 -41.5 97.5t-112.5 37.5q-72 0 -119 -37t-47 -94h-319q-6 187 133 299.5t367 112.5q70 0 135 -11t133 -40.5
t117.5 -75.5t81.5 -123t32 -176v-369q0 -49 54 -49zM719 387v35h-184q-105 0 -105 -82q0 -84 127 -84q162 0 162 131z" />
    <glyph glyph-name="aacute" unicode="&#xe1;" horiz-adv-x="1220" 
d="M944 1520l-217 -336h-256l191 336h282zM1135 258h45v-258h-189q-168 0 -209 115q-95 -135 -327 -135q-182 0 -288 88.5t-106 246.5q0 154 104 242t296 88h260v41q0 60 -41.5 97.5t-112.5 37.5q-72 0 -119 -37t-47 -94h-319q-6 187 133 299.5t367 112.5q70 0 135 -11
t133 -40.5t117.5 -75.5t81.5 -123t32 -176v-369q0 -49 54 -49zM719 387v35h-184q-105 0 -105 -82q0 -84 127 -84q162 0 162 131z" />
    <glyph glyph-name="acircumflex" unicode="&#xe2;" horiz-adv-x="1220" 
d="M600 1319l-86 -135h-285l234 336h274l234 -336h-285zM1135 258h45v-258h-189q-168 0 -209 115q-95 -135 -327 -135q-182 0 -288 88.5t-106 246.5q0 154 104 242t296 88h260v41q0 60 -41.5 97.5t-112.5 37.5q-72 0 -119 -37t-47 -94h-319q-6 187 133 299.5t367 112.5
q70 0 135 -11t133 -40.5t117.5 -75.5t81.5 -123t32 -176v-369q0 -49 54 -49zM719 387v35h-184q-105 0 -105 -82q0 -84 127 -84q162 0 162 131z" />
    <glyph glyph-name="atilde" unicode="&#xe3;" horiz-adv-x="1220" 
d="M375 1208h-174q-9 144 48.5 227t170.5 83q53 0 104 -17t83 -37.5t69.5 -37.5t66.5 -17q38 0 60 23.5t22 66.5h174q9 -144 -48.5 -226.5t-170.5 -82.5q-53 0 -104 17t-83 37t-69.5 37t-66.5 17q-38 0 -60 -23.5t-22 -66.5zM1135 258h45v-258h-189q-168 0 -209 115
q-95 -135 -327 -135q-182 0 -288 88.5t-106 246.5q0 154 104 242t296 88h260v41q0 60 -41.5 97.5t-112.5 37.5q-72 0 -119 -37t-47 -94h-319q-6 187 133 299.5t367 112.5q70 0 135 -11t133 -40.5t117.5 -75.5t81.5 -123t32 -176v-369q0 -49 54 -49zM719 387v35h-184
q-105 0 -105 -82q0 -84 127 -84q162 0 162 131z" />
    <glyph glyph-name="adieresis" unicode="&#xe4;" horiz-adv-x="1220" 
d="M524 1485v-297h-311v297h311zM985 1485v-297h-311v297h311zM1135 258h45v-258h-189q-168 0 -209 115q-95 -135 -327 -135q-182 0 -288 88.5t-106 246.5q0 154 104 242t296 88h260v41q0 60 -41.5 97.5t-112.5 37.5q-72 0 -119 -37t-47 -94h-319q-6 187 133 299.5
t367 112.5q70 0 135 -11t133 -40.5t117.5 -75.5t81.5 -123t32 -176v-369q0 -49 54 -49zM719 387v35h-184q-105 0 -105 -82q0 -84 127 -84q162 0 162 131z" />
    <glyph glyph-name="aring" unicode="&#xe5;" horiz-adv-x="1220" 
d="M1135 258h45v-258h-189q-168 0 -209 115q-95 -135 -327 -135q-182 0 -288 88.5t-106 246.5q0 154 104 242t296 88h260v41q0 60 -41.5 97.5t-112.5 37.5q-72 0 -119 -37t-47 -94h-319q-4 147 82.5 249.5t241.5 141.5q-87 77 -87 203q0 127 83 196.5t198 69.5t198 -69.5
t83 -196.5q0 -133 -95 -211q132 -38 213.5 -133.5t81.5 -263.5v-369q0 -49 54 -49zM600 1384q-42 0 -72 -28t-30 -74t30.5 -75t71.5 -29t71.5 29t30.5 75t-30 74t-72 28zM719 387v35h-184q-105 0 -105 -82q0 -84 127 -84q162 0 162 131z" />
    <glyph glyph-name="ae" unicode="&#xe6;" horiz-adv-x="1878" 
d="M1806 553v-107h-733q0 -84 54.5 -134t136.5 -50q65 0 120.5 26t71.5 74h344q-20 -113 -94 -202t-184.5 -137t-237.5 -48q-268 0 -407 164q-132 -159 -383 -159q-200 0 -316.5 89t-116.5 250q0 152 104.5 240t295.5 88h260v49q0 58 -41.5 91.5t-108.5 33.5
q-84 0 -124.5 -35.5t-40.5 -95.5h-324q-4 188 127.5 300t345.5 112q101 0 193.5 -33t154.5 -104q136 139 377 139q233 0 379.5 -150t146.5 -401zM1073 672h375q-7 76 -59 114.5t-127 38.5q-76 0 -129.5 -39t-59.5 -114zM719 393v31h-184q-105 0 -105 -78q0 -84 127 -84
q162 0 162 131z" />
    <glyph glyph-name="ccedilla" unicode="&#xe7;" horiz-adv-x="1214" 
d="M616 287q70 0 112.5 40.5t62.5 125.5h380q-30 -207 -159 -332t-320 -144l-12 -40q88 2 140 -38.5t52 -123.5q0 -77 -59.5 -124.5t-148.5 -47.5q-122 0 -178 49.5t-56 132.5h154q6 -43 55 -43q24 0 37.5 13.5t13.5 35.5q0 30 -26 43.5t-64 5.5l-63 37l32 100
q-227 20 -362 173t-135 391q0 254 153.5 408.5t405.5 154.5q220 0 367 -125.5t176 -351.5h-379q-9 82 -55 125t-113 43q-90 0 -140.5 -70.5t-50.5 -183.5q0 -127 49 -190.5t131 -63.5z" />
    <glyph glyph-name="egrave" unicode="&#xe8;" horiz-adv-x="1236" 
d="M748 1186h-256l-218 336h283zM1165 551v-107h-733q3 -84 59 -133t140 -49q134 0 168 100h360q-31 -173 -180 -280t-361 -107q-246 0 -396 155.5t-150 410.5q0 254 150 408.5t396 154.5q247 0 397 -150.5t150 -402.5zM618 827q-75 0 -127.5 -40.5t-58.5 -116.5h375
q-7 76 -60.5 116.5t-128.5 40.5z" />
    <glyph glyph-name="eacute" unicode="&#xe9;" horiz-adv-x="1236" 
d="M963 1522l-218 -336h-256l191 336h283zM1165 551v-107h-733q3 -84 59 -133t140 -49q134 0 168 100h360q-31 -173 -180 -280t-361 -107q-246 0 -396 155.5t-150 410.5q0 254 150 408.5t396 154.5q247 0 397 -150.5t150 -402.5zM618 827q-75 0 -127.5 -40.5t-58.5 -116.5
h375q-7 76 -60.5 116.5t-128.5 40.5z" />
    <glyph glyph-name="ecircumflex" unicode="&#xea;" horiz-adv-x="1236" 
d="M618 1321l-86 -135h-284l233 336h275l233 -336h-284zM1165 551v-107h-733q3 -84 59 -133t140 -49q134 0 168 100h360q-31 -173 -180 -280t-361 -107q-246 0 -396 155.5t-150 410.5q0 254 150 408.5t396 154.5q247 0 397 -150.5t150 -402.5zM618 827q-75 0 -127.5 -40.5
t-58.5 -116.5h375q-7 76 -60.5 116.5t-128.5 40.5z" />
    <glyph glyph-name="edieresis" unicode="&#xeb;" horiz-adv-x="1236" 
d="M543 1487v-297h-312v297h312zM1004 1487v-297h-312v297h312zM1165 551v-107h-733q3 -84 59 -133t140 -49q134 0 168 100h360q-31 -173 -180 -280t-361 -107q-246 0 -396 155.5t-150 410.5q0 254 150 408.5t396 154.5q247 0 397 -150.5t150 -402.5zM618 827
q-75 0 -127.5 -40.5t-58.5 -116.5h375q-7 76 -60.5 116.5t-128.5 40.5z" />
    <glyph glyph-name="igrave" unicode="&#xec;" horiz-adv-x="565" 
d="M410 1184h-256l-217 336h282zM102 0v1081h361v-1081h-361z" />
    <glyph glyph-name="iacute" unicode="&#xed;" horiz-adv-x="565" 
d="M152 1184l190 336h283l-217 -336h-256zM102 0v1081h361v-1081h-361z" />
    <glyph glyph-name="icircumflex" unicode="&#xee;" horiz-adv-x="565" 
d="M281 1319l86 -135h284l-233 336h-275l-233 -336h285zM102 0v1081h361v-1081h-361z" />
    <glyph glyph-name="idieresis" unicode="&#xef;" horiz-adv-x="565" 
d="M-106 1188v297h311v-297h-311zM354 1188v297h312v-297h-312zM102 0v1081h361v-1081h-361z" />
    <glyph glyph-name="eth" unicode="&#xf0;" horiz-adv-x="1314" 
d="M1012 1321q110 -147 170.5 -319t60.5 -351q0 -162 -50 -291t-135.5 -210.5t-196 -124.5t-236.5 -43q-79 0 -156 19.5t-149.5 64.5t-127 110t-87.5 162.5t-33 216.5q0 102 28 188t77 146t116.5 102t145.5 62t165 20q135 0 221 -53q-45 91 -112 180l-240 -98v233l82 33
q-121 111 -301 225h477q64 -44 125 -102l254 104v-233zM629 303q109 0 173 70.5t64 169.5q0 100 -63.5 168.5t-173.5 68.5q-109 0 -171.5 -68t-62.5 -167q0 -100 63 -171t171 -71z" />
    <glyph glyph-name="ntilde" unicode="&#xf1;" horiz-adv-x="1296" 
d="M469 1208h-174q-9 144 48.5 227t170.5 83q53 0 104 -17t83.5 -37.5t70 -37.5t66.5 -17q38 0 60 23.5t22 66.5h174q9 -144 -49 -226.5t-171 -82.5q-53 0 -104 17t-83 37t-69.5 37t-66.5 17q-38 0 -60 -23.5t-22 -66.5zM766 1102q207 0 322.5 -125t115.5 -336v-641h-360
v565q0 114 -49 174t-140 60q-94 0 -143 -60t-49 -174v-565h-361v1081h340l17 -104q90 125 307 125z" />
    <glyph glyph-name="ograve" unicode="&#xf2;" horiz-adv-x="1294" 
d="M776 1184h-256l-217 336h283zM72 543q0 250 162 406.5t413 156.5t413.5 -156.5t162.5 -406.5q0 -252 -162 -407.5t-414 -155.5t-413.5 155.5t-161.5 407.5zM436 545q0 -120 57 -191t154 -71t154 71t57 191q0 118 -57 188t-154 70t-154 -70t-57 -188z" />
    <glyph glyph-name="oacute" unicode="&#xf3;" horiz-adv-x="1294" 
d="M518 1184l191 336h282l-217 -336h-256zM72 543q0 250 162 406.5t413 156.5t413.5 -156.5t162.5 -406.5q0 -252 -162 -407.5t-414 -155.5t-413.5 155.5t-161.5 407.5zM436 545q0 -120 57 -191t154 -71t154 71t57 191q0 118 -57 188t-154 70t-154 -70t-57 -188z" />
    <glyph glyph-name="ocircumflex" unicode="&#xf4;" horiz-adv-x="1294" 
d="M647 1319l86 -135h285l-234 336h-274l-234 -336h285zM72 543q0 250 162 406.5t413 156.5t413.5 -156.5t162.5 -406.5q0 -252 -162 -407.5t-414 -155.5t-413.5 155.5t-161.5 407.5zM436 545q0 -120 57 -191t154 -71t154 71t57 191q0 118 -57 188t-154 70t-154 -70
t-57 -188z" />
    <glyph glyph-name="otilde" unicode="&#xf5;" horiz-adv-x="1294" 
d="M467 1518q53 0 104 -17t83.5 -37.5t70 -37.5t66.5 -17q38 0 59.5 23.5t21.5 66.5h175q9 -144 -49 -226.5t-171 -82.5q-53 0 -104 17t-83 37t-69.5 37t-66.5 17q-38 0 -60 -23.5t-22 -66.5h-174q-9 144 48.5 227t170.5 83zM72 543q0 250 162 406.5t413 156.5t413.5 -156.5
t162.5 -406.5q0 -252 -162 -407.5t-414 -155.5t-413.5 155.5t-161.5 407.5zM436 545q0 -120 57 -191t154 -71t154 71t57 191q0 118 -57 188t-154 70t-154 -70t-57 -188z" />
    <glyph glyph-name="odieresis" unicode="&#xf6;" horiz-adv-x="1294" 
d="M260 1188v297h311v-297h-311zM721 1188v297h311v-297h-311zM72 543q0 250 162 406.5t413 156.5t413.5 -156.5t162.5 -406.5q0 -252 -162 -407.5t-414 -155.5t-413.5 155.5t-161.5 407.5zM436 545q0 -120 57 -191t154 -71t154 71t57 191q0 118 -57 188t-154 70t-154 -70
t-57 -188z" />
    <glyph glyph-name="divide" unicode="&#xf7;" horiz-adv-x="1228" 
d="M616 864q-77 0 -131.5 54t-54.5 133q0 74 55 128t131 54t129.5 -54t53.5 -128q0 -79 -53 -133t-130 -54zM129 815h971v-315h-971v315zM616 82q-77 0 -131.5 53.5t-54.5 132.5q0 74 55 128.5t131 54.5t129.5 -54.5t53.5 -128.5q0 -79 -53 -132.5t-130 -53.5z" />
    <glyph glyph-name="oslash" unicode="&#xf8;" horiz-adv-x="1298" 
d="M1229 1143l-152 -209q150 -153 150 -391q0 -252 -162 -407.5t-414 -155.5q-130 0 -237 43l-52 -72h-292l149 205q-143 153 -143 387q0 250 162 404.5t413 154.5q122 0 228 -39l59 80h291zM422 543q0 -46 10 -94l270 370q-24 6 -51 6q-101 0 -165 -78.5t-64 -203.5z
M881 543q0 55 -15 102l-276 -381q27 -8 61 -8q101 0 165.5 80.5t64.5 206.5z" />
    <glyph glyph-name="ugrave" unicode="&#xf9;" horiz-adv-x="1232" 
d="M735 1184h-256l-217 336h283zM793 1083h337v-1083h-331l-15 96q-90 -116 -245 -116q-211 0 -329 126t-118 336v641h338v-600q0 -101 50 -151t143 -47q170 6 170 204v594z" />
    <glyph glyph-name="uacute" unicode="&#xfa;" horiz-adv-x="1232" 
d="M950 1520l-217 -336h-256l191 336h282zM793 1083h337v-1083h-331l-15 96q-90 -116 -245 -116q-211 0 -329 126t-118 336v641h338v-600q0 -101 50 -151t143 -47q170 6 170 204v594z" />
    <glyph glyph-name="ucircumflex" unicode="&#xfb;" horiz-adv-x="1232" 
d="M606 1319l-86 -135h-284l233 336h274l234 -336h-285zM793 1083h337v-1083h-331l-15 96q-90 -116 -245 -116q-211 0 -329 126t-118 336v641h338v-600q0 -101 50 -151t143 -47q170 6 170 204v594z" />
    <glyph glyph-name="udieresis" unicode="&#xfc;" horiz-adv-x="1232" 
d="M530 1485v-297h-311v297h311zM991 1485v-297h-311v297h311zM793 1083h337v-1083h-331l-15 96q-90 -116 -245 -116q-211 0 -329 126t-118 336v641h338v-600q0 -101 50 -151t143 -47q170 6 170 204v594z" />
    <glyph glyph-name="yacute" unicode="&#xfd;" horiz-adv-x="1243" 
d="M492 1184l190 336h283l-217 -336h-256zM393 1081l242 -735l231 735h367l-451 -1251q-22 -61 -56.5 -105.5t-72.5 -70t-88.5 -40.5t-95 -19.5t-100.5 -4.5h-291v316h291q65 0 65 53q0 25 -18 74l-406 1048h383z" />
    <glyph glyph-name="thorn" unicode="&#xfe;" horiz-adv-x="1361" 
d="M782 1102q232 0 370 -148.5t138 -414.5q0 -257 -133.5 -409.5t-374.5 -152.5q-111 0 -196 38t-123 98v-523h-361v1966h361v-593q40 60 123.5 99.5t195.5 39.5zM694 299q100 0 164 65t64 175t-64 175.5t-164 65.5t-162.5 -65t-62.5 -176t62.5 -175.5t162.5 -64.5z" />
    <glyph glyph-name="ydieresis" unicode="&#xff;" horiz-adv-x="1243" 
d="M233 1188v297h312v-297h-312zM694 1188v297h312v-297h-312zM393 1081l242 -735l231 735h367l-451 -1251q-22 -61 -56.5 -105.5t-72.5 -70t-88.5 -40.5t-95 -19.5t-100.5 -4.5h-291v316h291q65 0 65 53q0 25 -18 74l-406 1048h383z" />
    <glyph glyph-name="Amacron" unicode="&#x100;" 
d="M1075 1870v-228h-674v228h674zM1077 0l-96 279h-494l-100 -279h-371l559 1491h347l557 -1491h-402zM584 547h303l-148 428z" />
    <glyph glyph-name="amacron" unicode="&#x101;" horiz-adv-x="1220" 
d="M936 1460v-227h-674v227h674zM1135 258h45v-258h-189q-168 0 -209 115q-95 -135 -327 -135q-182 0 -288 88.5t-106 246.5q0 154 104 242t296 88h260v41q0 60 -41.5 97.5t-112.5 37.5q-72 0 -119 -37t-47 -94h-319q-6 187 133 299.5t367 112.5q70 0 135 -11t133 -40.5
t117.5 -75.5t81.5 -123t32 -176v-369q0 -49 54 -49zM719 387v35h-184q-105 0 -105 -82q0 -84 127 -84q162 0 162 131z" />
    <glyph glyph-name="Abreve" unicode="&#x102;" 
d="M739 1569q-146 0 -234.5 88.5t-84.5 251.5h219q-9 -127 100 -127q53 0 79 33t22 94h219q4 -163 -84.5 -251.5t-235.5 -88.5zM1077 0l-96 279h-494l-100 -279h-371l559 1491h347l557 -1491h-402zM584 547h303l-148 428z" />
    <glyph glyph-name="abreve" unicode="&#x103;" horiz-adv-x="1220" 
d="M600 1159q-146 0 -234.5 88.5t-84.5 251.5h219q-9 -127 100 -127q53 0 78.5 33t21.5 94h220q4 -163 -84.5 -251.5t-235.5 -88.5zM1135 258h45v-258h-189q-168 0 -209 115q-95 -135 -327 -135q-182 0 -288 88.5t-106 246.5q0 154 104 242t296 88h260v41q0 60 -41.5 97.5
t-112.5 37.5q-72 0 -119 -37t-47 -94h-319q-6 187 133 299.5t367 112.5q70 0 135 -11t133 -40.5t117.5 -75.5t81.5 -123t32 -176v-369q0 -49 54 -49zM719 387v35h-184q-105 0 -105 -82q0 -84 127 -84q162 0 162 131z" />
    <glyph glyph-name="Aogonek" unicode="&#x104;" 
d="M1317 -137q0 -31 16 -45.5t58 -14.5q25 0 67 17v-193q-60 -33 -145 -33q-96 0 -157.5 48.5t-61.5 130.5q0 68 43 127.5t129 99.5h-189l-96 279h-494l-100 -279h-371l559 1491h347l557 -1491q-75 -29 -118.5 -66.5t-43.5 -70.5zM584 547h303l-148 428z" />
    <glyph glyph-name="aogonek" unicode="&#x105;" horiz-adv-x="1220" 
d="M1180 0q-75 -29 -118.5 -66.5t-43.5 -70.5q0 -31 16 -45.5t58 -14.5q24 0 67 17v-193q-60 -33 -145 -33q-96 0 -157.5 48.5t-61.5 130.5q0 68 43 127.5t129 99.5h24q-168 0 -209 115q-95 -135 -327 -135q-182 0 -288 88.5t-106 246.5q0 154 104 242t296 88h260v41
q0 60 -41.5 97.5t-112.5 37.5q-72 0 -119 -37t-47 -94h-319q-6 187 133 299.5t367 112.5q70 0 135 -11t133 -40.5t117.5 -75.5t81.5 -123t32 -176v-369q0 -49 54 -49h45v-258zM719 387v35h-184q-105 0 -105 -82q0 -84 127 -84q162 0 162 131z" />
    <glyph glyph-name="Cacute" unicode="&#x106;" horiz-adv-x="1546" 
d="M678 1614l190 336h283l-217 -336h-256zM793 313q110 0 196 54t117 155h399q-50 -245 -242.5 -392.5t-474.5 -147.5q-217 0 -382 91.5t-255 261.5t-90 396q0 224 87.5 399.5t258.5 278t400 102.5q273 0 460 -143t238 -395h-399q-32 100 -113.5 153.5t-193.5 53.5
q-165 0 -263 -117.5t-98 -314.5q0 -199 95 -317t260 -118z" />
    <glyph glyph-name="cacute" unicode="&#x107;" horiz-adv-x="1214" 
d="M502 1186l190 336h283l-217 -336h-256zM795 627q-9 82 -55 125t-113 43q-90 0 -140.5 -70.5t-50.5 -183.5q0 -127 49 -190.5t131 -63.5q70 0 112.5 40.5t62.5 125.5h380q-33 -224 -180.5 -351t-361.5 -127q-251 0 -404 155.5t-153 410.5q0 254 153.5 408.5t405.5 154.5
q220 0 367 -125.5t176 -351.5h-379z" />
    <glyph glyph-name="Ccircumflex" unicode="&#x108;" horiz-adv-x="1546" 
d="M807 1749l86 -135h285l-234 336h-274l-234 -336h285zM793 313q110 0 196 54t117 155h399q-50 -245 -242.5 -392.5t-474.5 -147.5q-217 0 -382 91.5t-255 261.5t-90 396q0 224 87.5 399.5t258.5 278t400 102.5q273 0 460 -143t238 -395h-399q-32 100 -113.5 153.5
t-193.5 53.5q-165 0 -263 -117.5t-98 -314.5q0 -199 95 -317t260 -118z" />
    <glyph glyph-name="ccircumflex" unicode="&#x109;" horiz-adv-x="1214" 
d="M631 1321l86 -135h284l-233 336h-274l-234 -336h285zM795 627q-9 82 -55 125t-113 43q-90 0 -140.5 -70.5t-50.5 -183.5q0 -127 49 -190.5t131 -63.5q70 0 112.5 40.5t62.5 125.5h380q-33 -224 -180.5 -351t-361.5 -127q-251 0 -404 155.5t-153 410.5q0 254 153.5 408.5
t405.5 154.5q220 0 367 -125.5t176 -351.5h-379z" />
    <glyph glyph-name="Cdotaccent" unicode="&#x10a;" horiz-adv-x="1546" 
d="M635 1640v326h342v-326h-342zM793 313q110 0 196 54t117 155h399q-50 -245 -242.5 -392.5t-474.5 -147.5q-217 0 -382 91.5t-255 261.5t-90 396q0 224 87.5 399.5t258.5 278t400 102.5q273 0 460 -143t238 -395h-399q-32 100 -113.5 153.5t-193.5 53.5
q-165 0 -263 -117.5t-98 -314.5q0 -199 95 -317t260 -118z" />
    <glyph glyph-name="cdotaccent" unicode="&#x10b;" horiz-adv-x="1214" 
d="M459 1212v326h342v-326h-342zM795 627q-9 82 -55 125t-113 43q-90 0 -140.5 -70.5t-50.5 -183.5q0 -127 49 -190.5t131 -63.5q70 0 112.5 40.5t62.5 125.5h380q-33 -224 -180.5 -351t-361.5 -127q-251 0 -404 155.5t-153 410.5q0 254 153.5 408.5t405.5 154.5
q220 0 367 -125.5t176 -351.5h-379z" />
    <glyph glyph-name="Ccaron" unicode="&#x10c;" horiz-adv-x="1546" 
d="M807 1815l-86 135h-285l234 -336h274l234 336h-285zM793 313q110 0 196 54t117 155h399q-50 -245 -242.5 -392.5t-474.5 -147.5q-217 0 -382 91.5t-255 261.5t-90 396q0 224 87.5 399.5t258.5 278t400 102.5q273 0 460 -143t238 -395h-399q-32 100 -113.5 153.5
t-193.5 53.5q-165 0 -263 -117.5t-98 -314.5q0 -199 95 -317t260 -118z" />
    <glyph glyph-name="ccaron" unicode="&#x10d;" horiz-adv-x="1214" 
d="M631 1386l-86 136h-285l234 -336h274l233 336h-284zM795 627q-9 82 -55 125t-113 43q-90 0 -140.5 -70.5t-50.5 -183.5q0 -127 49 -190.5t131 -63.5q70 0 112.5 40.5t62.5 125.5h380q-33 -224 -180.5 -351t-361.5 -127q-251 0 -404 155.5t-153 410.5q0 254 153.5 408.5
t405.5 154.5q220 0 367 -125.5t176 -351.5h-379z" />
    <glyph glyph-name="Dcaron" unicode="&#x10e;" horiz-adv-x="1515" 
d="M686 1794l-86 135h-285l234 -336h274l234 336h-285zM123 0h579q170 0 311 54t237.5 151t150 235.5t53.5 304.5q0 219 -91.5 388t-263 263.5t-397.5 94.5h-579v-1491zM487 315v861h179q190 0 297.5 -107.5t107.5 -310.5q0 -206 -109 -324.5t-296 -118.5h-179z" />
    <glyph glyph-name="dcaron" unicode="&#x10f;" horiz-adv-x="1443" 
d="M899 969v587h361v-1556h-340l-17 127q-37 -62 -122 -104.5t-201 -42.5q-241 0 -374.5 152.5t-133.5 410.5q0 265 138 413t370 148q111 0 196 -37.5t123 -97.5zM1372 1556h275l-88 -405h-218zM668 301q100 0 162.5 65.5t62.5 176.5t-62.5 175t-162.5 64t-164 -64.5
t-64 -174.5q0 -111 64 -176.5t164 -65.5z" />
    <glyph glyph-name="Dcroat" unicode="&#x110;" horiz-adv-x="1546" 
d="M733 1491q226 0 397.5 -94.5t263 -263.5t91.5 -388q0 -166 -53.5 -304.5t-150 -235.5t-237.5 -151t-311 -54h-579v598h-123v297h123v596h579zM696 315q187 0 296.5 118.5t109.5 324.5q0 203 -108 310.5t-298 107.5h-178v-281h199v-297h-199v-283h178z" />
    <glyph glyph-name="dcroat" unicode="&#x111;" horiz-adv-x="1372" 
d="M1362 1427v-268h-102v-1159h-340l-17 127q-37 -62 -122 -104.5t-201 -42.5q-241 0 -374.5 152.5t-133.5 410.5q0 265 138 413t370 148q111 0 196 -37.5t123 -97.5v190h-342v268h342v129h361v-129h102zM668 301q100 0 162.5 65.5t62.5 176.5t-62.5 175t-162.5 64
t-164 -64.5t-64 -174.5q0 -111 64 -176.5t164 -65.5z" />
    <glyph glyph-name="Emacron" unicode="&#x112;" horiz-adv-x="1243" 
d="M975 1870v-228h-674v228h674zM487 315h695v-315h-1059v1491h1040v-315h-676v-275h500v-307h-500v-279z" />
    <glyph glyph-name="emacron" unicode="&#x113;" horiz-adv-x="1236" 
d="M954 1462v-227h-673v227h673zM1165 551v-107h-733q3 -84 59 -133t140 -49q134 0 168 100h360q-31 -173 -180 -280t-361 -107q-246 0 -396 155.5t-150 410.5q0 254 150 408.5t396 154.5q247 0 397 -150.5t150 -402.5zM618 827q-75 0 -127.5 -40.5t-58.5 -116.5h375
q-7 76 -60.5 116.5t-128.5 40.5z" />
    <glyph glyph-name="Ebreve" unicode="&#x114;" horiz-adv-x="1243" 
d="M639 1569q-147 0 -235.5 88.5t-84.5 251.5h220q-9 -127 100 -127q53 0 78.5 33t21.5 94h219q4 -163 -84.5 -251.5t-234.5 -88.5zM487 315h695v-315h-1059v1491h1040v-315h-676v-275h500v-307h-500v-279z" />
    <glyph glyph-name="ebreve" unicode="&#x115;" horiz-adv-x="1236" 
d="M618 1161q-146 0 -234.5 88.5t-84.5 251.5h219q-9 -127 100 -127q53 0 79 33t22 94h219q4 -163 -84.5 -251.5t-235.5 -88.5zM1165 551v-107h-733q3 -84 59 -133t140 -49q134 0 168 100h360q-31 -173 -180 -280t-361 -107q-246 0 -396 155.5t-150 410.5q0 254 150 408.5
t396 154.5q247 0 397 -150.5t150 -402.5zM618 827q-75 0 -127.5 -40.5t-58.5 -116.5h375q-7 76 -60.5 116.5t-128.5 40.5z" />
    <glyph glyph-name="Edotaccent" unicode="&#x116;" horiz-adv-x="1243" 
d="M809 1946v-326h-342v326h342zM487 315h695v-315h-1059v1491h1040v-315h-676v-275h500v-307h-500v-279z" />
    <glyph glyph-name="edotaccent" unicode="&#x117;" horiz-adv-x="1236" 
d="M788 1538v-326h-342v326h342zM1165 551v-107h-733q3 -84 59 -133t140 -49q134 0 168 100h360q-31 -173 -180 -280t-361 -107q-246 0 -396 155.5t-150 410.5q0 254 150 408.5t396 154.5q247 0 397 -150.5t150 -402.5zM618 827q-75 0 -127.5 -40.5t-58.5 -116.5h375
q-7 76 -60.5 116.5t-128.5 40.5z" />
    <glyph glyph-name="Eogonek" unicode="&#x118;" horiz-adv-x="1243" 
d="M1182 0q-75 -29 -118.5 -66.5t-43.5 -70.5q0 -31 16 -45.5t58 -14.5q24 0 67 17v-193q-60 -33 -145 -33q-96 0 -157.5 48.5t-61.5 130.5q0 68 43 127.5t129 99.5h-846v1491h1040v-315h-676v-275h500v-307h-500v-279h695v-315z" />
    <glyph glyph-name="eogonek" unicode="&#x119;" horiz-adv-x="1236" 
d="M1165 551v-107h-733q3 -84 59 -133t140 -49q134 0 168 100h360q-22 -123 -106 -215t-211 -135q-69 -29 -109.5 -65.5t-40.5 -67.5t16 -45t58 -14q28 0 68 16v-192q-60 -33 -146 -33q-96 0 -157.5 48t-61.5 130q0 111 104 188q-227 14 -364 167.5t-137 396.5
q0 254 150 408.5t396 154.5q247 0 397 -150.5t150 -402.5zM618 827q-75 0 -127.5 -40.5t-58.5 -116.5h375q-7 76 -60.5 116.5t-128.5 40.5z" />
    <glyph glyph-name="Ecaron" unicode="&#x11a;" horiz-adv-x="1243" 
d="M776 1593h-274l-234 336h285l86 -135l86 135h285zM487 315h695v-315h-1059v1491h1040v-315h-676v-275h500v-307h-500v-279z" />
    <glyph glyph-name="ecaron" unicode="&#x11b;" horiz-adv-x="1236" 
d="M756 1186h-275l-233 336h284l86 -136l87 136h284zM1165 551v-107h-733q3 -84 59 -133t140 -49q134 0 168 100h360q-31 -173 -180 -280t-361 -107q-246 0 -396 155.5t-150 410.5q0 254 150 408.5t396 154.5q247 0 397 -150.5t150 -402.5zM618 827q-75 0 -127.5 -40.5
t-58.5 -116.5h375q-7 76 -60.5 116.5t-128.5 40.5z" />
    <glyph glyph-name="Gcircumflex" unicode="&#x11c;" horiz-adv-x="1626" 
d="M819 1749l-86 -135h-284l233 336h274l234 -336h-285zM735 879h778v-879h-307l-24 150q-153 -170 -437 -170q-146 0 -271 49.5t-217 141t-144 230t-52 308.5q0 238 93 419.5t265 282t400 100.5q270 0 455.5 -138.5t228.5 -375.5h-403q-32 92 -110.5 137.5t-178.5 45.5
q-169 0 -270 -114t-101 -323q0 -207 98 -321.5t263 -114.5q57 0 112.5 14.5t108.5 45t88 87.5t39 134h-414v291z" />
    <glyph glyph-name="gcircumflex" unicode="&#x11d;" horiz-adv-x="1310" 
d="M649 1319l-86 -135h-284l233 336h274l234 -336h-285zM881 1081h327v-970q0 -253 -156 -397t-417 -144q-226 0 -375 112t-166 295h342q35 -116 201 -116q101 0 161 52.5t60 139.5v88q-90 -114 -295 -114q-224 0 -357.5 147.5t-133.5 390.5q0 245 135 391t360 146
q200 0 291 -123zM651 340q94 0 151.5 63t57.5 158q0 97 -57.5 159t-151.5 62q-93 0 -152 -61.5t-59 -157.5q0 -97 59 -160t152 -63z" />
    <glyph glyph-name="Gbreve" unicode="&#x11e;" horiz-adv-x="1626" 
d="M819 1589q-146 0 -234.5 88.5t-84.5 251.5h219q-9 -127 100 -127q53 0 79 33t22 94h219q4 -163 -84.5 -251.5t-235.5 -88.5zM735 879h778v-879h-307l-24 150q-153 -170 -437 -170q-146 0 -271 49.5t-217 141t-144 230t-52 308.5q0 238 93 419.5t265 282t400 100.5
q270 0 455.5 -138.5t228.5 -375.5h-403q-32 92 -110.5 137.5t-178.5 45.5q-169 0 -270 -114t-101 -323q0 -207 98 -321.5t263 -114.5q57 0 112.5 14.5t108.5 45t88 87.5t39 134h-414v291z" />
    <glyph glyph-name="gbreve" unicode="&#x11f;" horiz-adv-x="1310" 
d="M649 1159q-146 0 -234.5 88.5t-84.5 251.5h219q-9 -127 100 -127q53 0 79 33t22 94h219q4 -163 -84.5 -251.5t-235.5 -88.5zM881 1081h327v-970q0 -253 -156 -397t-417 -144q-226 0 -375 112t-166 295h342q35 -116 201 -116q101 0 161 52.5t60 139.5v88
q-90 -114 -295 -114q-224 0 -357.5 147.5t-133.5 390.5q0 245 135 391t360 146q200 0 291 -123zM651 340q94 0 151.5 63t57.5 158q0 97 -57.5 159t-151.5 62q-93 0 -152 -61.5t-59 -157.5q0 -97 59 -160t152 -63z" />
    <glyph glyph-name="Gdotaccent" unicode="&#x120;" horiz-adv-x="1626" 
d="M989 1966v-326h-342v326h342zM735 879h778v-879h-307l-24 150q-153 -170 -437 -170q-146 0 -271 49.5t-217 141t-144 230t-52 308.5q0 238 93 419.5t265 282t400 100.5q270 0 455.5 -138.5t228.5 -375.5h-403q-32 92 -110.5 137.5t-178.5 45.5q-169 0 -270 -114
t-101 -323q0 -207 98 -321.5t263 -114.5q57 0 112.5 14.5t108.5 45t88 87.5t39 134h-414v291z" />
    <glyph glyph-name="gdotaccent" unicode="&#x121;" horiz-adv-x="1310" 
d="M819 1536v-326h-342v326h342zM881 1081h327v-970q0 -253 -156 -397t-417 -144q-226 0 -375 112t-166 295h342q35 -116 201 -116q101 0 161 52.5t60 139.5v88q-90 -114 -295 -114q-224 0 -357.5 147.5t-133.5 390.5q0 245 135 391t360 146q200 0 291 -123zM651 340
q94 0 151.5 63t57.5 158q0 97 -57.5 159t-151.5 62q-93 0 -152 -61.5t-59 -157.5q0 -97 59 -160t152 -63z" />
    <glyph glyph-name="Gcommaaccent" unicode="&#x122;" horiz-adv-x="1626" 
d="M735 879h778v-879h-307l-24 150q-153 -170 -437 -170q-146 0 -271 49.5t-217 141t-144 230t-52 308.5q0 238 93 419.5t265 282t400 100.5q270 0 455.5 -138.5t228.5 -375.5h-403q-32 92 -110.5 137.5t-178.5 45.5q-169 0 -270 -114t-101 -323q0 -207 98 -321.5
t263 -114.5q57 0 112.5 14.5t108.5 45t88 87.5t39 134h-414v291zM666 -354v268h297v-268l-107 -178h-176l108 178h-122z" />
    <glyph glyph-name="gcommaaccent" unicode="&#x123;" horiz-adv-x="1310" 
d="M793 1452v-268h-297v268l106 178h176l-108 -178h123zM881 1081h327v-970q0 -253 -156 -397t-417 -144q-226 0 -375 112t-166 295h342q35 -116 201 -116q101 0 161 52.5t60 139.5v88q-90 -114 -295 -114q-224 0 -357.5 147.5t-133.5 390.5q0 245 135 391t360 146
q200 0 291 -123zM651 340q94 0 151.5 63t57.5 158q0 97 -57.5 159t-151.5 62q-93 0 -152 -61.5t-59 -157.5q0 -97 59 -160t152 -63z" />
    <glyph glyph-name="Hcircumflex" unicode="&#x124;" horiz-adv-x="1513" 
d="M756 1729l86 -136h284l-233 336h-275l-233 -336h285zM1026 598h-539v-598h-364v1491h364v-565h539v565h365v-1491h-365v598z" />
    <glyph glyph-name="hcircumflex" unicode="&#x125;" horiz-adv-x="1304" 
d="M291 1757l-86 -135h-285l234 336h274l234 -336h-285zM760 1104q64 0 124 -13.5t121 -49.5t105.5 -91t73 -145.5t28.5 -206.5v-598h-360v545q0 117 -51 177.5t-148 57.5q-92 -3 -141 -57t-49 -154v-569h-361v1556h361v-571q88 119 297 119z" />
    <glyph glyph-name="Hbar" unicode="&#x126;" horiz-adv-x="1536" 
d="M1511 1255v-227h-108v-1028h-365v598h-538v-598h-365v1028h-110v227h110v236h365v-236h538v236h365v-236h108zM1038 926v102h-538v-102h538z" />
    <glyph glyph-name="hbar" unicode="&#x127;" horiz-adv-x="1327" 
d="M782 1104q64 0 124 -13.5t121 -49.5t106 -91t73.5 -145.5t28.5 -206.5v-598h-361v545q0 117 -50.5 177.5t-147.5 57.5q-92 -3 -141.5 -57t-49.5 -154v-569h-360v1159h-115v268h115v129h360v-129h342v-268h-342v-174q88 119 297 119z" />
    <glyph glyph-name="Itilde" unicode="&#x128;" horiz-adv-x="610" 
d="M125 1927q53 0 104 -17t83.5 -37t70 -37t66.5 -17q38 0 59.5 23.5t21.5 66.5h175q9 -144 -49 -227t-171 -83q-68 0 -129.5 27.5t-109.5 54.5t-84 27q-38 0 -60 -23.5t-22 -66.5h-174q-9 144 48.5 226.5t170.5 82.5zM487 1491v-1491h-364v1491h364z" />
    <glyph glyph-name="itilde" unicode="&#x129;" horiz-adv-x="565" 
d="M100 1518q53 0 104 -17t83.5 -37.5t70 -37.5t66.5 -17q38 0 60 23.5t22 66.5h174q9 -144 -48.5 -226.5t-170.5 -82.5q-53 0 -104 17t-83.5 37t-70 37t-66.5 17q-38 0 -60 -23.5t-22 -66.5h-174q-9 144 48.5 227t170.5 83zM102 0v1081h361v-1081h-361z" />
    <glyph glyph-name="Imacron" unicode="&#x12a;" horiz-adv-x="610" 
d="M-33 1870h674v-228h-674v228zM487 1491v-1491h-364v1491h364z" />
    <glyph glyph-name="imacron" unicode="&#x12b;" horiz-adv-x="565" 
d="M-57 1460h673v-227h-673v227zM102 0v1081h361v-1081h-361z" />
    <glyph glyph-name="Ibreve" unicode="&#x12c;" horiz-adv-x="610" 
d="M305 1569q-146 0 -234.5 88.5t-84.5 251.5h219q-9 -127 100 -127q53 0 79 33t22 94h219q4 -163 -84.5 -251.5t-235.5 -88.5zM487 1491v-1491h-364v1491h364z" />
    <glyph glyph-name="ibreve" unicode="&#x12d;" horiz-adv-x="565" 
d="M281 1159q-147 0 -235.5 88.5t-84.5 251.5h219q-9 -127 101 -127q53 0 78.5 33t21.5 94h219q4 -163 -84.5 -251.5t-234.5 -88.5zM102 0v1081h361v-1081h-361z" />
    <glyph glyph-name="Iogonek" unicode="&#x12e;" horiz-adv-x="610" 
d="M487 0q-75 -29 -118 -66.5t-43 -70.5q0 -31 15.5 -45.5t57.5 -14.5q25 0 68 17v-193q-60 -33 -145 -33q-96 0 -158 48.5t-62 130.5q0 68 43 127.5t129 99.5h-151v1491h364v-1491z" />
    <glyph glyph-name="iogonek" unicode="&#x12f;" horiz-adv-x="565" 
d="M451 1536v-326h-342v326h342zM463 0q-75 -29 -118.5 -66.5t-43.5 -70.5q0 -31 16 -45.5t58 -14.5q25 0 67 17v-193q-60 -33 -145 -33q-96 0 -157.5 48.5t-61.5 130.5q0 68 43 127.5t129 99.5h-148v1081h361v-1081z" />
    <glyph glyph-name="Idotaccent" unicode="&#x130;" horiz-adv-x="610" 
d="M133 1620v326h342v-326h-342zM487 1491v-1491h-364v1491h364z" />
    <glyph glyph-name="dotlessi" unicode="&#x131;" horiz-adv-x="565" 
d="M102 0v1081h361v-1081h-361z" />
    <glyph glyph-name="IJ" unicode="&#x132;" horiz-adv-x="1812" 
d="M487 1491v-1491h-364v1491h364zM954 514q0 -205 185 -205q84 0 130 52t46 153v977h364v-983q0 -133 -42 -236t-115.5 -165.5t-167.5 -94.5t-205 -32q-258 0 -403.5 132t-145.5 402h354z" />
    <glyph glyph-name="ij" unicode="&#x133;" horiz-adv-x="1114" 
d="M109 1210v326h342v-326h-342zM659 1210v326h342v-326h-342zM102 0v1081h361v-1081h-361zM1012 -6q0 -203 -105 -303.5t-327 -100.5h-127v314h100q50 0 74 25t24 81v1071h361v-1087z" />
    <glyph glyph-name="Jcircumflex" unicode="&#x134;" horiz-adv-x="1222" 
d="M928 1729l86 -136h284l-233 336h-274l-234 -336h285zM385 514q0 -205 184 -205q84 0 130 52t46 153v977h365v-983q0 -133 -42 -236t-115.5 -165.5t-167.5 -94.5t-205 -32q-258 0 -403.5 132t-145.5 402h354z" />
    <glyph glyph-name="jcircumflex" unicode="&#x135;" horiz-adv-x="585" 
d="M303 1319l86 -135h285l-234 336h-274l-234 -336h285zM483 -6q0 -203 -105 -303.5t-327 -100.5h-127v314h101q50 0 74 25t24 81v1071h360v-1087z" />
    <glyph glyph-name="Kcommaaccent" unicode="&#x136;" horiz-adv-x="1488" 
d="M1468 1491l-575 -629l561 -862h-467l-371 575l-129 -133v-442h-364v1491h364v-610l553 610h428zM567 -340v268h297v-268l-106 -178h-176l108 178h-123z" />
    <glyph glyph-name="kcommaaccent" unicode="&#x137;" horiz-adv-x="1267" 
d="M1257 1083l-452 -452l452 -631h-450l-262 377l-72 -70v-307h-371v1556h361v-839l354 366h440zM485 -338v268h297v-268l-106 -178h-176l108 178h-123z" />
    <glyph glyph-name="Lacute" unicode="&#x139;" horiz-adv-x="1189" 
d="M176 1593l191 336h282l-217 -336h-256zM487 332h641v-332h-1005v1491h364v-1159z" />
    <glyph glyph-name="lacute" unicode="&#x13a;" horiz-adv-x="565" 
d="M154 1622l190 336h283l-217 -336h-256zM463 1556v-1556h-361v1556h361z" />
    <glyph glyph-name="Lcommaaccent" unicode="&#x13b;" horiz-adv-x="1189" 
d="M487 332h641v-332h-1005v1491h364v-1159zM489 -360v268h297v-268l-106 -179h-176l108 179h-123z" />
    <glyph glyph-name="lcommaaccent" unicode="&#x13c;" horiz-adv-x="565" 
d="M102 1556h361v-1556h-361v1556zM133 -338v268h297v-268l-106 -178h-177l109 178h-123z" />
    <glyph glyph-name="Lcaron" unicode="&#x13d;" horiz-adv-x="1189" 
d="M487 332h641v-332h-1005v1491h364v-1159zM907 1491l-88 -406h-217l31 406h274z" />
    <glyph glyph-name="lcaron" unicode="&#x13e;" horiz-adv-x="667" 
d="M463 1556v-1556h-361v1556h361zM852 1556l-88 -405h-217l31 405h274z" />
    <glyph glyph-name="Ldot" unicode="&#x13f;" horiz-adv-x="1189" 
d="M487 332h641v-332h-1005v1491h364v-1159zM901 752q-76 0 -129 52.5t-53 125.5q0 76 52.5 129t129.5 53q74 0 126 -53t52 -129q0 -72 -52.5 -125t-125.5 -53z" />
    <glyph glyph-name="ldot" unicode="&#x140;" horiz-adv-x="843" 
d="M463 1556v-1556h-361v1556h361zM702 604q-76 0 -129 52.5t-53 125.5q0 77 53 130t129 53q74 0 126.5 -53.5t52.5 -129.5q0 -72 -53 -125t-126 -53z" />
    <glyph glyph-name="Lslash" unicode="&#x141;" horiz-adv-x="1210" 
d="M508 332h641v-332h-1006v575l-106 -69v301l106 70v614h365v-379l235 154v-303l-235 -152v-479z" />
    <glyph glyph-name="lslash" unicode="&#x142;" horiz-adv-x="649" 
d="M649 1079v-303l-143 -53v-723h-361v586l-145 -56v304l145 55v672h361v-535z" />
    <glyph glyph-name="Nacute" unicode="&#x143;" horiz-adv-x="1492" 
d="M618 1593l191 336h283l-218 -336h-256zM123 0v1491h364l521 -893v893h362v-1491h-362l-521 862v-862h-364z" />
    <glyph glyph-name="nacute" unicode="&#x144;" horiz-adv-x="1296" 
d="M1038 1520l-217 -336h-256l191 336h282zM766 1102q207 0 322.5 -125t115.5 -336v-641h-360v565q0 114 -49 174t-140 60q-94 0 -143 -60t-49 -174v-565h-361v1081h340l17 -104q90 125 307 125z" />
    <glyph glyph-name="Ncommaaccent" unicode="&#x145;" horiz-adv-x="1492" 
d="M1008 1491h362v-1491h-362l-521 862v-862h-364v1491h364l521 -893v893zM598 -334v268h297v-268l-107 -178h-176l109 178h-123z" />
    <glyph glyph-name="ncommaaccent" unicode="&#x146;" horiz-adv-x="1296" 
d="M766 1102q207 0 322.5 -125t115.5 -336v-641h-360v565q0 114 -49 174t-140 60q-94 0 -143 -60t-49 -174v-565h-361v1081h340l17 -104q90 125 307 125zM514 -338v268h297v-268l-106 -178h-177l109 178h-123z" />
    <glyph glyph-name="Ncaron" unicode="&#x147;" horiz-adv-x="1492" 
d="M748 1794l-86 135h-285l233 -336h275l233 336h-284zM123 0v1491h364l521 -893v893h362v-1491h-362l-521 862v-862h-364z" />
    <glyph glyph-name="ncaron" unicode="&#x148;" horiz-adv-x="1296" 
d="M831 1184h-274l-233 336h284l86 -136l86 136h285zM766 1102q207 0 322.5 -125t115.5 -336v-641h-360v565q0 114 -49 174t-140 60q-94 0 -143 -60t-49 -174v-565h-361v1081h340l17 -104q90 125 307 125z" />
    <glyph glyph-name="Eng" unicode="&#x14a;" horiz-adv-x="1492" 
d="M1008 0l-521 862v-862h-364v1491h364l521 -893v893h362v-1497q0 -203 -105 -303.5t-327 -100.5h-127v314h100q97 0 97 82v14z" />
    <glyph glyph-name="eng" unicode="&#x14b;" horiz-adv-x="1337" 
d="M868 27v538q0 117 -53 175.5t-145 58.5q-100 0 -151.5 -63t-51.5 -171v-565h-361v1081h340l17 -106q98 127 317 127q213 0 331 -125t118 -336v-641q0 -212 -115.5 -323t-316.5 -111h-189v313h121q64 0 101.5 30.5t37.5 117.5z" />
    <glyph glyph-name="Omacron" unicode="&#x14c;" horiz-adv-x="1593" 
d="M459 1890h674v-227h-674v227zM797 -20q-216 0 -384 96.5t-260 270.5t-92 398t92 398.5t260 271t384 96.5t383.5 -96.5t259.5 -271t92 -398.5t-92 -398t-259.5 -270.5t-383.5 -96.5zM797 324q166 0 256 111t90 310t-90 310.5t-256 111.5t-256 -111.5t-90 -310.5
q0 -200 90 -310.5t256 -110.5z" />
    <glyph glyph-name="omacron" unicode="&#x14d;" horiz-adv-x="1294" 
d="M309 1460h674v-227h-674v227zM72 543q0 250 162 406.5t413 156.5t413.5 -156.5t162.5 -406.5q0 -252 -162 -407.5t-414 -155.5t-413.5 155.5t-161.5 407.5zM436 545q0 -120 57 -191t154 -71t154 71t57 191q0 118 -57 188t-154 70t-154 -70t-57 -188z" />
    <glyph glyph-name="Obreve" unicode="&#x14e;" horiz-adv-x="1593" 
d="M797 1589q-147 0 -235.5 88.5t-84.5 251.5h219q-9 -127 101 -127q53 0 78.5 33t21.5 94h219q4 -163 -84.5 -251.5t-234.5 -88.5zM797 -20q-216 0 -384 96.5t-260 270.5t-92 398t92 398.5t260 271t384 96.5t383.5 -96.5t259.5 -271t92 -398.5t-92 -398t-259.5 -270.5
t-383.5 -96.5zM797 324q166 0 256 111t90 310t-90 310.5t-256 111.5t-256 -111.5t-90 -310.5q0 -200 90 -310.5t256 -110.5z" />
    <glyph glyph-name="obreve" unicode="&#x14f;" horiz-adv-x="1294" 
d="M647 1159q-146 0 -234.5 88.5t-84.5 251.5h219q-9 -127 100 -127q53 0 79 33t22 94h219q4 -163 -84.5 -251.5t-235.5 -88.5zM72 543q0 250 162 406.5t413 156.5t413.5 -156.5t162.5 -406.5q0 -252 -162 -407.5t-414 -155.5t-413.5 155.5t-161.5 407.5zM436 545
q0 -120 57 -191t154 -71t154 71t57 191q0 118 -57 188t-154 70t-154 -70t-57 -188z" />
    <glyph glyph-name="Ohungarumlaut" unicode="&#x150;" horiz-adv-x="1593" 
d="M492 1614l190 336h283l-217 -336h-256zM846 1614l235 336h285l-262 -336h-258zM797 -20q-216 0 -384 96.5t-260 270.5t-92 398t92 398.5t260 271t384 96.5t383.5 -96.5t259.5 -271t92 -398.5t-92 -398t-259.5 -270.5t-383.5 -96.5zM797 324q166 0 256 111t90 310
t-90 310.5t-256 111.5t-256 -111.5t-90 -310.5q0 -200 90 -310.5t256 -110.5z" />
    <glyph glyph-name="ohungarumlaut" unicode="&#x151;" horiz-adv-x="1294" 
d="M342 1184l190 336h283l-217 -336h-256zM696 1184l236 336h285l-263 -336h-258zM72 543q0 250 162 406.5t413 156.5t413.5 -156.5t162.5 -406.5q0 -252 -162 -407.5t-414 -155.5t-413.5 155.5t-161.5 407.5zM436 545q0 -120 57 -191t154 -71t154 71t57 191q0 118 -57 188
t-154 70t-154 -70t-57 -188z" />
    <glyph glyph-name="OE" unicode="&#x152;" horiz-adv-x="2312" 
d="M1577 315h674v-315h-1039v131q-72 -71 -187.5 -111t-248.5 -40q-155 0 -288 56t-227 156t-147 243t-53 310q0 224 92 398.5t260 271t384 96.5q124 0 232 -36.5t183 -100.5v117h1016v-315h-651v-275h498v-307h-498v-279zM797 324q166 0 256 111t90 310t-90 310.5
t-256 111.5t-256 -111.5t-90 -310.5q0 -200 90 -310.5t256 -110.5z" />
    <glyph glyph-name="oe" unicode="&#x153;" horiz-adv-x="1988" 
d="M1917 549v-107h-733q0 -78 60 -129t155 -51q134 0 168 100h344q-31 -173 -180 -280t-361 -107q-246 0 -369 152q-129 -152 -374 -152q-249 0 -402 155.5t-153 410.5q0 253 153 408t402 155q245 0 374 -152q123 152 369 152q247 0 397 -151t150 -404zM1184 668h375
q-7 76 -60.5 116.5t-128.5 40.5t-127.5 -40.5t-58.5 -116.5zM627 281q90 0 140 71t50 189t-49.5 188t-140.5 70t-141 -70t-50 -188t50.5 -189t140.5 -71z" />
    <glyph glyph-name="Racute" unicode="&#x154;" horiz-adv-x="1419" 
d="M528 1593l191 336h282l-217 -336h-256zM123 0v1491h711q140 0 256.5 -59t187 -173.5t70.5 -263.5q0 -171 -77 -297.5t-200 -171.5l254 -526h-410l-217 477h-211v-477h-364zM487 778h273q100 0 152.5 52.5t52.5 150.5q0 195 -205 195h-273v-398z" />
    <glyph glyph-name="racute" unicode="&#x155;" horiz-adv-x="880" 
d="M848 1520l-217 -336h-256l190 336h283zM696 1081h154v-315h-176q-118 0 -161.5 -58t-43.5 -176v-532h-360v1081h340l34 -106q64 106 213 106z" />
    <glyph glyph-name="Rcommaaccent" unicode="&#x156;" horiz-adv-x="1419" 
d="M1348 995q0 -171 -77 -297.5t-200 -171.5l254 -526h-410l-217 477h-211v-477h-364v1491h711q140 0 256.5 -59t187 -173.5t70.5 -263.5zM760 778q100 0 152.5 52.5t52.5 150.5q0 195 -205 195h-273v-398h273zM553 -334v268h297v-268l-107 -178h-176l109 178h-123z" />
    <glyph glyph-name="rcommaaccent" unicode="&#x157;" horiz-adv-x="880" 
d="M696 1081h154v-315h-176q-118 0 -161.5 -58t-43.5 -176v-532h-360v1081h340l34 -106q64 106 213 106zM139 -334v268h297v-268l-106 -178h-176l108 178h-123z" />
    <glyph glyph-name="Rcaron" unicode="&#x158;" horiz-adv-x="1419" 
d="M657 1794l-86 135h-284l233 -336h275l233 336h-285zM123 0v1491h711q140 0 256.5 -59t187 -173.5t70.5 -263.5q0 -171 -77 -297.5t-200 -171.5l254 -526h-410l-217 477h-211v-477h-364zM487 778h273q100 0 152.5 52.5t52.5 150.5q0 195 -205 195h-273v-398z" />
    <glyph glyph-name="rcaron" unicode="&#x159;" horiz-adv-x="880" 
d="M641 1184h-274l-234 336h285l86 -136l86 136h284zM483 975q64 106 213 106h154v-315h-176q-118 0 -161.5 -58t-43.5 -176v-532h-360v1081h340z" />
    <glyph glyph-name="Sacute" unicode="&#x15a;" horiz-adv-x="1359" 
d="M547 1614l190 336h283l-217 -336h-256zM1298 446q0 -146 -81.5 -253t-217 -159t-307.5 -52q-296 0 -467.5 129t-171.5 344h367q0 -77 67.5 -124.5t202.5 -47.5q108 0 168 41.5t60 107.5q0 59 -37.5 90.5t-132.5 50.5l-230 45q-206 41 -318 148.5t-112 277.5
q0 96 38.5 180t111 148.5t185.5 101.5t253 37q74 0 142.5 -9.5t137 -30.5t125 -58t100.5 -87t68.5 -122t24.5 -160h-354q0 49 -20 84.5t-55 55t-77.5 28.5t-93.5 9q-103 0 -157 -39t-54 -99q0 -55 42.5 -89t153.5 -56l230 -45q209 -41 309 -151.5t100 -295.5z" />
    <glyph glyph-name="sacute" unicode="&#x15b;" horiz-adv-x="1089" 
d="M416 1184l190 336h283l-217 -336h-256zM35 350h348q0 -56 49.5 -88.5t118.5 -32.5q127 0 127 74q0 38 -29.5 60.5t-111.5 39.5l-199 41q-277 56 -277 314q0 102 65.5 181t174 121t238.5 42q218 0 356.5 -99.5t138.5 -259.5h-350q0 50 -40.5 79.5t-104.5 29.5
q-59 0 -89 -21t-30 -55q0 -33 30.5 -49t106.5 -33l193 -43q294 -65 294 -315q0 -117 -69 -199.5t-176.5 -119.5t-241.5 -37q-146 0 -264 45t-188 130t-70 195z" />
    <glyph glyph-name="Scircumflex" unicode="&#x15c;" horiz-adv-x="1359" 
d="M676 1749l86 -135h285l-234 336h-274l-234 -336h285zM1298 446q0 -146 -81.5 -253t-217 -159t-307.5 -52q-296 0 -467.5 129t-171.5 344h367q0 -77 67.5 -124.5t202.5 -47.5q108 0 168 41.5t60 107.5q0 59 -37.5 90.5t-132.5 50.5l-230 45q-206 41 -318 148.5t-112 277.5
q0 96 38.5 180t111 148.5t185.5 101.5t253 37q74 0 142.5 -9.5t137 -30.5t125 -58t100.5 -87t68.5 -122t24.5 -160h-354q0 49 -20 84.5t-55 55t-77.5 28.5t-93.5 9q-103 0 -157 -39t-54 -99q0 -55 42.5 -89t153.5 -56l230 -45q209 -41 309 -151.5t100 -295.5z" />
    <glyph glyph-name="scircumflex" unicode="&#x15d;" horiz-adv-x="1089" 
d="M545 1319l86 -135h284l-233 336h-274l-234 -336h285zM35 350h348q0 -56 49.5 -88.5t118.5 -32.5q127 0 127 74q0 38 -29.5 60.5t-111.5 39.5l-199 41q-277 56 -277 314q0 102 65.5 181t174 121t238.5 42q218 0 356.5 -99.5t138.5 -259.5h-350q0 50 -40.5 79.5
t-104.5 29.5q-59 0 -89 -21t-30 -55q0 -33 30.5 -49t106.5 -33l193 -43q294 -65 294 -315q0 -117 -69 -199.5t-176.5 -119.5t-241.5 -37q-146 0 -264 45t-188 130t-70 195z" />
    <glyph glyph-name="Scedilla" unicode="&#x15e;" horiz-adv-x="1359" 
d="M1298 446q0 -139 -74.5 -243t-198.5 -158t-284 -61l-18 -66q88 2 140 -38.5t52 -123.5q0 -77 -59.5 -124.5t-148.5 -47.5q-122 0 -178 50t-56 133h154q6 -43 55 -43q24 0 37.5 13.5t13.5 35.5q0 30 -26 43.5t-64 5.5l-63 37l38 125q-263 17 -414 144t-151 327h367
q0 -77 67.5 -124.5t202.5 -47.5q108 0 168 41.5t60 107.5q0 59 -37.5 90.5t-132.5 50.5l-230 45q-206 41 -318 148.5t-112 277.5q0 96 38.5 180t111 148.5t185.5 101.5t253 37q74 0 142.5 -9.5t137 -30.5t125 -58t100.5 -87t68.5 -122t24.5 -160h-354q0 49 -20 84.5t-55 55
t-77.5 28.5t-93.5 9q-103 0 -157 -39t-54 -99q0 -55 42.5 -89t153.5 -56l230 -45q209 -41 309 -151.5t100 -295.5z" />
    <glyph glyph-name="scedilla" unicode="&#x15f;" horiz-adv-x="1089" 
d="M1044 336q0 -110 -61.5 -190t-158.5 -119t-220 -45l-12 -45q88 2 140 -38.5t52 -123.5q0 -77 -60 -124.5t-149 -47.5q-122 0 -177.5 49.5t-55.5 132.5h154q6 -43 55 -43q24 0 37.5 13.5t13.5 35.5q0 30 -26 43.5t-64 5.5l-63 37l32 107q-195 18 -320.5 117t-125.5 249
h348q0 -56 49.5 -88.5t118.5 -32.5q127 0 127 74q0 38 -29.5 60.5t-111.5 39.5l-199 41q-277 56 -277 314q0 102 65.5 181t174 121t238.5 42q218 0 356.5 -99.5t138.5 -259.5h-350q0 50 -40.5 79.5t-104.5 29.5q-59 0 -89 -21t-30 -55q0 -33 30.5 -49t106.5 -33l193 -43
q294 -65 294 -315z" />
    <glyph glyph-name="Scaron" unicode="&#x160;" horiz-adv-x="1359" 
d="M676 1815l-86 135h-285l234 -336h274l234 336h-285zM1298 446q0 -146 -81.5 -253t-217 -159t-307.5 -52q-296 0 -467.5 129t-171.5 344h367q0 -77 67.5 -124.5t202.5 -47.5q108 0 168 41.5t60 107.5q0 59 -37.5 90.5t-132.5 50.5l-230 45q-206 41 -318 148.5t-112 277.5
q0 96 38.5 180t111 148.5t185.5 101.5t253 37q74 0 142.5 -9.5t137 -30.5t125 -58t100.5 -87t68.5 -122t24.5 -160h-354q0 49 -20 84.5t-55 55t-77.5 28.5t-93.5 9q-103 0 -157 -39t-54 -99q0 -55 42.5 -89t153.5 -56l230 -45q209 -41 309 -151.5t100 -295.5z" />
    <glyph glyph-name="scaron" unicode="&#x161;" horiz-adv-x="1089" 
d="M545 1384l-86 136h-285l234 -336h274l233 336h-284zM35 350h348q0 -56 49.5 -88.5t118.5 -32.5q127 0 127 74q0 38 -29.5 60.5t-111.5 39.5l-199 41q-277 56 -277 314q0 102 65.5 181t174 121t238.5 42q218 0 356.5 -99.5t138.5 -259.5h-350q0 50 -40.5 79.5t-104.5 29.5
q-59 0 -89 -21t-30 -55q0 -33 30.5 -49t106.5 -33l193 -43q294 -65 294 -315q0 -117 -69 -199.5t-176.5 -119.5t-241.5 -37q-146 0 -264 45t-188 130t-70 195z" />
    <glyph glyph-name="uni0162" unicode="&#x162;" horiz-adv-x="1318" 
d="M41 1491h1237v-315h-436v-1176h-365v1176h-436v315zM510 -334v268h297v-268l-107 -178h-176l109 178h-123z" />
    <glyph glyph-name="uni0163" unicode="&#x163;" horiz-adv-x="829" 
d="M768 766h-244v-330q0 -75 23 -99t92 -24h129v-313h-254q-178 0 -264 93.5t-86 254.5v418h-152v315h70q47 0 64.5 26.5t17.5 86.5v190h360v-303h244v-315zM338 -334v268h297v-268l-107 -178h-176l109 178h-123z" />
    <glyph glyph-name="Tcaron" unicode="&#x164;" horiz-adv-x="1318" 
d="M659 1794l-86 135h-284l233 -336h275l233 336h-285zM842 1176v-1176h-365v1176h-436v315h1237v-315h-436z" />
    <glyph glyph-name="tcaron" unicode="&#x165;" horiz-adv-x="849" 
d="M901 1556l-88 -405h-217l31 405h274zM514 0q-178 0 -264 93.5t-86 254.5v418h-152v315h70q47 0 64.5 26.5t17.5 86.5v190h360v-303h244v-315h-244v-330q0 -75 23 -99t92 -24h129v-313h-254z" />
    <glyph glyph-name="Tbar" unicode="&#x166;" horiz-adv-x="1318" 
d="M1278 1176h-436v-332h227v-269h-227v-575h-365v575h-225v269h225v332h-436v315h1237v-315z" />
    <glyph glyph-name="tbar" unicode="&#x167;" horiz-adv-x="878" 
d="M788 766h-243v-70h239v-268h-239q1 -71 24 -93t90 -22h129v-313h-253q-178 0 -264.5 93.5t-86.5 254.5v80h-143v268h143v70h-151v315h69q47 0 64.5 26.5t17.5 86.5v190h361v-303h243v-315z" />
    <glyph glyph-name="Utilde" unicode="&#x168;" horiz-adv-x="1480" 
d="M561 1927q53 0 104 -17t83.5 -37t70 -37t66.5 -17q38 0 60 23.5t22 66.5h174q9 -144 -48.5 -227t-170.5 -83q-53 0 -104 17t-83.5 37.5t-70 37.5t-66.5 17q-38 0 -60 -23.5t-22 -66.5h-174q-9 144 48.5 226.5t170.5 82.5zM477 1491v-938q0 -125 74.5 -192.5t189.5 -67.5
t190 67.5t75 192.5v938h370v-891q0 -288 -167.5 -454t-467.5 -166q-303 0 -470 165.5t-167 454.5v891h373z" />
    <glyph glyph-name="utilde" unicode="&#x169;" horiz-adv-x="1232" 
d="M381 1208h-174q-9 144 48.5 227t170.5 83q53 0 104 -17t83.5 -37.5t70 -37.5t66.5 -17q38 0 59.5 23.5t21.5 66.5h175q9 -144 -49 -226.5t-171 -82.5q-53 0 -104 17t-83 37t-69.5 37t-66.5 17q-38 0 -60 -23.5t-22 -66.5zM793 1083h337v-1083h-331l-15 96
q-90 -116 -245 -116q-211 0 -329 126t-118 336v641h338v-600q0 -101 50 -151t143 -47q170 6 170 204v594z" />
    <glyph glyph-name="Umacron" unicode="&#x16a;" horiz-adv-x="1480" 
d="M403 1870h674v-228h-674v228zM477 1491v-938q0 -125 74.5 -192.5t189.5 -67.5t190 67.5t75 192.5v938h370v-891q0 -288 -167.5 -454t-467.5 -166q-303 0 -470 165.5t-167 454.5v891h373z" />
    <glyph glyph-name="umacron" unicode="&#x16b;" horiz-adv-x="1232" 
d="M942 1460v-227h-674v227h674zM793 1083h337v-1083h-331l-15 96q-90 -116 -245 -116q-211 0 -329 126t-118 336v641h338v-600q0 -101 50 -151t143 -47q170 6 170 204v594z" />
    <glyph glyph-name="Ubreve" unicode="&#x16c;" horiz-adv-x="1480" 
d="M741 1569q-146 0 -234.5 88.5t-84.5 251.5h219q-9 -127 100 -127q53 0 79 33t22 94h219q4 -163 -84.5 -251.5t-235.5 -88.5zM477 1491v-938q0 -125 74.5 -192.5t189.5 -67.5t190 67.5t75 192.5v938h370v-891q0 -288 -167.5 -454t-467.5 -166q-303 0 -470 165.5
t-167 454.5v891h373z" />
    <glyph glyph-name="ubreve" unicode="&#x16d;" horiz-adv-x="1232" 
d="M606 1159q-146 0 -234.5 88.5t-84.5 251.5h219q-9 -127 100 -127q53 0 79 33t22 94h219q4 -163 -84.5 -251.5t-235.5 -88.5zM793 1083h337v-1083h-331l-15 96q-90 -116 -245 -116q-211 0 -329 126t-118 336v641h338v-600q0 -101 50 -151t143 -47q170 6 170 204v594z" />
    <glyph glyph-name="Uring" unicode="&#x16e;" horiz-adv-x="1480" 
d="M461 1710q0 127 82.5 196.5t197.5 69.5t198 -69.5t83 -196.5q0 -87 -41.5 -150.5t-104 -92.5t-135.5 -29q-114 0 -197 71.5t-83 200.5zM639 1708q0 -46 30.5 -75t71.5 -29t72 29t31 75q0 45 -30.5 73.5t-72.5 28.5t-72 -28t-30 -74zM477 1491v-938q0 -125 74.5 -192.5
t189.5 -67.5t190 67.5t75 192.5v938h370v-891q0 -288 -167.5 -454t-467.5 -166q-303 0 -470 165.5t-167 454.5v891h373z" />
    <glyph glyph-name="uring" unicode="&#x16f;" horiz-adv-x="1232" 
d="M793 1083h337v-1083h-331l-15 96q-90 -116 -245 -116q-211 0 -329 126t-118 336v641h336q-102 75 -102 217q0 127 82.5 197t197.5 70t198 -70t83 -197q0 -87 -41.5 -150.5t-104 -92.5t-135.5 -29q-103 0 -176 55v-600q0 -101 50 -151t143 -47q170 6 170 204v594z
M606 1401q-41 0 -71.5 -28.5t-30.5 -74.5t30.5 -75t71.5 -29t72 29t31 75t-30.5 74.5t-72.5 28.5z" />
    <glyph glyph-name="Uhungarumlaut" unicode="&#x170;" horiz-adv-x="1480" 
d="M436 1593l191 336h282l-217 -336h-256zM791 1593l235 336h285l-262 -336h-258zM477 1491v-938q0 -125 74.5 -192.5t189.5 -67.5t190 67.5t75 192.5v938h370v-891q0 -288 -167.5 -454t-467.5 -166q-303 0 -470 165.5t-167 454.5v891h373z" />
    <glyph glyph-name="uhungarumlaut" unicode="&#x171;" horiz-adv-x="1232" 
d="M774 1520l-217 -336h-256l191 336h282zM913 1184h-258l236 336h285zM793 489v594h337v-1083h-331l-15 96q-90 -116 -245 -116q-211 0 -329 126t-118 336v641h338v-600q0 -101 50 -151t143 -47q170 6 170 204z" />
    <glyph glyph-name="Uogonek" unicode="&#x172;" horiz-adv-x="1480" 
d="M1006 1491h370v-891q0 -240 -117 -397.5t-333 -204.5q-69 -29 -108.5 -64.5t-39.5 -66.5t16 -45.5t58 -14.5q26 0 68 17v-193q-58 -32 -146 -32q-96 0 -157.5 48t-61.5 130q0 124 129 205q-276 15 -428 179.5t-152 438.5v891h373v-938q0 -125 74.5 -192.5t189.5 -67.5
t190 67.5t75 192.5v938z" />
    <glyph glyph-name="uogonek" unicode="&#x173;" horiz-adv-x="1232" 
d="M1130 0q-75 -29 -118 -66.5t-43 -70.5q0 -31 15.5 -45.5t57.5 -14.5q26 0 68 17v-193q-60 -33 -145 -33q-96 0 -158 48.5t-62 130.5q0 67 43.5 127t129.5 100h-119l-15 96q-90 -116 -245 -116q-211 0 -329 126t-118 336v641h338v-600q0 -101 50 -151t143 -47
q170 6 170 204v594h337v-1083z" />
    <glyph glyph-name="Wcircumflex" unicode="&#x174;" horiz-adv-x="2191" 
d="M1104 1729l86 -136h285l-234 336h-274l-234 -336h285zM410 0l-385 1491h385l219 -1036l278 1036h408l246 -1036l235 1036h371l-391 -1491h-410l-266 1024l-281 -1024h-409z" />
    <glyph glyph-name="wcircumflex" unicode="&#x175;" horiz-adv-x="1753" 
d="M881 1319l86 -135h284l-233 336h-275l-233 -336h285zM399 1081l138 -690l155 690h381l146 -694l135 694h379l-293 -1081h-396l-157 711l-178 -711h-398l-291 1081h379z" />
    <glyph glyph-name="Ycircumflex" unicode="&#x176;" 
d="M750 1729l86 -136h284l-233 336h-275l-233 -336h285zM551 541l-551 950h434l301 -569l328 569h432l-580 -950v-541h-364v541z" />
    <glyph glyph-name="ycircumflex" unicode="&#x177;" horiz-adv-x="1243" 
d="M621 1319l86 -135h284l-233 336h-275l-233 -336h285zM393 1081l242 -735l231 735h367l-451 -1251q-22 -61 -56.5 -105.5t-72.5 -70t-88.5 -40.5t-95 -19.5t-100.5 -4.5h-291v316h291q65 0 65 53q0 25 -18 74l-406 1048h383z" />
    <glyph glyph-name="Ydieresis" unicode="&#x178;" 
d="M362 1597v297h312v-297h-312zM823 1597v297h312v-297h-312zM551 541l-551 950h434l301 -569l328 569h432l-580 -950v-541h-364v541z" />
    <glyph glyph-name="Zacute" unicode="&#x179;" horiz-adv-x="1255" 
d="M510 1593l190 336h283l-217 -336h-256zM539 315h649v-315h-1116v272l665 904h-645v315h1094v-272z" />
    <glyph glyph-name="zacute" unicode="&#x17a;" horiz-adv-x="1069" 
d="M408 1184l190 336h283l-217 -336h-256zM530 315h463v-315h-921v311l467 455h-463v315h921v-311z" />
    <glyph glyph-name="Zdotaccent" unicode="&#x17b;" horiz-adv-x="1255" 
d="M467 1620v326h342v-326h-342zM539 315h649v-315h-1116v272l665 904h-645v315h1094v-272z" />
    <glyph glyph-name="zdotaccent" unicode="&#x17c;" horiz-adv-x="1069" 
d="M365 1210v326h342v-326h-342zM530 315h463v-315h-921v311l467 455h-463v315h921v-311z" />
    <glyph glyph-name="Zcaron" unicode="&#x17d;" horiz-adv-x="1255" 
d="M639 1794l-86 135h-285l234 -336h274l234 336h-285zM539 315h649v-315h-1116v272l665 904h-645v315h1094v-272z" />
    <glyph glyph-name="zcaron" unicode="&#x17e;" horiz-adv-x="1069" 
d="M537 1384l-86 136h-285l233 -336h275l233 336h-284zM530 315h463v-315h-921v311l467 455h-463v315h921v-311z" />
    <glyph glyph-name="florin" unicode="&#x192;" horiz-adv-x="1206" 
d="M954 1186q-34 0 -56.5 -9t-33.5 -26t-16 -34.5t-10 -42.5q-1 -9 -2 -13l-43 -225h288v-263h-338l-108 -571q-32 -172 -116.5 -252t-262.5 -80h-190v303h145q58 0 84 24.5t37 86.5l92 489h-223v263h272l49 264q13 72 27 120.5t36.5 96.5t53 77.5t75.5 53t107 33.5t144 10
h176v-305h-187z" />
    <glyph glyph-name="Aringacute" unicode="&#x1fa;" 
d="M1120 2257l-217 -336h-256l191 336h282zM1077 0l-96 279h-494l-100 -279h-371l529 1409q-72 72 -72 188q0 127 83 197t198 70t197.5 -70t82.5 -197q0 -123 -80 -196l525 -1401h-402zM754 1698q-42 0 -72.5 -28.5t-30.5 -74.5t31 -75t72 -29t71.5 29t30.5 75t-30.5 74.5
t-71.5 28.5zM584 547h303l-148 428z" />
    <glyph glyph-name="aringacute" unicode="&#x1fb;" horiz-adv-x="1220" 
d="M930 1841l-217 -336h-256l190 336h283zM1135 258h45v-258h-189q-168 0 -209 115q-95 -135 -327 -135q-182 0 -288 88.5t-106 246.5q0 154 104 242t296 88h260v41q0 60 -41.5 97.5t-112.5 37.5q-72 0 -119 -37t-47 -94h-319q-4 133 66.5 230t199.5 143q-39 64 -39 147
q0 127 83 197t198 70t197.5 -70t82.5 -197q0 -89 -41 -151q114 -44 183 -137.5t69 -245.5v-369q0 -49 54 -49zM590 1311q-42 0 -72.5 -28.5t-30.5 -74.5t31 -75t72 -29t71.5 29t30.5 75t-30.5 74.5t-71.5 28.5zM719 387v35h-184q-105 0 -105 -82q0 -84 127 -84
q162 0 162 131z" />
    <glyph glyph-name="AEacute" unicode="&#x1fc;" horiz-adv-x="2121" 
d="M1223 1620l190 336h283l-217 -336h-256zM-10 0l864 1491h1186v-315h-654v-275h498v-307h-498v-279h674v-315h-1018v299h-452l-164 -299h-436zM750 588h292l-2 530z" />
    <glyph glyph-name="aeacute" unicode="&#x1fd;" horiz-adv-x="1878" 
d="M1233 1520l-217 -336h-256l190 336h283zM1806 553v-107h-733q0 -84 54.5 -134t136.5 -50q65 0 120.5 26t71.5 74h344q-20 -113 -94 -202t-184.5 -137t-237.5 -48q-268 0 -407 164q-132 -159 -383 -159q-200 0 -316.5 89t-116.5 250q0 152 104.5 240t295.5 88h260v49
q0 58 -41.5 91.5t-108.5 33.5q-84 0 -124.5 -35.5t-40.5 -95.5h-324q-4 188 127.5 300t345.5 112q101 0 193.5 -33t154.5 -104q136 139 377 139q233 0 379.5 -150t146.5 -401zM1073 672h375q-7 76 -59 114.5t-127 38.5q-76 0 -129.5 -39t-59.5 -114zM719 393v31h-184
q-105 0 -105 -78q0 -84 127 -84q162 0 162 131z" />
    <glyph glyph-name="Oslashacute" unicode="&#x1fe;" horiz-adv-x="1593" 
d="M1141 1950l-217 -336h-256l190 336h283zM1305 1323q109 -102 168 -251t59 -327q0 -224 -92 -398t-259.5 -270.5t-383.5 -96.5q-155 0 -283 49l-55 -92h-291l135 219q-117 104 -179.5 254.5t-62.5 334.5q0 224 92 398.5t260 271t384 96.5q166 0 297 -55l59 96h291z
M434 745q0 -163 60 -274l426 698q-59 19 -123 19q-174 0 -268.5 -117t-94.5 -326zM797 303q173 0 267.5 116.5t94.5 325.5q0 157 -51 256l-418 -686q49 -12 107 -12z" />
    <glyph glyph-name="Scommaaccent" unicode="&#x218;" horiz-adv-x="1359" 
d="M889 893q209 -41 309 -151.5t100 -295.5q0 -146 -81.5 -253t-217 -159t-307.5 -52q-296 0 -467.5 129t-171.5 344h367q0 -77 67.5 -124.5t202.5 -47.5q108 0 168 41.5t60 107.5q0 59 -37.5 90.5t-132.5 50.5l-230 45q-206 41 -318 148.5t-112 277.5q0 96 38.5 180
t111 148.5t185.5 101.5t253 37q74 0 142.5 -9.5t137 -30.5t125 -58t100.5 -87t68.5 -122t24.5 -160h-354q0 49 -20 84.5t-55 55t-77.5 28.5t-93.5 9q-103 0 -157 -39t-54 -99q0 -55 42.5 -89t153.5 -56zM543 -352v268h297v-268l-107 -178h-176l109 178h-123z" />
    <glyph glyph-name="scommaaccent" unicode="&#x219;" horiz-adv-x="1089" 
d="M750 651q294 -65 294 -315q0 -117 -69 -199.5t-176.5 -119.5t-241.5 -37q-146 0 -264 45t-188 130t-70 195h348q0 -56 49.5 -88.5t118.5 -32.5q127 0 127 74q0 38 -29.5 60.5t-111.5 39.5l-199 41q-277 56 -277 314q0 102 65.5 181t174 121t238.5 42q218 0 356.5 -99.5
t138.5 -259.5h-350q0 50 -40.5 79.5t-104.5 29.5q-59 0 -89 -21t-30 -55q0 -33 30.5 -49t106.5 -33zM412 -334v268h297v-268l-107 -178h-176l109 178h-123z" />
    <glyph glyph-name="uni021A" unicode="&#x21a;" horiz-adv-x="1318" 
d="M41 1491h1237v-315h-436v-1176h-365v1176h-436v315zM510 -334v268h297v-268l-107 -178h-176l109 178h-123z" />
    <glyph glyph-name="uni021B" unicode="&#x21b;" horiz-adv-x="829" 
d="M768 766h-244v-330q0 -75 23 -99t92 -24h129v-313h-254q-178 0 -264 93.5t-86 254.5v418h-152v315h70q47 0 64.5 26.5t17.5 86.5v190h360v-303h244v-315zM338 -334v268h297v-268l-107 -178h-176l109 178h-123z" />
    <glyph glyph-name="uni0237" unicode="&#x237;" horiz-adv-x="585" 
d="M483 -6q0 -203 -105 -303.5t-327 -100.5h-127v314h101q50 0 74 25t24 81v1071h360v-1087z" />
    <glyph glyph-name="uni02BB" unicode="&#x2bb;" horiz-adv-x="362" 
d="M207 1507h123v-268h-297v268l106 179h176z" />
    <glyph glyph-name="uni02BC" unicode="&#x2bc;" horiz-adv-x="546" 
d="M604 1556l-88 -405h-217l31 405h274z" />
    <glyph glyph-name="circumflex" unicode="&#x2c6;" horiz-adv-x="874" 
d="M438 1458l86 -135h285l-234 336h-274l-233 -336h284z" />
    <glyph glyph-name="caron" unicode="&#x2c7;" horiz-adv-x="874" 
d="M438 1524l-86 135h-284l233 -336h274l234 336h-285z" />
    <glyph glyph-name="breve" unicode="&#x2d8;" horiz-adv-x="735" 
d="M371 1319q-147 0 -235.5 88.5t-84.5 251.5h219q-9 -127 101 -127q53 0 78.5 33t21.5 94h219q4 -163 -84.5 -251.5t-234.5 -88.5z" />
    <glyph glyph-name="dotaccent" unicode="&#x2d9;" horiz-adv-x="526" 
d="M92 1350v325h342v-325h-342z" />
    <glyph glyph-name="ring" unicode="&#x2da;" horiz-adv-x="647" 
d="M45 1499q0 127 83 196.5t198 69.5t197.5 -69.5t82.5 -196.5q0 -129 -83 -200.5t-197 -71.5q-73 0 -135.5 29t-104 92.5t-41.5 150.5zM223 1497q0 -46 31 -75t72 -29t71.5 29t30.5 75t-30 74t-72 28t-72.5 -28.5t-30.5 -73.5z" />
    <glyph glyph-name="ogonek" unicode="&#x2db;" horiz-adv-x="626" 
d="M465 -373q-60 -33 -146 -33q-96 0 -157.5 48.5t-61.5 130.5q0 68 43 127.5t129 99.5h213q-75 -29 -118 -66.5t-43 -70.5q0 -31 15.5 -45.5t57.5 -14.5q25 0 68 17v-193z" />
    <glyph glyph-name="tilde" unicode="&#x2dc;" horiz-adv-x="884" 
d="M268 1657q53 0 104 -17t83.5 -37.5t70 -37.5t66.5 -17q38 0 60 23.5t22 66.5h174q9 -144 -48.5 -226.5t-170.5 -82.5q-53 0 -104 17t-83.5 37.5t-70 37.5t-66.5 17q-38 0 -60 -23.5t-22 -66.5h-174q-9 144 48.5 226.5t170.5 82.5z" />
    <glyph glyph-name="hungarumlaut" unicode="&#x2dd;" horiz-adv-x="980" 
d="M80 1323l190 336h283l-217 -336h-256zM434 1323l236 336h284l-262 -336h-258z" />
    <glyph glyph-name="uni0326" unicode="&#x326;" horiz-adv-x="0" 
d="M-432 0h297v-268l-107 -178h-176l109 178h-123v268z" />
    <glyph glyph-name="uni0335" unicode="&#x335;" horiz-adv-x="0" 
d="M-758 748h817v-269h-817v269z" />
    <glyph glyph-name="uni0336" unicode="&#x336;" horiz-adv-x="0" 
d="M-1339 721h1226v-227h-1226v227z" />
    <glyph glyph-name="uni0337" unicode="&#x337;" horiz-adv-x="0" 
d="M-1141 -86l846 1247h291l-844 -1247h-293z" />
    <glyph glyph-name="uni0338" unicode="&#x338;" horiz-adv-x="0" 
d="M-1434 -63l985 1615h291l-985 -1615h-291z" />
    <glyph glyph-name="pi" unicode="&#x3c0;" horiz-adv-x="1683" 
d="M1583 862h-246v-383q0 -39 11 -66.5t24.5 -41t38 -20.5t39 -8t40.5 -1h3.5h3.5h86v-342h-229q-101 0 -175.5 32t-116.5 87.5t-61.5 121.5t-19.5 144l-2 477h-283v-862h-360v862h-236v316h1483v-316z" />
    <glyph glyph-name="Wgrave" unicode="&#x1e80;" horiz-adv-x="2191" 
d="M1233 1593h-256l-217 336h282zM410 0l-385 1491h385l219 -1036l278 1036h408l246 -1036l235 1036h371l-391 -1491h-410l-266 1024l-281 -1024h-409z" />
    <glyph glyph-name="wgrave" unicode="&#x1e81;" horiz-adv-x="1753" 
d="M1010 1184h-256l-217 336h282zM399 1081l138 -690l155 690h381l146 -694l135 694h379l-293 -1081h-396l-157 711l-178 -711h-398l-291 1081h379z" />
    <glyph glyph-name="Wacute" unicode="&#x1e82;" horiz-adv-x="2191" 
d="M975 1593l190 336h283l-217 -336h-256zM410 0l-385 1491h385l219 -1036l278 1036h408l246 -1036l235 1036h371l-391 -1491h-410l-266 1024l-281 -1024h-409z" />
    <glyph glyph-name="wacute" unicode="&#x1e83;" horiz-adv-x="1753" 
d="M752 1184l190 336h283l-217 -336h-256zM399 1081l138 -690l155 690h381l146 -694l135 694h379l-293 -1081h-396l-157 711l-178 -711h-398l-291 1081h379z" />
    <glyph glyph-name="Wdieresis" unicode="&#x1e84;" horiz-adv-x="2191" 
d="M717 1597v297h311v-297h-311zM1178 1597v297h311v-297h-311zM410 0l-385 1491h385l219 -1036l278 1036h408l246 -1036l235 1036h371l-391 -1491h-410l-266 1024l-281 -1024h-409z" />
    <glyph glyph-name="wdieresis" unicode="&#x1e85;" horiz-adv-x="1753" 
d="M494 1188v297h311v-297h-311zM954 1188v297h312v-297h-312zM399 1081l138 -690l155 690h381l146 -694l135 694h379l-293 -1081h-396l-157 711l-178 -711h-398l-291 1081h379z" />
    <glyph glyph-name="Ygrave" unicode="&#x1ef2;" 
d="M879 1593h-256l-217 336h282zM551 541l-551 950h434l301 -569l328 569h432l-580 -950v-541h-364v541z" />
    <glyph glyph-name="ygrave" unicode="&#x1ef3;" horiz-adv-x="1243" 
d="M750 1184h-256l-218 336h283zM393 1081l242 -735l231 735h367l-451 -1251q-22 -61 -56.5 -105.5t-72.5 -70t-88.5 -40.5t-95 -19.5t-100.5 -4.5h-291v316h291q65 0 65 53q0 25 -18 74l-406 1048h383z" />
    <glyph glyph-name="endash" unicode="&#x2013;" horiz-adv-x="1359" 
d="M61 778h1237v-317h-1237v317z" />
    <glyph glyph-name="emdash" unicode="&#x2014;" horiz-adv-x="2048" 
d="M61 778h1926v-317h-1926v317z" />
    <glyph glyph-name="quoteleft" unicode="&#x2018;" horiz-adv-x="569" 
d="M82 909v396l151 251h197l-129 -251h186v-396h-405z" />
    <glyph glyph-name="quoteright" unicode="&#x2019;" horiz-adv-x="569" 
d="M139 909l129 252h-186v395h405v-395l-151 -252h-197z" />
    <glyph glyph-name="quotesinglbase" unicode="&#x201a;" horiz-adv-x="569" 
d="M82 0v395h405v-395l-151 -252h-197l129 252h-186z" />
    <glyph glyph-name="quotedblleft" unicode="&#x201c;" horiz-adv-x="1060" 
d="M82 909v396l151 251h197l-129 -251h186v-396h-405zM573 909v396l152 251h197l-129 -251h186v-396h-406z" />
    <glyph glyph-name="quotedblright" unicode="&#x201d;" horiz-adv-x="1060" 
d="M139 909l129 252h-186v395h405v-395l-151 -252h-197zM631 909l129 252h-187v395h406v-395l-152 -252h-196z" />
    <glyph glyph-name="quotedblbase" unicode="&#x201e;" horiz-adv-x="1060" 
d="M82 0v395h405v-395l-151 -252h-197l129 252h-186zM573 0v395h406v-395l-152 -252h-196l129 252h-187z" />
    <glyph glyph-name="dagger" unicode="&#x2020;" horiz-adv-x="1112" 
d="M985 1163v-262h-297v-688h-264v688h-297v262h297v328h264v-328h297z" />
    <glyph glyph-name="daggerdbl" unicode="&#x2021;" horiz-adv-x="1112" 
d="M985 934h-297v-164h297v-262h-297v-295h-264v295h-297v262h297v164h-297v262h297v295h264v-295h297v-262z" />
    <glyph glyph-name="bullet" unicode="&#x2022;" horiz-adv-x="876" 
d="M438 287q-147 0 -251.5 104.5t-104.5 253.5q0 147 104.5 251.5t251.5 104.5t252 -104.5t105 -251.5q0 -148 -104.5 -253t-252.5 -105z" />
    <glyph glyph-name="ellipsis" unicode="&#x2026;" horiz-adv-x="1665" 
d="M82 0v406h405v-406h-405zM629 0v406h405v-406h-405zM1178 0v406h405v-406h-405z" />
    <glyph glyph-name="perthousand" unicode="&#x2030;" horiz-adv-x="2775" 
d="M82 1077q0 194 105.5 314t273.5 120t273.5 -120t105.5 -314t-105.5 -313t-273.5 -119q-169 0 -274 119t-105 313zM360 0l932 1491h297l-930 -1491h-299zM559 1077q0 183 -98 183q-99 0 -99 -183q0 -182 99 -182q98 0 98 182zM1489 -20q-169 0 -274 119t-105 313
t105.5 314t273.5 120t273.5 -120t105.5 -314q0 -199 -105 -315.5t-274 -116.5zM2314 -20q-171 0 -275 116.5t-104 315.5q0 194 105.5 314t273.5 120t273.5 -120t105.5 -314t-105.5 -313t-273.5 -119zM1489 229q98 0 98 183q0 182 -98 182t-98 -182q0 -183 98 -183zM2314 229
q99 0 99 183q0 182 -99 182q-98 0 -98 -182q0 -183 98 -183z" />
    <glyph glyph-name="guilsinglleft" unicode="&#x2039;" horiz-adv-x="880" 
d="M455 115l-389 489l389 477h370l-387 -477l387 -489h-370z" />
    <glyph glyph-name="guilsinglright" unicode="&#x203a;" horiz-adv-x="880" 
d="M428 1083l387 -477l-387 -489h-373l389 489l-389 477h373z" />
    <glyph glyph-name="uni2042" unicode="&#x2042;" horiz-adv-x="1503" 
d="M430 1210l47 131l131 -45q64 -22 82 -36q-6 81 -6 90v141h137v-141q0 -54 -8 -90q38 23 84 38l131 45l45 -133l-133 -45q-59 -18 -90 -20q26 -18 63 -68l86 -114l-114 -84l-82 114q-36 42 -49 82q-16 -34 -52 -82l-84 -114l-114 84l90 114q4 5 12.5 16t12.5 16t11 13
t13.5 13t13.5 10q-33 2 -92 20zM20 596l48 131l131 -45q62 -21 82 -37q0 1 -3.5 34.5t-3.5 55.5v142h138v-142q0 -49 -9 -90q41 25 84 39l131 45l46 -133l-134 -45q-63 -19 -90 -21q30 -21 64 -67l86 -115l-115 -84l-82 115q-36 42 -49 82q-18 -38 -51 -82l-84 -115l-115 84
l90 115q42 53 64 67q-29 2 -92 21zM840 596l47 131l131 -45q62 -21 82 -37q-6 81 -6 90v142h137v-142q0 -54 -8 -90q41 25 84 39l131 45l45 -133l-133 -45q-63 -19 -90 -21q27 -19 63 -67l86 -115l-115 -84l-82 115q-36 42 -49 82q-18 -38 -51 -82l-84 -115l-115 84l91 115
q3 4 10.5 13.5t10.5 13.5t9.5 11t10.5 11t10 9t12 9q-29 2 -92 21z" />
    <glyph glyph-name="fraction" unicode="&#x2044;" horiz-adv-x="415" 
d="M-369 0l942 1491h211l-942 -1491h-211z" />
    <glyph glyph-name="Euro" unicode="&#x20ac;" horiz-adv-x="1327" 
d="M879 322q59 0 117.5 15t95.5 42l184 -293q-171 -106 -399 -106q-254 0 -438 132t-257 359h-149v234h108v40v46h-108v233h151q73 225 256 356t437 131q228 0 399 -106l-184 -291q-37 27 -95.5 42t-117.5 15q-187 0 -279 -147h373l-27 -233h-414q-2 -14 -2 -46q0 -26 2 -40
h406l-20 -234h-320q43 -72 115 -110.5t166 -38.5z" />
    <glyph glyph-name="uni2116" unicode="&#x2116;" horiz-adv-x="2541" 
d="M1516 1063q0 203 123 326.5t327 123.5q202 0 325.5 -123.5t123.5 -326.5t-123.5 -327t-325.5 -124q-204 0 -327 124t-123 327zM127 0v1491h287l590 -811v811h354v-1491h-287l-590 811v-811h-354zM1800 1063q0 -90 45.5 -137t122.5 -47q80 0 123 49.5t43 134.5
q0 90 -44.5 138t-121.5 48q-82 0 -125 -49.5t-43 -136.5zM1595 274v267h740v-267h-740z" />
    <glyph glyph-name="uni2117" unicode="&#x2117;" horiz-adv-x="1112" 
d="M1030 1036q0 -130 -60.5 -238.5t-170 -172.5t-244.5 -64q-199 0 -336 139t-137 336q0 195 137 335t336 140q136 0 245.5 -65t169.5 -173t60 -237zM555 1374q-150 0 -242 -97.5t-92 -240.5q0 -142 92 -239t242 -97q157 0 247.5 96t90.5 240q0 143 -92 240.5t-246 97.5z
M526 944h68q75 0 121.5 40t46.5 114q0 68 -43 112.5t-113 44.5h-203v-442h123v131zM575 1151q64 0 64 -53q0 -27 -17.5 -40.5t-46.5 -13.5h-49v107h49z" />
    <glyph glyph-name="trademark" unicode="&#x2122;" horiz-adv-x="1406" 
d="M63 1313v178h529v-178h-162v-430h-205v430h-162zM987 1057l152 434h184v-608h-176v159q0 100 12 144l-98 -303h-148l-98 303q12 -43 12 -144v-159h-176v608h185z" />
    <glyph glyph-name="estimated" unicode="&#x212e;" horiz-adv-x="1697" 
d="M147 752q1 167 54 308.5t145 240.5t222 154.5t282 55.5q206 0 363.5 -83t246 -242.5t88.5 -374.5q3 -56 0 -113h-1188v-383q84 -120 216.5 -184.5t300.5 -64.5q163 0 300 78t205 206l82 -31q-78 -157 -235.5 -247t-356.5 -90q-216 0 -381.5 96.5t-255.5 271.5t-88 402z
M360 1163v-387h977v426q-80 109 -207.5 168.5t-279.5 56.5q-156 -3 -283.5 -73t-206.5 -191z" />
    <glyph glyph-name="oneeighth" unicode="&#x215b;" horiz-adv-x="1603" 
d="M203 717v596l-174 -78v172l174 84h180v-774h-180zM1079 1491h211l-942 -1491h-211zM1456 422q44 -25 74.5 -72t30.5 -104q0 -114 -82 -185t-217 -71q-132 0 -214.5 70t-82.5 182q0 56 30.5 106t75.5 76q-70 57 -70 147q0 94 72.5 153.5t190.5 59.5q117 0 189.5 -60
t72.5 -155q0 -93 -70 -147zM1266 647q-41 0 -68 -23.5t-27 -60.5q0 -38 27 -62t68 -24q38 0 63 24t25 62q0 37 -25 60.5t-63 23.5zM1266 133q51 0 82.5 30.5t31.5 80.5q0 48 -31.5 78t-82.5 30q-52 0 -85.5 -30.5t-33.5 -77.5q0 -49 33 -80t86 -31z" />
    <glyph glyph-name="threeeighths" unicode="&#x215c;" horiz-adv-x="1748" 
d="M610 938q0 -104 -78.5 -167.5t-201.5 -63.5q-136 0 -212.5 75.5t-76.5 200.5h172q-3 -63 29 -93t80 -30q42 0 72 24.5t30 61.5q0 38 -27 62t-73 24h-70v144h70q44 0 70 22.5t26 63.5t-26.5 63.5t-65.5 22.5q-50 0 -84 -31t-31 -92h-168q0 125 76.5 200.5t210.5 75.5
q121 0 197.5 -61.5t76.5 -167.5q0 -119 -96 -168q100 -44 100 -166zM1225 1491h211l-942 -1491h-211zM1602 422q44 -25 74 -72t30 -104q0 -114 -82 -185t-217 -71q-132 0 -214.5 70t-82.5 182q0 56 31 106t76 76q-70 57 -70 147q0 94 72 153.5t190 59.5q117 0 189.5 -60
t72.5 -155q0 -94 -69 -147zM1411 647q-41 0 -67.5 -23.5t-26.5 -60.5q0 -38 26.5 -62t67.5 -24q38 0 63 24t25 62q0 37 -25 60.5t-63 23.5zM1411 133q51 0 83 31t32 80q0 47 -32 77.5t-83 30.5q-52 0 -85.5 -30.5t-33.5 -77.5q0 -49 33 -80t86 -31z" />
    <glyph glyph-name="fiveeighths" unicode="&#x215d;" horiz-adv-x="1748" 
d="M631 987q0 -130 -85 -205t-216 -75q-123 0 -208 68.5t-85 199.5h170q0 -52 32 -83.5t85 -31.5q54 0 87 34t33 91q0 56 -33 91.5t-87 35.5q-48 0 -80 -25.5t-37 -54.5h-166l82 459h459v-154h-314l-22 -108q44 26 116 26q120 0 194.5 -73.5t74.5 -194.5zM1225 1491h211
l-942 -1491h-211zM1602 422q44 -25 74 -72t30 -104q0 -114 -82 -185t-217 -71q-132 0 -214.5 70t-82.5 182q0 56 31 106t76 76q-70 57 -70 147q0 94 72 153.5t190 59.5q117 0 189.5 -60t72.5 -155q0 -94 -69 -147zM1411 647q-41 0 -67.5 -23.5t-26.5 -60.5q0 -38 26.5 -62
t67.5 -24q38 0 63 24t25 62q0 37 -25 60.5t-63 23.5zM1411 133q51 0 83 31t32 80q0 47 -32 77.5t-83 30.5q-52 0 -85.5 -30.5t-33.5 -77.5q0 -49 33 -80t86 -31z" />
    <glyph glyph-name="seveneighths" unicode="&#x215e;" horiz-adv-x="1687" 
d="M289 717h-180q15 143 80 304.5t167 315.5h-336v154h549v-143q-120 -147 -191 -311.5t-89 -319.5zM1163 1491h211l-942 -1491h-211zM1540 422q44 -25 74.5 -72t30.5 -104q0 -114 -82 -185t-217 -71q-132 0 -214.5 70t-82.5 182q0 56 30.5 106t75.5 76q-70 57 -70 147
q0 94 72.5 153.5t190.5 59.5q117 0 189.5 -60t72.5 -155q0 -93 -70 -147zM1350 647q-41 0 -68 -23.5t-27 -60.5q0 -38 27 -62t68 -24q38 0 63 24t25 62q0 37 -25 60.5t-63 23.5zM1350 133q51 0 82.5 30.5t31.5 80.5q0 48 -31.5 78t-82.5 30q-52 0 -85.5 -30.5t-33.5 -77.5
q0 -49 33 -80t86 -31z" />
    <glyph glyph-name="uni2160" unicode="&#x2160;" horiz-adv-x="1099" 
d="M977 1264h-248v-1037h248v-227h-854v227h248v1037h-248v227h854v-227z" />
    <glyph glyph-name="uni2161" unicode="&#x2161;" horiz-adv-x="1742" 
d="M1620 0h-1497v227h246v1037h-246v227h1497v-227h-244v-1037h244v-227zM1016 1264h-287v-1037h287v1037z" />
    <glyph glyph-name="uni2162" unicode="&#x2162;" horiz-adv-x="2447" 
d="M2324 0h-2201v236h262v1019h-262v236h2201v-236h-262v-1019h262v-236zM743 236h299v1019h-299v-1019zM1702 1255h-299v-1019h299v1019z" />
    <glyph glyph-name="uni2163" unicode="&#x2163;" horiz-adv-x="2523" 
d="M2400 -2h-2277v235h303v1022h-303v236h2277v-236h-180l-332 -1022h512v-235zM784 233h435l-334 1022h-101v-1022zM1851 1255h-589l294 -958z" />
    <glyph glyph-name="uni2164" unicode="&#x2164;" horiz-adv-x="1933" 
d="M1810 1255h-178l-332 -1019h506v-236h-1679v236h514l-334 1019h-184v236h1687v-236zM1264 1255h-588l293 -956z" />
    <glyph glyph-name="uni2165" unicode="&#x2165;" horiz-adv-x="2523" 
d="M2400 0h-2277v236h522l-332 1019h-190v236h2277v-236h-268v-1019h268v-236zM1264 1255h-582l291 -948zM1303 236h466v1019h-137z" />
    <glyph glyph-name="uni2166" unicode="&#x2166;" horiz-adv-x="3102" 
d="M2980 0h-2857v236h500l-332 1019h-168v236h2853v-236h-258v-1019h260zM1239 1255h-580l293 -948zM1278 236h469v1019h-139zM2357 1255h-248v-1019h248v1019z" />
    <glyph glyph-name="uni2167" unicode="&#x2167;" horiz-adv-x="3764" 
d="M3641 0h-3518v236h479l-323 1019h-156v236h3514v-236h-256v-1019h260v-236zM1210 1255h-563l283 -944zM1257 236h484v1019h-162zM2101 236h279v1019h-279v-1019zM2742 236h279v1019h-279v-1019z" />
    <glyph glyph-name="uni2168" unicode="&#x2168;" horiz-adv-x="2365" 
d="M2243 0h-2120v236h252v1019h-252v236h2120v-236h-148l-379 -524l369 -495h158v-236zM852 1255h-119v-1019h125l371 499zM1475 930l231 325h-461zM1247 236h441l-222 309z" />
    <glyph glyph-name="uni2169" unicode="&#x2169;" horiz-adv-x="1910" 
d="M1788 1255h-211l-377 -522l367 -497h221v-236h-1665v236h219l369 501l-377 518h-211v236h1665v-236zM954 930l232 325h-455zM731 236h440l-221 309z" />
    <glyph glyph-name="arrowleft" unicode="&#x2190;" horiz-adv-x="1796" 
d="M823 1274l113 -113l-520 -520h1257v-147h-1259l516 -517l-107 -104l-700 698z" />
    <glyph glyph-name="arrowup" unicode="&#x2191;" horiz-adv-x="1646" 
d="M123 848l696 694l705 -694l-105 -105l-526 514v-1257h-148v1260l-518 -517z" />
    <glyph glyph-name="arrowright" unicode="&#x2192;" horiz-adv-x="1796" 
d="M971 1270l702 -701l-702 -700l-111 113l520 520l-1257 -2v149h1257l-514 516z" />
    <glyph glyph-name="arrowdown" unicode="&#x2193;" horiz-adv-x="1646" 
d="M1524 584l-701 -701l-700 701l113 112l520 -520v1258h147v-1260l516 516z" />
    <glyph glyph-name="arrowboth" unicode="&#x2194;" horiz-adv-x="2103" 
d="M1479 57v217l215 220l-781 -2v2l-501 -2l219 -222v-215l-508 512l506 510v-219l-217 -217l497 4v2h291v-2l494 -2l-217 217v217l503 -508z" />
    <glyph glyph-name="arrowupdn" unicode="&#x2195;" horiz-adv-x="1265" 
d="M707 -76l219 217h217l-512 -508l-508 508h215l219 -219l-2 500h-2v291h2l2 493l-219 -219h-215l508 506l512 -506h-217l-219 217v-1280z" />
    <glyph glyph-name="uni2196" unicode="&#x2196;" horiz-adv-x="1390" 
d="M1114 1141v-160h-735l889 -887l-105 -106l-891 891v-729h-149v991h991z" />
    <glyph glyph-name="uni2197" unicode="&#x2197;" horiz-adv-x="1396" 
d="M283 1145h991v-991h-158v735l-889 -889l-104 104l889 891h-729v150z" />
    <glyph glyph-name="uni2198" unicode="&#x2198;" horiz-adv-x="1390" 
d="M1268 991v-991h-992v160h736l-889 887l104 106l891 -889v727h150z" />
    <glyph glyph-name="uni2199" unicode="&#x2199;" horiz-adv-x="1398" 
d="M1114 0h-991v991h160v-735l886 889l107 -105l-889 -890h727v-150z" />
    <glyph glyph-name="partialdiff" unicode="&#x2202;" horiz-adv-x="1275" 
d="M776 1491q92 -53 174 -137t146 -191t101.5 -240.5t37.5 -271.5q0 -107 -21.5 -204t-69 -182.5t-116 -148.5t-168.5 -99.5t-221 -36.5q-257 0 -415 150t-158 398q0 229 136 379.5t363 153.5q148 3 211 -53q-40 77 -90.5 140t-122 120.5t-124.5 93.5t-151 97l-48 30z
M637 303q95 0 150 62.5t55 160.5q0 102 -58.5 158.5t-148.5 54.5q-91 -2 -146 -61.5t-55 -157.5q0 -97 55.5 -157t147.5 -60z" />
    <glyph glyph-name="emptyset" unicode="&#x2205;" horiz-adv-x="1261" 
d="M1194 1024l-139 -145q98 -143 98 -334q0 -157 -69 -283.5t-193.5 -199t-280.5 -72.5q-176 0 -313 94l-141 -147l-129 129l141 147q-98 143 -98 332q0 243 151.5 399t388.5 156q180 0 314 -92l139 145zM395 543q0 -46 11 -80l296 313q-40 19 -92 19q-106 0 -160.5 -72
t-54.5 -180zM827 543q0 41 -10 86l-301 -316q40 -18 94 -18q106 0 161.5 71.5t55.5 176.5z" />
    <glyph glyph-name="product" unicode="&#x220f;" horiz-adv-x="1550" 
d="M1468 1491v-315h-219v-1176h-338v1176h-290v-1176h-338v1176h-201v315h1386z" />
    <glyph glyph-name="summation" unicode="&#x2211;" horiz-adv-x="1220" 
d="M82 -66v295l387 463l-387 502v297h1057v-322l-641 7l374 -490l-380 -428l647 -2v-322h-1057z" />
    <glyph glyph-name="minus" unicode="&#x2212;" horiz-adv-x="1228" 
d="M129 834h971v-316h-971v316z" />
    <glyph glyph-name="radical" unicode="&#x221a;" horiz-adv-x="1865" 
d="M1935 1790v-303h-542l-637 -1700h-328l-301 803h328l137 -365l586 1565h757z" />
    <glyph glyph-name="infinity" unicode="&#x221e;" horiz-adv-x="2084" 
d="M584 68q-213 0 -355.5 132t-142.5 341q0 208 143.5 344.5t356.5 136.5q147 0 261 -68t193 -180q79 111 193.5 179.5t261.5 68.5q213 0 356.5 -136.5t143.5 -344.5q0 -209 -142.5 -341t-355.5 -132q-147 0 -263 65t-194 174q-78 -110 -194 -174.5t-262 -64.5zM610 385
q131 0 256 158q-124 157 -256 157q-79 0 -127.5 -46t-48.5 -111q0 -66 48.5 -112t127.5 -46zM1470 385q79 0 128 46.5t49 111.5t-49 111t-128 46q-132 0 -256 -157q125 -158 256 -158z" />
    <glyph glyph-name="integral" unicode="&#x222b;" horiz-adv-x="1005" 
d="M662 1821h262v-330h-250q-9 0 -16 -1.5t-11 -4.5t-6.5 -6t-3 -7t-1 -6.5t-0.5 -5.5l1 -4v-1507q0 -167 -93.5 -268t-262.5 -101h-199v332h188q17 0 27 4t13.5 13t4 13.5t0.5 14.5l-4 1511q0 151 94 252t257 101z" />
    <glyph glyph-name="approxequal" unicode="&#x2248;" horiz-adv-x="1228" 
d="M676 987q49 -45 73 -60.5t58 -15.5q38 0 57.5 36t9.5 104h254q20 -176 -59 -291t-227 -115q-92 0 -154 29.5t-135 97.5q-49 45 -73 60.5t-58 15.5q-38 0 -58 -35.5t-10 -103.5h-254q-20 176 59.5 290.5t227.5 114.5q91 0 153 -29.5t136 -97.5zM676 496q49 -45 73 -60.5
t58 -15.5q38 0 57.5 35.5t9.5 103.5h254q20 -176 -59 -290.5t-227 -114.5q-92 0 -154 29.5t-135 97.5q-48 45 -72.5 60t-58.5 15q-38 0 -58 -35.5t-10 -103.5h-254q-20 176 59.5 291t227.5 115q91 0 153 -29.5t136 -97.5z" />
    <glyph glyph-name="notequal" unicode="&#x2260;" horiz-adv-x="1228" 
d="M1059 772h-291l-72 -192h363v-287h-467l-68 -187h-223l68 187h-199v287h303l72 192h-375v287h479l68 184h223l-68 -184h187v-287z" />
    <glyph glyph-name="lessequal" unicode="&#x2264;" horiz-adv-x="1228" 
d="M1061 1288v-325l-574 -156l574 -164v-317l-918 303v356zM143 315h918v-315h-918v315z" />
    <glyph glyph-name="greaterequal" unicode="&#x2265;" horiz-adv-x="1228" 
d="M168 326v317l573 164l-573 156v325l917 -303v-356zM1085 315v-315h-917v315h917z" />
    <glyph glyph-name="filledbox" unicode="&#x25a0;" horiz-adv-x="1660" 
d="M86 1491h1489v-1489h-1489v1489z" />
    <glyph glyph-name="uni25A1" unicode="&#x25a1;" horiz-adv-x="1662" 
d="M86 1491h1491v-1491h-1491v1491zM231 1346v-1201h1201v1201h-1201z" />
    <glyph glyph-name="triagup" unicode="&#x25b2;" horiz-adv-x="1984" 
d="M86 0h1812l-907 1497z" />
    <glyph glyph-name="uni25B3" unicode="&#x25b3;" horiz-adv-x="1976" 
d="M86 0l901 1491l903 -1491h-1804zM362 154h1254l-627 1036z" />
    <glyph glyph-name="lozenge" unicode="&#x25ca;" horiz-adv-x="1320" 
d="M530 0l-444 739l444 752h248l457 -752l-457 -739h-248zM1047 737l-388 660l-385 -660l385 -643z" />
    <glyph glyph-name="circle" unicode="&#x25cb;" horiz-adv-x="1712" 
d="M854 -20q-157 0 -299.5 61t-245 164t-163 245.5t-60.5 299.5q0 209 103 386t280 280.5t385 103.5q209 0 386.5 -103.5t281.5 -281t104 -385.5t-104 -385.5t-281.5 -281t-386.5 -103.5zM856 129q168 0 311.5 83.5t227.5 226.5t84 311q0 170 -84 313.5t-227 226t-312 82.5
q-127 0 -242 -49t-198.5 -132t-133 -198.5t-49.5 -242.5q0 -169 83.5 -312t227 -226t312.5 -83z" />
    <glyph glyph-name="uni25CF" unicode="&#x25cf;" horiz-adv-x="1724" 
d="M864 -41q-158 0 -302.5 61.5t-248.5 165.5t-165.5 248.5t-61.5 302.5t61.5 301t165.5 247t248.5 165t302.5 61t301 -61t247 -165t165 -247t61 -301t-61 -302.5t-165 -248.5t-247 -165.5t-301 -61.5z" />
    <glyph glyph-name="uni262E" unicode="&#x262e;" horiz-adv-x="1712" 
d="M854 -31q-158 0 -302.5 62t-248.5 166.5t-165.5 249t-61.5 303.5q0 158 62 302.5t166 249t248 166.5t302 62t303 -62t250 -167t167 -249t62 -302t-62 -302.5t-167 -249t-250 -167t-303 -62.5zM268 489l514 316v581q-243 -28 -406 -210t-163 -426q0 -139 55 -261z
M1444 489q55 122 55 261q0 160 -74 299t-204 228.5t-289 108.5v-583zM782 111v520l-438 -273q80 -104 194.5 -169t243.5 -78zM932 111q128 15 242 80.5t194 168.5l-436 269v-518z" />
    <glyph glyph-name="uni2713" unicode="&#x2713;" horiz-adv-x="1482" 
d="M1421 1255l148 -153l-967 -912l-496 558l162 149l344 -383z" />
    <glyph glyph-name="uniA7B6" unicode="&#xa7b6;" horiz-adv-x="1581" 
d="M1458 860q0 -132 -59.5 -285t-155.5 -282h203v-293h-602v293q78 63 155.5 209t77.5 295q0 178 -76.5 267t-209.5 87q-134 -2 -210.5 -90.5t-76.5 -263.5q0 -86 24 -170t61.5 -148.5t75 -111t72.5 -74.5v-293h-610v293h211q-96 129 -155.5 282t-59.5 285
q0 306 177.5 477.5t490.5 171.5t490 -171t177 -478z" />
    <glyph glyph-name="i.loclTRK" horiz-adv-x="565" 
d="M109 1210v326h342v-326h-342zM102 0v1081h361v-1081h-361z" />
    <glyph glyph-name="f_f_t" horiz-adv-x="2271" 
d="M2210 766h-244v-330q0 -75 23 -99t92 -24h129v-313h-254q-178 0 -264 93.5t-86 254.5v418h-342v-766h-361v766h-356v-766h-361v766h-155v315h155v101q0 68 12 123t41.5 103.5t76 81.5t117.5 52t163 19h186v-289h-92q-85 0 -114 -33.5t-29 -97.5v-60h356v101q0 68 12 123
t41.5 103.5t76 81.5t117.5 52t163 19h166v-289h-72q-85 0 -114 -33.5t-29 -97.5v-60h239q103 0 103 113v190h360v-303h244v-315z" />
    <glyph glyph-name="f_t" horiz-adv-x="1554" 
d="M1493 766h-244v-330q0 -75 23 -99t92 -24h129v-313h-254q-178 0 -264 93.5t-86 254.5v418h-342v-766h-361v766h-155v315h155v101q0 68 12 123t41.5 103.5t76 81.5t117.5 52t163 19h186v-289h-92q-85 0 -114 -33.5t-29 -97.5v-60h260q47 0 64.5 26.5t17.5 86.5v190h360
v-303h244v-315z" />
    <glyph glyph-name="t_t" horiz-adv-x="1544" 
d="M1483 766h-244v-330q0 -75 23 -99t92 -24h129v-313h-254q-178 0 -264 93.5t-86 254.5v418h-355v-330q0 -75 23 -99t92 -24h129v-313h-254q-178 0 -264 93.5t-86 254.5v418h-152v315h70q47 0 64.5 26.5t17.5 86.5v190h360v-303h273q47 0 64.5 26.5t17.5 86.5v190h360v-303
h244v-315z" />
    <glyph glyph-name="zero.tf" horiz-adv-x="1331" 
d="M659 1511q198 0 345 -100.5t221.5 -273t74.5 -392.5t-74.5 -392t-221.5 -272.5t-345 -100.5q-149 0 -269 58t-198 160.5t-119.5 242t-41.5 304.5t41.5 304.5t119.5 242.5t198 161t269 58zM659 1221q-126 0 -197 -126t-71 -350q0 -117 23 -221l401 631q-66 66 -156 66z
M659 270q128 0 203.5 126t75.5 349q0 113 -23 216l-401 -633q64 -58 145 -58z" />
    <glyph glyph-name="one.tf" horiz-adv-x="1331" 
d="M899 332h336v-332h-1077v332h387v801l-375 -148v346l375 160h354v-1159z" />
    <glyph glyph-name="two.tf" horiz-adv-x="1331" 
d="M907 526l-264 -194h549v-332h-1049v322l545 442q41 34 60 52t44 46.5t36 58t12 64.5q4 93 -50.5 144t-138.5 51q-90 0 -145.5 -59t-56.5 -158h-340q0 130 42.5 235t117 173t173.5 104t213 36q159 0 283.5 -55t199 -168.5t74.5 -269.5q0 -86 -22.5 -158t-68.5 -132
t-94 -104t-120 -98z" />
    <glyph glyph-name="three.tf" horiz-adv-x="1331" 
d="M1004 764q105 -37 166 -124.5t61 -207.5q0 -140 -74.5 -243.5t-200 -156t-284.5 -52.5q-263 0 -416.5 148t-153.5 390h344q0 -119 61 -177t148 -58q89 0 141 46.5t52 121.5t-48 119t-151 44h-133v271h121q93 0 146 42.5t53 121.5t-51.5 121t-131.5 42q-90 0 -150.5 -57.5
t-56.5 -177.5l-329 2q0 243 143 387.5t404 144.5q241 0 390.5 -116t149.5 -322q0 -103 -54 -184.5t-146 -124.5z" />
    <glyph glyph-name="four.tf" horiz-adv-x="1331" 
d="M725 0v252h-668v313l656 926h377v-928h184v-311h-184v-252h-365zM408 563h317v426z" />
    <glyph glyph-name="five.tf" horiz-adv-x="1331" 
d="M721 1040q229 0 374.5 -141.5t145.5 -374.5q0 -126 -45 -229.5t-124 -172t-185.5 -105.5t-229.5 -37q-112 0 -211.5 31t-180.5 92.5t-128 163.5t-47 233h334q0 -98 60.5 -157.5t158.5 -59.5q101 0 162 63.5t61 169.5q0 107 -61.5 174.5t-161.5 67.5q-90 0 -150 -51
t-69 -105h-328l162 889h899v-303h-627l-45 -203q82 55 236 55z" />
    <glyph glyph-name="six.tf" horiz-adv-x="1331" 
d="M733 1032q100 0 191 -33.5t162.5 -96t114 -161.5t42.5 -221q0 -125 -44.5 -228t-121 -170t-176.5 -103.5t-213 -36.5q-84 0 -163 19.5t-160 71.5t-140.5 131t-97 210t-37.5 297q0 242 72.5 422t213.5 279t335 99q219 0 365.5 -118t166.5 -310h-338q-20 61 -74 93t-129 32
q-119 0 -183.5 -76.5t-61.5 -191.5q98 92 276 92zM676 285q99 0 163 64t64 169q0 104 -63.5 168t-163.5 64q-99 0 -162 -63.5t-63 -168.5t63 -169t162 -64z" />
    <glyph glyph-name="seven.tf" horiz-adv-x="1331" 
d="M780 1188h-647v303h1067v-281q-231 -285 -368 -600t-170 -610h-353q26 271 150.5 580t320.5 608z" />
    <glyph glyph-name="eight.tf" horiz-adv-x="1331" 
d="M1055 805q81 -54 133.5 -140t52.5 -190q0 -220 -158 -357.5t-419 -137.5q-257 0 -415.5 134.5t-158.5 352.5q0 101 54 193.5t135 146.5q-57 49 -97.5 126t-40.5 167q0 181 148.5 296t376.5 115q230 0 379 -116t149 -299q0 -90 -40 -166.5t-99 -124.5zM670 1247
q-83 0 -136 -45.5t-53 -116.5q0 -72 53 -117.5t136 -45.5q80 0 131 45.5t51 117.5q0 71 -51.5 116.5t-130.5 45.5zM670 272q94 0 154.5 55.5t60.5 141.5q0 80 -60.5 132t-154.5 52q-96 0 -158.5 -52t-62.5 -132q0 -86 62 -141.5t159 -55.5z" />
    <glyph glyph-name="nine.tf" horiz-adv-x="1331" 
d="M662 1511q87 0 165.5 -21t156 -75t133.5 -136t91 -214.5t35 -300.5q0 -379 -151.5 -580.5t-450.5 -201.5q-237 0 -376 116t-165 312h336q13 -65 73 -98t136 -33q107 0 166 65t59 180v21q-99 -86 -264 -86q-99 0 -190.5 33.5t-164.5 96t-117 163t-44 223.5q0 165 77 288.5
t205.5 185.5t289.5 62zM655 743q100 0 164 64t64 168q0 105 -64.5 170t-163.5 65t-163 -65t-64 -170t64 -168.5t163 -63.5z" />
    <glyph glyph-name="zero.dnom" horiz-adv-x="774" 
d="M383 784q-158 0 -246 -110.5t-88 -286.5t88 -286.5t246 -110.5q160 0 251 111t91 286t-91 286t-251 111zM545 387q0 -112 -43.5 -170.5t-118.5 -58.5q-73 0 -113.5 58.5t-40.5 170.5t40.5 170.5t113.5 58.5q75 0 118.5 -58.5t43.5 -170.5z" />
    <glyph glyph-name="one.dnom" horiz-adv-x="464" 
d="M383 0h-180v596l-174 -78v172l174 84h180v-774z" />
    <glyph glyph-name="two.dnom" horiz-adv-x="643" 
d="M467 281l-137 -113h270v-168h-532v166l276 229q39 32 59 60t21 65q1 50 -26.5 73t-73.5 23q-48 0 -78 -30.5t-31 -83.5h-172q0 133 80.5 207.5t202.5 74.5q128 0 208 -69.5t80 -190.5q0 -42 -12.5 -79t-39 -69t-44.5 -50t-51 -45z" />
    <glyph glyph-name="three.dnom" horiz-adv-x="651" 
d="M510 387q100 -44 100 -166q0 -104 -78.5 -167.5t-201.5 -63.5q-136 0 -212.5 75.5t-76.5 200.5h172q-3 -63 29 -93t80 -30q42 0 72 24.5t30 61.5q0 38 -27 62t-73 24h-70v144h70q44 0 70 22.5t26 63.5t-26.5 63.5t-65.5 22.5q-50 0 -84 -31t-31 -92h-168
q0 125 76.5 200.5t210.5 75.5q121 0 197.5 -61.5t76.5 -167.5q0 -119 -96 -168z" />
    <glyph glyph-name="four.dnom" horiz-adv-x="700" 
d="M387 0v133h-356v150l344 491h184v-487h107v-154h-107v-133h-172zM225 287h162v250z" />
    <glyph glyph-name="five.dnom" horiz-adv-x="651" 
d="M362 539q120 0 194.5 -74t74.5 -195q0 -130 -85 -205t-216 -75q-123 0 -208 68.5t-85 199.5h170q0 -52 32 -83.5t85 -31.5q54 0 87 34t33 91q0 56 -33 91.5t-87 35.5q-48 0 -80 -25.5t-37 -54.5h-166l82 459h459v-153h-316l-24 -113q50 31 120 31z" />
    <glyph glyph-name="six.dnom" horiz-adv-x="690" 
d="M377 537q110 0 189 -71.5t79 -195.5q0 -129 -83.5 -204.5t-205.5 -75.5q-44 0 -85 10.5t-82 37.5t-71.5 68.5t-49.5 109t-19 153.5q0 191 85 303t237 112q114 0 190 -60.5t86 -160.5h-172q-10 33 -39.5 50.5t-68.5 17.5q-63 0 -98 -41t-33 -103q50 50 141 50zM352 143
q53 0 87 35t34 90q0 56 -34 89.5t-87 33.5t-86 -33.5t-33 -89.5q0 -55 33 -90t86 -35z" />
    <glyph glyph-name="seven.dnom" horiz-adv-x="589" 
d="M356 621h-336v153h549v-143q-120 -147 -191 -311.5t-89 -319.5h-180q15 143 80 305t167 316z" />
    <glyph glyph-name="eight.dnom" horiz-adv-x="681" 
d="M535 422q44 -25 74 -72t30 -104q0 -114 -82 -185t-217 -71q-132 0 -214.5 70t-82.5 182q0 56 31 106t76 76q-70 57 -70 147q0 94 72 153.5t190 59.5q117 0 189.5 -60t72.5 -155q0 -94 -69 -147zM344 647q-41 0 -67.5 -23.5t-26.5 -60.5q0 -38 26.5 -62t67.5 -24
q38 0 63 24t25 62q0 37 -25 60.5t-63 23.5zM344 133q51 0 83 31t32 80q0 47 -32 77.5t-83 30.5q-52 0 -85.5 -30.5t-33.5 -77.5q0 -49 33 -80t86 -31z" />
    <glyph glyph-name="nine.dnom" horiz-adv-x="696" 
d="M350 784q46 0 86 -10t80 -37.5t68.5 -70.5t46.5 -114t18 -163q0 -194 -78 -296.5t-233 -102.5q-123 0 -195 60t-86 161h172q7 -34 39 -52t72 -18q61 0 92.5 38.5t28.5 105.5q-53 -47 -142 -47q-108 0 -186 71.5t-78 196.5q0 129 83.5 203.5t211.5 74.5zM344 383
q53 0 87 34t34 89q0 57 -34 92t-87 35t-87 -35t-34 -92q0 -55 34 -89t87 -34z" />
    <glyph glyph-name="zero.numr" horiz-adv-x="774" 
d="M383 1501q-158 0 -246 -110.5t-88 -286.5t88 -286.5t246 -110.5q160 0 251 111t91 286t-91 286t-251 111zM545 1104q0 -112 -43.5 -171t-118.5 -59q-73 0 -113.5 59t-40.5 171t40.5 170.5t113.5 58.5q75 0 118.5 -58.5t43.5 -170.5z" />
    <glyph glyph-name="one.numr" horiz-adv-x="464" 
d="M383 717h-180v596l-174 -78v172l174 84h180v-774z" />
    <glyph glyph-name="two.numr" horiz-adv-x="643" 
d="M467 997l-137 -112h270v-168h-532v166l276 229q39 32 59 60t21 65q1 50 -26.5 73t-73.5 23q-48 0 -78 -30.5t-31 -83.5h-172q0 133 80.5 207.5t202.5 74.5q128 0 208 -69.5t80 -190.5q0 -42 -12.5 -79t-38.5 -69t-45 -50.5t-51 -45.5z" />
    <glyph glyph-name="three.numr" horiz-adv-x="651" 
d="M510 1104q100 -44 100 -166q0 -104 -78.5 -167.5t-201.5 -63.5q-136 0 -212.5 75.5t-76.5 200.5h172q-3 -63 29 -93t80 -30q42 0 72 24.5t30 61.5q0 38 -27 62t-73 24h-70v144h70q44 0 70 22.5t26 63.5t-26.5 63.5t-65.5 22.5q-50 0 -84 -31t-31 -92h-168
q0 125 76.5 200.5t210.5 75.5q121 0 197.5 -61.5t76.5 -167.5q0 -119 -96 -168z" />
    <glyph glyph-name="four.numr" horiz-adv-x="700" 
d="M387 717v133h-356v149l344 492h184v-487h107v-154h-107v-133h-172zM225 1004h162v249z" />
    <glyph glyph-name="five.numr" horiz-adv-x="651" 
d="M362 1255q120 0 194.5 -73.5t74.5 -194.5q0 -130 -85 -205t-216 -75q-123 0 -208 68.5t-85 199.5h170q0 -52 32 -83.5t85 -31.5q54 0 87 34t33 91q0 56 -33 91.5t-87 35.5q-48 0 -80 -25.5t-37 -54.5h-166l82 459h459v-154h-314l-22 -108q44 26 116 26z" />
    <glyph glyph-name="six.numr" horiz-adv-x="690" 
d="M377 1253q110 0 189 -71t79 -195q0 -129 -83.5 -204.5t-205.5 -75.5q-44 0 -85 10.5t-82 37.5t-71.5 68.5t-49.5 108.5t-19 153q0 191 85 303.5t237 112.5q114 0 190 -60.5t86 -160.5h-172q-10 33 -39.5 50.5t-68.5 17.5q-64 0 -101 -42t-35 -106q50 53 146 53zM352 860
q53 0 87 35t34 90q0 56 -34 89.5t-87 33.5t-86 -33.5t-33 -89.5q0 -55 33 -90t86 -35z" />
    <glyph glyph-name="seven.numr" horiz-adv-x="589" 
d="M356 1337h-336v154h549v-143q-120 -147 -191 -311.5t-89 -319.5h-180q15 143 80 304.5t167 315.5z" />
    <glyph glyph-name="eight.numr" horiz-adv-x="681" 
d="M535 1139q44 -25 74 -72t30 -104q0 -114 -82 -185t-217 -71q-132 0 -214.5 69.5t-82.5 181.5q0 56 31 106.5t76 76.5q-70 57 -70 147q0 94 72 153.5t190 59.5q117 0 189.5 -60t72.5 -155q0 -94 -69 -147zM344 1364q-41 0 -67.5 -23.5t-26.5 -60.5q0 -38 26.5 -62
t67.5 -24q38 0 63 24t25 62q0 37 -25 60.5t-63 23.5zM344 850q51 0 83 31t32 80q0 47 -32 77.5t-83 30.5q-52 0 -85.5 -30.5t-33.5 -77.5q0 -49 33 -80t86 -31z" />
    <glyph glyph-name="nine.numr" horiz-adv-x="696" 
d="M350 1501q46 0 86 -10t80 -37.5t68.5 -70.5t46.5 -114t18 -163q0 -194 -78 -296.5t-233 -102.5q-123 0 -195 60t-86 161h172q7 -34 39 -52t72 -18q61 0 92.5 38t28.5 105q-53 -47 -142 -47q-109 0 -188.5 72t-79.5 197q0 128 85 203t214 75zM344 1100q53 0 87 34t34 89
q0 57 -34 92t-87 35t-87 -35t-34 -92q0 -55 34 -89t87 -34z" />
    </font>
</defs>
</svg>
