<svg xmlns="http://www.w3.org/2000/svg" xmlns:xlink="http://www.w3.org/1999/xlink" viewBox="0 0 540 111.41"><defs><mask id="a8d70fd0-95aa-4ebe-847a-ab7a75d69446" x="-5.53" y="-21.25" width="548.79" height="151.46" maskUnits="userSpaceOnUse"><rect x="-1" width="544.26" height="111.41" style="fill:#fff"/></mask><linearGradient id="e388188f-dad7-4049-965d-5d2e443b1675" x1="-1" y1="55.71" x2="543.26" y2="55.71" gradientUnits="userSpaceOnUse"><stop offset="0" stop-color="#464cd5"/><stop offset="0.44" stop-color="#464cd2"/><stop offset="0.73" stop-color="#474dca"/><stop offset="0.98" stop-color="#494ebb"/><stop offset="1" stop-color="#494eb9"/></linearGradient><linearGradient id="a7b8b1c7-3afb-468e-b3b4-4d897d80928c" x1="0.02" y1="-11.65" x2="41.39" y2="29.72" gradientUnits="userSpaceOnUse"><stop offset="0" stop-color="#e8e8e8"/><stop offset="0.33" stop-color="#f1f1f1"/><stop offset="1" stop-color="#fff"/></linearGradient><linearGradient id="e7730a8a-7b4d-496e-9256-e5a736600ae9" x1="52.47" y1="-11.65" x2="93.84" y2="29.72" xlink:href="#a7b8b1c7-3afb-468e-b3b4-4d897d80928c"/><linearGradient id="b06c08ce-cf6d-4b02-ae1a-b31158e20cf5" x1="104.93" y1="-11.65" x2="146.3" y2="29.72" xlink:href="#a7b8b1c7-3afb-468e-b3b4-4d897d80928c"/><linearGradient id="b85f35c7-8530-42d3-a8f5-661a896847ef" x1="157.39" y1="-11.65" x2="198.76" y2="29.72" xlink:href="#a7b8b1c7-3afb-468e-b3b4-4d897d80928c"/><linearGradient id="f52bf3c1-2b79-4d7a-9310-c1da38dea804" x1="209.85" y1="-11.65" x2="251.22" y2="29.72" xlink:href="#a7b8b1c7-3afb-468e-b3b4-4d897d80928c"/><linearGradient id="bf0afbba-d4cb-4335-8dab-a03bb10f2367" x1="262.3" y1="-11.65" x2="303.67" y2="29.72" xlink:href="#a7b8b1c7-3afb-468e-b3b4-4d897d80928c"/><linearGradient id="b1f97925-4f4f-4652-b2b8-ded0b8dc683f" x1="314.76" y1="-11.65" x2="356.13" y2="29.72" xlink:href="#a7b8b1c7-3afb-468e-b3b4-4d897d80928c"/><linearGradient id="a0d6d5a0-b862-410f-8bec-f61bc5e5271e" x1="367.22" y1="-11.65" x2="408.59" y2="29.72" xlink:href="#a7b8b1c7-3afb-468e-b3b4-4d897d80928c"/><linearGradient id="a58f81a5-f427-4f11-9b5c-40c9c0d0957c" x1="419.68" y1="-11.65" x2="461.05" y2="29.72" xlink:href="#a7b8b1c7-3afb-468e-b3b4-4d897d80928c"/><linearGradient id="bd1e27e0-372d-4262-af10-5cb62bdecf03" x1="472.13" y1="-11.65" x2="513.51" y2="29.72" xlink:href="#a7b8b1c7-3afb-468e-b3b4-4d897d80928c"/><linearGradient id="a4b79797-bc9a-4b73-839e-3ea68bd409fb" x1="521.02" y1="-8.08" x2="562.4" y2="33.29" xlink:href="#a7b8b1c7-3afb-468e-b3b4-4d897d80928c"/><linearGradient id="ad3ce90e-de1a-4c0c-a5da-6bd9d21a8834" x1="26.24" y1="33.81" x2="67.62" y2="75.18" xlink:href="#a7b8b1c7-3afb-468e-b3b4-4d897d80928c"/><linearGradient id="ecd6811b-9691-42fd-b7ae-9a9d51472e0b" x1="78.7" y1="33.81" x2="120.07" y2="75.18" xlink:href="#a7b8b1c7-3afb-468e-b3b4-4d897d80928c"/><linearGradient id="b435f484-ceb0-4b3a-b2aa-9227ee466a29" x1="131.16" y1="33.81" x2="172.53" y2="75.18" xlink:href="#a7b8b1c7-3afb-468e-b3b4-4d897d80928c"/><linearGradient id="fc3553db-958a-4642-85fb-92dc3acb77aa" x1="183.62" y1="33.81" x2="224.99" y2="75.18" xlink:href="#a7b8b1c7-3afb-468e-b3b4-4d897d80928c"/><linearGradient id="afa2b99e-72c8-4321-9162-83b584b14cbf" x1="236.07" y1="33.81" x2="277.45" y2="75.18" xlink:href="#a7b8b1c7-3afb-468e-b3b4-4d897d80928c"/><linearGradient id="bd62a185-0f05-444b-b675-332b10f368d2" x1="288.53" y1="33.81" x2="329.9" y2="75.18" xlink:href="#a7b8b1c7-3afb-468e-b3b4-4d897d80928c"/><linearGradient id="abd96433-8449-4ca4-8b7a-8c67019f3c8c" x1="340.99" y1="33.81" x2="382.36" y2="75.18" xlink:href="#a7b8b1c7-3afb-468e-b3b4-4d897d80928c"/><linearGradient id="f0523704-7b1e-4a26-ad06-a4f60930f77f" x1="393.45" y1="33.81" x2="434.82" y2="75.18" xlink:href="#a7b8b1c7-3afb-468e-b3b4-4d897d80928c"/><linearGradient id="a19488e0-55fc-42d3-9c08-69415a218252" x1="445.9" y1="33.81" x2="487.28" y2="75.18" xlink:href="#a7b8b1c7-3afb-468e-b3b4-4d897d80928c"/><linearGradient id="fa516b4c-b5af-445b-880d-521d50393ff2" x1="498.15" y1="34.02" x2="539.52" y2="75.4" xlink:href="#a7b8b1c7-3afb-468e-b3b4-4d897d80928c"/><linearGradient id="bcaf9610-c0ab-44f9-ac66-a491a2b55f3d" x1="0.02" y1="79.24" x2="41.39" y2="120.61" xlink:href="#a7b8b1c7-3afb-468e-b3b4-4d897d80928c"/><linearGradient id="bec69a22-5cea-4e30-8d80-0a7f2e3f2366" x1="52.47" y1="79.24" x2="93.84" y2="120.61" xlink:href="#a7b8b1c7-3afb-468e-b3b4-4d897d80928c"/><linearGradient id="a391a487-3682-4d43-8acd-7aa635602c11" x1="104.93" y1="79.24" x2="146.3" y2="120.61" xlink:href="#a7b8b1c7-3afb-468e-b3b4-4d897d80928c"/><linearGradient id="a7917a34-c9d0-451b-a086-1fb264f8ed15" x1="157.39" y1="79.24" x2="198.76" y2="120.61" xlink:href="#a7b8b1c7-3afb-468e-b3b4-4d897d80928c"/><linearGradient id="ac5672c5-077d-4e88-a386-8b7f7bdfdb2d" x1="209.85" y1="79.24" x2="251.22" y2="120.61" xlink:href="#a7b8b1c7-3afb-468e-b3b4-4d897d80928c"/><linearGradient id="ab3ce09a-2838-446e-841e-5720f97e3b22" x1="262.3" y1="79.24" x2="303.67" y2="120.61" xlink:href="#a7b8b1c7-3afb-468e-b3b4-4d897d80928c"/><linearGradient id="ef2ca271-b3bf-49f6-bbfc-f9fbff6c2ac8" x1="314.76" y1="79.24" x2="356.13" y2="120.61" xlink:href="#a7b8b1c7-3afb-468e-b3b4-4d897d80928c"/><linearGradient id="bca5c4e3-d1bd-492f-8cbd-f4fafce109bc" x1="367.22" y1="79.24" x2="408.59" y2="120.61" xlink:href="#a7b8b1c7-3afb-468e-b3b4-4d897d80928c"/><linearGradient id="ebf0236f-e2a3-4f1c-bef5-125e15afb4dd" x1="419.68" y1="79.24" x2="461.05" y2="120.61" xlink:href="#a7b8b1c7-3afb-468e-b3b4-4d897d80928c"/><linearGradient id="a96cee97-78e4-48e9-957f-48241ab689e6" x1="472.13" y1="79.24" x2="513.51" y2="120.61" xlink:href="#a7b8b1c7-3afb-468e-b3b4-4d897d80928c"/><linearGradient id="b3d58386-7af8-4669-98e6-0dd98f8b68aa" x1="521.02" y1="82.81" x2="562.4" y2="124.18" xlink:href="#a7b8b1c7-3afb-468e-b3b4-4d897d80928c"/><linearGradient id="af43e84c-913b-49dc-a621-d01c35b71e94" x1="-1" y1="97.77" x2="308.22" y2="97.77" gradientUnits="userSpaceOnUse"><stop offset="0.87" stop-color="#0a0e6a"/><stop offset="0.91" stop-color="#0c106c" stop-opacity="0.97"/><stop offset="0.93" stop-color="#111573" stop-opacity="0.89"/><stop offset="0.95" stop-color="#1a1e7e" stop-opacity="0.75"/><stop offset="0.97" stop-color="#262b8d" stop-opacity="0.55"/><stop offset="0.99" stop-color="#363ba1" stop-opacity="0.3"/><stop offset="1" stop-color="#494eb9" stop-opacity="0"/></linearGradient></defs><title>bner-01</title><g style="isolation:isolate"><g id="f3d59fa1-aed8-4c9d-8cd8-e0974764d4d0" data-name="Layer 1"><g style="mask:url(#a8d70fd0-95aa-4ebe-847a-ab7a75d69446)"><rect x="-1" width="544.26" height="111.41" style="fill:url(#e388188f-dad7-4049-965d-5d2e443b1675)"/><g style="mix-blend-mode:multiply"><polygon points="46.93 24.18 46.93 -6.11 20.7 -21.25 -5.53 -6.11 -5.53 24.18 20.7 39.32 46.93 24.18" style="fill:url(#a7b8b1c7-3afb-468e-b3b4-4d897d80928c)"/><polygon points="99.39 24.18 99.39 -6.11 73.16 -21.25 46.93 -6.11 46.93 24.18 73.16 39.32 99.39 24.18" style="fill:url(#e7730a8a-7b4d-496e-9256-e5a736600ae9)"/><polygon points="151.84 24.18 151.84 -6.11 125.62 -21.25 99.39 -6.11 99.39 24.18 125.62 39.32 151.84 24.18" style="fill:url(#b06c08ce-cf6d-4b02-ae1a-b31158e20cf5)"/><polygon points="204.3 24.18 204.3 -6.11 178.07 -21.25 151.84 -6.11 151.84 24.18 178.07 39.32 204.3 24.18" style="fill:url(#b85f35c7-8530-42d3-a8f5-661a896847ef)"/><polygon points="256.76 24.18 256.76 -6.11 230.53 -21.25 204.3 -6.11 204.3 24.18 230.53 39.32 256.76 24.18" style="fill:url(#f52bf3c1-2b79-4d7a-9310-c1da38dea804)"/><polygon points="309.22 24.18 309.22 -6.11 282.99 -21.25 256.76 -6.11 256.76 24.18 282.99 39.32 309.22 24.18" style="fill:url(#bf0afbba-d4cb-4335-8dab-a03bb10f2367)"/><polygon points="361.68 24.18 361.68 -6.11 335.45 -21.25 309.22 -6.11 309.22 24.18 335.45 39.32 361.68 24.18" style="fill:url(#b1f97925-4f4f-4652-b2b8-ded0b8dc683f)"/><polygon points="414.13 24.18 414.13 -6.11 387.9 -21.25 361.68 -6.11 361.68 24.18 387.9 39.32 414.13 24.18" style="fill:url(#a0d6d5a0-b862-410f-8bec-f61bc5e5271e)"/><polygon points="466.59 24.18 466.59 -6.11 440.36 -21.25 414.13 -6.11 414.13 24.18 440.36 39.32 466.59 24.18" style="fill:url(#a58f81a5-f427-4f11-9b5c-40c9c0d0957c)"/><polygon points="519.05 24.18 519.05 -6.11 492.82 -21.25 466.59 -6.11 466.59 24.18 492.82 39.32 519.05 24.18" style="fill:url(#bd1e27e0-372d-4262-af10-5cb62bdecf03)"/><polygon points="543.26 -20.08 519.05 -6.11 519.05 24.18 543.26 38.16 543.26 -20.08" style="fill:url(#a4b79797-bc9a-4b73-839e-3ea68bd409fb)"/><polygon points="73.16 69.64 73.16 39.35 46.93 24.21 20.7 39.35 20.7 69.64 46.93 84.78 73.16 69.64" style="fill:url(#ad3ce90e-de1a-4c0c-a5da-6bd9d21a8834)"/><polygon points="125.62 69.64 125.62 39.35 99.39 24.21 73.16 39.35 73.16 69.64 99.39 84.78 125.62 69.64" style="fill:url(#ecd6811b-9691-42fd-b7ae-9a9d51472e0b)"/><polygon points="178.07 69.64 178.07 39.35 151.84 24.21 125.62 39.35 125.62 69.64 151.84 84.78 178.07 69.64" style="fill:url(#b435f484-ceb0-4b3a-b2aa-9227ee466a29)"/><polygon points="230.53 69.64 230.53 39.35 204.3 24.21 178.07 39.35 178.07 69.64 204.3 84.78 230.53 69.64" style="fill:url(#fc3553db-958a-4642-85fb-92dc3acb77aa)"/><polygon points="282.99 69.64 282.99 39.35 256.76 24.21 230.53 39.35 230.53 69.64 256.76 84.78 282.99 69.64" style="fill:url(#afa2b99e-72c8-4321-9162-83b584b14cbf)"/><polygon points="335.45 69.64 335.45 39.35 309.22 24.21 282.99 39.35 282.99 69.64 309.22 84.78 335.45 69.64" style="fill:url(#bd62a185-0f05-444b-b675-332b10f368d2)"/><polygon points="387.9 69.64 387.9 39.35 361.68 24.21 335.45 39.35 335.45 69.64 361.68 84.78 387.9 69.64" style="fill:url(#abd96433-8449-4ca4-8b7a-8c67019f3c8c)"/><polygon points="440.36 69.64 440.36 39.35 414.13 24.21 387.9 39.35 387.9 69.64 414.13 84.78 440.36 69.64" style="fill:url(#f0523704-7b1e-4a26-ad06-a4f60930f77f)"/><polygon points="492.82 69.64 492.82 39.35 466.59 24.21 440.36 39.35 440.36 69.64 466.59 84.78 492.82 69.64" style="fill:url(#a19488e0-55fc-42d3-9c08-69415a218252)"/><polygon points="543.26 38.19 519.05 24.21 492.82 39.35 492.82 69.64 519.05 84.78 543.26 70.8 543.26 38.19" style="fill:url(#fa516b4c-b5af-445b-880d-521d50393ff2)"/><polygon points="46.93 115.07 46.93 84.78 20.7 69.64 -5.53 84.78 -5.53 115.07 20.7 130.21 46.93 115.07" style="fill:url(#bcaf9610-c0ab-44f9-ac66-a491a2b55f3d)"/><polygon points="99.39 115.07 99.39 84.78 73.16 69.64 46.93 84.78 46.93 115.07 73.16 130.21 99.39 115.07" style="fill:url(#bec69a22-5cea-4e30-8d80-0a7f2e3f2366)"/><polygon points="151.84 115.07 151.84 84.78 125.62 69.64 99.39 84.78 99.39 115.07 125.62 130.21 151.84 115.07" style="fill:url(#a391a487-3682-4d43-8acd-7aa635602c11)"/><polygon points="204.3 115.07 204.3 84.78 178.07 69.64 151.84 84.78 151.84 115.07 178.07 130.21 204.3 115.07" style="fill:url(#a7917a34-c9d0-451b-a086-1fb264f8ed15)"/><path d="M230.53,69.64,204.3,84.78v30.29l26.23,15.14,26.23-15.14V84.78Z" style="fill:url(#ac5672c5-077d-4e88-a386-8b7f7bdfdb2d)"/><polygon points="309.22 115.07 309.22 84.78 282.99 69.64 256.76 84.78 256.76 115.07 282.99 130.21 309.22 115.07" style="fill:url(#ab3ce09a-2838-446e-841e-5720f97e3b22)"/><polygon points="361.68 115.07 361.68 84.78 335.45 69.64 309.22 84.78 309.22 115.07 335.45 130.21 361.68 115.07" style="fill:url(#ef2ca271-b3bf-49f6-bbfc-f9fbff6c2ac8)"/><polygon points="414.13 115.07 414.13 84.78 387.9 69.64 361.68 84.78 361.68 115.07 387.9 130.21 414.13 115.07" style="fill:url(#bca5c4e3-d1bd-492f-8cbd-f4fafce109bc)"/><polygon points="466.59 115.07 466.59 84.78 440.36 69.64 414.13 84.78 414.13 115.07 440.36 130.21 466.59 115.07" style="fill:url(#ebf0236f-e2a3-4f1c-bef5-125e15afb4dd)"/><polygon points="519.05 115.07 519.05 84.78 492.82 69.64 466.59 84.78 466.59 115.07 492.82 130.21 519.05 115.07" style="fill:url(#a96cee97-78e4-48e9-957f-48241ab689e6)"/><polygon points="543.26 70.8 519.05 84.78 519.05 115.07 543.26 129.05 543.26 70.8" style="fill:url(#b3d58386-7af8-4669-98e6-0dd98f8b68aa)"/><polygon points="335.45 69.64 335.45 39.35 309.22 24.21 282.99 39.35 282.99 69.64 309.22 84.78 335.45 69.64" style="fill:url(#bd62a185-0f05-444b-b675-332b10f368d2)"/><polygon points="543.26 38.19 519.05 24.21 492.82 39.35 492.82 69.64 519.05 84.78 543.26 70.8 543.26 38.19" style="fill:url(#fa516b4c-b5af-445b-880d-521d50393ff2)"/><polygon points="204.3 115.07 204.3 84.78 178.07 69.64 151.84 84.78 151.84 115.07 178.07 130.21 204.3 115.07" style="fill:url(#a7917a34-c9d0-451b-a086-1fb264f8ed15)"/></g><rect x="-1" y="84.13" width="309.22" height="27.28" style="fill:url(#af43e84c-913b-49dc-a621-d01c35b71e94)"/></g></g></g></svg>