<svg xmlns="http://www.w3.org/2000/svg" xmlns:xlink="http://www.w3.org/1999/xlink" xml:space="preserve" version="1.1" style="shape-rendering:geometricPrecision; text-rendering:geometricPrecision; image-rendering:optimizeQuality; fill-rule:evenodd; clip-rule:evenodd" viewBox="231.62 1142.79 1372.33 176.98">
 <defs>
  <style type="text/css">
   <![CDATA[
    .fil1 {fill:#009FE3}
    .fil0 {fill:#00203A;fill-rule:nonzero}
    .fil2 {fill:white;fill-rule:nonzero}
   ]]>
  </style>
 </defs>
 <g id="Capa_x0020_1">
  <metadata id="CorelCorpID_0Corel-Layer"/>
  <path class="fil0" d="M1164.24 1192.87l-17.28 103.51 -32.7 0 21.81 -130.79 56.35 0 17.29 103.51 17.12 -103.51 32.7 0 -21.79 130.79 -56.22 0 -17.28 -103.51zm-86.1 35.87l4.52 -27.46c0.2,-1.37 -0.05,-2.59 -0.78,-3.65 -0.73,-1.05 -1.66,-1.58 -2.8,-1.58l-39.71 0c-2.07,0 -3.26,1.18 -3.58,3.55l-4.98 29.14 47.33 0zm21.33 67.64l-32.7 0 6.23 -37 -47.17 0 -6.23 37 -32.7 0 18.85 -113.23c0.82,-5.23 2.93,-9.46 6.29,-12.7 3.38,-3.24 7.25,-4.86 11.61,-4.86l75.51 0c2.91,0 5.58,0.72 8.02,2.15 2.44,1.43 4.49,3.36 6.15,5.79 1.66,2.43 2.83,5.2 3.5,8.32 0.68,3.11 0.71,6.35 0.08,9.71l-17.44 104.82zm-181.86 -100.33l-38.45 0 5.14 -30.46 111.17 0 -5.15 30.46 -36.27 0 -16.82 100.33 -36.27 0 16.65 -100.33zm-132.8 -30.46l71.93 0c3.11,0 5.99,0.81 8.64,2.43 2.65,1.62 4.91,3.73 6.77,6.35 1.87,2.62 3.2,5.64 3.97,9.07 0.79,3.42 0.86,7 0.24,10.74l-1.86 10.65 -32.71 0 0.62 -3.55c0.21,-1.37 -0.05,-2.59 -0.77,-3.65 -0.73,-1.05 -1.67,-1.58 -2.8,-1.58l-39.86 0c-1.98,0 -3.18,1.18 -3.58,3.55l-1.72 10.83c-0.21,1.37 0.05,2.59 0.78,3.64 0.72,1.06 1.66,1.6 2.8,1.6l24.92 0c3.42,0 6.74,0 9.96,0 3.22,0 6.07,0 8.56,0 2.49,0 5.29,0.06 8.41,0.18 3.01,0.25 5.73,1.21 8.17,2.89 2.45,1.69 4.52,3.83 6.23,6.45 1.71,2.62 2.91,5.58 3.58,8.88 0.68,3.3 0.71,6.75 0.08,10.37l-5.45 32.69c-0.93,5.61 -3.24,10.22 -6.93,13.83 -3.68,3.61 -7.91,5.42 -12.68,5.42l-71.16 0c-3.11,0 -6.02,-0.81 -8.72,-2.43 -2.7,-1.62 -4.93,-3.74 -6.69,-6.36 -1.77,-2.61 -3.04,-5.66 -3.82,-9.15 -0.78,-3.49 -0.85,-7.1 -0.23,-10.84l1.71 -10.46 32.69 0 -0.62 3.55c-0.21,1.37 0.06,2.59 0.79,3.64 0.72,1.06 1.65,1.59 2.8,1.59l39.08 0c1.86,0 3.06,-1.18 3.58,-3.55l2.18 -13.08c0.2,-1.37 -0.05,-2.58 -0.78,-3.64 -0.73,-1.06 -1.66,-1.59 -2.8,-1.59l-50.45 0c-3.11,0 -6.02,-0.81 -8.72,-2.43 -2.7,-1.62 -4.93,-3.73 -6.7,-6.35 -1.76,-2.61 -3.03,-5.67 -3.81,-9.15 -0.78,-3.49 -0.86,-7.1 -0.23,-10.84l4.98 -30.45c0.94,-5.61 3.24,-10.22 6.93,-13.83 3.68,-3.61 7.91,-5.42 12.69,-5.42zm-116.46 100.33l68.98 0 -5.14 30.46 -101.67 0 21.8 -130.79 101.67 0 -4.98 30.46 -69.14 0 -3.26 19.62 58.23 0 -5.14 30.63 -58.08 0 -3.27 19.62zm-146.97 30.46c-2.91,0 -5.58,-0.72 -8.02,-2.15 -2.44,-1.43 -4.47,-3.37 -6.08,-5.79 -1.61,-2.43 -2.77,-5.24 -3.5,-8.41 -0.73,-3.18 -0.83,-6.45 -0.31,-9.81l17.44 -104.63 32.69 0 -15.72 95.1c-0.21,1.37 0.05,2.59 0.78,3.64 0.72,1.06 1.66,1.59 2.8,1.59l39.7 0c1.87,0 3.06,-1.18 3.58,-3.55l16.2 -96.78 32.69 0 -18.84 113.22c-0.83,5.24 -2.93,9.47 -6.3,12.71 -3.37,3.24 -7.24,4.86 -11.6,4.86l-75.51 0zm-57.77 -67.64c1.77,0 2.9,-1.12 3.42,-3.36l4.06 -24.1c0.2,-1.37 -0.06,-2.59 -0.79,-3.65 -0.72,-1.05 -1.65,-1.58 -2.8,-1.58l-57.29 0 -5.46 32.69 58.86 0zm-104.63 67.64l21.8 -130.79 109.45 0c2.5,0 4.81,0.63 6.93,1.87 2.13,1.24 3.92,2.96 5.38,5.14 1.45,2.18 2.51,4.64 3.19,7.38 0.67,2.74 0.75,5.6 0.23,8.59l-8.88 53.25c-0.82,5.23 -2.93,9.47 -6.3,12.7 -3.37,3.24 -7.24,4.86 -11.6,4.86l-79.56 0 -6.07 37 -34.57 0zm-97.15 -100.33l16.94 13.27 -3.24 19.42 47.33 0 4.52 -27.46c0.21,-1.37 -0.06,-2.59 -0.79,-3.65 -0.72,-1.05 -1.65,-1.58 -2.79,-1.58l-61.97 0zm82.37 100.33l-32.71 0 6.23 -37 -47.18 0 -6.22 37 -32.7 0 18.84 -113.23c0.83,-5.23 2.93,-9.46 6.31,-12.7 3.37,-3.24 7.24,-4.86 11.59,-4.86l75.52 0c2.91,0 5.58,0.72 8.02,2.15 2.44,1.43 4.49,3.36 6.15,5.79 1.66,2.43 2.82,5.2 3.5,8.32 0.67,3.11 0.7,6.35 0.08,9.71l-17.43 104.82z"/>
  <polygon class="fil1" points="1603.95,1142.79 1287.25,1142.79 1253,1319.77 1573.48,1319.77 "/>
  <path class="fil2" d="M1287.99 1278.53l16.39 0 3.84 -30.28 17.63 0c18.53,0 32.66,-12.58 32.66,-31.77 0,-16.82 -10.85,-27.66 -26.67,-27.66l-32.66 0 -11.19 89.71zm22.15 -45.61l3.62 -28.4 14.35 0c8.59,0 13.11,4.48 13.11,12.46 0,9.59 -6.44,15.94 -17.07,15.94l-14.01 0zm70.07 29.29l9.15 -73.39 -16.16 0 -11.19 89.71 54.25 0 2.03 -16.32 -38.08 0zm69.18 -73.39l-16.35 0 -6.54 51.95c-3.16,25.17 10.7,39 30.8,39 21.24,0 33.22,-13.08 35.82,-34.38l7.12 -56.57 -16.39 0 -7 56.07c-1.58,12.83 -9.04,19.31 -19.21,19.31 -10.06,0 -16.84,-7.1 -15.15,-20.68l6.9 -54.7zm83.26 90.95c18.09,0 34.81,-9.59 34.81,-28.9 0,-11.96 -6.21,-20.44 -19.78,-23.93l-11.41 -2.99c-8.14,-2.11 -10.96,-5.35 -10.96,-10.21 0,-6.86 5.65,-11.59 15.37,-11.59 9.04,0 15.14,3.99 14.24,12.71l15.59 0c1.02,-20.44 -14.12,-27.29 -29.49,-27.29 -21.48,0 -32.77,12.34 -32.77,28.16 0,12.21 6.77,19.81 20.9,23.67l11.19 2.99c7,1.87 9.94,4.86 9.94,10.1 0,7.47 -6.33,12.33 -16.61,12.33 -10.4,0 -16.16,-4.86 -15.48,-12.71l-15.82 0c-1.7,16.82 11.41,27.66 30.28,27.66z"/>
 </g>
</svg>