<svg xmlns="http://www.w3.org/2000/svg" width="65.411" height="26.634" viewBox="0 0 65.411 26.634">
  <g id="Isotipo" transform="translate(-403.091 -662.423)">
    <path id="Trazado_54" data-name="Trazado 54" d="M456.216,662.423l-48.09.008-5.035,26.626h53.125L468.5,675.74Z" fill="#fff"/>
    <path id="Trazado_55" data-name="Trazado 55" d="M440.965,685.3h-7l8.576-9.555-8.576-9.555h7l8.815,9.555Z" fill="#03b0f4"/>
    <path id="Trazado_56" data-name="Trazado 56" d="M453.077,685.3h-7l8.576-9.555-8.576-9.555h7l8.815,9.555Z" fill="#dc213e"/>
    <path id="Trazado_57" data-name="Trazado 57" d="M427.742,668.565a3.505,3.505,0,0,0-.51-1.22,2.809,2.809,0,0,0-.9-.85,2.351,2.351,0,0,0-1.17-.31h-11.03a2.393,2.393,0,0,0-1.7.71,3.172,3.172,0,0,0-.92,1.86l-2.75,16.54h4.77l.91-5.4h6.9l-.91,5.4h4.78l2.54-15.31A3.565,3.565,0,0,0,427.742,668.565Zm-5.65,6.85h-6.92l.48-2.84-2.48-1.94h9.06a.473.473,0,0,1,.4.23.714.714,0,0,1,.12.53Z" fill="#00203a"/>
  </g>
</svg>
