<svg xmlns="http://www.w3.org/2000/svg" width="45" height="45" viewBox="0 0 45 45">
  <path id="NBA" d="M38.41,6.59A22.5,22.5,0,0,0,6.59,38.41,22.5,22.5,0,0,0,38.41,6.59Zm3.707,14.442a24.437,24.437,0,0,1-10.592-5.569l5.842-5.842A19.5,19.5,0,0,1,42.117,21.032Zm-6.739-13.4-5.842,5.842A24.437,24.437,0,0,1,23.968,2.883,19.481,19.481,0,0,1,35.378,7.633Zm-14.3-4.75a27.283,27.283,0,0,0,6.472,12.58L22.5,20.512,9.622,7.633A19.469,19.469,0,0,1,21.077,2.883ZM7.633,9.622,20.512,22.5l-5.048,5.048a27.269,27.269,0,0,0-12.58-6.472A19.476,19.476,0,0,1,7.633,9.622ZM2.883,23.968a24.468,24.468,0,0,1,10.592,5.569L7.633,35.378A19.5,19.5,0,0,1,2.883,23.968Zm6.739,13.4,5.842-5.842a24.437,24.437,0,0,1,5.569,10.592A19.481,19.481,0,0,1,9.622,37.367Zm14.3,4.75a27.283,27.283,0,0,0-6.472-12.58L22.5,24.488,35.378,37.367A19.469,19.469,0,0,1,23.923,42.117Zm13.444-6.739L24.488,22.5l5.048-5.048a27.269,27.269,0,0,0,12.58,6.472A19.476,19.476,0,0,1,37.367,35.378Z" fill="#00203a"/>
</svg>
