<svg xmlns="http://www.w3.org/2000/svg" width="45.001" height="45.001" viewBox="0 0 45.001 45.001">
  <path id="MLB" d="M44.939,21.257c0-.006.006-.011.006-.017,0-.025-.011-.048-.008-.073A22.5,22.5,0,0,0,23.78.065l-.011,0h0C23.344.039,22.928,0,22.5,0A22.527,22.527,0,0,0,0,22.5c0,.419.039.83.062,1.243,0,.006,0,.011,0,.017a.647.647,0,0,0,.008.073,22.5,22.5,0,0,0,21.021,21.1c.02,0,.037.011.056.011s.059,0,.087,0h0c.422.022.838.062,1.266.062A22.527,22.527,0,0,0,45,22.5C45,22.081,44.961,21.671,44.939,21.257ZM22.5,2.813a19.434,19.434,0,0,1-1.069,6.331l-1.114-.557a1.406,1.406,0,0,0-1.26,2.514l1.254.627a19.844,19.844,0,0,1-2.652,3.943l-1.2-1.2a1.406,1.406,0,1,0-1.988,1.988l1.178,1.178a19.9,19.9,0,0,1-3.929,2.669L11.1,19.058a1.406,1.406,0,0,0-2.514,1.26l.548,1.094a19.357,19.357,0,0,1-6.32,1.049A19.708,19.708,0,0,1,22.5,2.813Zm-.765,30.055-1.344-.773a1.407,1.407,0,0,0-1.406,2.438l1.713.99a22.387,22.387,0,0,0-1,6.446A19.7,19.7,0,0,1,3.035,25.3a22.353,22.353,0,0,0,7.374-1.336l.99,1.977a1.407,1.407,0,0,0,2.514-1.263L13,22.849a22.592,22.592,0,0,0,4.677-3.187l1.021,1.021a1.406,1.406,0,1,0,1.988-1.988l-1.021-1.021A22.483,22.483,0,0,0,22.849,13l1.834.917a1.406,1.406,0,1,0,1.26-2.514l-1.977-.99A22.34,22.34,0,0,0,25.3,3.035,19.707,19.707,0,0,1,41.966,19.7a22.479,22.479,0,0,0-6.174.928l-.785-1.569a1.407,1.407,0,1,0-2.517,1.257l.644,1.288a22.511,22.511,0,0,0-5.808,3.735l-1.018-1.021a1.406,1.406,0,0,0-1.988,1.988l1.021,1.021A22.494,22.494,0,0,0,21.735,32.867Zm.765,9.321a19.408,19.408,0,0,1,.734-5.2l1.375.8a1.382,1.382,0,0,0,.7.188,1.408,1.408,0,0,0,.7-2.627l-1.837-1.063a19.766,19.766,0,0,1,3.161-4.953l1.2,1.2a1.392,1.392,0,0,0,.993.413,1.4,1.4,0,0,0,1-2.4l-1.181-1.181a19.833,19.833,0,0,1,5.068-3.2l.894,1.786a1.4,1.4,0,0,0,1.254.776,1.408,1.408,0,0,0,1.26-2.036L37.081,23.2a19.317,19.317,0,0,1,5.108-.664A19.713,19.713,0,0,1,22.5,42.188Z" fill="#00203a"/>
</svg>
