<svg xmlns="http://www.w3.org/2000/svg" width="45" height="45" viewBox="0 0 45 45">
  <path id="F._Americano" data-name="F. Americano" d="M-2087.122,44.239a4.226,4.226,0,0,1-3.226-3.254,34.231,34.231,0,0,1,.125-13.888,1.388,1.388,0,0,1,.052-.211,34.178,34.178,0,0,1,9.188-16.877A34.136,34.136,0,0,1-2064.1.824a1.285,1.285,0,0,1,.208-.049,34.261,34.261,0,0,1,13.9-.121,4.238,4.238,0,0,1,3.26,3.217,33.949,33.949,0,0,1,.069,13.7,1.443,1.443,0,0,1-.142.607,33.866,33.866,0,0,1-9.15,16.848A33.911,33.911,0,0,1-2079.969,45,34.227,34.227,0,0,1-2087.122,44.239Zm-.463-3.81a1.393,1.393,0,0,0,1.046,1.059,31.189,31.189,0,0,0,10.163.437l-11.543-11.539A31.3,31.3,0,0,0-2087.585,40.43Zm8.592-28.43a31.354,31.354,0,0,0-8.321,15.014l14.326,14.319a31.106,31.106,0,0,0,15.042-8.3A31.093,31.093,0,0,0-2049.652,18l-14.342-14.337A31.383,31.383,0,0,0-2078.993,12Zm18.369-8.947,11.563,11.56a31.064,31.064,0,0,0-.428-10.154,1.389,1.389,0,0,0-1.062-1.047,31.647,31.647,0,0,0-6.23-.622A31.474,31.474,0,0,0-2060.624,3.052Zm-10.315,27.571-1.843-1.843-1.843,1.846a1.432,1.432,0,0,1-1.01.417,1.421,1.421,0,0,1-1.01-.417,1.424,1.424,0,0,1,0-2.019l1.843-1.843-1.843-1.846a1.432,1.432,0,0,1,0-2.019,1.428,1.428,0,0,1,2.016,0l1.843,1.848,2.262-2.265-1.843-1.846a1.428,1.428,0,0,1,0-2.016,1.428,1.428,0,0,1,2.016,0l1.842,1.846,2.263-2.262-1.843-1.846a1.428,1.428,0,0,1,0-2.016,1.427,1.427,0,0,1,2.016,0l1.846,1.846,1.843-1.843a1.428,1.428,0,0,1,2.016,0,1.428,1.428,0,0,1,0,2.016l-1.843,1.843,1.846,1.846a1.43,1.43,0,0,1,0,2.016,1.433,1.433,0,0,1-1.01.417,1.425,1.425,0,0,1-1.009-.417l-1.843-1.846-2.261,2.262,1.844,1.848a1.428,1.428,0,0,1,0,2.016,1.442,1.442,0,0,1-1.012.417,1.431,1.431,0,0,1-1.009-.419L-2068.5,24.5l-2.261,2.262,1.846,1.846a1.423,1.423,0,0,1,0,2.016,1.427,1.427,0,0,1-1.01.417A1.421,1.421,0,0,1-2070.939,30.623Z" transform="translate(2091 0)" fill="#00203a"/>
</svg>
