<svg xmlns="http://www.w3.org/2000/svg" width="59.783" height="41.397" viewBox="0 0 59.783 41.397">
  <path id="E-Sport" d="M-2572.083,63.327a5.766,5.766,0,0,1-3.573-3.534c-.82-2.041-1.19-4.944-1.041-8.948a61.431,61.431,0,0,1,1.636-11.384,41.57,41.57,0,0,1,3.351-9.578c5.213-9.736,10.874-8.165,17.649-6.36a46.106,46.106,0,0,0,6.85,1.413h.745a46.172,46.172,0,0,0,6.853-1.413c6.774-1.883,12.432-3.376,17.645,6.279a45.209,45.209,0,0,1,3.35,9.578,61.78,61.78,0,0,1,1.64,11.384c.149,4.084-.224,6.987-1.043,8.95a5.694,5.694,0,0,1-3.574,3.611,7.414,7.414,0,0,1-4.766-.55c-2.9-1.255-6.254-3.924-9.531-7.142-2.31-2.356-6.628-3.534-10.948-3.534s-8.637,1.178-10.945,3.534c-3.276,3.218-6.629,5.887-9.532,7.142a7.718,7.718,0,0,1-3.212.757A5.8,5.8,0,0,1-2572.083,63.327Zm38.051-9.655c2.978,2.983,6.033,5.417,8.638,6.514a4.887,4.887,0,0,0,3.052.393,3.036,3.036,0,0,0,1.788-1.963c.671-1.648.966-4.081.82-7.692A62.333,62.333,0,0,0-2521.3,40.09a37.639,37.639,0,0,0-3.127-8.873c-4.1-7.77-8.862-6.437-14.521-4.944a41.112,41.112,0,0,1-7.372,1.49h-1.117a41.721,41.721,0,0,1-7.3-1.49c-5.661-1.571-10.423-2.826-14.519,4.944a38.724,38.724,0,0,0-3.131,8.873,57.161,57.161,0,0,0-1.562,10.833c-.149,3.611.15,6.044.746,7.537a3.035,3.035,0,0,0,1.785,1.96,4.383,4.383,0,0,0,3.052-.393c2.534-1.02,5.586-3.531,8.641-6.514,2.9-2.826,7.89-4.319,12.879-4.319S-2536.861,50.688-2534.032,53.672Zm-29.324-7.856a4.1,4.1,0,0,1-1.3-2.76,4.281,4.281,0,0,1-2.835-1.3,4.53,4.53,0,0,1-1.3-3.144,4.338,4.338,0,0,1,1.3-3.144l.075-.077a4.575,4.575,0,0,1,2.76-1.227,4.463,4.463,0,0,1,1.3-2.76,4.526,4.526,0,0,1,3.144-1.3,4.347,4.347,0,0,1,3.144,1.3l.077.077a4.354,4.354,0,0,1,1.227,2.683,4.652,4.652,0,0,1,2.76,1.3,4.525,4.525,0,0,1,1.3,3.144,4.335,4.335,0,0,1-1.3,3.144,4.1,4.1,0,0,1-2.76,1.3,4.667,4.667,0,0,1-1.3,2.76,4.534,4.534,0,0,1-3.144,1.3A4.351,4.351,0,0,1-2563.356,45.816Zm-2.07-8.435-.076.077a1.553,1.553,0,0,0-.459,1.149,1.566,1.566,0,0,0,.459,1.075,1.557,1.557,0,0,0,1.148.459h1.075a1.456,1.456,0,0,1,1.457,1.456v1.075a1.562,1.562,0,0,0,.461,1.149,1.564,1.564,0,0,0,1.15.461,1.569,1.569,0,0,0,1.152-.461,1.573,1.573,0,0,0,.458-1.149v-1a1.457,1.457,0,0,1,1.459-1.456h1.072a1.564,1.564,0,0,0,1.15-.461,1.562,1.562,0,0,0,.461-1.149,1.558,1.558,0,0,0-.461-1.149,1.564,1.564,0,0,0-1.15-.461h-1.072a1.456,1.456,0,0,1-1.459-1.456V34.467a1.832,1.832,0,0,0-.384-1.072l-.074-.077a1.569,1.569,0,0,0-1.152-.461,1.564,1.564,0,0,0-1.15.461,1.562,1.562,0,0,0-.461,1.149v1.075A1.455,1.455,0,0,1-2563.279,37h-1.075A1.838,1.838,0,0,0-2565.426,37.382Zm28.823,6.873a2.683,2.683,0,0,1,2.683-2.683,2.685,2.685,0,0,1,2.686,2.683,2.685,2.685,0,0,1-2.686,2.685A2.683,2.683,0,0,1-2536.6,44.254Zm5.27-5.592a2.686,2.686,0,0,1,2.686-2.685,2.683,2.683,0,0,1,2.682,2.685,2.682,2.682,0,0,1-2.682,2.683A2.685,2.685,0,0,1-2531.333,38.663Zm-10.544,0a2.685,2.685,0,0,1,2.685-2.685,2.684,2.684,0,0,1,2.684,2.685,2.683,2.683,0,0,1-2.684,2.683A2.685,2.685,0,0,1-2541.876,38.663Zm5.274-5.594a2.685,2.685,0,0,1,2.683-2.685,2.687,2.687,0,0,1,2.686,2.685,2.685,2.685,0,0,1-2.686,2.683A2.683,2.683,0,0,1-2536.6,33.068Z" transform="translate(2576.73 -22.137)" fill="#00203a"/>
</svg>
