<?xml version="1.0" standalone="no"?>
<!DOCTYPE svg PUBLIC "-//W3C//DTD SVG 1.1//EN" "http://www.w3.org/Graphics/SVG/1.1/DTD/svg11.dtd" >
<svg xmlns="http://www.w3.org/2000/svg" xmlns:xlink="http://www.w3.org/1999/xlink" version="1.1">
<metadata>
Created by FontForge 20170731 at Thu Dec 23 18:36:33 2021
 By Aleksey,,,
Copyright 2017 Fontstore Pte Ltd. All rights reserved.
</metadata>
<defs>
<font id="NeurialGrotesk-Bold" horiz-adv-x="1228" >
  <font-face 
    font-family="Neurial Grotesk Bold"
    font-weight="700"
    font-stretch="normal"
    units-per-em="2048"
    panose-1="0 0 8 0 0 0 0 0 0 0"
    ascent="1638"
    descent="-410"
    x-height="1065"
    cap-height="1475"
    bbox="-1319 -520 3566 2218"
    underline-thickness="163"
    underline-position="-398"
    unicode-range="U+0020-FB03"
  />
<missing-glyph horiz-adv-x="1206" 
d="M84 1448h1038v-1448h-1038v1448z" />
    <glyph glyph-name="f_f" unicode="ff" horiz-adv-x="1468" 
d="M1319 1307q-81 0 -109 -34t-28 -99v-109h243v-250h-243v-815h-289v815h-406v-815h-288v815h-164v250h164v137q0 164 84.5 251t277.5 87h170v-233h-106q-81 0 -109.5 -34t-28.5 -99v-109h406v137q0 164 84.5 251t277.5 87h170v-233h-106z" />
    <glyph glyph-name="fi" unicode="fi" horiz-adv-x="1300" 
d="M1182 1065v-1065h-289v815h-406v-815h-288v815h-164v250h164v137q0 164 84.5 251t277.5 87h156v-233h-92q-81 0 -109.5 -34t-28.5 -99v-109h695zM885 1534h305v-272h-305v272z" />
    <glyph glyph-name="fl" unicode="fl" horiz-adv-x="1282" 
d="M35 1065h164v137q0 164 84.5 251t277.5 87h170v-233h-106q-81 0 -109.5 -34t-28.5 -99v-109h244v-250h-244v-815h-288v815h-164v250zM1163 1538v-1538h-286v1538h286z" />
    <glyph glyph-name="f_f_i" unicode="ffi" horiz-adv-x="1994" 
d="M1876 1065v-1065h-289v815h-405v-815h-289v815h-406v-815h-288v815h-164v250h164v137q0 164 84.5 251t277.5 87h170v-233h-106q-81 0 -109.5 -34t-28.5 -99v-109h406v137q0 164 84.5 251t277.5 87h156v-233h-92q-81 0 -109 -34t-28 -99v-109h694zM1579 1534h305v-272
h-305v272z" />
    <glyph glyph-name=".notdef" horiz-adv-x="1206" 
d="M84 1448h1038v-1448h-1038v1448z" />
    <glyph glyph-name=".null" horiz-adv-x="0" 
 />
    <glyph glyph-name="nonmarkingreturn" horiz-adv-x="682" 
 />
    <glyph glyph-name="space" unicode=" " horiz-adv-x="380" 
 />
    <glyph glyph-name="exclam" unicode="!" horiz-adv-x="579" 
d="M154 1073v402h270v-402q0 -322 -35 -606h-201q-34 256 -34 606zM119 0v342h342v-342h-342z" />
    <glyph glyph-name="quotedbl" unicode="&#x22;" horiz-adv-x="909" 
d="M135 1225v250h256v-250q-4 -181 -39 -295h-178q-35 107 -39 295zM518 1225v250h256v-250q-4 -181 -39 -295h-178q-39 118 -39 295z" />
    <glyph glyph-name="numbersign" unicode="#" horiz-adv-x="1323" 
d="M1231 862h-193l-55 -254h197l-47 -233h-197l-80 -375h-252l80 375h-199l-79 -375h-252l79 375h-186l45 233h191l53 254h-195l47 232h199l82 381h250l-80 -381h199l80 381h251l-82 -381h189zM535 608h198l55 254h-200z" />
    <glyph glyph-name="dollar" unicode="$" horiz-adv-x="1310" 
d="M1212 426q0 -183 -125.5 -298.5t-324.5 -139.5v-168h-225v170q-209 28 -326 146t-117 298h271q0 -95 73 -151t221 -56q122 0 191.5 46t69.5 135q0 73 -47 112t-160 66l-226 55q-69 16 -129 45.5t-116 77.5t-88.5 122.5t-32.5 166.5q0 167 111.5 286t304.5 148v168h225
v-168q69 -10 129.5 -31t114.5 -58t92.5 -86t61 -118t22.5 -150h-269q0 106 -71 157.5t-195 51.5q-233 0 -233 -174q0 -71 48.5 -113.5t162.5 -70.5l223 -53q172 -41 268 -146t96 -270z" />
    <glyph glyph-name="percent" unicode="%" horiz-adv-x="1912" 
d="M438 666q-162 0 -259 113t-97 300q0 185 97.5 299.5t258.5 114.5t259 -114t98 -300q0 -185 -98 -299t-259 -114zM371 0l919 1475h250l-919 -1475h-250zM438 872q123 0 123 207t-123 207q-46 0 -75.5 -31.5t-39.5 -75t-10 -100.5q0 -207 125 -207zM1475 -20
q-163 0 -260 112.5t-97 300.5q0 186 97.5 300t259.5 114q160 0 258 -114t98 -300q0 -185 -97.5 -299t-258.5 -114zM1475 186q122 0 122 207q0 205 -122 205q-125 0 -125 -205q0 -207 125 -207z" />
    <glyph glyph-name="ampersand" unicode="&#x26;" horiz-adv-x="1531" 
d="M1370 244h109v-244h-133q-106 0 -177.5 25.5t-132.5 85.5q-161 -131 -403 -131q-144 0 -261.5 47t-190 142.5t-72.5 225.5q0 114 64.5 211.5t213.5 181.5l27 15l-23 26q-77 87 -107 160.5t-30 147.5q0 163 120 260.5t312 97.5q188 0 300 -93t112 -243q0 -200 -228 -354
l-69 -45l254 -283q41 70 63 144t23 174h239q0 -294 -153 -502q55 -49 143 -49zM680 1284q-72 0 -114 -39t-42 -104q0 -75 97 -183l38 -43l52 33q58 37 91.5 89.5t33.5 107.5q0 61 -43.5 100t-112.5 39zM403 420q0 -101 70.5 -157t177.5 -56q129 0 232 74l-324 360l-16 -10
q-140 -87 -140 -211z" />
    <glyph glyph-name="quotesingle" unicode="'" horiz-adv-x="526" 
d="M135 1225v250h256v-250q-4 -181 -39 -295h-178q-35 107 -39 295z" />
    <glyph glyph-name="parenleft" unicode="(" horiz-adv-x="643" 
d="M94 713q-2 262 73.5 513.5t221.5 450.5h240q-112 -175 -174 -426.5t-62 -519.5q0 -267 61 -518.5t171 -427.5h-236q-139 191 -215.5 433.5t-79.5 494.5z" />
    <glyph glyph-name="parenright" unicode=")" horiz-adv-x="643" 
d="M252 731q0 268 -62 519.5t-174 426.5h240q145 -201 220.5 -452t72.5 -512q-3 -253 -79 -495.5t-214 -432.5h-238q111 175 172.5 426t61.5 520z" />
    <glyph glyph-name="asterisk" unicode="*" horiz-adv-x="839" 
d="M51 1202l51 141l150 -51q68 -21 104 -47q-12 62 -12 113v162h152v-162q0 -73 -13 -113q47 31 105 51l149 50l51 -146l-151 -51q-80 -25 -117 -25q40 -25 84 -86l96 -129l-125 -92l-92 129q-43 53 -63 109q-14 -45 -62 -109l-94 -129l-127 92l101 129q18 22 23 28.5t18 21
t22.5 22.5t20.5 14q-35 0 -119 25z" />
    <glyph glyph-name="plus" unicode="+" 
d="M1096 797v-258h-353v-357h-258v357h-352v258h352v356h258v-356h353z" />
    <glyph glyph-name="comma" unicode="," horiz-adv-x="532" 
d="M96 0v334h342v-334l-141 -246h-162l123 246h-162z" />
    <glyph glyph-name="hyphen" unicode="-" horiz-adv-x="841" 
d="M94 737h654v-260h-654v260z" />
    <glyph glyph-name="period" unicode="." horiz-adv-x="530" 
d="M94 0v334h342v-334h-342z" />
    <glyph glyph-name="slash" unicode="/" horiz-adv-x="790" 
d="M4 0l526 1475h256l-526 -1475h-256z" />
    <glyph glyph-name="zero" unicode="0" horiz-adv-x="1427" 
d="M709 1495q-197 0 -340.5 -98t-215 -267.5t-71.5 -392.5q0 -166 42 -305t120 -239.5t197.5 -156.5t267.5 -56q199 0 344.5 97.5t219 267.5t73.5 392q0 166 -43 305t-123 239.5t-201 157t-270 56.5zM1053 737q0 -237 -91 -371.5t-253 -134.5q-160 0 -248 134t-88 372
q0 237 88 371.5t248 134.5q162 0 253 -135t91 -371z" />
    <glyph glyph-name="one" unicode="1" horiz-adv-x="806" 
d="M643 0h-285v1184l-321 -158v283l321 166h285v-1475z" />
    <glyph glyph-name="two" unicode="2" horiz-adv-x="1177" 
d="M813 547l-336 -279h617v-268h-1014v260l549 469q92 81 133.5 141t42.5 134q3 107 -59.5 166t-170.5 59q-103 0 -170 -66.5t-71 -173.5h-277q3 158 75.5 274.5t188 174t257.5 57.5q151 0 269.5 -52.5t188.5 -160t70 -254.5q0 -78 -21 -145.5t-64 -126.5t-90.5 -105.5
t-117.5 -103.5z" />
    <glyph glyph-name="three" unicode="3" horiz-adv-x="1214" 
d="M901 758q110 -37 174 -128t64 -212q0 -202 -149.5 -320t-387.5 -118q-251 0 -398 137t-147 362h281q0 -124 70.5 -189t181.5 -65q113 0 177 56t64 149q0 96 -61.5 150.5t-183.5 54.5h-123v225h112q113 0 174.5 52t61.5 145t-61 143.5t-162 50.5q-112 0 -182.5 -64.5
t-67.5 -189.5h-270q0 227 139.5 362.5t388.5 135.5q230 0 371 -112.5t141 -307.5q0 -104 -55 -188.5t-152 -128.5z" />
    <glyph glyph-name="four" unicode="4" horiz-adv-x="1253" 
d="M727 0v270h-682v252l668 953h305v-953h194v-252h-194v-270h-291zM332 522h395v549z" />
    <glyph glyph-name="five" unicode="5" horiz-adv-x="1220" 
d="M649 1016q224 0 365 -139.5t141 -368.5q0 -162 -73.5 -283t-198 -183t-281.5 -62q-85 0 -162.5 18.5t-145.5 57t-118.5 94t-80.5 134.5t-32 173h273q6 -106 76 -169t180 -63q120 0 192 76.5t72 202.5q0 125 -72 202.5t-190 77.5q-92 0 -158.5 -48t-89.5 -111h-270
l153 850h852v-248h-632l-60 -287q90 76 260 76z" />
    <glyph glyph-name="six" unicode="6" horiz-adv-x="1265" 
d="M692 1018q101 0 191 -33.5t160.5 -96t111.5 -160.5t41 -218q0 -122 -42 -222.5t-115 -166.5t-170.5 -102.5t-209.5 -36.5q-88 0 -167.5 22t-155.5 75t-131.5 134t-89 207.5t-33.5 286.5q0 363 160 575.5t446 212.5q201 0 341.5 -108t166.5 -291h-276q-52 151 -242 151
q-145 0 -222 -97t-79 -257q49 60 131.5 92.5t183.5 32.5zM651 227q120 0 194.5 79t74.5 202q0 124 -74 201t-195 77q-119 0 -193.5 -75.5t-74.5 -200.5t74 -204t194 -79z" />
    <glyph glyph-name="seven" unicode="7" horiz-adv-x="1071" 
d="M709 1225h-689v250h1029v-232q-225 -284 -367.5 -611t-183.5 -632h-285q36 292 168.5 614.5t327.5 610.5z" />
    <glyph glyph-name="eight" unicode="8" horiz-adv-x="1277" 
d="M993 795q90 -49 147.5 -141t57.5 -203q0 -208 -153.5 -339.5t-407.5 -131.5q-250 0 -403.5 129t-153.5 335q0 110 57.5 205.5t149.5 147.5q-67 46 -110.5 124.5t-43.5 174.5q0 178 142 288.5t364 110.5q223 0 365.5 -111t142.5 -290q0 -95 -43.5 -173t-110.5 -126z
M641 1278q-104 0 -168.5 -53.5t-64.5 -139.5q0 -88 64 -141t169 -53q103 0 166 53t63 141q0 86 -63 139.5t-166 53.5zM641 219q121 0 195.5 63.5t74.5 166.5q0 99 -74.5 160t-195.5 61t-196.5 -61.5t-75.5 -159.5q0 -103 75 -166.5t197 -63.5z" />
    <glyph glyph-name="nine" unicode="9" horiz-adv-x="1265" 
d="M616 1495q74 0 142 -17t132.5 -53t116.5 -96t91.5 -141t61.5 -194t22 -249q0 -178 -34.5 -317t-104 -239.5t-181 -153.5t-260.5 -53q-218 0 -353 108t-163 291h274q22 -78 89.5 -118t156.5 -40q135 0 207 90.5t72 235.5v26q-107 -120 -307 -120q-100 0 -191 34t-162 97
t-113 161.5t-42 219.5q0 242 153.5 385t392.5 143zM612 688q119 0 194 76.5t75 200.5q2 125 -74 204.5t-197 79.5q-119 0 -192.5 -79t-73.5 -203t73.5 -201.5t194.5 -77.5z" />
    <glyph glyph-name="colon" unicode=":" horiz-adv-x="530" 
d="M94 729v334h342v-334h-342zM94 0v334h342v-334h-342z" />
    <glyph glyph-name="semicolon" unicode=";" horiz-adv-x="532" 
d="M96 729v334h342v-334h-342zM96 0v334h342v-334l-141 -246h-162l123 246h-162z" />
    <glyph glyph-name="less" unicode="&#x3c;" 
d="M1047 1200v-285l-641 -251l641 -246v-287l-871 365v340z" />
    <glyph glyph-name="equal" unicode="=" 
d="M186 1026h856v-235h-856v235zM186 563h856v-237h-856v237z" />
    <glyph glyph-name="greater" unicode="&#x3e;" 
d="M182 131v283l641 254l-641 245v287l871 -362v-340z" />
    <glyph glyph-name="question" unicode="?" horiz-adv-x="1105" 
d="M57 1030q0 203 133.5 334t372.5 131q214 0 344.5 -116.5t130.5 -284.5q0 -76 -23 -138t-59.5 -104.5t-81 -78.5t-88.5 -68t-80.5 -64.5t-59.5 -77t-23 -96.5h-250q0 79 19.5 143t51 107t69.5 79t76 65.5t69.5 59t51 68t19.5 84.5q0 72 -47 123t-135 51
q-96 0 -145.5 -59.5t-49.5 -157.5h-295zM328 0v334h342v-334h-342z" />
    <glyph glyph-name="at" unicode="@" horiz-adv-x="1890" 
d="M997 1493q172 0 322.5 -51.5t260.5 -144t173.5 -228t63.5 -295.5q0 -130 -35 -239t-95.5 -182.5t-140.5 -114.5t-170 -41q-116 0 -185.5 51t-70.5 145q-37 -59 -107.5 -103t-166.5 -44q-145 0 -242.5 102.5t-97.5 276.5q0 93 30 179t84 153.5t135.5 108t176.5 40.5
q98 0 169 -42t103 -120l31 107h147l-112 -543q-19 -88 15.5 -130t107.5 -42q98 0 172.5 118t74.5 320q0 261 -173.5 419.5t-460.5 158.5q-222 0 -394.5 -98.5t-265 -270.5t-92.5 -389q0 -288 162 -453.5t456 -165.5q209 0 371 76l49 -127q-173 -92 -424 -92q-364 0 -578 208
t-214 550q0 187 67.5 353.5t187 287.5t292.5 191.5t374 70.5zM1118 651q34 145 -15 228.5t-149 83.5q-78 0 -136.5 -54t-85.5 -129.5t-27 -156.5q0 -101 42 -160t117 -64q94 -6 158.5 58t95.5 194z" />
    <glyph glyph-name="A" unicode="A" horiz-adv-x="1439" 
d="M1100 0l-113 309h-555l-115 -309h-299l560 1475h286l557 -1475h-321zM514 532h393l-194 539z" />
    <glyph glyph-name="B" unicode="B" horiz-adv-x="1376" 
d="M1071 764q114 -39 176 -133.5t62 -216.5q0 -194 -135.5 -304t-368.5 -110h-668v1475h625q241 0 369.5 -105.5t128.5 -292.5q0 -101 -44.5 -186.5t-144.5 -126.5zM961 1042q0 81 -55.5 131t-164.5 50h-311v-367h322q100 0 154.5 52t54.5 134zM778 252q107 0 165 46.5
t58 135.5q0 90 -58 140.5t-159 50.5h-354v-373h348z" />
    <glyph glyph-name="C" unicode="C" horiz-adv-x="1538" 
d="M788 250q131 0 228.5 62.5t140.5 183.5h322q-56 -234 -241 -374t-454 -140q-320 0 -515 203.5t-195 539.5q0 165 50.5 306.5t142.5 244.5t229 161t303 58q263 0 443 -137t237 -377h-322q-44 121 -138.5 183.5t-225.5 62.5q-191 0 -303.5 -134.5t-112.5 -355.5
q0 -222 110.5 -354.5t300.5 -132.5z" />
    <glyph glyph-name="D" unicode="D" horiz-adv-x="1490" 
d="M137 0h539q342 0 541.5 202t199.5 535q0 162 -51.5 298.5t-146 233.5t-234 151.5t-309.5 54.5h-539v-1475zM430 258v959h229q211 0 331 -124t120 -348q0 -226 -121 -356.5t-330 -130.5h-229z" />
    <glyph glyph-name="E" unicode="E" horiz-adv-x="1234" 
d="M430 258h737v-258h-1030v1475h1006v-258h-713v-351h541v-252h-541v-356z" />
    <glyph glyph-name="F" unicode="F" horiz-adv-x="1181" 
d="M1126 1217h-696v-365h584v-252h-584v-600h-293v1475h989v-258z" />
    <glyph glyph-name="G" unicode="G" horiz-adv-x="1603" 
d="M758 846h729v-846h-246l-24 178q-156 -198 -461 -198q-147 0 -272.5 50.5t-216 143.5t-142 230.5t-51.5 304.5q0 231 90.5 409.5t257.5 277.5t385 99q263 0 444 -134t228 -362h-326q-41 114 -133.5 171t-216.5 57q-194 0 -309 -132t-115 -360q0 -227 113.5 -358
t302.5 -131q52 0 104 11t104 36.5t92.5 63t67.5 96.5t31 131l18 -2v24h-454v240z" />
    <glyph glyph-name="H" unicode="H" horiz-adv-x="1490" 
d="M1063 618h-633v-618h-293v1475h293v-590h633v590h293v-1475h-293v618z" />
    <glyph glyph-name="I" unicode="I" horiz-adv-x="565" 
d="M430 1475v-1475h-293v1475h293z" />
    <glyph glyph-name="J" unicode="J" horiz-adv-x="1183" 
d="M326 477q0 -110 57.5 -170.5t163.5 -60.5q102 0 158.5 60.5t56.5 176.5v992h293v-996q0 -122 -38.5 -218.5t-107 -157t-159 -92t-197.5 -31.5q-238 0 -375 126.5t-137 370.5h285z" />
    <glyph glyph-name="K" unicode="K" horiz-adv-x="1423" 
d="M137 0v1475h291v-699l623 699h344l-568 -629l570 -846h-373l-416 616l-180 -194v-422h-291z" />
    <glyph glyph-name="L" unicode="L" horiz-adv-x="1163" 
d="M430 268h672v-268h-965v1475h293v-1207z" />
    <glyph glyph-name="M" unicode="M" horiz-adv-x="1843" 
d="M930 322l426 1153h350v-1475h-289v545q0 263 21 463l-379 -1008h-271l-380 1047q24 -203 16 -502v-545h-287v1475h367z" />
    <glyph glyph-name="N" unicode="N" horiz-adv-x="1478" 
d="M137 0v1475h295l621 -1000v1000h288v-1475h-292l-621 977v-977h-291z" />
    <glyph glyph-name="O" unicode="O" horiz-adv-x="1583" 
d="M793 -20q-211 0 -375 95.5t-254 267.5t-90 392q0 221 90 394t254 269.5t375 96.5t374.5 -96.5t252.5 -269.5t89 -394q0 -220 -89 -391.5t-252.5 -267.5t-374.5 -96zM793 256q190 0 296.5 128.5t106.5 350.5q0 224 -106.5 354t-296.5 130q-192 0 -300 -130.5t-108 -353.5
t108 -351t300 -128z" />
    <glyph glyph-name="P" unicode="P" horiz-adv-x="1337" 
d="M137 0v1475h617q225 0 370.5 -137.5t145.5 -350.5q0 -215 -146.5 -352t-369.5 -137h-320v-498h-297zM434 750h277q119 0 184.5 62.5t65.5 172.5q0 109 -65.5 170.5t-184.5 61.5h-277v-467z" />
    <glyph glyph-name="Q" unicode="Q" horiz-adv-x="1615" 
d="M1473 242h92v-242h-148q-80 0 -132 18.5t-95 71.5q-170 -110 -397 -110q-211 0 -375 95.5t-254 267.5t-90 392q0 221 90 394t254 269.5t375 96.5t374.5 -96.5t252.5 -269.5t89 -394q0 -269 -131 -461q25 -32 95 -32zM385 735q0 -227 107.5 -356t300.5 -129q130 0 219 59
l-21 27q-36 45 -58.5 58.5t-74.5 13.5h-121v235h207q72 0 109 -21t86 -77l24 -29q33 90 33 219q0 224 -106.5 354t-296.5 130q-192 0 -300 -130.5t-108 -353.5z" />
    <glyph glyph-name="R" unicode="R" horiz-adv-x="1388" 
d="M137 0v1475h664q222 0 365 -131.5t143 -350.5q0 -171 -81 -294t-218 -164l272 -535h-330l-245 496h-279v-496h-291zM428 743h326q121 0 184 62t63 178q0 115 -62.5 174.5t-184.5 59.5h-326v-474z" />
    <glyph glyph-name="S" unicode="S" horiz-adv-x="1314" 
d="M1243 426q0 -139 -77.5 -241t-207 -152.5t-294.5 -50.5q-279 0 -442 123.5t-163 328.5h297q0 -94 79 -150.5t229 -56.5q124 0 199 52t75 139q0 76 -48 116.5t-157 61.5l-231 45q-199 37 -304.5 142t-105.5 270q0 193 150.5 317.5t408.5 124.5q90 0 170.5 -15t154 -49
t127 -85t85 -127.5t31.5 -171.5h-289q0 105 -77 156.5t-206 51.5q-116 0 -185 -48t-69 -128q0 -73 50 -115t167 -65l234 -43q399 -78 399 -430z" />
    <glyph glyph-name="T" unicode="T" horiz-adv-x="1294" 
d="M793 1217v-1217h-291v1217h-459v258h1208v-258h-458z" />
    <glyph glyph-name="U" unicode="U" horiz-adv-x="1460" 
d="M418 1475v-926q0 -150 85.5 -231.5t227.5 -81.5t227.5 81.5t85.5 231.5v926h297v-897q0 -276 -162.5 -437t-447.5 -161q-287 0 -448.5 160.5t-161.5 437.5v897h297z" />
    <glyph glyph-name="V" unicode="V" horiz-adv-x="1464" 
d="M739 354l396 1121h313l-563 -1475h-307l-562 1475h318z" />
    <glyph glyph-name="W" unicode="W" horiz-adv-x="2119" 
d="M422 0l-393 1475h307l264 -1104l307 1104h324l287 -1106l274 1106h299l-403 -1475h-330l-297 1087l-309 -1087h-330z" />
    <glyph glyph-name="X" unicode="X" horiz-adv-x="1417" 
d="M1384 0h-342l-342 549l-331 -549h-334l450 745l-450 730h342l325 -549l334 549h332l-453 -732z" />
    <glyph glyph-name="Y" unicode="Y" horiz-adv-x="1421" 
d="M555 522l-545 953h348l344 -646l363 646h346l-565 -953v-522h-291v522z" />
    <glyph glyph-name="Z" unicode="Z" horiz-adv-x="1232" 
d="M444 258h719v-258h-1091v225l723 992h-703v258h1061v-226z" />
    <glyph glyph-name="bracketleft" unicode="[" horiz-adv-x="675" 
d="M133 1708h485v-231h-245v-1481h245v-229h-485v1941z" />
    <glyph glyph-name="backslash" unicode="\" horiz-adv-x="806" 
d="M803 0h-287l-512 1522h287z" />
    <glyph glyph-name="bracketright" unicode="]" horiz-adv-x="675" 
d="M301 -4v1481h-242v231h484v-1941h-484v229h242z" />
    <glyph glyph-name="asciicircum" unicode="^" 
d="M227 958l287 517h205l282 -517h-256l-127 240l-133 -240h-258z" />
    <glyph glyph-name="underscore" unicode="_" horiz-adv-x="1093" 
d="M0 -35h1094v-258h-1094v258z" />
    <glyph glyph-name="grave" unicode="`" horiz-adv-x="436" 
d="M416 1288h-217l-209 309h246z" />
    <glyph glyph-name="a" unicode="a" horiz-adv-x="1196" 
d="M1106 209h43v-209h-156q-163 0 -194 125q-45 -68 -134 -106.5t-206 -38.5q-178 0 -282.5 87t-104.5 240q0 148 100.5 234t298.5 86h285v47q0 88 -52 136t-143 48q-89 0 -144.5 -43.5t-58.5 -114.5h-260q0 178 131.5 281.5t343.5 103.5q92 0 172 -22t149 -68.5t109.5 -130
t40.5 -196.5v-398q0 -37 16 -49t46 -12zM756 401v39h-234q-155 0 -155 -114q0 -63 44.5 -92t120.5 -29q107 0 165.5 50.5t58.5 145.5z" />
    <glyph glyph-name="b" unicode="b" horiz-adv-x="1335" 
d="M748 1085q230 0 366.5 -149.5t136.5 -403.5q0 -260 -139 -406t-364 -146q-118 0 -211 46t-134 117l-16 -143h-268v1538h289v-610q42 72 132.5 114.5t207.5 42.5zM684 236q121 0 196.5 80t75.5 216t-76 216.5t-196 80.5q-119 2 -195.5 -79.5t-76.5 -217.5
q0 -137 76 -216.5t196 -79.5z" />
    <glyph glyph-name="c" unicode="c" horiz-adv-x="1200" 
d="M840 651q-20 91 -78 140t-139 49q-113 0 -179.5 -83.5t-66.5 -224.5q0 -149 65.5 -227t171.5 -78q173 0 226 191h305q-38 -206 -179 -323.5t-343 -117.5q-242 0 -390.5 152.5t-148.5 402.5q0 249 149 401t392 152q206 0 345.5 -114t174.5 -320h-305z" />
    <glyph glyph-name="d" unicode="d" horiz-adv-x="1335" 
d="M930 1538h287v-1538h-267l-18 145q-42 -72 -133.5 -118.5t-210.5 -46.5q-230 0 -367 149t-137 403q0 259 140 406t364 147q118 0 209 -42.5t133 -112.5v608zM653 236q118 0 194.5 80t76.5 216q0 135 -76.5 216t-194.5 81q-121 0 -197.5 -81t-76.5 -216q0 -137 76 -216.5
t198 -79.5z" />
    <glyph glyph-name="e" unicode="e" horiz-adv-x="1232" 
d="M1147 549v-94h-770q3 -115 74 -180.5t178 -65.5q80 0 138.5 35.5t82.5 103.5h289q-35 -167 -176.5 -269t-341.5 -102q-240 0 -386.5 152.5t-146.5 402.5q0 249 146 401t384 152q239 0 384 -146t145 -390zM618 862q-97 0 -163.5 -56.5t-75.5 -162.5h481q-9 106 -76 162.5
t-166 56.5z" />
    <glyph glyph-name="f" unicode="f" horiz-adv-x="774" 
d="M35 1065h164v137q0 164 84.5 251t277.5 87h170v-233h-106q-81 0 -109.5 -34t-28.5 -99v-109h244v-250h-244v-815h-288v815h-164v250z" />
    <glyph glyph-name="g" unicode="g" horiz-adv-x="1284" 
d="M907 1065h258v-979q0 -240 -147 -378t-395 -138q-210 0 -350 105.5t-162 279.5h276q21 -76 84 -114t154 -38q121 0 190.5 65.5t69.5 172.5v127q-43 -67 -127 -105t-193 -38q-215 0 -348 144.5t-133 385.5q0 243 133.5 386.5t351.5 143.5q215 0 316 -145zM631 274
q115 0 184.5 77t69.5 200q0 124 -69.5 202t-184.5 78q-113 0 -182.5 -77.5t-69.5 -200.5q0 -124 69.5 -201.5t182.5 -77.5z" />
    <glyph glyph-name="h" unicode="h" horiz-adv-x="1263" 
d="M721 1085q64 0 122 -13.5t116.5 -48t100.5 -87.5t68.5 -139t26.5 -195v-602h-287v559q0 133 -59 201t-168 65q-113 -1 -174 -70t-61 -188v-567h-287v1538h287v-592q44 65 124 102t191 37z" />
    <glyph glyph-name="i" unicode="i" horiz-adv-x="526" 
d="M115 1229v276h291v-276h-291zM119 0v1065h287v-1065h-287z" />
    <glyph glyph-name="j" unicode="j" horiz-adv-x="546" 
d="M137 1229v276h291v-276h-291zM426 -55q0 -355 -369 -355h-129v252h105q57 0 81.5 28.5t24.5 86.5v1108h287v-1120z" />
    <glyph glyph-name="k" unicode="k" horiz-adv-x="1189" 
d="M119 0v1538h287v-893l411 420h352l-450 -453l452 -612h-360l-299 412l-98 -101v-311h-295z" />
    <glyph glyph-name="l" unicode="l" horiz-adv-x="526" 
d="M406 1538v-1538h-287v1538h287z" />
    <glyph glyph-name="m" unicode="m" horiz-adv-x="1869" 
d="M1350 1085q82 0 154.5 -26.5t130.5 -77.5t92 -135t34 -191v-657h-288v600q0 116 -51 173.5t-142 57.5q-89 0 -144.5 -60t-58.5 -179v-590h-276v584q0 126 -51 185.5t-142 59.5q-94 0 -148 -59t-54 -174v-596h-287v1065h266l31 -117q38 66 110 101.5t168 35.5
q111 0 197.5 -45.5t134.5 -136.5q45 90 132 136t192 46z" />
    <glyph glyph-name="n" unicode="n" horiz-adv-x="1257" 
d="M723 1085q201 0 314.5 -122.5t113.5 -329.5v-633h-289v573q0 130 -58.5 198.5t-164.5 68.5q-113 0 -173 -73t-60 -204v-563h-287v1065h266l16 -127q43 69 124.5 108t197.5 39z" />
    <glyph glyph-name="o" unicode="o" horiz-adv-x="1282" 
d="M84 532q0 247 156 401t401 154t401 -154t156 -401t-155.5 -399.5t-401.5 -152.5t-401.5 152.5t-155.5 399.5zM377 535q0 -141 72 -226.5t192 -85.5t192 85.5t72 226.5q0 142 -72 225.5t-192 83.5t-192 -83.5t-72 -225.5z" />
    <glyph glyph-name="p" unicode="p" horiz-adv-x="1335" 
d="M748 1085q224 0 363.5 -147t139.5 -408q0 -253 -136.5 -403t-366.5 -150q-116 0 -208 43.5t-134 114.5v-545h-287v1475h268l16 -145q41 72 133.5 118.5t211.5 46.5zM684 233q121 0 196.5 80t75.5 217q0 136 -75.5 216.5t-196.5 82.5q-119 0 -195.5 -82t-76.5 -219
q0 -135 76.5 -215t195.5 -80z" />
    <glyph glyph-name="q" unicode="q" horiz-adv-x="1335" 
d="M950 1065h267v-1473h-287v545q-42 -71 -133.5 -114t-208.5 -43q-230 0 -367 148.5t-137 401.5q0 261 140 408t364 147q119 0 210.5 -46.5t133.5 -118.5zM653 236q118 0 194.5 79.5t76.5 214.5q0 136 -76.5 217.5t-194.5 81.5q-122 0 -198 -81.5t-76 -217.5t76 -215
t198 -79z" />
    <glyph glyph-name="r" unicode="r" horiz-adv-x="835" 
d="M651 1065h146v-256h-162q-122 0 -172.5 -66.5t-50.5 -195.5v-547h-289v1065h268l31 -123q29 54 87 88.5t142 34.5z" />
    <glyph glyph-name="s" unicode="s" horiz-adv-x="1073" 
d="M53 334h281q1 -70 59.5 -110t147.5 -40q85 0 130.5 28.5t45.5 82.5q0 51 -34 79.5t-118 43.5l-205 39q-280 51 -280 301q0 146 129 236.5t319 90.5q206 0 336.5 -94.5t130.5 -251.5h-280q-1 66 -53.5 104t-133.5 38q-77 0 -120 -30.5t-43 -80.5q0 -44 37 -68t118 -38
l201 -41q289 -59 289 -301q0 -83 -37.5 -149.5t-101.5 -108t-147.5 -63t-178.5 -21.5q-215 0 -353 97.5t-139 256.5z" />
    <glyph glyph-name="t" unicode="t" horiz-adv-x="780" 
d="M494 0q-155 0 -234.5 83.5t-79.5 231.5v496h-164v254h80q48 0 66 24t18 80v187h287v-291h244v-254h-244v-432q0 -71 25 -99t94 -28h125v-252h-217z" />
    <glyph glyph-name="u" unicode="u" horiz-adv-x="1208" 
d="M817 1065h273v-1065h-263l-14 117q-94 -137 -274 -137q-202 0 -316 122.5t-114 329.5v633h272v-596q0 -122 58.5 -183.5t162.5 -58.5q105 1 160 67.5t55 186.5v584z" />
    <glyph glyph-name="v" unicode="v" horiz-adv-x="1187" 
d="M311 1065l281 -774l272 774h307l-421 -1065h-326l-410 1065h297z" />
    <glyph glyph-name="w" unicode="w" horiz-adv-x="1697" 
d="M330 1065l174 -752l198 752h304l192 -754l170 754h301l-295 -1065h-319l-199 758l-213 -758h-319l-295 1065h301z" />
    <glyph glyph-name="x" unicode="x" horiz-adv-x="1191" 
d="M37 0l358 551l-364 514h336l229 -348l227 348h338l-364 -510l358 -555h-332l-227 377l-227 -377h-332z" />
    <glyph glyph-name="y" unicode="y" horiz-adv-x="1173" 
d="M322 1065l278 -807l264 807h293l-444 -1235q-27 -75 -67 -124.5t-93 -73.5t-104 -33t-119 -9h-260v254h260q106 0 106 99q0 31 -18 80l-404 1042h308z" />
    <glyph glyph-name="z" unicode="z" horiz-adv-x="1048" 
d="M444 252h523v-252h-885v248l522 563h-522v254h885v-250z" />
    <glyph glyph-name="braceleft" unicode="{" horiz-adv-x="653" 
d="M393 1378v-450q0 -64 -28 -114.5t-74 -74.5q102 -66 102 -192v-443q0 -60 24 -83t68 -23l109 -2v-229h-143q-140 0 -216.5 78.5t-76.5 224.5v417q0 73 -34.5 105.5t-88.5 34.5v223q53 2 88 34t35 105v422q0 145 77.5 222t219.5 77h139v-229h-107q-45 0 -69.5 -22.5
t-24.5 -80.5z" />
    <glyph glyph-name="bar" unicode="|" horiz-adv-x="579" 
d="M184 -168v1790h209v-1790h-209z" />
    <glyph glyph-name="braceright" unicode="}" horiz-adv-x="653" 
d="M203 1710q140 0 215.5 -78t75.5 -225v-418q0 -72 35 -104.5t89 -34.5v-221q-53 -2 -87.5 -35t-34.5 -107v-419q0 -147 -77.5 -224t-219.5 -77h-140v229h107q45 0 69.5 23t24.5 81v447q0 129 102 192q-47 25 -74.5 75.5t-27.5 113.5v446q0 60 -24 82.5t-70 24.5h-107v229
h144z" />
    <glyph glyph-name="asciitilde" unicode="~" 
d="M668 684q37 -33 53 -46t40 -23.5t50 -10.5q42 0 65.5 36.5t16.5 104.5h211q14 -159 -60.5 -261.5t-207.5 -102.5q-88 0 -147 29.5t-130 93.5q-4 4 -17.5 16t-17 15t-14.5 12.5t-15.5 12t-13.5 9t-15 8t-14.5 4.5t-16.5 4t-17 1q-42 0 -65.5 -37t-16.5 -105h-213
q-14 160 61 262.5t209 102.5q86 0 145 -30.5t130 -94.5z" />
    <glyph glyph-name="exclamdown" unicode="&#xa1;" horiz-adv-x="579" 
d="M119 1503h342v-342h-342v342zM156 430q0 350 34 606h199q35 -263 35 -606v-430h-268v430z" />
    <glyph glyph-name="cent" unicode="&#xa2;" horiz-adv-x="1187" 
d="M582 430q76 0 133 40.5t82 121.5h295q-33 -166 -141 -274t-275 -132v-186h-195v188q-198 31 -310 176.5t-112 368.5q0 221 112 365.5t310 175.5v201h195v-199q167 -24 276 -131.5t140 -272.5h-293q-27 81 -84 122.5t-133 41.5q-109 0 -173.5 -80t-64.5 -223t64.5 -223
t173.5 -80z" />
    <glyph glyph-name="sterling" unicode="&#xa3;" horiz-adv-x="1325" 
d="M987 399h256q0 -187 -91 -293t-282 -106h-735v238q89 20 149 85t60 142q0 69 -31 153h-202v199h110q-63 137 -63 258q0 186 133 303t354 117q76 0 145.5 -12.5t136.5 -43t116 -77t78.5 -119t29.5 -164.5h-289q-2 77 -57 126t-152 50q-94 0 -150.5 -49.5t-56.5 -136.5
q0 -40 13 -87t27 -79t40 -86h379l-4 -199h-293q17 -70 17 -129q0 -69 -30.5 -131.5t-84.5 -105.5h326q151 0 151 147z" />
    <glyph glyph-name="currency" unicode="&#xa4;" horiz-adv-x="1511" 
d="M1309 713q0 -186 -115 -336l176 -174l-137 -137l-182 180q-131 -86 -295 -86q-161 0 -295 86l-180 -180l-138 137l174 172q-116 147 -116 338q0 189 114 338l-172 172l138 137l178 -178q140 86 297 86q159 0 297 -88l180 180l137 -137l-174 -174q113 -152 113 -336z
M756 426q117 0 197.5 83.5t80.5 203.5q0 121 -80.5 204.5t-197.5 83.5t-199 -83.5t-82 -204.5q0 -120 82 -203.5t199 -83.5z" />
    <glyph glyph-name="yen" unicode="&#xa5;" horiz-adv-x="1464" 
d="M39 1475h350l344 -621l361 621h333l-438 -725h236v-199h-348v-125h348v-199h-348v-227h-291v227h-342v199h342v125h-342v199h227z" />
    <glyph glyph-name="brokenbar" unicode="&#xa6;" horiz-adv-x="579" 
d="M184 885v737h209v-737h-209zM184 -168v737h209v-737h-209z" />
    <glyph glyph-name="section" unicode="&#xa7;" horiz-adv-x="1081" 
d="M778 537q146 -82 146 -246q0 -151 -114.5 -231t-297.5 -80q-198 0 -318.5 92.5t-121.5 246.5h254q2 -68 47.5 -105.5t126.5 -37.5q68 0 109.5 27t41.5 78q0 75 -112 106l-187 57q-74 22 -126.5 54.5t-79.5 71t-38.5 75t-11.5 76.5q0 158 148 223q-140 83 -140 236
q0 142 110 228.5t290 86.5q184 0 296.5 -92t114.5 -240h-251q0 61 -42.5 97t-113.5 36q-63 0 -101 -28.5t-38 -75.5q0 -44 32.5 -66t100.5 -39l151 -43q144 -42 211.5 -115t67.5 -179q0 -76 -42 -129.5t-112 -83.5zM340 745q0 -27 11 -46.5t35.5 -33t45 -20t57.5 -16.5
q77 -13 123.5 15t46.5 81q0 49 -29.5 74t-82.5 39q-103 26 -155 -3t-52 -90z" />
    <glyph glyph-name="dieresis" unicode="&#xa8;" horiz-adv-x="876" 
d="M88 1300v256h268v-256h-268zM514 1300v256h268v-256h-268z" />
    <glyph glyph-name="copyright" unicode="&#xa9;" horiz-adv-x="1683" 
d="M844 1493q-155 0 -295.5 -60t-242.5 -161.5t-162 -242t-60 -294.5q0 -152 60.5 -292t163 -241.5t243 -161.5t293.5 -60t293 60t241 161t161 241t60 293q0 155 -59 295t-159.5 241.5t-241 161.5t-295.5 60zM1427 731q0 -118 -46 -224.5t-124.5 -184t-187 -123
t-227.5 -45.5q-159 0 -293.5 77.5t-212.5 210.5t-78 289q0 160 78.5 296t213 215t292.5 79t293 -79t213.5 -215t78.5 -296zM434 731q0 192 113.5 316t302.5 124q151 0 256 -79.5t137 -219.5h-190q-25 67 -79.5 103.5t-127.5 36.5q-106 0 -169 -75t-63 -200t63 -199.5
t169 -74.5q73 0 128 35.5t79 103.5h190q-33 -137 -139.5 -218t-261.5 -81q-182 0 -295 118t-113 310z" />
    <glyph glyph-name="ordfeminine" unicode="&#xaa;" horiz-adv-x="542" 
d="M281 1497q98 0 154.5 -56.5t56.5 -160.5v-299h-105l-12 49q-14 -25 -53 -43t-89 -18q-76 0 -129 45t-53 121q0 70 47 112.5t138 42.5h141v15q0 44 -29.5 67t-77.5 23q-45 0 -74.5 -20.5t-29.5 -55.5h-105q0 90 66.5 134t153.5 44zM258 1069q52 0 85.5 25.5t33.5 70.5v43
h-121q-45 0 -66.5 -19t-21.5 -50q0 -34 24.5 -52t65.5 -18z" />
    <glyph glyph-name="guillemotleft" unicode="&#xab;" horiz-adv-x="1359" 
d="M453 117l-383 479l383 469h301l-381 -469l381 -479h-301zM999 117l-383 479l383 469h301l-380 -469l380 -479h-301z" />
    <glyph glyph-name="logicalnot" unicode="&#xac;" 
d="M139 737h893v-555h-250v297h-643v258z" />
    <glyph glyph-name="registered" unicode="&#xae;" horiz-adv-x="1062" 
d="M981 1044q0 -189 -129.5 -319.5t-321.5 -130.5q-188 0 -318 131.5t-130 318.5q0 185 130.5 318t317.5 133q126 0 230 -61t162.5 -164t58.5 -226zM862 1044q0 139 -92.5 235.5t-239.5 96.5q-144 0 -235.5 -96.5t-91.5 -235.5t91.5 -235t235.5 -96q149 0 240.5 95t91.5 236
zM479 983h49l74 -152h121l-88 168q37 16 59.5 49t22.5 78q0 63 -44 101.5t-108 38.5h-194v-435h108v152zM545 1174q63 0 63 -54q0 -57 -63 -57h-66v111h66z" />
    <glyph glyph-name="macron" unicode="&#xaf;" horiz-adv-x="753" 
d="M59 1546h635v-190h-635v190z" />
    <glyph glyph-name="degree" unicode="&#xb0;" horiz-adv-x="733" 
d="M367 903q-126 0 -213.5 85.5t-87.5 209.5q0 123 87.5 210t213.5 87t214.5 -87t88.5 -210q0 -124 -88.5 -209.5t-214.5 -85.5zM367 1065q57 0 96 38.5t39 94.5q0 57 -39 96t-96 39q-56 0 -95 -39t-39 -96q0 -55 39 -94t95 -39z" />
    <glyph glyph-name="plusminus" unicode="&#xb1;" 
d="M745 932h353v-258h-353v-268h-258v268h-356v258h356v268h258v-268zM131 0v258h967v-258h-967z" />
    <glyph glyph-name="acute" unicode="&#xb4;" horiz-adv-x="434" 
d="M61 1288l181 309h245l-208 -309h-218z" />
    <glyph glyph-name="uni00B5" unicode="&#xb5;" horiz-adv-x="1355" 
d="M1204 250l56 -2v-248h-111q-79 0 -145 29.5t-93 89.5q-36 -64 -115.5 -101.5t-174.5 -37.5q-77 0 -140.5 24.5t-93.5 69.5v-465h-272v1456h272v-612q0 -106 61.5 -167t155.5 -61q100 -1 160.5 63t60.5 165v612h271v-686q0 -68 21 -98t87 -31z" />
    <glyph glyph-name="paragraph" unicode="&#xb6;" horiz-adv-x="1466" 
d="M961 -313v1509h-224v-1509h-274v1089h-49q-143 0 -243.5 96t-100.5 248q0 156 95.5 255.5t248.5 99.5h960v-279h-137v-1509h-276z" />
    <glyph glyph-name="periodcentered" unicode="&#xb7;" horiz-adv-x="665" 
d="M334 436q-79 0 -135 56.5t-56 132.5q0 80 56 136t135 56q77 0 132.5 -56.5t55.5 -135.5q0 -75 -56 -132t-132 -57z" />
    <glyph glyph-name="cedilla" unicode="&#xb8;" horiz-adv-x="573" 
d="M242 12l98 -26l-27 -82q81 3 132 -35.5t51 -112.5q0 -72 -55.5 -117t-139.5 -45q-106 0 -159.5 46t-53.5 120h135q6 -47 60 -47q26 0 40.5 13.5t14.5 37.5q0 33 -28 46t-68 4l-58 32z" />
    <glyph glyph-name="ordmasculine" unicode="&#xba;" horiz-adv-x="620" 
d="M51 1190q0 116 72.5 191t187.5 75q114 0 186 -74.5t72 -191.5q0 -115 -72.5 -189.5t-185.5 -74.5q-115 0 -187.5 74.5t-72.5 189.5zM168 1190q0 -71 38.5 -115.5t104.5 -44.5t104 44.5t38 115.5q0 72 -38 117t-104 45t-104.5 -45t-38.5 -117z" />
    <glyph glyph-name="guillemotright" unicode="&#xbb;" horiz-adv-x="1359" 
d="M362 1065l381 -469l-381 -477h-301l381 477l-381 469h301zM909 1065l381 -469l-381 -477h-301l381 477l-381 469h301z" />
    <glyph glyph-name="onequarter" unicode="&#xbc;" horiz-adv-x="1476" 
d="M369 713h-158v602l-172 -80v154l172 86h158v-762zM137 0l936 1475h184l-938 -1475h-182zM1180 0v137h-353v135l344 488h162v-486h109v-137h-109v-137h-153zM997 274h183v273z" />
    <glyph glyph-name="onehalf" unicode="&#xbd;" horiz-adv-x="1540" 
d="M211 713v602l-172 -80v154l172 86h158v-762h-158zM1073 1475h184l-938 -1475h-182zM1364 285l-162 -135h293v-150h-520v147l276 232q41 36 63 67t23 70q1 53 -28.5 80t-81.5 27t-85 -32t-34 -85h-154q1 124 79 194t196 70q121 0 198 -65.5t78 -180.5q0 -76 -38 -130.5
t-103 -108.5z" />
    <glyph glyph-name="threequarters" unicode="&#xbe;" horiz-adv-x="1611" 
d="M590 930q0 -102 -75.5 -165t-192.5 -63q-130 0 -203.5 72.5t-73.5 192.5h150q-1 -64 32.5 -95.5t87.5 -31.5q50 0 81.5 26.5t31.5 69.5q0 42 -30 69t-81 27h-65v129h63q48 0 77.5 24.5t29.5 67.5q0 45 -29.5 70t-73.5 25q-55 0 -90 -32t-34 -95h-148q0 119 73.5 191.5
t203.5 72.5q115 0 188.5 -60t73.5 -163q0 -117 -97 -166q49 -21 75 -65t26 -101zM1210 1475h185l-938 -1475h-183zM1468 274h109v-137h-109v-137h-153v137h-352v135l344 488h161v-486zM1315 274v273l-182 -273h182z" />
    <glyph glyph-name="questiondown" unicode="&#xbf;" horiz-adv-x="1091" 
d="M772 1489v-336h-342v336h342zM1042 457q0 -98 -33 -181.5t-95 -146.5t-159 -99t-218 -36q-215 0 -345.5 116t-130.5 283q0 76 23 138.5t59.5 105t81 79t89 68.5t81 64.5t59.5 77t23 96.5h250q0 -79 -19.5 -143.5t-51 -107.5t-69.5 -79t-76 -66t-69.5 -59t-51 -67.5
t-19.5 -83.5q0 -72 47 -122.5t135 -51.5q96 -1 145.5 58.5t49.5 156.5h294z" />
    <glyph glyph-name="Agrave" unicode="&#xc0;" horiz-adv-x="1439" 
d="M823 1579h-217l-209 309h246zM1100 0l-113 309h-555l-115 -309h-299l560 1475h286l557 -1475h-321zM514 532h393l-194 539z" />
    <glyph glyph-name="Aacute" unicode="&#xc1;" horiz-adv-x="1439" 
d="M1030 1888l-209 -309h-217l180 309h246zM1100 0l-113 309h-555l-115 -309h-299l560 1475h286l557 -1475h-321zM514 532h393l-194 539z" />
    <glyph glyph-name="Acircumflex" unicode="&#xc2;" horiz-adv-x="1439" 
d="M713 1722l-99 -143h-239l223 309h229l224 -309h-240zM1100 0l-113 309h-555l-115 -309h-299l560 1475h286l557 -1475h-321zM514 532h393l-194 539z" />
    <glyph glyph-name="Atilde" unicode="&#xc3;" horiz-adv-x="1439" 
d="M504 1606h-150q-6 128 46 200t153 72q59 0 115 -24t100.5 -48t77.5 -24q36 0 57 22.5t21 61.5h149q8 -127 -44.5 -200t-151.5 -73q-47 0 -93 15.5t-76 34t-64.5 34t-61.5 15.5q-36 0 -57 -22.5t-21 -63.5zM1100 0l-113 309h-555l-115 -309h-299l560 1475h286l557 -1475
h-321zM514 532h393l-194 539z" />
    <glyph glyph-name="Adieresis" unicode="&#xc4;" horiz-adv-x="1439" 
d="M635 1847v-256h-268v256h268zM1061 1847v-256h-268v256h268zM1100 0l-113 309h-555l-115 -309h-299l560 1475h286l557 -1475h-321zM514 532h393l-194 539z" />
    <glyph glyph-name="Aring" unicode="&#xc5;" horiz-adv-x="1439" 
d="M1100 0l-113 309h-555l-115 -309h-299l533 1405q-98 71 -98 205q0 117 77 184.5t185 67.5q109 0 185.5 -67t76.5 -185q0 -128 -88 -199l532 -1411h-321zM715 1716q-44 0 -75.5 -30t-31.5 -78t31.5 -78.5t75.5 -30.5q45 0 76.5 30.5t31.5 78.5t-31 78t-77 30zM514 532h393
l-194 539z" />
    <glyph glyph-name="AE" unicode="&#xc6;" horiz-adv-x="2082" 
d="M-4 0l881 1475h1112v-258h-684v-351h520v-252h-520v-356h710v-258h-989v324h-494l-188 -324h-348zM668 561h358l-2 610z" />
    <glyph glyph-name="Ccedilla" unicode="&#xc7;" horiz-adv-x="1538" 
d="M788 250q131 0 228.5 62.5t140.5 183.5h322q-53 -223 -224 -361.5t-421 -150.5l-23 -70q81 3 131.5 -35t50.5 -112q0 -73 -55 -117.5t-139 -44.5q-106 0 -159.5 46t-53.5 120h135q6 -47 59 -47q26 0 41 14t15 37q0 33 -28.5 45.5t-68.5 3.5l-57 33l43 127
q-296 20 -473.5 220.5t-177.5 520.5q0 165 50.5 306.5t142.5 244.5t229 161t303 58q263 0 443 -137t237 -377h-322q-44 121 -138.5 183.5t-225.5 62.5q-191 0 -303.5 -134.5t-112.5 -355.5q0 -222 110.5 -354.5t300.5 -132.5z" />
    <glyph glyph-name="Egrave" unicode="&#xc8;" horiz-adv-x="1234" 
d="M741 1579h-217l-209 309h246zM430 258h737v-258h-1030v1475h1006v-258h-713v-351h541v-252h-541v-356z" />
    <glyph glyph-name="Eacute" unicode="&#xc9;" horiz-adv-x="1234" 
d="M948 1888l-209 -309h-217l180 309h246zM430 258h737v-258h-1030v1475h1006v-258h-713v-351h541v-252h-541v-356z" />
    <glyph glyph-name="Ecircumflex" unicode="&#xca;" horiz-adv-x="1234" 
d="M633 1722l-98 -143h-240l223 309h230l223 -309h-240zM430 258h737v-258h-1030v1475h1006v-258h-713v-351h541v-252h-541v-356z" />
    <glyph glyph-name="Edieresis" unicode="&#xcb;" horiz-adv-x="1234" 
d="M553 1847v-256h-268v256h268zM979 1847v-256h-268v256h268zM430 258h737v-258h-1030v1475h1006v-258h-713v-351h541v-252h-541v-356z" />
    <glyph glyph-name="Igrave" unicode="&#xcc;" horiz-adv-x="565" 
d="M391 1579h-217l-209 309h246zM430 1475v-1475h-293v1475h293z" />
    <glyph glyph-name="Iacute" unicode="&#xcd;" horiz-adv-x="565" 
d="M174 1579l180 309h246l-209 -309h-217zM430 1475v-1475h-293v1475h293z" />
    <glyph glyph-name="Icircumflex" unicode="&#xce;" horiz-adv-x="565" 
d="M283 1722l98 -143h240l-224 309h-229l-223 -309h239zM430 1475v-1475h-293v1475h293z" />
    <glyph glyph-name="Idieresis" unicode="&#xcf;" horiz-adv-x="565" 
d="M-66 1591v256h269v-256h-269zM360 1591v256h269v-256h-269zM430 1475v-1475h-293v1475h293z" />
    <glyph glyph-name="Eth" unicode="&#xd0;" horiz-adv-x="1519" 
d="M705 1475q170 0 309.5 -54.5t234 -151.5t146 -233.5t51.5 -298.5q0 -333 -199.5 -535t-541.5 -202h-539v618h-131v242h131v615h539zM688 258q209 0 330 130.5t121 356.5q0 224 -120 348t-331 124h-229v-357h215v-242h-215v-360h229z" />
    <glyph glyph-name="Ntilde" unicode="&#xd1;" horiz-adv-x="1478" 
d="M580 1878q47 0 92.5 -15t75 -33t63.5 -33t61 -15q36 0 57 22.5t21 61.5h150q8 -126 -45 -199.5t-152 -73.5q-47 0 -93 15.5t-76 34t-64.5 34t-61.5 15.5q-36 0 -57 -22.5t-21 -63.5h-149q-6 128 46 200t153 72zM137 0v1475h295l621 -1000v1000h288v-1475h-292l-621 977
v-977h-291z" />
    <glyph glyph-name="Ograve" unicode="&#xd2;" horiz-adv-x="1583" 
d="M901 1593h-217l-209 310h246zM793 -20q-211 0 -375 95.5t-254 267.5t-90 392q0 221 90 394t254 269.5t375 96.5t374.5 -96.5t252.5 -269.5t89 -394q0 -220 -89 -391.5t-252.5 -267.5t-374.5 -96zM793 256q190 0 296.5 128.5t106.5 350.5q0 224 -106.5 354t-296.5 130
q-192 0 -300 -130.5t-108 -353.5t108 -351t300 -128z" />
    <glyph glyph-name="Oacute" unicode="&#xd3;" horiz-adv-x="1583" 
d="M682 1593l180 310h246l-209 -310h-217zM793 -20q-211 0 -375 95.5t-254 267.5t-90 392q0 221 90 394t254 269.5t375 96.5t374.5 -96.5t252.5 -269.5t89 -394q0 -220 -89 -391.5t-252.5 -267.5t-374.5 -96zM793 256q190 0 296.5 128.5t106.5 350.5q0 224 -106.5 354
t-296.5 130q-192 0 -300 -130.5t-108 -353.5t108 -351t300 -128z" />
    <glyph glyph-name="Ocircumflex" unicode="&#xd4;" horiz-adv-x="1583" 
d="M791 1737l98 -144h239l-223 310h-229l-223 -310h239zM793 -20q-211 0 -375 95.5t-254 267.5t-90 392q0 221 90 394t254 269.5t375 96.5t374.5 -96.5t252.5 -269.5t89 -394q0 -220 -89 -391.5t-252.5 -267.5t-374.5 -96zM793 256q190 0 296.5 128.5t106.5 350.5
q0 224 -106.5 354t-296.5 130q-192 0 -300 -130.5t-108 -353.5t108 -351t300 -128z" />
    <glyph glyph-name="Otilde" unicode="&#xd5;" horiz-adv-x="1583" 
d="M631 1892q59 0 115 -24t100.5 -48t77.5 -24q36 0 56.5 22.5t20.5 61.5h150q8 -126 -44.5 -199t-152.5 -73q-60 0 -116 24.5t-101 49t-78 24.5q-36 0 -56.5 -22.5t-20.5 -63.5h-150q-6 128 46 200t153 72zM793 -20q-211 0 -375 95.5t-254 267.5t-90 392q0 221 90 394
t254 269.5t375 96.5t374.5 -96.5t252.5 -269.5t89 -394q0 -220 -89 -391.5t-252.5 -267.5t-374.5 -96zM793 256q190 0 296.5 128.5t106.5 350.5q0 224 -106.5 354t-296.5 130q-192 0 -300 -130.5t-108 -353.5t108 -351t300 -128z" />
    <glyph glyph-name="Odieresis" unicode="&#xd6;" horiz-adv-x="1583" 
d="M444 1606v256h269v-256h-269zM870 1606v256h269v-256h-269zM793 -20q-211 0 -375 95.5t-254 267.5t-90 392q0 221 90 394t254 269.5t375 96.5t374.5 -96.5t252.5 -269.5t89 -394q0 -220 -89 -391.5t-252.5 -267.5t-374.5 -96zM793 256q190 0 296.5 128.5t106.5 350.5
q0 224 -106.5 354t-296.5 130q-192 0 -300 -130.5t-108 -353.5t108 -351t300 -128z" />
    <glyph glyph-name="multiply" unicode="&#xd7;" 
d="M1077 915l-282 -282l282 -285l-178 -178l-283 285l-284 -285l-178 178l284 285l-284 282l178 179l284 -283l283 283z" />
    <glyph glyph-name="Oslash" unicode="&#xd8;" horiz-adv-x="1589" 
d="M1286 1309q108 -102 166.5 -249.5t58.5 -324.5q0 -220 -89 -391.5t-252.5 -267.5t-374.5 -96q-171 0 -312 63l-55 -88h-242l127 201q-113 101 -174 249t-61 330q0 221 90 394t253.5 269.5t373.5 96.5q174 0 323 -70l58 93h243zM377 735q0 -205 92 -336l504 799
q-78 35 -178 35q-196 0 -307 -134.5t-111 -363.5zM795 242q196 0 306.5 132.5t110.5 360.5q0 196 -82 326l-501 -789q74 -30 166 -30z" />
    <glyph glyph-name="Ugrave" unicode="&#xd9;" horiz-adv-x="1460" 
d="M840 1579h-217l-209 309h245zM418 1475v-926q0 -150 85.5 -231.5t227.5 -81.5t227.5 81.5t85.5 231.5v926h297v-897q0 -276 -162.5 -437t-447.5 -161q-287 0 -448.5 160.5t-161.5 437.5v897h297z" />
    <glyph glyph-name="Uacute" unicode="&#xda;" horiz-adv-x="1460" 
d="M621 1579l180 309h246l-209 -309h-217zM418 1475v-926q0 -150 85.5 -231.5t227.5 -81.5t227.5 81.5t85.5 231.5v926h297v-897q0 -276 -162.5 -437t-447.5 -161q-287 0 -448.5 160.5t-161.5 437.5v897h297z" />
    <glyph glyph-name="Ucircumflex" unicode="&#xdb;" horiz-adv-x="1460" 
d="M731 1722l98 -143h240l-223 309h-230l-223 -309h240zM418 1475v-926q0 -150 85.5 -231.5t227.5 -81.5t227.5 81.5t85.5 231.5v926h297v-897q0 -276 -162.5 -437t-447.5 -161q-287 0 -448.5 160.5t-161.5 437.5v897h297z" />
    <glyph glyph-name="Udieresis" unicode="&#xdc;" horiz-adv-x="1460" 
d="M383 1591v256h268v-256h-268zM809 1591v256h268v-256h-268zM418 1475v-926q0 -150 85.5 -231.5t227.5 -81.5t227.5 81.5t85.5 231.5v926h297v-897q0 -276 -162.5 -437t-447.5 -161q-287 0 -448.5 160.5t-161.5 437.5v897h297z" />
    <glyph glyph-name="Yacute" unicode="&#xdd;" horiz-adv-x="1421" 
d="M602 1579l180 309h246l-209 -309h-217zM555 522l-545 953h348l344 -646l363 646h346l-565 -953v-522h-291v522z" />
    <glyph glyph-name="Thorn" unicode="&#xde;" horiz-adv-x="1327" 
d="M748 1227q219 0 362 -137.5t143 -350.5q0 -215 -143.5 -352t-361.5 -137h-322v-250h-297v1475h297v-248h322zM702 502q120 0 186 62.5t66 172.5t-66 172t-186 62h-276v-469h276z" />
    <glyph glyph-name="germandbls" unicode="&#xdf;" horiz-adv-x="1251" 
d="M893 834q136 -33 217.5 -134.5t81.5 -250.5q0 -98 -34.5 -183.5t-98.5 -149t-160 -100t-213 -36.5q-144 0 -221 32v230q63 -37 180 -37q112 0 185 65t73 187q0 66 -29 113t-80 71t-111.5 33.5t-131.5 5.5v217q114 -9 182 48.5t68 166.5q0 81 -57 130.5t-148 49.5
q-98 0 -153.5 -60.5t-55.5 -174.5v-1057h-289v1049q0 215 130.5 338.5t363.5 123.5q215 0 342 -103.5t127 -270.5q0 -111 -47.5 -187.5t-120.5 -115.5z" />
    <glyph glyph-name="agrave" unicode="&#xe0;" horiz-adv-x="1196" 
d="M698 1182h-217l-209 309h246zM1106 209h43v-209h-156q-163 0 -194 125q-45 -68 -134 -106.5t-206 -38.5q-178 0 -282.5 87t-104.5 240q0 148 100.5 234t298.5 86h285v47q0 88 -52 136t-143 48q-89 0 -144.5 -43.5t-58.5 -114.5h-260q0 178 131.5 281.5t343.5 103.5
q92 0 172 -22t149 -68.5t109.5 -130t40.5 -196.5v-398q0 -37 16 -49t46 -12zM756 401v39h-234q-155 0 -155 -114q0 -63 44.5 -92t120.5 -29q107 0 165.5 50.5t58.5 145.5z" />
    <glyph glyph-name="aacute" unicode="&#xe1;" horiz-adv-x="1196" 
d="M905 1491l-209 -309h-217l180 309h246zM1106 209h43v-209h-156q-163 0 -194 125q-45 -68 -134 -106.5t-206 -38.5q-178 0 -282.5 87t-104.5 240q0 148 100.5 234t298.5 86h285v47q0 88 -52 136t-143 48q-89 0 -144.5 -43.5t-58.5 -114.5h-260q0 178 131.5 281.5
t343.5 103.5q92 0 172 -22t149 -68.5t109.5 -130t40.5 -196.5v-398q0 -37 16 -49t46 -12zM756 401v39h-234q-155 0 -155 -114q0 -63 44.5 -92t120.5 -29q107 0 165.5 50.5t58.5 145.5z" />
    <glyph glyph-name="acircumflex" unicode="&#xe2;" horiz-adv-x="1196" 
d="M588 1325l-99 -143h-239l223 309h229l224 -309h-240zM1106 209h43v-209h-156q-163 0 -194 125q-45 -68 -134 -106.5t-206 -38.5q-178 0 -282.5 87t-104.5 240q0 148 100.5 234t298.5 86h285v47q0 88 -52 136t-143 48q-89 0 -144.5 -43.5t-58.5 -114.5h-260
q0 178 131.5 281.5t343.5 103.5q92 0 172 -22t149 -68.5t109.5 -130t40.5 -196.5v-398q0 -37 16 -49t46 -12zM756 401v39h-234q-155 0 -155 -114q0 -63 44.5 -92t120.5 -29q107 0 165.5 50.5t58.5 145.5z" />
    <glyph glyph-name="atilde" unicode="&#xe3;" horiz-adv-x="1196" 
d="M379 1208h-150q-6 128 46 200.5t153 72.5q47 0 92.5 -15t75.5 -33.5t64 -33.5t61 -15q36 0 57 22.5t21 61.5h149q8 -126 -44.5 -199t-151.5 -73q-60 0 -116 24.5t-101 49t-78 24.5q-36 0 -57 -22.5t-21 -63.5zM1106 209h43v-209h-156q-163 0 -194 125
q-45 -68 -134 -106.5t-206 -38.5q-178 0 -282.5 87t-104.5 240q0 148 100.5 234t298.5 86h285v47q0 88 -52 136t-143 48q-89 0 -144.5 -43.5t-58.5 -114.5h-260q0 178 131.5 281.5t343.5 103.5q92 0 172 -22t149 -68.5t109.5 -130t40.5 -196.5v-398q0 -37 16 -49t46 -12z
M756 401v39h-234q-155 0 -155 -114q0 -63 44.5 -92t120.5 -29q107 0 165.5 50.5t58.5 145.5z" />
    <glyph glyph-name="adieresis" unicode="&#xe4;" horiz-adv-x="1196" 
d="M508 1450v-256h-268v256h268zM934 1450v-256h-268v256h268zM1106 209h43v-209h-156q-163 0 -194 125q-45 -68 -134 -106.5t-206 -38.5q-178 0 -282.5 87t-104.5 240q0 148 100.5 234t298.5 86h285v47q0 88 -52 136t-143 48q-89 0 -144.5 -43.5t-58.5 -114.5h-260
q0 178 131.5 281.5t343.5 103.5q92 0 172 -22t149 -68.5t109.5 -130t40.5 -196.5v-398q0 -37 16 -49t46 -12zM756 401v39h-234q-155 0 -155 -114q0 -63 44.5 -92t120.5 -29q107 0 165.5 50.5t58.5 145.5z" />
    <glyph glyph-name="aring" unicode="&#xe5;" horiz-adv-x="1196" 
d="M1106 209h43v-209h-156q-163 0 -194 125q-45 -68 -134 -106.5t-206 -38.5q-178 0 -282.5 87t-104.5 240q0 148 100.5 234t298.5 86h285v47q0 88 -52 136t-143 48q-89 0 -144.5 -43.5t-58.5 -114.5h-260q0 138 83 233.5t225 131.5q-80 70 -80 190q0 117 77 184.5t185 67.5
q109 0 185.5 -67t76.5 -185q0 -123 -86 -196q127 -38 203.5 -135t76.5 -256v-398q0 -37 16 -49t46 -12zM588 1362q-44 0 -75.5 -30.5t-31.5 -78.5t31.5 -78t75.5 -30q46 0 77 30t31 78t-31.5 78.5t-76.5 30.5zM756 401v39h-234q-155 0 -155 -114q0 -63 44.5 -92t120.5 -29
q107 0 165.5 50.5t58.5 145.5z" />
    <glyph glyph-name="ae" unicode="&#xe6;" horiz-adv-x="1900" 
d="M1817 547v-94h-775q1 -114 71.5 -179t174.5 -65q81 0 147.5 36.5t90.5 102.5h278q-35 -166 -174 -268.5t-327 -102.5q-281 0 -416 187q-131 -184 -398 -184q-193 0 -305 86t-112 241q0 145 101 230.5t298 85.5h287v59q0 87 -53.5 131.5t-139.5 44.5q-99 0 -151 -44
t-54 -116h-260q0 177 127 282t328 105q109 0 203.5 -40t152.5 -117q138 157 387 157q231 0 375 -146.5t144 -391.5zM1042 641h486q-7 106 -74.5 162.5t-167.5 56.5q-101 0 -169.5 -56.5t-74.5 -162.5zM758 406v32h-236q-155 0 -155 -112q0 -119 170 -119q106 0 163.5 52
t57.5 147z" />
    <glyph glyph-name="ccedilla" unicode="&#xe7;" horiz-adv-x="1200" 
d="M614 227q173 0 226 191h305q-35 -190 -159.5 -305.5t-307.5 -132.5l-16 -52q81 3 131.5 -35t50.5 -112q0 -72 -55.5 -117t-139.5 -45q-106 0 -159.5 46t-53.5 120h135q6 -47 60 -47q26 0 40.5 13.5t14.5 37.5q0 33 -28 45.5t-68 3.5l-58 33l37 109q-219 17 -352 167
t-133 385q0 249 149 401t392 152q206 0 345.5 -114t174.5 -320h-305q-20 91 -78 140t-139 49q-113 0 -179.5 -83.5t-66.5 -224.5q0 -149 65.5 -227t171.5 -78z" />
    <glyph glyph-name="egrave" unicode="&#xe8;" horiz-adv-x="1232" 
d="M729 1184h-217l-209 309h246zM1147 549v-94h-770q3 -115 74 -180.5t178 -65.5q80 0 138.5 35.5t82.5 103.5h289q-35 -167 -176.5 -269t-341.5 -102q-240 0 -386.5 152.5t-146.5 402.5q0 249 146 401t384 152q239 0 384 -146t145 -390zM618 862q-97 0 -163.5 -56.5
t-75.5 -162.5h481q-9 106 -76 162.5t-166 56.5z" />
    <glyph glyph-name="eacute" unicode="&#xe9;" horiz-adv-x="1232" 
d="M936 1493l-209 -309h-217l180 309h246zM1147 549v-94h-770q3 -115 74 -180.5t178 -65.5q80 0 138.5 35.5t82.5 103.5h289q-35 -167 -176.5 -269t-341.5 -102q-240 0 -386.5 152.5t-146.5 402.5q0 249 146 401t384 152q239 0 384 -146t145 -390zM618 862
q-97 0 -163.5 -56.5t-75.5 -162.5h481q-9 106 -76 162.5t-166 56.5z" />
    <glyph glyph-name="ecircumflex" unicode="&#xea;" horiz-adv-x="1232" 
d="M618 1327l-98 -143h-239l223 309h229l223 -309h-239zM1147 549v-94h-770q3 -115 74 -180.5t178 -65.5q80 0 138.5 35.5t82.5 103.5h289q-35 -167 -176.5 -269t-341.5 -102q-240 0 -386.5 152.5t-146.5 402.5q0 249 146 401t384 152q239 0 384 -146t145 -390zM618 862
q-97 0 -163.5 -56.5t-75.5 -162.5h481q-9 106 -76 162.5t-166 56.5z" />
    <glyph glyph-name="edieresis" unicode="&#xeb;" horiz-adv-x="1232" 
d="M539 1452v-256h-269v256h269zM965 1452v-256h-269v256h269zM1147 549v-94h-770q3 -115 74 -180.5t178 -65.5q80 0 138.5 35.5t82.5 103.5h289q-35 -167 -176.5 -269t-341.5 -102q-240 0 -386.5 152.5t-146.5 402.5q0 249 146 401t384 152q239 0 384 -146t145 -390z
M618 862q-97 0 -163.5 -56.5t-75.5 -162.5h481q-9 106 -76 162.5t-166 56.5z" />
    <glyph glyph-name="igrave" unicode="&#xec;" horiz-adv-x="526" 
d="M371 1182h-217l-209 309h245zM119 0v1065h287v-1065h-287z" />
    <glyph glyph-name="iacute" unicode="&#xed;" horiz-adv-x="526" 
d="M152 1182l180 309h246l-209 -309h-217zM119 0v1065h287v-1065h-287z" />
    <glyph glyph-name="icircumflex" unicode="&#xee;" horiz-adv-x="526" 
d="M260 1325l98 -143h240l-223 309h-230l-223 -309h240zM119 0v1065h287v-1065h-287z" />
    <glyph glyph-name="idieresis" unicode="&#xef;" horiz-adv-x="526" 
d="M-86 1194v256h268v-256h-268zM340 1194v256h268v-256h-268zM119 0v1065h287v-1065h-287z" />
    <glyph glyph-name="eth" unicode="&#xf0;" horiz-adv-x="1288" 
d="M956 1303q118 -150 184 -326.5t66 -358.5q0 -154 -47 -277t-128 -200t-185.5 -118t-224.5 -41q-105 0 -199.5 35.5t-170.5 103.5t-120.5 177t-44.5 245q0 125 41.5 225.5t113 164.5t165 98t200.5 34q152 0 244 -72q-59 114 -135 205l-230 -98v194l99 43
q-122 113 -279 209h387q82 -58 133 -106l252 108v-194zM625 238q124 0 202 82.5t78 214.5q-1 133 -78.5 213.5t-201.5 80.5t-200.5 -81t-76.5 -213t77 -214.5t200 -82.5z" />
    <glyph glyph-name="ntilde" unicode="&#xf1;" horiz-adv-x="1257" 
d="M463 1208h-150q-6 128 46 200.5t153 72.5q47 0 92.5 -15t75.5 -33.5t64 -33.5t61 -15q36 0 57 22.5t21 61.5h149q8 -126 -44.5 -199t-151.5 -73q-60 0 -116 24.5t-101 49t-78 24.5q-36 0 -57 -22.5t-21 -63.5zM723 1085q201 0 314.5 -122.5t113.5 -329.5v-633h-289v573
q0 130 -58.5 198.5t-164.5 68.5q-113 0 -173 -73t-60 -204v-563h-287v1065h266l16 -127q43 69 124.5 108t197.5 39z" />
    <glyph glyph-name="ograve" unicode="&#xf2;" horiz-adv-x="1282" 
d="M750 1182h-218l-208 309h245zM84 532q0 247 156 401t401 154t401 -154t156 -401t-155.5 -399.5t-401.5 -152.5t-401.5 152.5t-155.5 399.5zM377 535q0 -141 72 -226.5t192 -85.5t192 85.5t72 226.5q0 142 -72 225.5t-192 83.5t-192 -83.5t-72 -225.5z" />
    <glyph glyph-name="oacute" unicode="&#xf3;" horiz-adv-x="1282" 
d="M530 1182l181 309h245l-208 -309h-218zM84 532q0 247 156 401t401 154t401 -154t156 -401t-155.5 -399.5t-401.5 -152.5t-401.5 152.5t-155.5 399.5zM377 535q0 -141 72 -226.5t192 -85.5t192 85.5t72 226.5q0 142 -72 225.5t-192 83.5t-192 -83.5t-72 -225.5z" />
    <glyph glyph-name="ocircumflex" unicode="&#xf4;" horiz-adv-x="1282" 
d="M641 1325l98 -143h240l-223 309h-230l-223 -309h240zM84 532q0 247 156 401t401 154t401 -154t156 -401t-155.5 -399.5t-401.5 -152.5t-401.5 152.5t-155.5 399.5zM377 535q0 -141 72 -226.5t192 -85.5t192 85.5t72 226.5q0 142 -72 225.5t-192 83.5t-192 -83.5
t-72 -225.5z" />
    <glyph glyph-name="otilde" unicode="&#xf5;" horiz-adv-x="1282" 
d="M479 1481q47 0 92.5 -15t75.5 -33.5t64 -33.5t61 -15q36 0 57 22.5t21 61.5h149q8 -126 -44.5 -199t-151.5 -73q-60 0 -116 24.5t-101 49t-78 24.5q-36 0 -57 -22.5t-21 -63.5h-149q-6 128 45.5 200.5t152.5 72.5zM84 532q0 247 156 401t401 154t401 -154t156 -401
t-155.5 -399.5t-401.5 -152.5t-401.5 152.5t-155.5 399.5zM377 535q0 -141 72 -226.5t192 -85.5t192 85.5t72 226.5q0 142 -72 225.5t-192 83.5t-192 -83.5t-72 -225.5z" />
    <glyph glyph-name="odieresis" unicode="&#xf6;" horiz-adv-x="1282" 
d="M293 1194v256h268v-256h-268zM719 1194v256h268v-256h-268zM84 532q0 247 156 401t401 154t401 -154t156 -401t-155.5 -399.5t-401.5 -152.5t-401.5 152.5t-155.5 399.5zM377 535q0 -141 72 -226.5t192 -85.5t192 85.5t72 226.5q0 142 -72 225.5t-192 83.5t-192 -83.5
t-72 -225.5z" />
    <glyph glyph-name="divide" unicode="&#xf7;" 
d="M616 891q-68 0 -115.5 47t-47.5 117q0 65 48 111t115 46t113.5 -46t46.5 -111q0 -70 -46 -117t-114 -47zM133 793h963v-258h-963v258zM616 113q-68 0 -115.5 46.5t-47.5 116.5q0 65 48 111.5t115 46.5t113.5 -46.5t46.5 -111.5q0 -70 -46 -116.5t-114 -46.5z" />
    <glyph glyph-name="oslash" unicode="&#xf8;" horiz-adv-x="1284" 
d="M1051 926q149 -152 149 -394q0 -247 -155.5 -399.5t-401.5 -152.5q-136 0 -250 51l-59 -80h-240l139 190q-145 151 -145 391q0 246 155.5 399.5t399.5 153.5q134 0 248 -51l61 84h240zM367 535q0 -93 32 -168l349 473q-44 20 -105 20q-123 0 -199.5 -89.5t-76.5 -235.5z
M643 205q125 0 202 91t77 239q0 95 -35 170l-350 -480q55 -20 106 -20z" />
    <glyph glyph-name="ugrave" unicode="&#xf9;" horiz-adv-x="1208" 
d="M705 1184h-218l-208 309h245zM817 1065h273v-1065h-263l-14 117q-94 -137 -274 -137q-202 0 -316 122.5t-114 329.5v633h272v-596q0 -122 58.5 -183.5t162.5 -58.5q105 1 160 67.5t55 186.5v584z" />
    <glyph glyph-name="uacute" unicode="&#xfa;" horiz-adv-x="1208" 
d="M911 1493l-209 -309h-217l181 309h245zM817 1065h273v-1065h-263l-14 117q-94 -137 -274 -137q-202 0 -316 122.5t-114 329.5v633h272v-596q0 -122 58.5 -183.5t162.5 -58.5q105 1 160 67.5t55 186.5v584z" />
    <glyph glyph-name="ucircumflex" unicode="&#xfb;" horiz-adv-x="1208" 
d="M594 1327l-98 -143h-240l223 309h230l223 -309h-240zM817 1065h273v-1065h-263l-14 117q-94 -137 -274 -137q-202 0 -316 122.5t-114 329.5v633h272v-596q0 -122 58.5 -183.5t162.5 -58.5q105 1 160 67.5t55 186.5v584z" />
    <glyph glyph-name="udieresis" unicode="&#xfc;" horiz-adv-x="1208" 
d="M516 1452v-256h-268v256h268zM942 1452v-256h-268v256h268zM817 1065h273v-1065h-263l-14 117q-94 -137 -274 -137q-202 0 -316 122.5t-114 329.5v633h272v-596q0 -122 58.5 -183.5t162.5 -58.5q105 1 160 67.5t55 186.5v584z" />
    <glyph glyph-name="yacute" unicode="&#xfd;" horiz-adv-x="1173" 
d="M477 1182l180 309h246l-209 -309h-217zM322 1065l278 -807l264 807h293l-444 -1235q-27 -75 -67 -124.5t-93 -73.5t-104 -33t-119 -9h-260v254h260q106 0 106 99q0 31 -18 80l-404 1042h308z" />
    <glyph glyph-name="thorn" unicode="&#xfe;" horiz-adv-x="1335" 
d="M748 1085q224 0 363.5 -147t139.5 -408q0 -253 -136.5 -403t-366.5 -150q-114 0 -205.5 42t-134.5 112v-541h-289v1948h289v-610q45 69 135 113t205 44zM684 233q121 0 196.5 80t75.5 217q0 136 -75.5 216.5t-196.5 82.5q-119 0 -195.5 -82t-76.5 -219q0 -135 76.5 -215
t195.5 -80z" />
    <glyph glyph-name="ydieresis" unicode="&#xff;" horiz-adv-x="1173" 
d="M238 1194v256h268v-256h-268zM664 1194v256h268v-256h-268zM322 1065l278 -807l264 807h293l-444 -1235q-27 -75 -67 -124.5t-93 -73.5t-104 -33t-119 -9h-260v254h260q106 0 106 99q0 31 -18 80l-404 1042h308z" />
    <glyph glyph-name="Amacron" unicode="&#x100;" horiz-adv-x="1439" 
d="M1030 1817v-191h-635v191h635zM1100 0l-113 309h-555l-115 -309h-299l560 1475h286l557 -1475h-321zM514 532h393l-194 539z" />
    <glyph glyph-name="amacron" unicode="&#x101;" horiz-adv-x="1196" 
d="M905 1419v-190h-635v190h635zM1106 209h43v-209h-156q-163 0 -194 125q-45 -68 -134 -106.5t-206 -38.5q-178 0 -282.5 87t-104.5 240q0 148 100.5 234t298.5 86h285v47q0 88 -52 136t-143 48q-89 0 -144.5 -43.5t-58.5 -114.5h-260q0 178 131.5 281.5t343.5 103.5
q92 0 172 -22t149 -68.5t109.5 -130t40.5 -196.5v-398q0 -37 16 -49t46 -12zM756 401v39h-234q-155 0 -155 -114q0 -63 44.5 -92t120.5 -29q107 0 165.5 50.5t58.5 145.5z" />
    <glyph glyph-name="Abreve" unicode="&#x102;" horiz-adv-x="1439" 
d="M715 1561q-136 0 -220 83t-81 230h186q-3 -63 26 -97t89 -34q57 0 88 34t28 97h185q4 -147 -80 -230t-221 -83zM1100 0l-113 309h-555l-115 -309h-299l560 1475h286l557 -1475h-321zM514 532h393l-194 539z" />
    <glyph glyph-name="abreve" unicode="&#x103;" horiz-adv-x="1196" 
d="M588 1163q-136 0 -220 83.5t-81 230.5h186q-3 -63 26 -97t89 -34q58 0 89 34.5t28 96.5h184q4 -147 -80 -230.5t-221 -83.5zM1106 209h43v-209h-156q-163 0 -194 125q-45 -68 -134 -106.5t-206 -38.5q-178 0 -282.5 87t-104.5 240q0 148 100.5 234t298.5 86h285v47
q0 88 -52 136t-143 48q-89 0 -144.5 -43.5t-58.5 -114.5h-260q0 178 131.5 281.5t343.5 103.5q92 0 172 -22t149 -68.5t109.5 -130t40.5 -196.5v-398q0 -37 16 -49t46 -12zM756 401v39h-234q-155 0 -155 -114q0 -63 44.5 -92t120.5 -29q107 0 165.5 50.5t58.5 145.5z" />
    <glyph glyph-name="Aogonek" unicode="&#x104;" horiz-adv-x="1439" 
d="M1264 -139q0 -30 17 -44t56 -14q35 0 68 17v-162q-56 -31 -131 -31q-87 0 -143 44t-56 118q0 131 154 211h-129l-113 309h-555l-115 -309h-299l560 1475h286l557 -1475q-76 -32 -116.5 -68.5t-40.5 -70.5zM514 532h393l-194 539z" />
    <glyph glyph-name="aogonek" unicode="&#x105;" horiz-adv-x="1196" 
d="M1149 0q-76 -32 -117 -68.5t-41 -70.5q0 -58 74 -58q35 0 68 17v-162q-56 -31 -132 -31q-86 0 -142 44t-56 118q0 133 155 213q-131 10 -159 123q-45 -68 -134 -106.5t-206 -38.5q-178 0 -282.5 87t-104.5 240q0 148 100.5 234t298.5 86h285v47q0 88 -52 136t-143 48
q-89 0 -144.5 -43.5t-58.5 -114.5h-260q0 178 131.5 281.5t343.5 103.5q92 0 172 -22t149 -68.5t109.5 -130t40.5 -196.5v-398q0 -37 16 -49t46 -12h43v-209zM756 401v39h-234q-155 0 -155 -114q0 -63 44.5 -92t120.5 -29q107 0 165.5 50.5t58.5 145.5z" />
    <glyph glyph-name="Cacute" unicode="&#x106;" horiz-adv-x="1538" 
d="M688 1593l180 310h246l-209 -310h-217zM788 250q131 0 228.5 62.5t140.5 183.5h322q-56 -234 -241 -374t-454 -140q-320 0 -515 203.5t-195 539.5q0 165 50.5 306.5t142.5 244.5t229 161t303 58q263 0 443 -137t237 -377h-322q-44 121 -138.5 183.5t-225.5 62.5
q-191 0 -303.5 -134.5t-112.5 -355.5q0 -222 110.5 -354.5t300.5 -132.5z" />
    <glyph glyph-name="cacute" unicode="&#x107;" horiz-adv-x="1200" 
d="M514 1184l180 309h246l-209 -309h-217zM840 651q-20 91 -78 140t-139 49q-113 0 -179.5 -83.5t-66.5 -224.5q0 -149 65.5 -227t171.5 -78q173 0 226 191h305q-38 -206 -179 -323.5t-343 -117.5q-242 0 -390.5 152.5t-148.5 402.5q0 249 149 401t392 152q206 0 345.5 -114
t174.5 -320h-305z" />
    <glyph glyph-name="Ccircumflex" unicode="&#x108;" horiz-adv-x="1538" 
d="M799 1737l98 -144h240l-224 310h-229l-223 -310h239zM788 250q131 0 228.5 62.5t140.5 183.5h322q-56 -234 -241 -374t-454 -140q-320 0 -515 203.5t-195 539.5q0 165 50.5 306.5t142.5 244.5t229 161t303 58q263 0 443 -137t237 -377h-322q-44 121 -138.5 183.5
t-225.5 62.5q-191 0 -303.5 -134.5t-112.5 -355.5q0 -222 110.5 -354.5t300.5 -132.5z" />
    <glyph glyph-name="ccircumflex" unicode="&#x109;" horiz-adv-x="1200" 
d="M623 1327l98 -143h240l-224 309h-229l-223 -309h239zM840 651q-20 91 -78 140t-139 49q-113 0 -179.5 -83.5t-66.5 -224.5q0 -149 65.5 -227t171.5 -78q173 0 226 191h305q-38 -206 -179 -323.5t-343 -117.5q-242 0 -390.5 152.5t-148.5 402.5q0 249 149 401t392 152
q206 0 345.5 -114t174.5 -320h-305z" />
    <glyph glyph-name="Cdotaccent" unicode="&#x10a;" horiz-adv-x="1538" 
d="M653 1640v277h291v-277h-291zM788 250q131 0 228.5 62.5t140.5 183.5h322q-56 -234 -241 -374t-454 -140q-320 0 -515 203.5t-195 539.5q0 165 50.5 306.5t142.5 244.5t229 161t303 58q263 0 443 -137t237 -377h-322q-44 121 -138.5 183.5t-225.5 62.5
q-191 0 -303.5 -134.5t-112.5 -355.5q0 -222 110.5 -354.5t300.5 -132.5z" />
    <glyph glyph-name="cdotaccent" unicode="&#x10b;" horiz-adv-x="1200" 
d="M477 1231v276h291v-276h-291zM840 651q-20 91 -78 140t-139 49q-113 0 -179.5 -83.5t-66.5 -224.5q0 -149 65.5 -227t171.5 -78q173 0 226 191h305q-38 -206 -179 -323.5t-343 -117.5q-242 0 -390.5 152.5t-148.5 402.5q0 249 149 401t392 152q206 0 345.5 -114
t174.5 -320h-305z" />
    <glyph glyph-name="Ccaron" unicode="&#x10c;" horiz-adv-x="1538" 
d="M801 1759l-99 144h-239l221 -310h231l222 310h-238zM788 250q131 0 228.5 62.5t140.5 183.5h322q-56 -234 -241 -374t-454 -140q-320 0 -515 203.5t-195 539.5q0 165 50.5 306.5t142.5 244.5t229 161t303 58q263 0 443 -137t237 -377h-322q-44 121 -138.5 183.5
t-225.5 62.5q-191 0 -303.5 -134.5t-112.5 -355.5q0 -222 110.5 -354.5t300.5 -132.5z" />
    <glyph glyph-name="ccaron" unicode="&#x10d;" horiz-adv-x="1200" 
d="M625 1350l-99 143h-239l221 -309h231l222 309h-238zM840 651q-20 91 -78 140t-139 49q-113 0 -179.5 -83.5t-66.5 -224.5q0 -149 65.5 -227t171.5 -78q173 0 226 191h305q-38 -206 -179 -323.5t-343 -117.5q-242 0 -390.5 152.5t-148.5 402.5q0 249 149 401t392 152
q206 0 345.5 -114t174.5 -320h-305z" />
    <glyph glyph-name="Dcaron" unicode="&#x10e;" horiz-adv-x="1490" 
d="M662 1745l-99 143h-239l221 -309h231l221 309h-237zM137 0h539q342 0 541.5 202t199.5 535q0 162 -51.5 298.5t-146 233.5t-234 151.5t-309.5 54.5h-539v-1475zM430 258v959h229q211 0 331 -124t120 -348q0 -226 -121 -356.5t-330 -130.5h-229z" />
    <glyph glyph-name="dcaron" unicode="&#x10f;" horiz-adv-x="1411" 
d="M930 930v608h287v-1538h-267l-18 145q-42 -72 -133.5 -118.5t-210.5 -46.5q-230 0 -367 149t-137 403q0 259 140 406t364 147q118 0 209 -42.5t133 -112.5zM1337 1538h236l-90 -389h-178zM653 236q118 0 194.5 80t76.5 216q0 135 -76.5 216t-194.5 81q-121 0 -197.5 -81
t-76.5 -216q0 -137 76 -216.5t198 -79.5z" />
    <glyph glyph-name="Dcroat" unicode="&#x110;" horiz-adv-x="1519" 
d="M705 1475q170 0 309.5 -54.5t234 -151.5t146 -233.5t51.5 -298.5q0 -333 -199.5 -535t-541.5 -202h-539v618h-131v242h131v615h539zM688 258q209 0 330 130.5t121 356.5q0 224 -120 348t-331 124h-229v-357h215v-242h-215v-360h229z" />
    <glyph glyph-name="dcroat" unicode="&#x111;" horiz-adv-x="1345" 
d="M1327 1386v-219h-110v-1167h-267l-18 145q-42 -72 -133.5 -118.5t-210.5 -46.5q-230 0 -367 149t-137 403q0 259 140 406t364 147q118 0 209 -42.5t133 -112.5v237h-336v219h336v152h287v-152h110zM653 236q118 0 194.5 80t76.5 216q0 135 -76.5 216t-194.5 81
q-121 0 -197.5 -81t-76.5 -216q0 -137 76 -216.5t198 -79.5z" />
    <glyph glyph-name="Emacron" unicode="&#x112;" horiz-adv-x="1234" 
d="M950 1817v-191h-635v191h635zM430 258h737v-258h-1030v1475h1006v-258h-713v-351h541v-252h-541v-356z" />
    <glyph glyph-name="emacron" unicode="&#x113;" horiz-adv-x="1232" 
d="M936 1421v-190h-635v190h635zM1147 549v-94h-770q3 -115 74 -180.5t178 -65.5q80 0 138.5 35.5t82.5 103.5h289q-35 -167 -176.5 -269t-341.5 -102q-240 0 -386.5 152.5t-146.5 402.5q0 249 146 401t384 152q239 0 384 -146t145 -390zM618 862q-97 0 -163.5 -56.5
t-75.5 -162.5h481q-9 106 -76 162.5t-166 56.5z" />
    <glyph glyph-name="Ebreve" unicode="&#x114;" horiz-adv-x="1234" 
d="M633 1561q-136 0 -220 83t-81 230h186q-3 -63 26 -97t89 -34q58 0 89 34.5t28 96.5h184q4 -147 -80 -230t-221 -83zM430 258h737v-258h-1030v1475h1006v-258h-713v-351h541v-252h-541v-356z" />
    <glyph glyph-name="ebreve" unicode="&#x115;" horiz-adv-x="1232" 
d="M618 1165q-136 0 -220 83.5t-81 230.5h187q-6 -131 114 -131q58 0 89 34.5t28 96.5h185q4 -147 -80.5 -230.5t-221.5 -83.5zM1147 549v-94h-770q3 -115 74 -180.5t178 -65.5q80 0 138.5 35.5t82.5 103.5h289q-35 -167 -176.5 -269t-341.5 -102q-240 0 -386.5 152.5
t-146.5 402.5q0 249 146 401t384 152q239 0 384 -146t145 -390zM618 862q-97 0 -163.5 -56.5t-75.5 -162.5h481q-9 106 -76 162.5t-166 56.5z" />
    <glyph glyph-name="Edotaccent" unicode="&#x116;" horiz-adv-x="1234" 
d="M776 1903v-277h-291v277h291zM430 258h737v-258h-1030v1475h1006v-258h-713v-351h541v-252h-541v-356z" />
    <glyph glyph-name="edotaccent" unicode="&#x117;" horiz-adv-x="1232" 
d="M764 1507v-276h-291v276h291zM1147 549v-94h-770q3 -115 74 -180.5t178 -65.5q80 0 138.5 35.5t82.5 103.5h289q-35 -167 -176.5 -269t-341.5 -102q-240 0 -386.5 152.5t-146.5 402.5q0 249 146 401t384 152q239 0 384 -146t145 -390zM618 862q-97 0 -163.5 -56.5
t-75.5 -162.5h481q-9 106 -76 162.5t-166 56.5z" />
    <glyph glyph-name="Eogonek" unicode="&#x118;" horiz-adv-x="1234" 
d="M1167 0q-76 -32 -116.5 -68.5t-40.5 -70.5q0 -30 17 -44t56 -14q35 0 68 17v-162q-56 -31 -131 -31q-87 0 -143 44t-56 118q0 131 154 211h-838v1475h1006v-258h-713v-351h541v-252h-541v-356h737v-258z" />
    <glyph glyph-name="eogonek" unicode="&#x119;" horiz-adv-x="1232" 
d="M1147 549v-94h-770q3 -115 74 -180.5t178 -65.5q80 0 138.5 35.5t82.5 103.5h289q-26 -120 -108 -208.5t-204 -129.5q-153 -66 -153 -137q0 -30 17.5 -43.5t56.5 -13.5q36 0 67 16v-162q-54 -30 -131 -30q-87 0 -143 43.5t-56 117.5q0 106 99 176q-225 12 -360.5 163
t-135.5 392q0 249 146 401t384 152q239 0 384 -146t145 -390zM618 862q-97 0 -163.5 -56.5t-75.5 -162.5h481q-9 106 -76 162.5t-166 56.5z" />
    <glyph glyph-name="Ecaron" unicode="&#x11a;" horiz-adv-x="1234" 
d="M750 1579h-232l-221 309h240l98 -143l98 143h238zM430 258h737v-258h-1030v1475h1006v-258h-713v-351h541v-252h-541v-356z" />
    <glyph glyph-name="ecaron" unicode="&#x11b;" horiz-adv-x="1232" 
d="M735 1184h-231l-221 309h239l99 -143l98 143h237zM1147 549v-94h-770q3 -115 74 -180.5t178 -65.5q80 0 138.5 35.5t82.5 103.5h289q-35 -167 -176.5 -269t-341.5 -102q-240 0 -386.5 152.5t-146.5 402.5q0 249 146 401t384 152q239 0 384 -146t145 -390zM618 862
q-97 0 -163.5 -56.5t-75.5 -162.5h481q-9 106 -76 162.5t-166 56.5z" />
    <glyph glyph-name="Gcircumflex" unicode="&#x11c;" horiz-adv-x="1603" 
d="M809 1737l-98 -144h-240l223 310h230l223 -310h-240zM758 846h729v-846h-246l-24 178q-156 -198 -461 -198q-147 0 -272.5 50.5t-216 143.5t-142 230.5t-51.5 304.5q0 231 90.5 409.5t257.5 277.5t385 99q263 0 444 -134t228 -362h-326q-41 114 -133.5 171t-216.5 57
q-194 0 -309 -132t-115 -360q0 -227 113.5 -358t302.5 -131q52 0 104 11t104 36.5t92.5 63t67.5 96.5t31 131l18 -2v24h-454v240z" />
    <glyph glyph-name="gcircumflex" unicode="&#x11d;" horiz-adv-x="1284" 
d="M631 1325l-99 -143h-239l223 309h229l224 -309h-240zM907 1065h258v-979q0 -240 -147 -378t-395 -138q-210 0 -350 105.5t-162 279.5h276q21 -76 84 -114t154 -38q121 0 190.5 65.5t69.5 172.5v127q-43 -67 -127 -105t-193 -38q-215 0 -348 144.5t-133 385.5
q0 243 133.5 386.5t351.5 143.5q215 0 316 -145zM631 274q115 0 184.5 77t69.5 200q0 124 -69.5 202t-184.5 78q-113 0 -182.5 -77.5t-69.5 -200.5q0 -124 69.5 -201.5t182.5 -77.5z" />
    <glyph glyph-name="Gbreve" unicode="&#x11e;" horiz-adv-x="1603" 
d="M809 1575q-136 0 -220 83t-81 230h186q-3 -63 26 -97t89 -34q58 0 89 34.5t28 96.5h184q4 -147 -80 -230t-221 -83zM758 846h729v-846h-246l-24 178q-156 -198 -461 -198q-147 0 -272.5 50.5t-216 143.5t-142 230.5t-51.5 304.5q0 231 90.5 409.5t257.5 277.5t385 99
q263 0 444 -134t228 -362h-326q-41 114 -133.5 171t-216.5 57q-194 0 -309 -132t-115 -360q0 -227 113.5 -358t302.5 -131q52 0 104 11t104 36.5t92.5 63t67.5 96.5t31 131l18 -2v24h-454v240z" />
    <glyph glyph-name="gbreve" unicode="&#x11f;" horiz-adv-x="1284" 
d="M631 1163q-136 0 -220 83.5t-81 230.5h186q-3 -63 26 -97t89 -34q58 0 89 34.5t28 96.5h184q4 -147 -80 -230.5t-221 -83.5zM907 1065h258v-979q0 -240 -147 -378t-395 -138q-210 0 -350 105.5t-162 279.5h276q21 -76 84 -114t154 -38q121 0 190.5 65.5t69.5 172.5v127
q-43 -67 -127 -105t-193 -38q-215 0 -348 144.5t-133 385.5q0 243 133.5 386.5t351.5 143.5q215 0 316 -145zM631 274q115 0 184.5 77t69.5 200q0 124 -69.5 202t-184.5 78q-113 0 -182.5 -77.5t-69.5 -200.5q0 -124 69.5 -201.5t182.5 -77.5z" />
    <glyph glyph-name="Gdotaccent" unicode="&#x120;" horiz-adv-x="1603" 
d="M954 1917v-277h-290v277h290zM758 846h729v-846h-246l-24 178q-156 -198 -461 -198q-147 0 -272.5 50.5t-216 143.5t-142 230.5t-51.5 304.5q0 231 90.5 409.5t257.5 277.5t385 99q263 0 444 -134t228 -362h-326q-41 114 -133.5 171t-216.5 57q-194 0 -309 -132
t-115 -360q0 -227 113.5 -358t302.5 -131q52 0 104 11t104 36.5t92.5 63t67.5 96.5t31 131l18 -2v24h-454v240z" />
    <glyph glyph-name="gdotaccent" unicode="&#x121;" horiz-adv-x="1284" 
d="M774 1505v-276h-291v276h291zM907 1065h258v-979q0 -240 -147 -378t-395 -138q-210 0 -350 105.5t-162 279.5h276q21 -76 84 -114t154 -38q121 0 190.5 65.5t69.5 172.5v127q-43 -67 -127 -105t-193 -38q-215 0 -348 144.5t-133 385.5q0 243 133.5 386.5t351.5 143.5
q215 0 316 -145zM631 274q115 0 184.5 77t69.5 200q0 124 -69.5 202t-184.5 78q-113 0 -182.5 -77.5t-69.5 -200.5q0 -124 69.5 -201.5t182.5 -77.5z" />
    <glyph glyph-name="Gcommaaccent" unicode="&#x122;" horiz-adv-x="1603" 
d="M758 846h729v-846h-246l-24 178q-156 -198 -461 -198q-147 0 -272.5 50.5t-216 143.5t-142 230.5t-51.5 304.5q0 231 90.5 409.5t257.5 277.5t385 99q263 0 444 -134t228 -362h-326q-41 114 -133.5 171t-216.5 57q-194 0 -309 -132t-115 -360q0 -227 113.5 -358
t302.5 -131q52 0 104 11t104 36.5t92.5 63t67.5 96.5t31 131l18 -2v24h-454v240zM678 -344v238h256v-238l-94 -176h-150l96 176h-108z" />
    <glyph glyph-name="gcommaaccent" unicode="&#x123;" horiz-adv-x="1284" 
d="M756 1427v-235h-256v235l94 177h149l-94 -177h107zM907 1065h258v-979q0 -240 -147 -378t-395 -138q-210 0 -350 105.5t-162 279.5h276q21 -76 84 -114t154 -38q121 0 190.5 65.5t69.5 172.5v127q-43 -67 -127 -105t-193 -38q-215 0 -348 144.5t-133 385.5
q0 243 133.5 386.5t351.5 143.5q215 0 316 -145zM631 274q115 0 184.5 77t69.5 200q0 124 -69.5 202t-184.5 78q-113 0 -182.5 -77.5t-69.5 -200.5q0 -124 69.5 -201.5t182.5 -77.5z" />
    <glyph glyph-name="Hcircumflex" unicode="&#x124;" horiz-adv-x="1490" 
d="M745 1722l99 -143h239l-223 309h-229l-223 -309h239zM1063 618h-633v-618h-293v1475h293v-590h633v590h293v-1475h-293v618z" />
    <glyph glyph-name="hcircumflex" unicode="&#x125;" horiz-adv-x="1263" 
d="M266 1743l-98 -144h-240l224 310h229l223 -310h-239zM721 1085q64 0 122 -13.5t116.5 -48t100.5 -87.5t68.5 -139t26.5 -195v-602h-287v559q0 133 -59 201t-168 65q-113 -1 -174 -70t-61 -188v-567h-287v1538h287v-592q44 65 124 102t191 37z" />
    <glyph glyph-name="Hbar" unicode="&#x126;" horiz-adv-x="1513" 
d="M1499 1239v-195h-131v-1044h-293v618h-633v-618h-292v1044h-123v195h123v236h292v-236h633v236h293v-236h131zM1075 885v159h-633v-159h633z" />
    <glyph glyph-name="hbar" unicode="&#x127;" horiz-adv-x="1280" 
d="M737 1085q64 0 122 -13.5t116.5 -48t100.5 -87.5t68.5 -139t26.5 -195v-602h-286v559q0 133 -59.5 201t-168.5 65q-113 -1 -174 -70t-61 -188v-567h-287v1167h-115v219h115v152h287v-152h340v-219h-340v-221q44 65 124 102t191 37z" />
    <glyph glyph-name="Itilde" unicode="&#x128;" horiz-adv-x="565" 
d="M123 1878q59 0 115 -24t100.5 -48t77.5 -24q36 0 57 22.5t21 61.5h149q8 -126 -45 -199.5t-152 -73.5q-47 0 -93 15.5t-75.5 34t-64 34t-61.5 15.5q-36 0 -57 -22.5t-21 -63.5h-150q-6 128 46 200t153 72zM430 1475v-1475h-293v1475h293z" />
    <glyph glyph-name="itilde" unicode="&#x129;" horiz-adv-x="526" 
d="M100 1481q47 0 92.5 -15t75.5 -33.5t64 -33.5t61 -15q36 0 57 22.5t21 61.5h150q8 -126 -44.5 -199t-152.5 -73q-60 0 -116 24.5t-101 49t-78 24.5q-36 0 -57 -22.5t-21 -63.5h-149q-6 128 45.5 200.5t152.5 72.5zM119 0v1065h287v-1065h-287z" />
    <glyph glyph-name="Imacron" unicode="&#x12a;" horiz-adv-x="565" 
d="M-35 1817h635v-191h-635v191zM430 1475v-1475h-293v1475h293z" />
    <glyph glyph-name="imacron" unicode="&#x12b;" horiz-adv-x="526" 
d="M-57 1419h635v-190h-635v190zM119 0v1065h287v-1065h-287z" />
    <glyph glyph-name="Ibreve" unicode="&#x12c;" horiz-adv-x="565" 
d="M283 1561q-136 0 -220 83t-81 230h186q-3 -63 26 -97t89 -34q57 0 88 34t28 97h185q4 -147 -80 -230t-221 -83zM430 1475v-1475h-293v1475h293z" />
    <glyph glyph-name="ibreve" unicode="&#x12d;" horiz-adv-x="526" 
d="M262 1163q-136 0 -220 83.5t-81 230.5h186q-3 -63 26 -97t89 -34q58 0 89 34.5t28 96.5h184q4 -147 -80 -230.5t-221 -83.5zM119 0v1065h287v-1065h-287z" />
    <glyph glyph-name="Iogonek" unicode="&#x12e;" horiz-adv-x="565" 
d="M430 0q-76 -32 -117 -68.5t-41 -70.5q0 -58 74 -58q35 0 68 17v-162q-56 -31 -131 -31q-87 0 -143 44t-56 118q0 131 154 211h-101v1475h293v-1475z" />
    <glyph glyph-name="iogonek" unicode="&#x12f;" horiz-adv-x="526" 
d="M115 1505h291v-276h-291v276zM119 0v1065h287v-1065q-76 -32 -117 -68.5t-41 -70.5q0 -58 74 -58q34 0 67 17v-162q-56 -31 -131 -31q-87 0 -143 44t-56 118q0 131 154 211h-94z" />
    <glyph glyph-name="Idotaccent" unicode="&#x130;" horiz-adv-x="565" 
d="M137 1626v277h291v-277h-291zM430 1475v-1475h-293v1475h293z" />
    <glyph glyph-name="dotlessi" unicode="&#x131;" horiz-adv-x="526" 
d="M119 0v1065h287v-1065h-287z" />
    <glyph glyph-name="IJ" unicode="&#x132;" horiz-adv-x="1716" 
d="M430 1475v-1475h-293v1475h293zM844 477q0 -110 57.5 -170.5t163.5 -60.5q102 0 158.5 60.5t56.5 176.5v992h293v-996q0 -122 -38.5 -218.5t-107 -157t-159 -92t-197.5 -31.5q-238 0 -375 126.5t-137 370.5h285z" />
    <glyph glyph-name="ij" unicode="&#x133;" horiz-adv-x="1044" 
d="M115 1229v276h291v-276h-291zM637 1229v276h291v-276h-291zM119 0v1065h287v-1065h-287zM926 -55q0 -355 -369 -355h-129v252h104q57 0 82 29t25 86v1108h287v-1120z" />
    <glyph glyph-name="Jcircumflex" unicode="&#x134;" horiz-adv-x="1183" 
d="M907 1722l99 -143h239l-223 309h-229l-224 -309h240zM326 477q0 -110 57.5 -170.5t163.5 -60.5q102 0 158.5 60.5t56.5 176.5v992h293v-996q0 -122 -38.5 -218.5t-107 -157t-159 -92t-197.5 -31.5q-238 0 -375 126.5t-137 370.5h285z" />
    <glyph glyph-name="jcircumflex" unicode="&#x135;" horiz-adv-x="546" 
d="M283 1325l98 -143h240l-224 309h-229l-223 -309h239zM426 -55q0 -355 -369 -355h-129v252h105q57 0 81.5 28.5t24.5 86.5v1108h287v-1120z" />
    <glyph glyph-name="Kcommaaccent" unicode="&#x136;" horiz-adv-x="1423" 
d="M827 846l570 -846h-373l-416 616l-180 -194v-422h-291v1475h291v-699l623 699h344zM567 -324v238h256v-238l-94 -176h-149l96 176h-109z" />
    <glyph glyph-name="kcommaaccent" unicode="&#x137;" horiz-adv-x="1189" 
d="M719 612l452 -612h-360l-299 412l-98 -101v-311h-295v1538h287v-893l411 420h352zM479 -317v237h256v-237l-94 -177h-149l96 177h-109z" />
    <glyph glyph-name="Lacute" unicode="&#x139;" horiz-adv-x="1163" 
d="M174 1579l180 309h246l-209 -309h-217zM430 268h672v-268h-965v1475h293v-1207z" />
    <glyph glyph-name="lacute" unicode="&#x13a;" horiz-adv-x="526" 
d="M154 1606l180 309h246l-209 -309h-217zM406 1538v-1538h-287v1538h287z" />
    <glyph glyph-name="Lcommaaccent" unicode="&#x13b;" horiz-adv-x="1163" 
d="M430 268h672v-268h-965v1475h293v-1207zM504 -338v238h256v-238l-94 -176h-150l96 176h-108z" />
    <glyph glyph-name="lcommaaccent" unicode="&#x13c;" horiz-adv-x="526" 
d="M119 1538h287v-1538h-287v1538zM133 -317v237h256v-237l-94 -177h-150l97 177h-109z" />
    <glyph glyph-name="Lcaron" unicode="&#x13d;" horiz-adv-x="1163" 
d="M430 268h672v-268h-965v1475h293v-1207zM838 1475l-90 -390h-179l33 390h236z" />
    <glyph glyph-name="lcaron" unicode="&#x13e;" horiz-adv-x="616" 
d="M406 1538v-1538h-287v1538h287zM764 1538l-90 -389h-178l32 389h236z" />
    <glyph glyph-name="Ldot" unicode="&#x13f;" horiz-adv-x="1167" 
d="M430 268h672v-268h-965v1475h293v-1207zM858 741q-62 0 -106.5 45.5t-44.5 106.5q0 64 44 109t107 45q62 0 107 -45t45 -109q0 -60 -45.5 -106t-106.5 -46z" />
    <glyph glyph-name="ldot" unicode="&#x140;" horiz-adv-x="782" 
d="M406 1538v-1538h-287v1538h287zM649 625q-62 0 -106.5 45t-44.5 106q0 64 44 109t107 45q62 0 107 -45t45 -109q0 -60 -45.5 -105.5t-106.5 -45.5z" />
    <glyph glyph-name="Lslash" unicode="&#x141;" horiz-adv-x="1185" 
d="M449 268h671v-268h-964v610l-121 -78v252l121 78v613h293v-422l251 161v-251l-251 -162v-533z" />
    <glyph glyph-name="lslash" unicode="&#x142;" horiz-adv-x="595" 
d="M592 1049v-244l-150 -57v-748h-286v639l-152 -57v245l152 58v655h286v-547z" />
    <glyph glyph-name="Nacute" unicode="&#x143;" horiz-adv-x="1478" 
d="M631 1579l180 309h246l-209 -309h-217zM137 0v1475h295l621 -1000v1000h288v-1475h-292l-621 977v-977h-291z" />
    <glyph glyph-name="nacute" unicode="&#x144;" horiz-adv-x="1257" 
d="M989 1491l-209 -309h-217l180 309h246zM723 1085q201 0 314.5 -122.5t113.5 -329.5v-633h-289v573q0 130 -58.5 198.5t-164.5 68.5q-113 0 -173 -73t-60 -204v-563h-287v1065h266l16 -127q43 69 124.5 108t197.5 39z" />
    <glyph glyph-name="Ncommaaccent" unicode="&#x145;" horiz-adv-x="1478" 
d="M1053 1475h288v-1475h-292l-621 977v-977h-291v1475h295l621 -1000v1000zM610 -313v237h256v-237l-94 -176h-149l96 176h-109z" />
    <glyph glyph-name="ncommaaccent" unicode="&#x146;" horiz-adv-x="1257" 
d="M723 1085q201 0 314.5 -122.5t113.5 -329.5v-633h-289v573q0 130 -58.5 198.5t-164.5 68.5q-113 0 -173 -73t-60 -204v-563h-287v1065h266l16 -127q43 69 124.5 108t197.5 39zM512 -317v237h256v-237l-94 -177h-150l97 177h-109z" />
    <glyph glyph-name="Ncaron" unicode="&#x147;" horiz-adv-x="1478" 
d="M743 1745l-98 143h-239l221 -309h231l221 309h-237zM137 0v1475h295l621 -1000v1000h288v-1475h-292l-621 977v-977h-291z" />
    <glyph glyph-name="ncaron" unicode="&#x148;" horiz-adv-x="1257" 
d="M788 1182h-231l-221 309h239l99 -143l98 143h238zM723 1085q201 0 314.5 -122.5t113.5 -329.5v-633h-289v573q0 130 -58.5 198.5t-164.5 68.5q-113 0 -173 -73t-60 -204v-563h-287v1065h266l16 -127q43 69 124.5 108t197.5 39z" />
    <glyph glyph-name="Eng" unicode="&#x14a;" horiz-adv-x="1478" 
d="M1051 0l-623 977v-977h-291v1475h295l621 -992v992h288v-1530q0 -178 -91 -266.5t-277 -88.5h-131v254h104q54 0 79.5 23t25.5 74v59z" />
    <glyph glyph-name="eng" unicode="&#x14b;" horiz-adv-x="1282" 
d="M874 -35v617q0 127 -62.5 192.5t-166.5 65.5q-116 0 -179 -74.5t-63 -196.5v-569h-286v1065h266l16 -119q48 65 132.5 102t193.5 37q203 0 319.5 -121t116.5 -327v-690q0 -180 -99 -276.5t-274 -96.5h-161v254h118q62 0 95.5 29t33.5 108z" />
    <glyph glyph-name="Omacron" unicode="&#x14c;" horiz-adv-x="1583" 
d="M473 1831h635v-191h-635v191zM793 -20q-211 0 -375 95.5t-254 267.5t-90 392q0 221 90 394t254 269.5t375 96.5t374.5 -96.5t252.5 -269.5t89 -394q0 -220 -89 -391.5t-252.5 -267.5t-374.5 -96zM793 256q190 0 296.5 128.5t106.5 350.5q0 224 -106.5 354t-296.5 130
q-192 0 -300 -130.5t-108 -353.5t108 -351t300 -128z" />
    <glyph glyph-name="omacron" unicode="&#x14d;" horiz-adv-x="1282" 
d="M324 1419h634v-190h-634v190zM84 532q0 247 156 401t401 154t401 -154t156 -401t-155.5 -399.5t-401.5 -152.5t-401.5 152.5t-155.5 399.5zM377 535q0 -141 72 -226.5t192 -85.5t192 85.5t72 226.5q0 142 -72 225.5t-192 83.5t-192 -83.5t-72 -225.5z" />
    <glyph glyph-name="Obreve" unicode="&#x14e;" horiz-adv-x="1583" 
d="M793 1575q-136 0 -220 83t-81 230h186q-3 -63 26 -97t89 -34q57 0 88 34t28 97h185q4 -147 -80 -230t-221 -83zM793 -20q-211 0 -375 95.5t-254 267.5t-90 392q0 221 90 394t254 269.5t375 96.5t374.5 -96.5t252.5 -269.5t89 -394q0 -220 -89 -391.5t-252.5 -267.5
t-374.5 -96zM793 256q190 0 296.5 128.5t106.5 350.5q0 224 -106.5 354t-296.5 130q-192 0 -300 -130.5t-108 -353.5t108 -351t300 -128z" />
    <glyph glyph-name="obreve" unicode="&#x14f;" horiz-adv-x="1282" 
d="M641 1163q-136 0 -220 83.5t-81 230.5h186q-3 -63 26 -97t89 -34q58 0 89 34.5t28 96.5h184q4 -147 -80 -230.5t-221 -83.5zM84 532q0 247 156 401t401 154t401 -154t156 -401t-155.5 -399.5t-401.5 -152.5t-401.5 152.5t-155.5 399.5zM377 535q0 -141 72 -226.5
t192 -85.5t192 85.5t72 226.5q0 142 -72 225.5t-192 83.5t-192 -83.5t-72 -225.5z" />
    <glyph glyph-name="Ohungarumlaut" unicode="&#x150;" horiz-adv-x="1583" 
d="M524 1593l178 310h246l-209 -310h-215zM842 1593l223 310h248l-254 -310h-217zM793 -20q-211 0 -375 95.5t-254 267.5t-90 392q0 221 90 394t254 269.5t375 96.5t374.5 -96.5t252.5 -269.5t89 -394q0 -220 -89 -391.5t-252.5 -267.5t-374.5 -96zM793 256
q190 0 296.5 128.5t106.5 350.5q0 224 -106.5 354t-296.5 130q-192 0 -300 -130.5t-108 -353.5t108 -351t300 -128z" />
    <glyph glyph-name="ohungarumlaut" unicode="&#x151;" horiz-adv-x="1282" 
d="M375 1182l178 309h246l-209 -309h-215zM692 1182l223 309h248l-254 -309h-217zM84 532q0 247 156 401t401 154t401 -154t156 -401t-155.5 -399.5t-401.5 -152.5t-401.5 152.5t-155.5 399.5zM377 535q0 -141 72 -226.5t192 -85.5t192 85.5t72 226.5q0 142 -72 225.5
t-192 83.5t-192 -83.5t-72 -225.5z" />
    <glyph glyph-name="OE" unicode="&#x152;" horiz-adv-x="2322" 
d="M1542 258h713v-258h-1006v168q-76 -89 -198.5 -138.5t-270.5 -49.5q-153 0 -283.5 56t-222.5 154.5t-144 239.5t-52 305q0 221 90 394t253.5 269.5t373.5 96.5q139 0 258 -46.5t196 -129.5v156h977v-258h-684v-351h522v-252h-522v-356zM795 256q192 0 298.5 128.5
t106.5 350.5q0 224 -107 354t-298 130q-190 0 -298 -130.5t-108 -353.5t107.5 -351t298.5 -128z" />
    <glyph glyph-name="oe" unicode="&#x153;" horiz-adv-x="2027" 
d="M1944 547v-94h-775q1 -111 75 -177.5t190 -66.5q81 0 138 35.5t81 103.5h280q-37 -167 -178.5 -269t-341.5 -102q-126 0 -227.5 46.5t-163.5 136.5q-64 -89 -167.5 -136t-229.5 -47q-243 0 -392 153t-149 402q0 248 149 400.5t392 152.5q126 0 229.5 -46t167.5 -134
q62 89 162.5 134.5t226.5 45.5q240 0 386.5 -147t146.5 -391zM1169 639h486q-7 106 -75.5 163.5t-168.5 57.5t-168 -57.5t-74 -163.5zM625 221q117 0 184.5 85t67.5 226q0 140 -67.5 225t-184.5 85q-116 0 -183 -85t-67 -225q0 -141 67 -226t183 -85z" />
    <glyph glyph-name="Racute" unicode="&#x154;" horiz-adv-x="1388" 
d="M543 1579l180 309h246l-209 -309h-217zM137 0v1475h664q222 0 365 -131.5t143 -350.5q0 -171 -81 -294t-218 -164l272 -535h-330l-245 496h-279v-496h-291zM428 743h326q121 0 184 62t63 178q0 115 -62.5 174.5t-184.5 59.5h-326v-474z" />
    <glyph glyph-name="racute" unicode="&#x155;" horiz-adv-x="835" 
d="M793 1491l-209 -309h-217l180 309h246zM651 1065h146v-256h-162q-122 0 -172.5 -66.5t-50.5 -195.5v-547h-289v1065h268l31 -123q29 54 87 88.5t142 34.5z" />
    <glyph glyph-name="Rcommaaccent" unicode="&#x156;" horiz-adv-x="1388" 
d="M1309 993q0 -171 -81 -294t-218 -164l272 -535h-330l-245 496h-279v-496h-291v1475h664q222 0 365 -131.5t143 -350.5zM754 743q121 0 184 62t63 178q0 115 -62.5 174.5t-184.5 59.5h-326v-474h326zM557 -313v237h256v-237l-94 -176h-150l97 176h-109z" />
    <glyph glyph-name="rcommaaccent" unicode="&#x157;" horiz-adv-x="835" 
d="M651 1065h146v-256h-162q-122 0 -172.5 -66.5t-50.5 -195.5v-547h-289v1065h268l31 -123q29 54 87 88.5t142 34.5zM139 -313v237h256v-237l-94 -176h-149l96 176h-109z" />
    <glyph glyph-name="Rcaron" unicode="&#x158;" horiz-adv-x="1388" 
d="M653 1745l-98 143h-240l222 -309h231l221 309h-237zM137 0v1475h664q222 0 365 -131.5t143 -350.5q0 -171 -81 -294t-218 -164l272 -535h-330l-245 496h-279v-496h-291zM428 743h326q121 0 184 62t63 178q0 115 -62.5 174.5t-184.5 59.5h-326v-474z" />
    <glyph glyph-name="rcaron" unicode="&#x159;" horiz-adv-x="835" 
d="M594 1182h-232l-221 309h240l98 -143l99 143h237zM422 942q29 54 87 88.5t142 34.5h146v-256h-162q-122 0 -172.5 -66.5t-50.5 -195.5v-547h-289v1065h268z" />
    <glyph glyph-name="Sacute" unicode="&#x15a;" horiz-adv-x="1314" 
d="M541 1593l180 310h246l-209 -310h-217zM1243 426q0 -139 -77.5 -241t-207 -152.5t-294.5 -50.5q-279 0 -442 123.5t-163 328.5h297q0 -94 79 -150.5t229 -56.5q124 0 199 52t75 139q0 76 -48 116.5t-157 61.5l-231 45q-199 37 -304.5 142t-105.5 270q0 193 150.5 317.5
t408.5 124.5q90 0 170.5 -15t154 -49t127 -85t85 -127.5t31.5 -171.5h-289q0 105 -77 156.5t-206 51.5q-116 0 -185 -48t-69 -128q0 -73 50 -115t167 -65l234 -43q399 -78 399 -430z" />
    <glyph glyph-name="sacute" unicode="&#x15b;" horiz-adv-x="1073" 
d="M422 1182l180 309h246l-209 -309h-217zM53 334h281q1 -70 59.5 -110t147.5 -40q85 0 130.5 28.5t45.5 82.5q0 51 -34 79.5t-118 43.5l-205 39q-280 51 -280 301q0 146 129 236.5t319 90.5q206 0 336.5 -94.5t130.5 -251.5h-280q-1 66 -53.5 104t-133.5 38
q-77 0 -120 -30.5t-43 -80.5q0 -44 37 -68t118 -38l201 -41q289 -59 289 -301q0 -83 -37.5 -149.5t-101.5 -108t-147.5 -63t-178.5 -21.5q-215 0 -353 97.5t-139 256.5z" />
    <glyph glyph-name="Scircumflex" unicode="&#x15c;" horiz-adv-x="1314" 
d="M649 1737l99 -144h239l-223 310h-229l-224 -310h240zM1243 426q0 -139 -77.5 -241t-207 -152.5t-294.5 -50.5q-279 0 -442 123.5t-163 328.5h297q0 -94 79 -150.5t229 -56.5q124 0 199 52t75 139q0 76 -48 116.5t-157 61.5l-231 45q-199 37 -304.5 142t-105.5 270
q0 193 150.5 317.5t408.5 124.5q90 0 170.5 -15t154 -49t127 -85t85 -127.5t31.5 -171.5h-289q0 105 -77 156.5t-206 51.5q-116 0 -185 -48t-69 -128q0 -73 50 -115t167 -65l234 -43q399 -78 399 -430z" />
    <glyph glyph-name="scircumflex" unicode="&#x15d;" horiz-adv-x="1073" 
d="M532 1325l99 -143h239l-223 309h-229l-223 -309h239zM53 334h281q1 -70 59.5 -110t147.5 -40q85 0 130.5 28.5t45.5 82.5q0 51 -34 79.5t-118 43.5l-205 39q-280 51 -280 301q0 146 129 236.5t319 90.5q206 0 336.5 -94.5t130.5 -251.5h-280q-1 66 -53.5 104t-133.5 38
q-77 0 -120 -30.5t-43 -80.5q0 -44 37 -68t118 -38l201 -41q289 -59 289 -301q0 -83 -37.5 -149.5t-101.5 -108t-147.5 -63t-178.5 -21.5q-215 0 -353 97.5t-139 256.5z" />
    <glyph glyph-name="Scedilla" unicode="&#x15e;" horiz-adv-x="1314" 
d="M1243 426q0 -198 -149.5 -315.5t-384.5 -126.5l-23 -70q81 3 131.5 -35t50.5 -112q0 -73 -55 -117.5t-139 -44.5q-106 0 -159.5 46t-53.5 120h135q6 -47 59 -47q26 0 41 14t15 37q0 33 -28.5 45.5t-68.5 3.5l-57 33l43 127q-251 13 -396 135t-145 315h297
q0 -94 79 -150.5t229 -56.5q124 0 199 52t75 139q0 76 -48 116.5t-157 61.5l-231 45q-199 37 -304.5 142t-105.5 270q0 193 150.5 317.5t408.5 124.5q90 0 170.5 -15t154 -49t127 -85t85 -127.5t31.5 -171.5h-289q0 105 -77 156.5t-206 51.5q-116 0 -185 -48t-69 -128
q0 -73 50 -115t167 -65l234 -43q399 -78 399 -430z" />
    <glyph glyph-name="scedilla" unicode="&#x15f;" horiz-adv-x="1073" 
d="M1010 322q0 -154 -119 -242t-301 -98l-19 -56q81 3 132 -35t51 -112q0 -72 -55.5 -117t-139.5 -45q-106 0 -159.5 46t-53.5 120h135q6 -47 60 -47q26 0 40.5 13.5t14.5 37.5q0 33 -28 45.5t-68 3.5l-58 33l39 113q-190 15 -308.5 110t-119.5 242h281q1 -70 59.5 -110
t147.5 -40q85 0 130.5 28.5t45.5 82.5q0 51 -34 79.5t-118 43.5l-205 39q-280 51 -280 301q0 146 129 236.5t319 90.5q206 0 336.5 -94.5t130.5 -251.5h-280q-1 66 -53.5 104t-133.5 38q-77 0 -120 -30.5t-43 -80.5q0 -44 37 -68t118 -38l201 -41q289 -59 289 -301z" />
    <glyph glyph-name="Scaron" unicode="&#x160;" horiz-adv-x="1314" 
d="M651 1759l-98 144h-240l222 -310h231l221 310h-237zM1243 426q0 -139 -77.5 -241t-207 -152.5t-294.5 -50.5q-279 0 -442 123.5t-163 328.5h297q0 -94 79 -150.5t229 -56.5q124 0 199 52t75 139q0 76 -48 116.5t-157 61.5l-231 45q-199 37 -304.5 142t-105.5 270
q0 193 150.5 317.5t408.5 124.5q90 0 170.5 -15t154 -49t127 -85t85 -127.5t31.5 -171.5h-289q0 105 -77 156.5t-206 51.5q-116 0 -185 -48t-69 -128q0 -73 50 -115t167 -65l234 -43q399 -78 399 -430z" />
    <glyph glyph-name="scaron" unicode="&#x161;" horiz-adv-x="1073" 
d="M535 1348l-99 143h-239l221 -309h231l221 309h-237zM53 334h281q1 -70 59.5 -110t147.5 -40q85 0 130.5 28.5t45.5 82.5q0 51 -34 79.5t-118 43.5l-205 39q-280 51 -280 301q0 146 129 236.5t319 90.5q206 0 336.5 -94.5t130.5 -251.5h-280q-1 66 -53.5 104t-133.5 38
q-77 0 -120 -30.5t-43 -80.5q0 -44 37 -68t118 -38l201 -41q289 -59 289 -301q0 -83 -37.5 -149.5t-101.5 -108t-147.5 -63t-178.5 -21.5q-215 0 -353 97.5t-139 256.5z" />
    <glyph glyph-name="uni0162" unicode="&#x162;" horiz-adv-x="1294" 
d="M43 1475h1208v-258h-458v-1217h-291v1217h-459v258zM518 -313v237h256v-237l-94 -176h-150l97 176h-109z" />
    <glyph glyph-name="uni0163" unicode="&#x163;" horiz-adv-x="780" 
d="M711 811h-244v-432q0 -71 25 -99t94 -28h125v-252h-217q-155 0 -234.5 83.5t-79.5 231.5v496h-164v254h80q48 0 66 24t18 80v187h287v-291h244v-254zM336 -313v237h256v-237l-94 -176h-150l96 176h-108z" />
    <glyph glyph-name="Tcaron" unicode="&#x164;" horiz-adv-x="1294" 
d="M649 1745l-98 143h-240l221 -309h232l221 309h-237zM793 1217v-1217h-291v1217h-459v258h1208v-258h-458z" />
    <glyph glyph-name="tcaron" unicode="&#x165;" horiz-adv-x="794" 
d="M821 1538l-90 -389h-178l33 389h235zM494 0q-155 0 -234.5 83.5t-79.5 231.5v496h-164v254h80q48 0 66 24t18 80v187h287v-291h244v-254h-244v-432q0 -71 25 -99t94 -28h125v-252h-217z" />
    <glyph glyph-name="Tbar" unicode="&#x166;" horiz-adv-x="1292" 
d="M1251 1217h-458v-388h225v-221h-225v-608h-291v608h-226v221h226v388h-459v258h1208v-258z" />
    <glyph glyph-name="tbar" unicode="&#x167;" horiz-adv-x="819" 
d="M727 811h-244v-135h244v-219h-244v-78q0 -71 25 -99t94 -28h125v-252h-217q-155 0 -234 83.5t-79 231.5v142h-156v219h156v135h-164v254h80q48 0 66 24t18 80v187h286v-291h244v-254z" />
    <glyph glyph-name="Utilde" unicode="&#x168;" horiz-adv-x="1460" 
d="M569 1878q59 0 115 -24t100.5 -48t77.5 -24q36 0 57 22.5t21 61.5h150q8 -126 -45 -199.5t-152 -73.5q-47 0 -93 15.5t-76 34t-64.5 34t-61.5 15.5q-36 0 -57 -22.5t-21 -63.5h-149q-6 128 45.5 200t152.5 72zM418 1475v-926q0 -150 85.5 -231.5t227.5 -81.5t227.5 81.5
t85.5 231.5v926h297v-897q0 -276 -162.5 -437t-447.5 -161q-287 0 -448.5 160.5t-161.5 437.5v897h297z" />
    <glyph glyph-name="utilde" unicode="&#x169;" horiz-adv-x="1208" 
d="M385 1210h-149q-6 128 45.5 200.5t152.5 72.5q47 0 92.5 -15t75.5 -33.5t64 -33.5t61 -15q36 0 57 22.5t21 61.5h149q8 -126 -44.5 -199t-151.5 -73q-60 0 -116 24.5t-101 49t-78 24.5q-36 0 -57 -22.5t-21 -63.5zM817 1065h273v-1065h-263l-14 117q-94 -137 -274 -137
q-202 0 -316 122.5t-114 329.5v633h272v-596q0 -122 58.5 -183.5t162.5 -58.5q105 1 160 67.5t55 186.5v584z" />
    <glyph glyph-name="Umacron" unicode="&#x16a;" horiz-adv-x="1460" 
d="M412 1817h635v-191h-635v191zM418 1475v-926q0 -150 85.5 -231.5t227.5 -81.5t227.5 81.5t85.5 231.5v926h297v-897q0 -276 -162.5 -437t-447.5 -161q-287 0 -448.5 160.5t-161.5 437.5v897h297z" />
    <glyph glyph-name="umacron" unicode="&#x16b;" horiz-adv-x="1208" 
d="M911 1421v-190h-635v190h635zM817 1065h273v-1065h-263l-14 117q-94 -137 -274 -137q-202 0 -316 122.5t-114 329.5v633h272v-596q0 -122 58.5 -183.5t162.5 -58.5q105 1 160 67.5t55 186.5v584z" />
    <glyph glyph-name="Ubreve" unicode="&#x16c;" horiz-adv-x="1460" 
d="M731 1561q-136 0 -220 83t-81 230h186q-3 -63 26 -97t89 -34q58 0 89 34.5t28 96.5h184q4 -147 -80 -230t-221 -83zM418 1475v-926q0 -150 85.5 -231.5t227.5 -81.5t227.5 81.5t85.5 231.5v926h297v-897q0 -276 -162.5 -437t-447.5 -161q-287 0 -448.5 160.5
t-161.5 437.5v897h297z" />
    <glyph glyph-name="ubreve" unicode="&#x16d;" horiz-adv-x="1208" 
d="M596 1165q-136 0 -220 83.5t-81 230.5h186q-3 -63 26 -97t89 -34q58 0 89 34.5t28 96.5h184q4 -147 -80 -230.5t-221 -83.5zM817 1065h273v-1065h-263l-14 117q-94 -137 -274 -137q-202 0 -316 122.5t-114 329.5v633h272v-596q0 -122 58.5 -183.5t162.5 -58.5
q105 1 160 67.5t55 186.5v584z" />
    <glyph glyph-name="Uring" unicode="&#x16e;" horiz-adv-x="1460" 
d="M469 1708q0 117 77 184.5t185 67.5q109 0 185.5 -67t76.5 -185q0 -119 -76.5 -187.5t-185.5 -68.5q-108 0 -185 68.5t-77 187.5zM625 1706q0 -48 31 -78.5t75 -30.5q46 0 77.5 30.5t31.5 78.5t-31.5 78.5t-77.5 30.5q-44 0 -75 -30.5t-31 -78.5zM418 1475v-926
q0 -150 85.5 -231.5t227.5 -81.5t227.5 81.5t85.5 231.5v926h297v-897q0 -276 -162.5 -437t-447.5 -161q-287 0 -448.5 160.5t-161.5 437.5v897h297z" />
    <glyph glyph-name="uring" unicode="&#x16f;" horiz-adv-x="1208" 
d="M596 1057q-108 0 -185 68.5t-77 187.5q0 117 77 184.5t185 67.5q109 0 185.5 -67t76.5 -185q0 -119 -76.5 -187.5t-185.5 -68.5zM596 1419q-44 0 -75.5 -30t-31.5 -78t31.5 -78.5t75.5 -30.5q46 0 77.5 30.5t31.5 78.5t-31.5 78t-77.5 30zM817 1065h273v-1065h-263
l-14 117q-94 -137 -274 -137q-202 0 -316 122.5t-114 329.5v633h272v-596q0 -122 58.5 -183.5t162.5 -58.5q105 1 160 67.5t55 186.5v584z" />
    <glyph glyph-name="Uhungarumlaut" unicode="&#x170;" horiz-adv-x="1460" 
d="M465 1579l178 309h246l-209 -309h-215zM782 1579l224 309h247l-254 -309h-217zM418 1475v-926q0 -150 85.5 -231.5t227.5 -81.5t227.5 81.5t85.5 231.5v926h297v-897q0 -276 -162.5 -437t-447.5 -161q-287 0 -448.5 160.5t-161.5 437.5v897h297z" />
    <glyph glyph-name="uhungarumlaut" unicode="&#x171;" horiz-adv-x="1208" 
d="M752 1493l-209 -309h-215l178 309h246zM862 1184h-217l223 309h248zM817 481v584h273v-1065h-263l-14 117q-94 -137 -274 -137q-202 0 -316 122.5t-114 329.5v633h272v-596q0 -122 58.5 -183.5t162.5 -58.5q105 1 160 67.5t55 186.5z" />
    <glyph glyph-name="Uogonek" unicode="&#x172;" horiz-adv-x="1460" 
d="M1044 1475h297v-897q0 -230 -115.5 -383t-324.5 -199q-71 -30 -110 -66t-39 -69q0 -30 17 -44t56 -14q35 0 68 17v-162q-56 -31 -131 -31q-87 0 -143 44t-56 118q0 117 121 193q-265 13 -414 172.5t-149 423.5v897h297v-926q0 -150 85.5 -231.5t227.5 -81.5t227.5 81.5
t85.5 231.5v926z" />
    <glyph glyph-name="uogonek" unicode="&#x173;" horiz-adv-x="1208" 
d="M1090 0q-76 -32 -117 -68.5t-41 -70.5q0 -58 74 -58q34 0 67 17v-162q-56 -31 -131 -31q-87 0 -143 44t-56 118q0 131 154 211h-70l-14 117q-94 -137 -274 -137q-202 0 -316 122.5t-114 329.5v633h272v-596q0 -122 58.5 -183.5t162.5 -58.5q105 1 160 67.5t55 186.5v584
h273v-1065z" />
    <glyph glyph-name="Wcircumflex" unicode="&#x174;" horiz-adv-x="2119" 
d="M1065 1722l98 -143h240l-223 309h-230l-223 -309h240zM422 0l-393 1475h307l264 -1104l307 1104h324l287 -1106l274 1106h299l-403 -1475h-330l-297 1087l-309 -1087h-330z" />
    <glyph glyph-name="wcircumflex" unicode="&#x175;" horiz-adv-x="1697" 
d="M852 1325l98 -143h240l-223 309h-230l-223 -309h240zM330 1065l174 -752l198 752h304l192 -754l170 754h301l-295 -1065h-319l-199 758l-213 -758h-319l-295 1065h301z" />
    <glyph glyph-name="Ycircumflex" unicode="&#x176;" horiz-adv-x="1421" 
d="M711 1722l98 -143h240l-224 309h-229l-223 -309h239zM555 522l-545 953h348l344 -646l363 646h346l-565 -953v-522h-291v522z" />
    <glyph glyph-name="ycircumflex" unicode="&#x177;" horiz-adv-x="1173" 
d="M586 1325l98 -143h240l-224 309h-229l-223 -309h239zM322 1065l278 -807l264 807h293l-444 -1235q-27 -75 -67 -124.5t-93 -73.5t-104 -33t-119 -9h-260v254h260q106 0 106 99q0 31 -18 80l-404 1042h308z" />
    <glyph glyph-name="Ydieresis" unicode="&#x178;" horiz-adv-x="1421" 
d="M365 1591v256h268v-256h-268zM791 1591v256h268v-256h-268zM555 522l-545 953h348l344 -646l363 646h346l-565 -953v-522h-291v522z" />
    <glyph glyph-name="Zacute" unicode="&#x179;" horiz-adv-x="1232" 
d="M514 1579l180 309h246l-209 -309h-217zM444 258h719v-258h-1091v225l723 992h-703v258h1061v-226z" />
    <glyph glyph-name="zacute" unicode="&#x17a;" horiz-adv-x="1048" 
d="M416 1176l180 309h246l-209 -309h-217zM444 252h523v-252h-885v248l522 563h-522v254h885v-250z" />
    <glyph glyph-name="Zdotaccent" unicode="&#x17b;" horiz-adv-x="1232" 
d="M477 1626v277h291v-277h-291zM444 258h719v-258h-1091v225l723 992h-703v258h1061v-226z" />
    <glyph glyph-name="zdotaccent" unicode="&#x17c;" horiz-adv-x="1048" 
d="M379 1223v276h291v-276h-291zM444 252h523v-252h-885v248l522 563h-522v254h885v-250z" />
    <glyph glyph-name="Zcaron" unicode="&#x17d;" horiz-adv-x="1232" 
d="M625 1745l-99 143h-239l221 -309h231l222 309h-238zM444 258h719v-258h-1091v225l723 992h-703v258h1061v-226z" />
    <glyph glyph-name="zcaron" unicode="&#x17e;" horiz-adv-x="1048" 
d="M526 1341l-98 144h-240l222 -309h231l221 309h-237zM444 252h523v-252h-885v248l522 563h-522v254h885v-250z" />
    <glyph glyph-name="florin" unicode="&#x192;" horiz-adv-x="1150" 
d="M911 1227q-35 0 -58 -9t-36 -28.5t-19.5 -37.5t-11.5 -48l-55 -293h291v-219h-334l-110 -584q-29 -157 -107.5 -233t-234.5 -76h-162v246h129q59 0 87.5 26t37.5 86l102 535h-237v219h278l59 313q17 93 41 153.5t67 107.5t111.5 68.5t168.5 21.5h151v-248h-158z" />
    <glyph glyph-name="Aringacute" unicode="&#x1fa;" horiz-adv-x="1439" 
d="M1063 2218l-209 -309h-217l180 309h246zM1100 0l-113 309h-555l-115 -309h-299l531 1401q-86 73 -86 194q0 117 77 184.5t185 67.5q109 0 185.5 -67t76.5 -185q0 -128 -92 -200l526 -1395h-321zM725 1702q-44 0 -75.5 -30.5t-31.5 -78.5t31.5 -78t75.5 -30q46 0 77.5 30
t31.5 78t-31.5 78.5t-77.5 30.5zM514 532h393l-194 539z" />
    <glyph glyph-name="aringacute" unicode="&#x1fb;" horiz-adv-x="1196" 
d="M899 1800l-209 -309h-217l180 309h246zM1106 209h43v-209h-156q-163 0 -194 125q-45 -68 -134 -106.5t-206 -38.5q-178 0 -282.5 87t-104.5 240q0 148 100.5 234t298.5 86h285v47q0 88 -52 136t-143 48q-89 0 -144.5 -43.5t-58.5 -114.5h-260q0 128 70 219.5t194 133.5
q-45 64 -45 151q0 117 77.5 184.5t185.5 67.5q109 0 185.5 -67t76.5 -185q0 -89 -47 -155q114 -43 181.5 -137t67.5 -244v-398q0 -37 16 -49t46 -12zM580 1311q-44 0 -75.5 -30.5t-31.5 -78.5t31.5 -78t75.5 -30q46 0 77 30t31 78t-31.5 78.5t-76.5 30.5zM756 401v39h-234
q-155 0 -155 -114q0 -63 44.5 -92t120.5 -29q107 0 165.5 50.5t58.5 145.5z" />
    <glyph glyph-name="AEacute" unicode="&#x1fc;" horiz-adv-x="2082" 
d="M1245 1612l180 309h246l-209 -309h-217zM-4 0l881 1475h1112v-258h-684v-351h520v-252h-520v-356h710v-258h-989v324h-494l-188 -324h-348zM668 561h358l-2 610z" />
    <glyph glyph-name="aeacute" unicode="&#x1fd;" horiz-adv-x="1900" 
d="M1221 1491l-209 -309h-217l180 309h246zM1817 547v-94h-775q1 -114 71.5 -179t174.5 -65q81 0 147.5 36.5t90.5 102.5h278q-35 -166 -174 -268.5t-327 -102.5q-281 0 -416 187q-131 -184 -398 -184q-193 0 -305 86t-112 241q0 145 101 230.5t298 85.5h287v59
q0 87 -53.5 131.5t-139.5 44.5q-99 0 -151 -44t-54 -116h-260q0 177 127 282t328 105q109 0 203.5 -40t152.5 -117q138 157 387 157q231 0 375 -146.5t144 -391.5zM1042 641h486q-7 106 -74.5 162.5t-167.5 56.5q-101 0 -169.5 -56.5t-74.5 -162.5zM758 406v32h-236
q-155 0 -155 -112q0 -119 170 -119q106 0 163.5 52t57.5 147z" />
    <glyph glyph-name="Oslashacute" unicode="&#x1fe;" horiz-adv-x="1589" 
d="M1112 1903l-209 -310h-217l180 310h246zM1286 1309q108 -102 166.5 -249.5t58.5 -324.5q0 -220 -89 -391.5t-252.5 -267.5t-374.5 -96q-171 0 -312 63l-55 -88h-242l127 201q-113 101 -174 249t-61 330q0 221 90 394t253.5 269.5t373.5 96.5q174 0 323 -70l58 93h243z
M377 735q0 -205 92 -336l504 799q-78 35 -178 35q-196 0 -307 -134.5t-111 -363.5zM795 242q196 0 306.5 132.5t110.5 360.5q0 196 -82 326l-501 -789q74 -30 166 -30z" />
    <glyph glyph-name="Scommaaccent" unicode="&#x218;" horiz-adv-x="1314" 
d="M844 856q399 -78 399 -430q0 -139 -77.5 -241t-207 -152.5t-294.5 -50.5q-279 0 -442 123.5t-163 328.5h297q0 -94 79 -150.5t229 -56.5q124 0 199 52t75 139q0 76 -48 116.5t-157 61.5l-231 45q-199 37 -304.5 142t-105.5 270q0 193 150.5 317.5t408.5 124.5
q90 0 170.5 -15t154 -49t127 -85t85 -127.5t31.5 -171.5h-289q0 105 -77 156.5t-206 51.5q-116 0 -185 -48t-69 -128q0 -73 50 -115t167 -65zM530 -332v238h256v-238l-94 -176h-149l96 176h-109z" />
    <glyph glyph-name="scommaaccent" unicode="&#x219;" horiz-adv-x="1073" 
d="M721 623q289 -59 289 -301q0 -83 -37.5 -149.5t-101.5 -108t-147.5 -63t-178.5 -21.5q-215 0 -353 97.5t-139 256.5h281q1 -70 59.5 -110t147.5 -40q85 0 130.5 28.5t45.5 82.5q0 51 -34 79.5t-118 43.5l-205 39q-280 51 -280 301q0 146 129 236.5t319 90.5
q206 0 336.5 -94.5t130.5 -251.5h-280q-1 66 -53.5 104t-133.5 38q-77 0 -120 -30.5t-43 -80.5q0 -44 37 -68t118 -38zM418 -319v237h256v-237l-94 -177h-150l96 177h-108z" />
    <glyph glyph-name="uni021A" unicode="&#x21a;" horiz-adv-x="1294" 
d="M43 1475h1208v-258h-458v-1217h-291v1217h-459v258zM518 -313v237h256v-237l-94 -176h-150l97 176h-109z" />
    <glyph glyph-name="uni021B" unicode="&#x21b;" horiz-adv-x="780" 
d="M711 811h-244v-432q0 -71 25 -99t94 -28h125v-252h-217q-155 0 -234.5 83.5t-79.5 231.5v496h-164v254h80q48 0 66 24t18 80v187h287v-291h244v-254zM336 -313v237h256v-237l-94 -176h-150l96 176h-108z" />
    <glyph glyph-name="uni0237" unicode="&#x237;" horiz-adv-x="546" 
d="M426 -55q0 -355 -369 -355h-129v252h105q57 0 81.5 28.5t24.5 86.5v1108h287v-1120z" />
    <glyph glyph-name="uni02BB" unicode="&#x2bb;" horiz-adv-x="342" 
d="M193 1475h106v-236h-256v236l94 176h150z" />
    <glyph glyph-name="uni02BC" unicode="&#x2bc;" horiz-adv-x="546" 
d="M565 1538l-90 -389h-178l33 389h235z" />
    <glyph glyph-name="circumflex" unicode="&#x2c6;" horiz-adv-x="811" 
d="M406 1432l98 -144h239l-223 309h-229l-223 -309h239z" />
    <glyph glyph-name="caron" unicode="&#x2c7;" horiz-adv-x="811" 
d="M408 1454l-99 143h-239l221 -309h231l221 309h-237z" />
    <glyph glyph-name="breve" unicode="&#x2d8;" horiz-adv-x="696" 
d="M350 1284q-136 0 -220 83t-81 230h187q-6 -131 114 -131q58 0 89 34.5t28 96.5h184q4 -147 -80 -230t-221 -83z" />
    <glyph glyph-name="dotaccent" unicode="&#x2d9;" horiz-adv-x="481" 
d="M94 1335v277h291v-277h-291z" />
    <glyph glyph-name="ring" unicode="&#x2da;" horiz-adv-x="614" 
d="M47 1438q0 117 77 184.5t185 67.5q109 0 185.5 -67t76.5 -185q0 -119 -76.5 -187.5t-185.5 -68.5q-108 0 -185 68.5t-77 187.5zM203 1436q0 -48 31 -78.5t75 -30.5q46 0 77.5 30.5t31.5 78.5t-31.5 78t-77.5 30q-44 0 -75 -30t-31 -78z" />
    <glyph glyph-name="ogonek" unicode="&#x2db;" horiz-adv-x="565" 
d="M428 -342q-56 -31 -131 -31q-87 0 -143 44t-56 118q0 139 170 219l176 -8q-76 -32 -116.5 -68.5t-40.5 -70.5q0 -30 17 -44t56 -14q35 0 68 17v-162z" />
    <glyph glyph-name="tilde" unicode="&#x2dc;" horiz-adv-x="806" 
d="M258 1587q59 0 115 -24t100.5 -48t77.5 -24q36 0 57 22.5t21 61.5h149q8 -126 -44.5 -199t-151.5 -73q-60 0 -116 24.5t-101 49t-78 24.5q-36 0 -57 -22.5t-21 -63.5h-150q-6 128 46 200t153 72z" />
    <glyph glyph-name="hungarumlaut" unicode="&#x2dd;" horiz-adv-x="884" 
d="M78 1288l178 309h246l-209 -309h-215zM395 1288l223 309h248l-254 -309h-217z" />
    <glyph glyph-name="uni0326" unicode="&#x326;" horiz-adv-x="0" 
d="M-397 -10h256v-238l-95 -176h-149l96 176h-108v238z" />
    <glyph glyph-name="uni0335" unicode="&#x335;" horiz-adv-x="0" 
d="M-705 711h742v-222h-742v222z" />
    <glyph glyph-name="uni0336" unicode="&#x336;" horiz-adv-x="0" 
d="M-1294 692h1157v-194h-1157v194z" />
    <glyph glyph-name="uni0337" unicode="&#x337;" horiz-adv-x="0" 
d="M-1065 -74l844 1207h239l-841 -1207h-242z" />
    <glyph glyph-name="uni0338" unicode="&#x338;" horiz-adv-x="0" 
d="M-1319 -45l965 1563h243l-966 -1563h-242z" />
    <glyph glyph-name="pi" unicode="&#x3c0;" horiz-adv-x="1576" 
d="M1470 874h-235v-479q0 -34 9 -57.5t20.5 -35t32 -18t34.5 -7.5t37 -1h102v-276h-196q-164 0 -245 92.5t-81 239.5l-2 542h-328v-874h-288v874h-224v259h1364v-259z" />
    <glyph glyph-name="Wgrave" unicode="&#x1e80;" horiz-adv-x="2119" 
d="M1176 1579h-218l-208 309h245zM422 0l-393 1475h307l264 -1104l307 1104h324l287 -1106l274 1106h299l-403 -1475h-330l-297 1087l-309 -1087h-330z" />
    <glyph glyph-name="wgrave" unicode="&#x1e81;" horiz-adv-x="1697" 
d="M963 1182h-218l-208 309h245zM330 1065l174 -752l198 752h304l192 -754l170 754h301l-295 -1065h-319l-199 758l-213 -758h-319l-295 1065h301z" />
    <glyph glyph-name="Wacute" unicode="&#x1e82;" horiz-adv-x="2119" 
d="M956 1579l181 309h245l-208 -309h-218zM422 0l-393 1475h307l264 -1104l307 1104h324l287 -1106l274 1106h299l-403 -1475h-330l-297 1087l-309 -1087h-330z" />
    <glyph glyph-name="wacute" unicode="&#x1e83;" horiz-adv-x="1697" 
d="M743 1182l181 309h245l-208 -309h-218zM330 1065l174 -752l198 752h304l192 -754l170 754h301l-295 -1065h-319l-199 758l-213 -758h-319l-295 1065h301z" />
    <glyph glyph-name="Wdieresis" unicode="&#x1e84;" horiz-adv-x="2119" 
d="M717 1591v256h268v-256h-268zM1143 1591v256h268v-256h-268zM422 0l-393 1475h307l264 -1104l307 1104h324l287 -1106l274 1106h299l-403 -1475h-330l-297 1087l-309 -1087h-330z" />
    <glyph glyph-name="wdieresis" unicode="&#x1e85;" horiz-adv-x="1697" 
d="M506 1194v256h268v-256h-268zM932 1194v256h268v-256h-268zM330 1065l174 -752l198 752h304l192 -754l170 754h301l-295 -1065h-319l-199 758l-213 -758h-319l-295 1065h301z" />
    <glyph glyph-name="Ygrave" unicode="&#x1ef2;" horiz-adv-x="1421" 
d="M821 1579h-217l-209 309h246zM555 522l-545 953h348l344 -646l363 646h346l-565 -953v-522h-291v522z" />
    <glyph glyph-name="ygrave" unicode="&#x1ef3;" horiz-adv-x="1173" 
d="M694 1182h-217l-209 309h246zM322 1065l278 -807l264 807h293l-444 -1235q-27 -75 -67 -124.5t-93 -73.5t-104 -33t-119 -9h-260v254h260q106 0 106 99q0 31 -18 80l-404 1042h308z" />
    <glyph glyph-name="endash" unicode="&#x2013;" horiz-adv-x="1333" 
d="M80 737h1173v-260h-1173v260z" />
    <glyph glyph-name="emdash" unicode="&#x2014;" horiz-adv-x="2048" 
d="M80 737h1888v-260h-1888v260z" />
    <glyph glyph-name="quoteleft" unicode="&#x2018;" horiz-adv-x="532" 
d="M94 940v334l139 246h164l-123 -246h162v-334h-342z" />
    <glyph glyph-name="quoteright" unicode="&#x2019;" horiz-adv-x="532" 
d="M135 940l123 246h-162v334h342v-334l-141 -246h-162z" />
    <glyph glyph-name="quotesinglbase" unicode="&#x201a;" horiz-adv-x="532" 
d="M96 0v334h342v-334l-141 -246h-162l123 246h-162z" />
    <glyph glyph-name="quotedblleft" unicode="&#x201c;" horiz-adv-x="968" 
d="M94 940v334l139 246h164l-123 -246h162v-334h-342zM530 940v334l140 246h164l-123 -246h161v-334h-342z" />
    <glyph glyph-name="quotedblright" unicode="&#x201d;" horiz-adv-x="968" 
d="M135 940l123 246h-162v334h342v-334l-141 -246h-162zM571 940l123 246h-162v334h342v-334l-141 -246h-162z" />
    <glyph glyph-name="quotedblbase" unicode="&#x201e;" horiz-adv-x="968" 
d="M96 0v334h342v-334l-141 -246h-162l123 246h-162zM532 0v334h342v-334l-141 -246h-162l123 246h-162z" />
    <glyph glyph-name="dagger" unicode="&#x2020;" horiz-adv-x="1056" 
d="M944 1143v-223h-305v-709h-221v709h-305v223h305v332h221v-332h305z" />
    <glyph glyph-name="daggerdbl" unicode="&#x2021;" horiz-adv-x="1056" 
d="M944 942h-305v-199h305v-221h-305v-311h-221v311h-305v221h305v199h-305v221h305v312h221v-312h305v-221z" />
    <glyph glyph-name="bullet" unicode="&#x2022;" horiz-adv-x="847" 
d="M424 287q-140 0 -241 101t-101 243q0 140 100.5 241t241.5 101q140 0 241 -100.5t101 -241.5t-100.5 -242.5t-241.5 -101.5z" />
    <glyph glyph-name="ellipsis" unicode="&#x2026;" horiz-adv-x="1538" 
d="M96 0v342h340v-342h-340zM598 0v342h342v-342h-342zM1102 0v342h342v-342h-342z" />
    <glyph glyph-name="perthousand" unicode="&#x2030;" horiz-adv-x="2715" 
d="M82 1079q0 185 97.5 299.5t258.5 114.5t259 -114t98 -300q0 -185 -98 -299t-259 -114q-162 0 -259 113t-97 300zM371 0l919 1475h250l-919 -1475h-250zM561 1079q0 207 -123 207q-46 0 -75.5 -31.5t-39.5 -75t-10 -100.5q0 -207 125 -207q123 0 123 207zM1475 -20
q-161 0 -258 112.5t-97 300.5q0 185 97 299.5t258 114.5t258.5 -114t97.5 -300q0 -189 -96.5 -301t-259.5 -112zM2277 -20q-163 0 -259.5 111.5t-96.5 301.5q0 185 97.5 299.5t258.5 114.5t259 -114t98 -300q0 -185 -98 -299t-259 -114zM1475 186q124 0 124 207
q0 205 -124 205q-123 0 -123 -205q0 -207 123 -207zM2277 186q123 0 123 207q0 205 -123 205t-123 -205q0 -207 123 -207z" />
    <glyph glyph-name="guilsinglleft" unicode="&#x2039;" horiz-adv-x="813" 
d="M453 117l-383 479l383 469h301l-381 -469l381 -479h-301z" />
    <glyph glyph-name="guilsinglright" unicode="&#x203a;" horiz-adv-x="813" 
d="M362 1065l381 -469l-381 -477h-301l381 477l-381 469h301z" />
    <glyph glyph-name="uni2042" unicode="&#x2042;" horiz-adv-x="1445" 
d="M422 1214l41 115l121 -41q60 -18 88 -41q-10 45 -10 96v132h122v-132q0 -62 -10 -96q43 30 86 43l123 41l41 -117l-123 -43q-65 -20 -98 -20q31 -20 69 -70l80 -106l-100 -74l-76 105q-40 45 -53 90q-11 -39 -51 -90l-78 -105l-102 74l81 106q2 2 12.5 14t12.5 14.5
t10.5 11.5t12.5 12.5t10.5 8.5t13.5 9q-35 0 -100 20zM37 612l41 115l121 -41q60 -18 88 -41q-11 49 -11 96v131h123v-131q0 -62 -10 -96q43 30 86 43l123 41l41 -117l-123 -43q-65 -20 -98 -20q31 -20 69 -70l80 -106l-100 -74l-76 104q-39 45 -53 91q-12 -40 -51 -91
l-78 -104l-103 74l82 106q2 2 12.5 14t12.5 14.5t10.5 11.5t12.5 12.5t10.5 8.5t13.5 9q-35 0 -100 20zM807 612l41 115l121 -41q60 -18 88 -41q-10 45 -10 96v131h122v-131q0 -62 -10 -96q43 30 86 43l123 41l41 -117l-123 -43q-65 -20 -98 -20q31 -20 69 -70l80 -106
l-100 -74l-76 104q-39 45 -53 91q-12 -40 -51 -91l-78 -104l-102 74l81 106q2 2 12.5 14t12.5 14.5t10.5 11.5t12.5 12.5t10.5 8.5t13.5 9q-35 0 -100 20z" />
    <glyph glyph-name="fraction" unicode="&#x2044;" horiz-adv-x="395" 
d="M-362 0l935 1475h185l-938 -1475h-182z" />
    <glyph glyph-name="Euro" unicode="&#x20ac;" horiz-adv-x="1312" 
d="M854 252q158 0 254 78l149 -236q-177 -119 -405 -119q-251 0 -431.5 135t-248.5 365h-143v197h108q-2 20 -2 63q0 45 2 68h-108v196h143q70 229 250 362.5t430 133.5q228 0 405 -119l-149 -233q-100 78 -254 78q-123 0 -213.5 -58t-140.5 -164h452l-22 -196h-481
q-3 -34 -3 -68q0 -33 3 -63h469l-19 -197h-401q50 -107 141.5 -165t214.5 -58z" />
    <glyph glyph-name="uni2116" unicode="&#x2116;" horiz-adv-x="2469" 
d="M1507 1069q0 192 116 310t306 118t305 -117.5t115 -310.5q0 -191 -115 -308.5t-305 -117.5t-306 117.5t-116 308.5zM139 0v1475h246l678 -947v947h285v-1475h-246l-678 944v-944h-285zM1739 1071q0 -99 52 -154t140 -55q90 0 140.5 56.5t50.5 152.5q0 98 -52 153.5
t-139 55.5q-90 0 -141 -56.5t-51 -152.5zM1604 330v219h649v-219h-649z" />
    <glyph glyph-name="uni2117" unicode="&#x2117;" horiz-adv-x="1062" 
d="M981 1044q0 -189 -129.5 -319.5t-321.5 -130.5q-188 0 -318 131.5t-130 318.5q0 185 130.5 318t317.5 133q126 0 230 -61t162.5 -164t58.5 -226zM530 1376q-144 0 -235.5 -96.5t-91.5 -235.5t91.5 -235t235.5 -96q149 0 240.5 95t91.5 236q0 139 -92.5 235.5t-239.5 96.5
zM494 956h77q72 0 117 39.5t45 110.5q0 66 -42.5 108.5t-110.5 42.5h-195v-434h109v133zM557 1165q31 0 49.5 -15t18.5 -44q0 -28 -19 -43.5t-49 -15.5h-63v118h63z" />
    <glyph glyph-name="trademark" unicode="&#x2122;" horiz-adv-x="1335" 
d="M57 1323v152h514v-152h-174v-451h-168v451h-172zM946 1032l164 443h154v-603h-150v197q0 89 12 135l-116 -332h-127l-119 332q12 -35 12 -135v-197h-149v603h153z" />
    <glyph glyph-name="estimated" unicode="&#x212e;" horiz-adv-x="1642" 
d="M127 743q2 219 90.5 390.5t246.5 266.5t359 95q203 0 358.5 -82t243.5 -240t88 -370q3 -56 0 -113h-1175v-379q84 -118 214 -181.5t296 -63.5q162 0 298 76.5t204 203.5l80 -31q-77 -155 -232.5 -244t-353.5 -89q-213 0 -376.5 95t-253 268.5t-87.5 397.5zM338 1149v-381
h967v420q-80 108 -206 167t-276 56q-155 -3 -280 -72t-205 -190z" />
    <glyph glyph-name="oneeighth" unicode="&#x215b;" horiz-adv-x="1560" 
d="M211 713v602l-172 -80v154l172 86h158v-762h-158zM1073 1475h184l-938 -1475h-182zM1409 416q48 -27 78.5 -73.5t30.5 -104.5q0 -110 -80 -179t-211 -69q-128 0 -208.5 68t-80.5 175q0 58 32 108.5t81 74.5q-74 51 -74 147q0 91 69.5 149t182.5 58q112 0 183 -58.5
t71 -150.5q0 -94 -74 -145zM1231 645q-45 0 -75 -26t-30 -64q0 -40 29.5 -66t75.5 -26q43 0 71.5 26t28.5 66q0 38 -28.5 64t-71.5 26zM1231 119q57 0 93 33t36 86q0 51 -36 81.5t-93 30.5q-59 0 -95 -30.5t-36 -81.5q0 -53 36.5 -86t94.5 -33z" />
    <glyph glyph-name="threeeighths" unicode="&#x215c;" horiz-adv-x="1697" 
d="M590 930q0 -102 -75.5 -165t-192.5 -63q-130 0 -203.5 72.5t-73.5 192.5h150q-1 -64 32.5 -95.5t87.5 -31.5q50 0 81.5 26.5t31.5 69.5q0 42 -30 69t-81 27h-65v129h63q48 0 77.5 24.5t29.5 67.5q0 45 -29.5 70t-73.5 25q-55 0 -90 -32t-34 -95h-148q0 119 73.5 191.5
t203.5 72.5q115 0 188.5 -60t73.5 -163q0 -117 -97 -166q49 -21 75 -65t26 -101zM1210 1475h185l-938 -1475h-183zM1544 416q48 -27 78.5 -73.5t30.5 -104.5q0 -110 -80 -179t-211 -69q-128 0 -208.5 68t-80.5 175q0 58 32 108.5t81 74.5q-74 51 -74 147q0 91 69.5 149
t182.5 58q112 0 183 -58.5t71 -150.5q0 -94 -74 -145zM1366 645q-45 0 -74.5 -25.5t-29.5 -64.5q0 -40 29 -66t75 -26q43 0 71.5 26t28.5 66q0 38 -28.5 64t-71.5 26zM1366 119q57 0 93 33t36 86q0 51 -36 81.5t-93 30.5q-59 0 -95 -30.5t-36 -81.5q0 -53 36.5 -86t94.5 -33
z" />
    <glyph glyph-name="fiveeighths" unicode="&#x215d;" horiz-adv-x="1703" 
d="M612 977q0 -126 -81 -200.5t-207 -74.5q-115 0 -196.5 66t-84.5 188h150q3 -54 37.5 -85t88.5 -31q59 0 94.5 37t35.5 98q0 60 -36 97.5t-94 37.5q-49 0 -81.5 -24.5t-40.5 -55.5h-148l78 445h440v-138h-311l-27 -131q45 33 123 33q118 0 189 -71.5t71 -190.5zM1217 1475
h184l-938 -1475h-182zM1550 416q48 -27 78.5 -73.5t30.5 -104.5q0 -110 -80 -179t-211 -69q-128 0 -208.5 68t-80.5 175q0 58 32 108.5t81 74.5q-74 51 -74 147q0 91 69.5 149t182.5 58q112 0 183 -58.5t71 -150.5q0 -94 -74 -145zM1372 645q-45 0 -74.5 -25.5t-29.5 -64.5
q0 -40 29 -66t75 -26q43 0 72 26t29 66q0 38 -29 64t-72 26zM1372 119q57 0 93 33t36 86q0 51 -36 81.5t-93 30.5q-59 0 -95 -30.5t-36 -81.5q0 -53 36.5 -86t94.5 -33z" />
    <glyph glyph-name="seveneighths" unicode="&#x215e;" horiz-adv-x="1622" 
d="M272 713h-159q18 149 85.5 312.5t168.5 311.5h-347v138h533v-134q-117 -143 -189.5 -307.5t-91.5 -320.5zM1135 1475h184l-938 -1475h-182zM1468 416q48 -27 78.5 -73.5t30.5 -104.5q0 -110 -80 -179t-211 -69q-128 0 -208.5 68t-80.5 175q0 58 32 108.5t81 74.5
q-74 51 -74 147q0 91 69.5 149t182.5 58q112 0 183 -58.5t71 -150.5q0 -94 -74 -145zM1290 645q-45 0 -74.5 -25.5t-29.5 -64.5q0 -40 29 -66t75 -26q43 0 72 26t29 66q0 38 -29 64t-72 26zM1290 119q57 0 93 33t36 86q0 51 -36 81.5t-93 30.5q-59 0 -95 -30.5t-36 -81.5
q0 -53 36.5 -86t94.5 -33z" />
    <glyph glyph-name="uni2160" unicode="&#x2160;" horiz-adv-x="1081" 
d="M958 1284h-274v-1094h274v-190h-835v190h276v1094h-276v191h835v-191z" />
    <glyph glyph-name="uni2161" unicode="&#x2161;" horiz-adv-x="1716" 
d="M1593 0h-1470v190h266v1094h-266v191h1470v-191h-264v-1094h264v-190zM1042 1284h-366v-1094h366v1094z" />
    <glyph glyph-name="uni2162" unicode="&#x2162;" horiz-adv-x="2402" 
d="M2279 0h-2156v197h276v1081h-276v197h2156v-197h-276v-1081h276v-197zM684 197h373v1081h-373v-1081zM1716 1278h-373v-1081h373v1081z" />
    <glyph glyph-name="uni2163" unicode="&#x2163;" horiz-adv-x="2439" 
d="M2316 -2h-2193v197h305v1083h-305v197h2193v-197h-205l-354 -1083h559v-197zM713 195h508l-357 1083h-151v-1083zM1815 1278h-650l326 -1034z" />
    <glyph glyph-name="uni2164" unicode="&#x2164;" horiz-adv-x="1873" 
d="M1751 1278h-188l-357 -1083h541v-195h-1616v195h545l-357 1083h-196v197h1628v-197zM1266 1278h-650l324 -1034z" />
    <glyph glyph-name="uni2165" unicode="&#x2165;" horiz-adv-x="2441" 
d="M2318 0h-2195v197h567l-356 1081h-211v197h2193v-197h-278v-1081h280v-197zM1276 1278h-645l321 -1028zM1217 197h532v1081h-176z" />
    <glyph glyph-name="uni2166" unicode="&#x2166;" horiz-adv-x="3051" 
d="M2929 0h-2806v197h551l-355 1081h-196v197h2802v-197h-281v-1081h283zM1260 1278h-644l322 -1028zM1200 197h533v1081h-177zM2357 1278h-336v-1081h336v1081z" />
    <glyph glyph-name="uni2167" unicode="&#x2167;" horiz-adv-x="3688" 
d="M3566 0h-3443v197h534l-346 1081h-188v197h3441v-197h-277v-1081h279v-197zM1231 1278h-623l312 -1026zM1184 197h540v1081h-196zM2011 197h352v1081h-352v-1081zM2650 197h352v1081h-352v-1081z" />
    <glyph glyph-name="uni2168" unicode="&#x2168;" horiz-adv-x="2308" 
d="M2185 0h-2062v195h270v1083h-270v197h2062v-197h-168l-397 -555l383 -528h182v-195zM840 1278h-162v-1083h170l389 530zM1430 887l274 391h-547zM1161 195h522l-260 370z" />
    <glyph glyph-name="uni2169" unicode="&#x2169;" horiz-adv-x="1845" 
d="M1722 1278h-211l-395 -553l381 -530h225v-195h-1599v195h221l387 532l-397 551h-211v197h1599v-197zM922 885l274 393h-543zM655 195h523l-260 370z" />
    <glyph glyph-name="arrowleft" unicode="&#x2190;" horiz-adv-x="1748" 
d="M801 1233l104 -105l-508 -507h1229v-140h-1229l504 -504l-100 -100l-678 678z" />
    <glyph glyph-name="arrowup" unicode="&#x2191;" horiz-adv-x="1605" 
d="M123 825l676 672l684 -672l-101 -98l-512 500v-1227h-141v1229l-508 -502z" />
    <glyph glyph-name="arrowright" unicode="&#x2192;" horiz-adv-x="1748" 
d="M946 1231l680 -678l-680 -678l-102 105l506 507l-1227 -2v142h1227l-502 506z" />
    <glyph glyph-name="arrowdown" unicode="&#x2193;" horiz-adv-x="1601" 
d="M1479 582l-678 -678l-678 678l104 106l508 -508v1227h139v-1229l506 504z" />
    <glyph glyph-name="arrowboth" unicode="&#x2194;" horiz-adv-x="2048" 
d="M1444 61v205l209 215l-766 -2v2l-492 -2l215 -217v-203l-487 492l485 491v-208l-213 -213l488 4v2h288v-2l482 -2l-211 213v206l483 -489z" />
    <glyph glyph-name="arrowupdn" unicode="&#x2195;" horiz-adv-x="1226" 
d="M682 -80l215 213h207l-494 -487l-487 487h203l215 -215l-2 488v290l2 482l-215 -213h-203l487 485l494 -485h-207l-215 213v-1258z" />
    <glyph glyph-name="uni2196" unicode="&#x2196;" horiz-adv-x="1355" 
d="M1081 1108v-150h-716l868 -866l-100 -100l-869 868v-713h-141v961h958z" />
    <glyph glyph-name="uni2197" unicode="&#x2197;" horiz-adv-x="1359" 
d="M279 1110h958v-958h-147v716l-869 -868l-98 100l868 869h-712v141z" />
    <glyph glyph-name="uni2198" unicode="&#x2198;" horiz-adv-x="1355" 
d="M1233 958v-958h-959v147h717l-868 867l100 100l869 -866v710h141z" />
    <glyph glyph-name="uni2199" unicode="&#x2199;" horiz-adv-x="1359" 
d="M1081 0h-958v958h147v-716l867 868l100 -100l-866 -869h710v-141z" />
    <glyph glyph-name="partialdiff" unicode="&#x2202;" horiz-adv-x="1263" 
d="M733 1475q204 -123 334.5 -351.5t130.5 -494.5q0 -133 -35 -248t-103.5 -205.5t-180.5 -143t-256 -52.5q-249 0 -399 147t-150 389q0 146 58.5 264t173.5 189.5t267 72.5q83 1 152 -23t106 -67q-41 93 -96.5 169t-132 141t-137 107t-160.5 104zM625 238q118 0 188 78
t70 200q0 125 -72.5 198.5t-187.5 71.5q-116 0 -185 -75.5t-69 -198.5t69.5 -198.5t186.5 -75.5z" />
    <glyph glyph-name="emptyset" unicode="&#x2205;" horiz-adv-x="1280" 
d="M1198 1018l-139 -146q100 -146 100 -337q0 -237 -148 -393t-382 -156q-183 0 -320 100l-137 -143l-111 108l140 148q-101 147 -101 336q0 157 66.5 282t187.5 195.5t275 70.5q181 0 319 -98l135 141zM365 532q0 -76 24 -137l381 402q-61 39 -141 39q-123 0 -193.5 -87
t-70.5 -217zM895 532q0 78 -27 142l-381 -402q61 -39 142 -39q125 0 195.5 85.5t70.5 213.5z" />
    <glyph glyph-name="product" unicode="&#x220f;" horiz-adv-x="1482" 
d="M1389 1475v-261h-226v-1216h-274v1216h-307v-1216h-275v1216h-213v261h1295z" />
    <glyph glyph-name="summation" unicode="&#x2211;" horiz-adv-x="1218" 
d="M94 -123v242l414 543l-414 567v246h1030v-263l-696 5l406 -560l-410 -518l700 -2v-260h-1030z" />
    <glyph glyph-name="minus" unicode="&#x2212;" 
d="M133 805h963v-258h-963v258z" />
    <glyph glyph-name="radical" unicode="&#x221a;" horiz-adv-x="1783" 
d="M1790 1720v-247h-467l-633 -1684h-266l-299 795h268l164 -439l590 1575h643z" />
    <glyph glyph-name="infinity" unicode="&#x221e;" horiz-adv-x="2031" 
d="M553 90q-198 0 -333.5 128.5t-135.5 324.5q0 129 62.5 234t170.5 164.5t238 59.5q265 0 459 -266q198 266 461 266q198 0 333.5 -131.5t135.5 -326.5t-134 -324t-333 -129q-268 0 -463 260q-191 -260 -461 -260zM571 348q81 0 150.5 48t148.5 149q-79 99 -148 146.5
t-151 47.5q-90 0 -147 -57t-57 -137t58 -138.5t146 -58.5zM1456 348q90 0 148.5 58t58.5 139q0 80 -58.5 137t-148.5 57q-81 0 -150 -47.5t-147 -146.5q80 -100 148 -148.5t149 -48.5z" />
    <glyph glyph-name="integral" unicode="&#x222b;" horiz-adv-x="974" 
d="M653 1737h215v-262h-209q-61 0 -61 -62v-1462q0 -156 -86 -247t-240 -91h-166v264h162q70 0 70 70l-4 1468q0 141 87 231.5t232 90.5z" />
    <glyph glyph-name="approxequal" unicode="&#x2248;" 
d="M668 977q37 -33 53 -46t40 -23.5t50 -10.5q42 0 65.5 36.5t16.5 104.5h211q14 -159 -60.5 -261.5t-207.5 -102.5q-88 0 -147 29.5t-130 93.5q-4 4 -17.5 16t-17 15t-14.5 12.5t-15.5 12t-13.5 9t-15 8t-14.5 4.5t-16.5 4t-17 1q-42 0 -65.5 -37t-16.5 -105h-213
q-14 160 61 262.5t209 102.5q86 0 145 -30.5t130 -94.5zM668 498q37 -33 53 -46t40 -23.5t50 -10.5q42 0 65.5 36.5t16.5 104.5h211q14 -159 -60.5 -261.5t-207.5 -102.5q-88 0 -147.5 29.5t-129.5 92.5q-4 4 -17.5 16t-17 15t-14.5 12.5t-15.5 12t-13.5 9t-15 8t-14.5 4.5
t-16.5 4t-17 1q-42 0 -65.5 -36.5t-16.5 -104.5h-213q-14 160 61 262.5t209 102.5q86 0 145 -30.5t130 -94.5z" />
    <glyph glyph-name="notequal" unicode="&#x2260;" 
d="M1044 791h-282l-90 -228h370v-237h-462l-76 -195h-193l76 195h-201v237h293l90 228h-383v235h473l76 193h193l-76 -193h192v-235z" />
    <glyph glyph-name="lessequal" unicode="&#x2264;" 
d="M1053 1260v-271l-609 -205l609 -211v-264l-887 330v291zM166 258h887v-258h-887v258z" />
    <glyph glyph-name="greaterequal" unicode="&#x2265;" 
d="M176 309v264l608 213l-608 205v269l887 -328v-293zM1063 258v-258h-887v258h887z" />
    <glyph glyph-name="filledbox" unicode="&#x25a0;" horiz-adv-x="1640" 
d="M84 1475h1472v-1473h-1472v1473z" />
    <glyph glyph-name="uni25A1" unicode="&#x25a1;" horiz-adv-x="1642" 
d="M84 1475h1475v-1475h-1475v1475zM221 1337v-1200h1202v1200h-1202z" />
    <glyph glyph-name="triagup" unicode="&#x25b2;" horiz-adv-x="1961" 
d="M84 0h1792l-897 1481z" />
    <glyph glyph-name="uni25B3" unicode="&#x25b3;" horiz-adv-x="1953" 
d="M84 0l891 1475l893 -1475h-1784zM336 139h1282l-641 1061z" />
    <glyph glyph-name="lozenge" unicode="&#x25ca;" horiz-adv-x="1280" 
d="M528 0l-444 733l444 742h215l453 -742l-453 -733h-215zM1024 731l-385 647l-383 -647l383 -635z" />
    <glyph glyph-name="circle" unicode="&#x25cb;" horiz-adv-x="1691" 
d="M844 -20q-155 0 -295.5 60t-242.5 161.5t-162 243t-60 296.5q0 154 60.5 294.5t162.5 242.5t242.5 162.5t294.5 60.5q155 0 296.5 -60.5t243.5 -162.5t163 -242.5t61 -294.5q0 -155 -61 -296t-163.5 -242.5t-243.5 -162t-296 -60.5zM846 119q127 0 242.5 49t199 132.5
t133 198.5t49.5 242t-49.5 242.5t-133 199t-199 132.5t-242.5 49q-169 0 -313 -83t-228 -226.5t-84 -313.5q0 -127 49.5 -242.5t133.5 -198.5t199.5 -132t242.5 -49z" />
    <glyph glyph-name="uni25CF" unicode="&#x25cf;" horiz-adv-x="1703" 
d="M854 -41q-157 0 -299.5 61t-245.5 164t-164 245.5t-61 299.5q0 208 103 384t280.5 279t386.5 103q208 0 384.5 -103t279 -279t102.5 -384q0 -210 -102.5 -387t-278.5 -280t-385 -103z" />
    <glyph glyph-name="uni262E" unicode="&#x262e;" horiz-adv-x="1691" 
d="M844 -29q-209 0 -385 103t-278.5 280t-102.5 387q0 156 61 298.5t163.5 245t244.5 163.5t297 61q156 0 298.5 -61t246 -164t164.5 -245.5t61 -297.5t-61 -297.5t-164.5 -246t-246 -165t-298.5 -61.5zM264 479l512 316v579q-159 -17 -289.5 -105.5t-205 -228t-74.5 -299.5
q0 -136 57 -262zM1430 481q55 119 55 260q0 160 -74 298.5t-204 227.5t-289 107v-581zM776 106v523l-440 -273q79 -105 194 -171t246 -79zM918 106q131 15 245 81t193 171l-438 269v-521z" />
    <glyph glyph-name="uni2713" unicode="&#x2713;" horiz-adv-x="1517" 
d="M1397 1186l123 -127l-926 -885l-465 522l135 125l338 -377z" />
    <glyph glyph-name="uniA7B6" unicode="&#xa7b6;" horiz-adv-x="1589" 
d="M1221 242h247v-242h-583v240q107 87 188.5 236.5t81.5 320.5q0 197 -96 304t-264 105t-264.5 -108t-96.5 -301q0 -94 24 -182.5t65 -158t86.5 -123t95.5 -93.5v-240h-592v242h256q-109 128 -174.5 288t-65.5 310q0 302 178.5 477.5t487.5 175.5t487 -175t178 -478
q0 -151 -65.5 -311t-173.5 -287z" />
    <glyph glyph-name="i.loclTRK" horiz-adv-x="526" 
d="M115 1229v276h291v-276h-291zM119 0v1065h287v-1065h-287z" />
    <glyph glyph-name="f_f_t" horiz-adv-x="2174" 
d="M2107 811h-243v-432q0 -71 24.5 -99t93.5 -28h123v-252h-215q-156 0 -235.5 83t-79.5 232v496h-393v-811h-289v811h-406v-811h-288v811h-164v254h164v137q0 164 84.5 251t277.5 87h170v-233h-106q-81 0 -109.5 -34t-28.5 -99v-109h406v137q0 164 84.5 251t277.5 87h156
v-233h-92q-81 0 -109 -34t-28 -99v-109h295q98 0 98 104v187h289v-291h243v-254z" />
    <glyph glyph-name="f_t" horiz-adv-x="1480" 
d="M1411 811h-244v-432q0 -71 25.5 -99t95.5 -28h123v-252h-217q-155 0 -234 83.5t-79 231.5v496h-394v-811h-288v811h-164v254h164v137q0 164 84.5 251t277.5 87h170v-233h-106q-81 0 -109.5 -34t-28.5 -99v-109h310q48 0 66 24t18 80v187h286v-291h244v-254z" />
    <glyph glyph-name="t_t" horiz-adv-x="1470" 
d="M1403 809h-244v-426q0 -71 25 -99t94 -28h125l-2 -256h-215q-155 0 -235.5 84.5t-80.5 230.5v494h-403v-426q0 -71 25.5 -99t95.5 -28h123v-256h-217q-154 0 -234 85t-80 230v494h-164v256h78q48 0 67 26t19 83v188h287v-297h317q48 0 67 26t19 83v188h289v-297h244v-256
z" />
    <glyph glyph-name="zero.tf" horiz-adv-x="1331" 
d="M662 1495q189 0 327 -97.5t208.5 -268t70.5 -392.5t-70.5 -392t-208.5 -267.5t-327 -97.5q-142 0 -255.5 56t-187.5 157t-113.5 239.5t-39.5 304.5q0 223 67.5 392.5t204 267.5t324.5 98zM662 1257q-148 0 -228 -138t-80 -382q0 -172 39 -288l455 729q-76 79 -186 79z
M662 217q148 0 230.5 137.5t82.5 382.5q0 159 -39 281l-455 -727q71 -74 181 -74z" />
    <glyph glyph-name="one.tf" horiz-adv-x="1331" 
d="M864 268h353v-268h-1029v268h392v916l-383 -158v283l383 166h284v-1207z" />
    <glyph glyph-name="two.tf" horiz-adv-x="1331" 
d="M893 547l-336 -279h617v-268h-1014v260l549 469q92 81 133.5 141t42.5 134q3 107 -59.5 166t-170.5 59q-103 0 -169.5 -66.5t-69.5 -173.5h-279q3 158 75 274.5t187.5 174t257.5 57.5q232 0 380.5 -123.5t148.5 -343.5q0 -78 -21 -145.5t-64 -126.5t-90.5 -105.5
t-117.5 -103.5z" />
    <glyph glyph-name="three.tf" horiz-adv-x="1331" 
d="M967 758q112 -37 175.5 -127.5t63.5 -212.5q0 -202 -149 -320t-387 -118q-251 0 -398 137t-147 362h281q0 -124 70 -189t181 -65q113 0 177.5 56t64.5 149q0 95 -62 150t-184 55h-123v225h113q112 0 174 52t62 145t-61.5 143.5t-162.5 50.5q-113 0 -182.5 -64.5
t-66.5 -189.5h-271q0 227 140 362.5t389 135.5q228 0 370 -112.5t142 -307.5q0 -104 -55.5 -188.5t-153.5 -128.5z" />
    <glyph glyph-name="four.tf" horiz-adv-x="1331" 
d="M764 0v270h-682v252l668 953h305v-953h194v-252h-194v-270h-291zM369 522h395v549z" />
    <glyph glyph-name="five.tf" horiz-adv-x="1331" 
d="M707 1016q224 0 364.5 -139.5t140.5 -368.5q0 -243 -156.5 -385.5t-398.5 -142.5q-107 0 -201 30t-169 87.5t-120 150t-48 209.5h274q6 -106 76 -169t180 -63q118 0 190 76.5t72 202.5q0 125 -71.5 202.5t-190.5 77.5q-93 0 -159 -48.5t-87 -110.5h-270l154 850h850v-248
h-631l-62 -289q92 78 263 78z" />
    <glyph glyph-name="six.tf" horiz-adv-x="1331" 
d="M717 1018q102 0 192 -33.5t160 -96t111 -160.5t41 -218q0 -122 -42 -222.5t-114.5 -166.5t-170 -102.5t-208.5 -36.5q-88 0 -167.5 22t-155.5 75t-131.5 134t-89 207.5t-33.5 286.5q0 240 70 417t207 274t327 97q202 0 343 -107.5t167 -291.5h-277q-52 151 -244 151
q-144 0 -220.5 -97t-78.5 -257q50 60 131.5 92.5t182.5 32.5zM678 227q120 0 194 79t74 202q0 124 -73.5 201t-194.5 77q-120 0 -195 -75.5t-75 -200.5t75 -204t195 -79z" />
    <glyph glyph-name="seven.tf" horiz-adv-x="1331" 
d="M840 1225h-688v250h1028v-232q-226 -284 -368 -611t-181 -632h-285q36 292 168 615t326 610z" />
    <glyph glyph-name="eight.tf" horiz-adv-x="1331" 
d="M1020 795q90 -49 147.5 -141t57.5 -203q0 -208 -153.5 -339.5t-407.5 -131.5q-250 0 -404 129t-154 335q0 110 57.5 205.5t149.5 147.5q-66 46 -109.5 124.5t-43.5 174.5q0 178 142 288.5t364 110.5q224 0 366 -111t142 -290q0 -95 -43.5 -173t-110.5 -126zM668 1278
q-104 0 -168 -53.5t-64 -139.5q0 -88 64 -141t168 -53q103 0 166 53t63 141q0 86 -63 139.5t-166 53.5zM668 219q121 0 195.5 63.5t74.5 166.5q0 99 -74.5 160t-195.5 61t-197 -61.5t-76 -159.5q0 -103 75.5 -166.5t197.5 -63.5z" />
    <glyph glyph-name="nine.tf" horiz-adv-x="1331" 
d="M657 1495q63 0 121.5 -12t115.5 -39t105.5 -68t90 -101.5t71 -136t46 -176t16.5 -217.5q0 -362 -144 -562.5t-436 -200.5q-219 0 -354.5 108t-163.5 291h276q21 -78 88.5 -118t155.5 -40q136 0 207.5 90t71.5 236v26q-104 -120 -308 -120q-100 0 -190.5 34t-161.5 97
t-113 161.5t-42 219.5q0 161 72 282t195.5 183.5t280.5 62.5zM651 688q119 0 194.5 76.5t76.5 200.5q0 125 -75.5 204.5t-195.5 79.5t-194 -79t-74 -203t73.5 -201.5t194.5 -77.5z" />
    <glyph glyph-name="zero.dnom" horiz-adv-x="749" 
d="M373 770q-153 0 -238.5 -107.5t-85.5 -281.5q0 -175 85.5 -283t238.5 -108t240 108.5t87 282.5q0 173 -87 281t-240 108zM543 381q0 -117 -45 -180.5t-125 -63.5t-122 63t-42 181q0 117 42.5 179.5t121.5 62.5q80 0 125 -63t45 -179z" />
    <glyph glyph-name="one.dnom" horiz-adv-x="456" 
d="M369 0h-158v604l-172 -80v152l172 84h158v-760z" />
    <glyph glyph-name="two.dnom" horiz-adv-x="634" 
d="M459 285l-162 -135h293v-150h-520v147l276 232q41 36 63 67t23 70q1 53 -28.5 80t-81.5 27t-85 -32t-34 -85h-154q1 124 79 194t196 70q121 0 198 -65.5t78 -180.5q0 -76 -38 -130.5t-103 -108.5z" />
    <glyph glyph-name="three.dnom" horiz-adv-x="636" 
d="M489 383q49 -21 75 -65.5t26 -102.5q0 -100 -75.5 -162.5t-192.5 -62.5q-130 0 -203.5 71.5t-73.5 190.5h150q-1 -62 33 -93.5t87 -31.5q50 0 81.5 26.5t31.5 69.5q0 42 -30 69t-81 27h-65v130h63q48 0 77.5 24.5t29.5 67.5q0 44 -30 69t-73 25q-55 0 -90 -32t-34 -95
h-148q0 119 73.5 190.5t203.5 71.5q116 0 189 -59t73 -162q0 -117 -97 -166z" />
    <glyph glyph-name="four.dnom" horiz-adv-x="684" 
d="M387 0v137h-352v135l344 488h162v-486h108v-137h-108v-137h-154zM205 274h182v273z" />
    <glyph glyph-name="five.dnom" horiz-adv-x="643" 
d="M352 526q118 0 189 -71t71 -191q0 -127 -81 -200.5t-207 -73.5q-116 0 -197 65.5t-84 188.5h150q3 -54 37.5 -86.5t88.5 -32.5q58 0 94 37.5t36 99.5q0 60 -36 97.5t-94 37.5q-49 0 -81.5 -24.5t-40.5 -55.5h-148l78 443h440v-135h-311l-29 -133q49 34 125 34z" />
    <glyph glyph-name="six.dnom" horiz-adv-x="679" 
d="M369 526q108 0 185 -70t77 -192q0 -125 -80.5 -199.5t-198.5 -74.5q-44 0 -84.5 11t-80.5 38t-69 68.5t-47 107.5t-18 150q0 187 82.5 296t231.5 109q107 0 180.5 -56.5t85.5 -152.5h-152q-12 36 -44.5 55t-76.5 19q-68 0 -104.5 -46t-38.5 -120q51 57 152 57zM348 127
q58 0 94.5 38t36.5 97q0 60 -36.5 97.5t-94.5 37.5q-57 0 -93 -36.5t-36 -96.5q0 -61 35.5 -99t93.5 -38z" />
    <glyph glyph-name="seven.dnom" horiz-adv-x="573" 
d="M367 625h-347v135h533v-131q-117 -143 -189.5 -308t-91.5 -321h-159q19 149 86 313t168 312z" />
    <glyph glyph-name="eight.dnom" horiz-adv-x="667" 
d="M514 416q48 -27 78.5 -73.5t30.5 -104.5q0 -110 -80 -179t-211 -69q-128 0 -208.5 68t-80.5 175q0 58 32 108.5t81 74.5q-74 51 -74 147q0 91 69.5 149t182.5 58q112 0 183 -58.5t71 -150.5q0 -94 -74 -145zM336 645q-45 0 -75 -26t-30 -64q0 -40 29.5 -66t75.5 -26
q43 0 71.5 26t28.5 66q0 38 -28.5 64t-71.5 26zM336 119q57 0 93 33t36 86q0 51 -36 81.5t-93 30.5q-59 0 -95 -30.5t-36 -81.5q0 -53 36.5 -86t94.5 -33z" />
    <glyph glyph-name="nine.dnom" horiz-adv-x="684" 
d="M342 770q46 0 85.5 -10.5t78.5 -38t66 -70.5t44 -112t17 -158q0 -187 -75.5 -289t-227.5 -102q-116 0 -185.5 57.5t-83.5 153.5h152q8 -37 42 -56.5t77 -19.5q68 -1 103 45t32 121q-52 -58 -152 -58q-106 0 -183 71t-77 194q0 126 81 199t206 73zM336 365q58 0 94.5 36.5
t36.5 96.5q0 61 -37 100t-94 39q-58 0 -94.5 -38.5t-36.5 -100.5q0 -59 36.5 -96t94.5 -37z" />
    <glyph glyph-name="zero.numr" horiz-adv-x="749" 
d="M373 1485q-153 0 -238.5 -108.5t-85.5 -282.5t85.5 -283t238.5 -109t241 109.5t88 282.5t-88 282t-241 109zM543 1094q0 -116 -45 -180t-125 -64q-79 0 -121.5 63.5t-42.5 180.5t42.5 180t121.5 63q80 0 125 -63.5t45 -179.5z" />
    <glyph glyph-name="one.numr" horiz-adv-x="456" 
d="M369 713h-158v602l-172 -80v154l172 86h158v-762z" />
    <glyph glyph-name="two.numr" horiz-adv-x="634" 
d="M459 997l-162 -135h293v-149h-520v147l276 232q41 36 63 67t23 70q1 54 -28.5 81t-81.5 27q-51 0 -84.5 -32t-34.5 -86h-154q1 125 79.5 195.5t195.5 70.5q121 0 198 -66.5t78 -181.5q0 -74 -38.5 -130.5t-102.5 -109.5z" />
    <glyph glyph-name="three.numr" horiz-adv-x="636" 
d="M489 1096q49 -21 75 -65t26 -101q0 -102 -75.5 -165t-192.5 -63q-130 0 -203.5 72.5t-73.5 192.5h150q-1 -64 32.5 -95.5t87.5 -31.5q50 0 81.5 26.5t31.5 69.5q0 42 -30 69t-81 27h-65v129h63q48 0 77.5 24.5t29.5 67.5q0 45 -29.5 70t-73.5 25q-55 0 -90 -32t-34 -95
h-148q0 119 73.5 191.5t203.5 72.5q115 0 188.5 -60t73.5 -163q0 -117 -97 -166z" />
    <glyph glyph-name="four.numr" horiz-adv-x="684" 
d="M387 713v137h-352v135l344 490h162v-488h108v-137h-108v-137h-154zM205 987h182v273z" />
    <glyph glyph-name="five.numr" horiz-adv-x="643" 
d="M352 1239q118 0 189 -71.5t71 -190.5q0 -126 -81 -200.5t-207 -74.5q-115 0 -196.5 66t-84.5 188h150q3 -54 37.5 -85t88.5 -31q59 0 94.5 37t35.5 98q0 60 -36 97.5t-94 37.5q-49 0 -81.5 -24.5t-40.5 -55.5h-148l78 445h440v-138h-311l-27 -131q45 33 123 33z" />
    <glyph glyph-name="six.numr" horiz-adv-x="679" 
d="M369 1239q108 0 185 -70t77 -192q0 -125 -80.5 -200t-198.5 -75q-56 0 -106 19t-95 60t-71.5 117t-26.5 179q0 187 82.5 297.5t231.5 110.5q107 0 180.5 -57.5t85.5 -153.5h-152q-12 36 -44.5 55t-76.5 19q-70 0 -108.5 -47.5t-38.5 -122.5q52 61 156 61zM348 840
q58 0 94.5 38.5t36.5 98.5t-36 96.5t-95 36.5q-58 0 -93.5 -36t-35.5 -97t35.5 -99t93.5 -38z" />
    <glyph glyph-name="seven.numr" horiz-adv-x="573" 
d="M367 1337h-347v138h533v-134q-117 -143 -189.5 -307.5t-91.5 -320.5h-159q18 149 85.5 312.5t168.5 311.5z" />
    <glyph glyph-name="eight.numr" horiz-adv-x="667" 
d="M514 1128q48 -27 78.5 -73.5t30.5 -104.5q0 -110 -80 -179t-211 -69q-128 0 -208.5 68.5t-80.5 177.5q0 57 32 106.5t81 73.5q-74 51 -74 148q0 92 69.5 150.5t182.5 58.5t183.5 -58.5t70.5 -152.5q0 -95 -74 -146zM336 1360q-45 0 -75 -26t-30 -64q0 -41 29.5 -67.5
t75.5 -26.5q43 0 71.5 26.5t28.5 67.5q0 38 -28.5 64t-71.5 26zM336 834q57 0 93 32t36 84q0 51 -36 82t-93 31q-59 0 -95 -31t-36 -82q0 -52 36 -84t95 -32z" />
    <glyph glyph-name="nine.numr" horiz-adv-x="684" 
d="M342 1485q58 0 106.5 -18.5t92 -61t68 -122t24.5 -189.5q0 -188 -75.5 -290t-227.5 -102q-116 0 -185.5 57.5t-83.5 153.5h152q8 -37 42 -56t77 -19q68 0 103 45.5t32 120.5q-55 -58 -152 -58q-107 0 -184.5 70.5t-77.5 193.5q0 126 82 200.5t207 74.5zM336 1077
q58 0 94.5 36.5t36.5 96.5q0 61 -37 100.5t-94 39.5q-58 0 -94.5 -39t-36.5 -101q0 -59 36.5 -96t94.5 -37z" />
    </font>
</defs>
</svg>
